<svg xmlns="http://www.w3.org/2000/svg" xmlns:xlink="http://www.w3.org/1999/xlink" viewBox="0 0 1521 808"><defs><style>.cls-1{fill:#fff;}.cls-2{fill:#ccc;}.cls-12,.cls-19,.cls-22,.cls-23,.cls-3,.cls-5{fill:#212121;}.cls-4{fill:#ff4d55;}.cls-5{font-size:10px;}.cls-12,.cls-19,.cls-23,.cls-5{font-family:Roboto-Regular, Roboto;}.cls-6{fill:#4c4c4d;}.cls-7{fill:#acacac;}.cls-8{fill:#83cd9b;}.cls-9{letter-spacing:-0.01em;}.cls-10{letter-spacing:0.02em;}.cls-11{fill:#efefef;}.cls-12{font-size:18px;}.cls-13{letter-spacing:-0.01em;}.cls-14{letter-spacing:-0.05em;}.cls-15{letter-spacing:-0.02em;}.cls-16{letter-spacing:-0.01em;}.cls-17{letter-spacing:-0.01em;}.cls-18{letter-spacing:0.01em;}.cls-19{font-size:24px;}.cls-20{letter-spacing:0.13em;}.cls-21,.cls-27{fill:#333;}.cls-22,.cls-24{font-size:14px;font-family:Roboto-Medium, Roboto;}.cls-23{font-size:22px;}.cls-25{fill:#1976d2;}.cls-26{letter-spacing:-0.05em;}.cls-27{font-size:36px;font-family:Roboto-Light, Roboto;}.cls-28{letter-spacing:-0.01em;}</style><symbol id="device" data-name="device" viewBox="0 0 1521 808"><rect class="cls-6" width="1521" height="808" rx="16" ry="16"/><rect class="cls-7" x="34.36" y="316.6" width="18.27" height="174.79" rx="9.14" ry="9.14"/><circle class="cls-7" cx="1476.54" cy="404" r="25"/><rect class="cls-1" x="87" y="36.5" width="1347" height="735" rx="4" ry="4"/></symbol><symbol id="top-bar" data-name="top-bar" viewBox="0 0 1347 101"><path class="cls-1" d="M4,0H1343a4,4,0,0,1,4,4v96a0,0,0,0,1,0,0H0a0,0,0,0,1,0,0V4A4,4,0,0,1,4,0Z"/><text class="cls-27" transform="translate(1030.63 61.52)">Couple #1345767</text><path class="cls-21" d="M39.66,54.8v2.4h24V54.8Zm0-6v2.4h24V48.8Zm0-6v2.4h24V42.8Z"/><rect class="cls-2" y="100" width="1347" height="1"/></symbol><symbol id="calendar-item" data-name="calendar-item" viewBox="0 0 137.71 70"><rect class="cls-1" x="0.5" y="0.5" width="136.71" height="69" rx="1.5" ry="1.5"/><path class="cls-2" d="M135.71,1a1,1,0,0,1,1,1V68a1,1,0,0,1-1,1H2a1,1,0,0,1-1-1V2A1,1,0,0,1,2,1H135.71m0-1H2A2,2,0,0,0,0,2V68a2,2,0,0,0,2,2H135.71a2,2,0,0,0,2-2V2a2,2,0,0,0-2-2Z"/><path class="cls-3" d="M23.89,12.85V10a13.93,13.93,0,0,0-7.47,3.1l2,2A11.22,11.22,0,0,1,23.89,12.85Zm-7.46,4.26-2-2a14,14,0,0,0-3.11,7.47h2.84A11.13,11.13,0,0,1,16.43,17.11Zm-2.27,8.28H11.32a13.91,13.91,0,0,0,3.11,7.46l2-2A11.1,11.1,0,0,1,14.16,25.39Zm2.26,9.46A14,14,0,0,0,23.89,38V35.11a11.12,11.12,0,0,1-5.48-2.27ZM39.32,24A14.05,14.05,0,0,1,26.76,38V35.11a11.23,11.23,0,0,0,0-22.26V10A14,14,0,0,1,39.32,24Z"/></symbol><symbol id="calendar-period" data-name="calendar-period" viewBox="0 0 137.71 70"><rect class="cls-4" x="0.5" y="0.5" width="136.71" height="69" rx="1.5" ry="1.5"/><path class="cls-2" d="M135.71,1a1,1,0,0,1,1,1V68a1,1,0,0,1-1,1H2a1,1,0,0,1-1-1V2A1,1,0,0,1,2,1H135.71m0-1H2A2,2,0,0,0,0,2V68a2,2,0,0,0,2,2H135.71a2,2,0,0,0,2-2V2a2,2,0,0,0-2-2Z"/><path class="cls-3" d="M23.89,12.85V10a13.93,13.93,0,0,0-7.47,3.1l2,2A11.22,11.22,0,0,1,23.89,12.85Zm-7.46,4.26-2-2a14,14,0,0,0-3.11,7.47h2.84A11.13,11.13,0,0,1,16.43,17.11Zm-2.27,8.28H11.32a13.91,13.91,0,0,0,3.11,7.46l2-2A11.1,11.1,0,0,1,14.16,25.39Zm2.26,9.46A14,14,0,0,0,23.89,38V35.11a11.12,11.12,0,0,1-5.48-2.27ZM39.32,24A14.05,14.05,0,0,1,26.76,38V35.11a11.23,11.23,0,0,0,0-22.26V10A14,14,0,0,1,39.32,24Z"/><text class="cls-5" transform="translate(71.86 15.13)">Menstruation</text></symbol><symbol id="fertile" data-name="fertile" viewBox="0 0 137.71 70"><rect class="cls-8" x="0.5" y="0.5" width="136.71" height="69" rx="1.5" ry="1.5"/><path class="cls-2" d="M135.71,1a1,1,0,0,1,1,1V68a1,1,0,0,1-1,1H2a1,1,0,0,1-1-1V2A1,1,0,0,1,2,1H135.71m0-1H2A2,2,0,0,0,0,2V68a2,2,0,0,0,2,2H135.71a2,2,0,0,0,2-2V2a2,2,0,0,0-2-2Z"/><path class="cls-3" d="M23.89,12.85V10a13.93,13.93,0,0,0-7.47,3.1l2,2A11.22,11.22,0,0,1,23.89,12.85Zm-7.46,4.26-2-2a14,14,0,0,0-3.11,7.47h2.84A11.13,11.13,0,0,1,16.43,17.11Zm-2.27,8.28H11.32a13.91,13.91,0,0,0,3.11,7.46l2-2A11.1,11.1,0,0,1,14.16,25.39Zm2.26,9.46A14,14,0,0,0,23.89,38V35.11a11.12,11.12,0,0,1-5.48-2.27ZM39.32,24A14.05,14.05,0,0,1,26.76,38V35.11a11.23,11.23,0,0,0,0-22.26V10A14,14,0,0,1,39.32,24Z"/><text class="cls-5" transform="translate(101.86 15.13)"><tspan class="cls-9">F</tspan><tspan x="5.42" y="0">e</tspan><tspan class="cls-10" x="10.72" y="0">r</tspan><tspan x="14.35" y="0">tile</tspan></text></symbol><symbol id="linear-view" data-name="linear-view" viewBox="0 0 1347 634"><path class="cls-11" d="M0,0H1347a0,0,0,0,1,0,0V630a4,4,0,0,1-4,4H4a4,4,0,0,1-4-4V0A0,0,0,0,1,0,0Z"/><text class="cls-12" transform="translate(178.36 31.4)">Sund<tspan class="cls-13" x="40.68" y="0">a</tspan><tspan x="50.34" y="0">y</tspan></text><text class="cls-12" transform="translate(338.76 31.4)">Mond<tspan class="cls-13" x="46.06" y="0">a</tspan><tspan x="55.72" y="0">y</tspan></text><text class="cls-12" transform="translate(503.11 31.4)"><tspan class="cls-14">T</tspan><tspan x="9.91" y="0">uesd</tspan><tspan class="cls-13" x="48.8" y="0">a</tspan><tspan x="58.46" y="0">y</tspan></text><text class="cls-12" transform="translate(661.08 31.4)"><tspan class="cls-15">W</tspan><tspan x="15.7" y="0">ednesd</tspan><tspan class="cls-13" x="74.29" y="0">a</tspan><tspan x="83.94" y="0">y</tspan></text><text class="cls-12" transform="translate(818.08 31.4)">Thursd<tspan class="cls-13" x="56.1" y="0">a</tspan><tspan x="65.76" y="0">y</tspan></text><text class="cls-12" transform="translate(979.49 31.4)"><tspan class="cls-16">F</tspan><tspan x="9.72" y="0">rid</tspan><tspan class="cls-13" x="30.33" y="0">a</tspan><tspan x="39.99" y="0">y</tspan></text><text class="cls-12" transform="translate(1142.54 31.4)">Satu<tspan class="cls-17" x="36.27" y="0">r</tspan><tspan x="42.2" y="0">d</tspan><tspan class="cls-13" x="52.35" y="0">a</tspan><tspan x="62.01" y="0">y</tspan></text><text class="cls-12" transform="translate(31.14 78.14)">Janua<tspan class="cls-18" x="49.37" y="0">r</tspan><tspan x="55.62" y="0">y</tspan></text><rect class="cls-3" x="120.28" y="50.49" width="2" height="165.16"/><text class="cls-19" transform="translate(130.77 78.97)">23</text><text class="cls-19" transform="translate(130.77 172.62)">30</text><text class="cls-12" transform="translate(32.05 285.24)"><tspan class="cls-9">F</tspan><tspan x="9.76" y="0">ebrua</tspan><tspan class="cls-18" x="55.2" y="0">r</tspan><tspan x="61.45" y="0">y</tspan></text><rect class="cls-3" x="120.02" y="258.3" width="2" height="354.46"/><text class="cls-19" transform="translate(130.52 285.35)">6</text><text class="cls-19" transform="translate(130.52 380.22)">13<tspan class="cls-20" x="26.95" y="0">	</tspan></text><text class="cls-19" transform="translate(130.52 474.87)">20</text><text class="cls-19" transform="translate(130.52 570.21)">27</text><path class="cls-21" d="M92.93,18.31l-8.41,8.41-8.41-8.41-2.59,2.6,11,11,11-11Z"/><path class="cls-21" d="M53.14,14.44H51.81V11.77H49.14v2.67H38.47V11.77H35.81v2.67H34.47a2.65,2.65,0,0,0-2.65,2.67V35.77a2.66,2.66,0,0,0,2.66,2.67H53.14a2.67,2.67,0,0,0,2.67-2.67V17.11A2.67,2.67,0,0,0,53.14,14.44Zm0,21.33H34.47V21.11H53.14Zm-16-12h6.67v6.67H37.14Z"/><use id="calendar-item-3" data-name="calendar-item" width="137.71" height="70" transform="translate(178.11 51)" xlink:href="#calendar-item"/><text class="cls-22" transform="translate(195.61 79.99)">21</text><use width="137.71" height="70" transform="translate(338.51 51)" xlink:href="#calendar-item"/><text class="cls-22" transform="translate(356 79.99)">22</text><use width="137.71" height="70" transform="translate(500.86 51)" xlink:href="#calendar-item"/><text class="cls-22" transform="translate(518.36 79.99)">23</text><use width="137.71" height="70" transform="translate(660.08 51)" xlink:href="#calendar-item"/><text class="cls-22" transform="translate(677.58 79.99)">24</text><use width="137.71" height="70" transform="translate(819.69 51)" xlink:href="#calendar-item"/><text class="cls-22" transform="translate(837.19 79.99)">25</text><use id="calendar-item-14" data-name="calendar-item" width="137.71" height="70" transform="translate(978.91 51)" xlink:href="#calendar-item"/><text class="cls-22" transform="translate(996.41 79.99)">26</text><use width="137.71" height="70" transform="translate(819.69 145.65)" xlink:href="#calendar-item"/><text class="cls-22" transform="translate(840.19 174.64)">6</text><use width="137.71" height="70" transform="translate(978.91 145.65)" xlink:href="#calendar-item"/><text class="cls-22" transform="translate(1000.41 174.64)">7</text><use id="calendar-item-21" data-name="calendar-item" width="137.71" height="70" transform="translate(1141.54 145.65)" xlink:href="#calendar-item"/><text class="cls-22" transform="translate(1163.04 174.64)">8</text><use width="137.71" height="70" transform="translate(1141.54 51)" xlink:href="#calendar-period"/><text class="cls-22" transform="translate(1163.06 79.99)">1</text><text class="cls-23" transform="translate(1223.4 107.46)">Sta<tspan class="cls-10" x="32.21" y="0">r</tspan><tspan x="40.19" y="0">t</tspan></text><use id="calendar-period-5" data-name="calendar-period" width="137.71" height="70" transform="translate(178.11 145.65)" xlink:href="#calendar-period"/><text class="cls-24" transform="translate(199.84 174.64)">2</text><use width="137.71" height="70" transform="translate(338.51 145.65)" xlink:href="#calendar-period"/><text class="cls-24" transform="translate(359.94 174.64)">3</text><use width="137.71" height="70" transform="translate(500.86 145.65)" xlink:href="#calendar-period"/><text class="cls-24" transform="translate(521.65 174.64)">4</text><use width="137.71" height="70" transform="translate(660.08 145.65)" xlink:href="#calendar-period"/><text class="cls-24" transform="translate(680.87 174.64)">5</text><use width="137.71" height="70" transform="translate(178.11 258.81)" xlink:href="#calendar-item"/><text class="cls-22" transform="translate(199.61 287.8)">9</text><use width="137.71" height="70" transform="translate(338.51 258.81)" xlink:href="#calendar-item"/><text class="cls-22" transform="translate(355.01 287.8)">10</text><rect class="cls-1" x="502.1" y="260.3" width="133.71" height="66"/><path class="cls-25" d="M633.81,262.3v62H504.1v-62H633.81m2-4H502.1a2,2,0,0,0-2,2v66a2,2,0,0,0,2,2H635.81a2,2,0,0,0,2-2v-66a2,2,0,0,0-2-2Z"/><path class="cls-3" d="M528,271.16v-2.84a14,14,0,0,0-7.47,3.1l2,2A11.12,11.12,0,0,1,528,271.16Zm-7.46,4.25-2-2a14,14,0,0,0-3.11,7.46h2.84A11.17,11.17,0,0,1,520.58,275.41Zm-2.27,8.28h-2.84a14.05,14.05,0,0,0,3.11,7.47l2-2A11.06,11.06,0,0,1,518.31,283.69Zm2.26,9.46a14,14,0,0,0,7.47,3.1v-2.83a11.22,11.22,0,0,1-5.48-2.28Zm22.9-10.86a14,14,0,0,1-12.56,14v-2.83a11.23,11.23,0,0,0,0-22.26v-2.84A14.06,14.06,0,0,1,543.47,282.29Z"/><text class="cls-23" transform="translate(570.57 311.87)"><tspan class="cls-26">T</tspan><tspan x="12.06" y="0">od</tspan><tspan class="cls-13" x="37.02" y="0">a</tspan><tspan x="48.82" y="0">y</tspan></text><text class="cls-22" transform="translate(521.65 287.29)">11</text><use width="137.71" height="70" transform="translate(338.51 353.46)" xlink:href="#calendar-item"/><text class="cls-22" transform="translate(356.01 382.45)">17</text><use width="137.71" height="70" transform="translate(500.61 353.46)" xlink:href="#calendar-item"/><text class="cls-22" transform="translate(518.1 382.45)">18</text><use width="137.71" height="70" transform="translate(660.08 353.46)" xlink:href="#calendar-item"/><text class="cls-22" transform="translate(677.58 382.45)">19</text><use width="137.71" height="70" transform="translate(819.69 353.46)" xlink:href="#calendar-item"/><text class="cls-22" transform="translate(837.19 382.45)">20</text><use width="137.71" height="70" transform="translate(978.91 353.46)" xlink:href="#calendar-item"/><text class="cls-22" transform="translate(996.41 382.45)">21</text><use width="137.71" height="70" transform="translate(178.11 448.11)" xlink:href="#calendar-item"/><text class="cls-22" transform="translate(195.61 477.1)">23</text><use id="calendar-item-40" data-name="calendar-item" width="137.71" height="70" transform="translate(338.51 448.11)" xlink:href="#calendar-item"/><text class="cls-22" transform="translate(356 477.1)">24</text><use width="137.71" height="70" transform="translate(500.61 448.11)" xlink:href="#calendar-item"/><text class="cls-22" transform="translate(518.1 477.1)">25</text><use width="137.71" height="70" transform="translate(660.08 448.11)" xlink:href="#calendar-item"/><text class="cls-22" transform="translate(677.58 477.1)">26</text><use width="137.71" height="70" transform="translate(819.69 448.11)" xlink:href="#calendar-item"/><text class="cls-22" transform="translate(837.19 477.1)">27</text><use id="calendar-item-49" data-name="calendar-item" width="137.71" height="70" transform="translate(1141.29 353.46)" xlink:href="#calendar-item"/><text class="cls-22" transform="translate(1158.79 382.45)">22</text><use id="calendar-item-52" data-name="calendar-item" width="137.71" height="70" transform="translate(660.08 258.81)" xlink:href="#calendar-item"/><text class="cls-22" transform="translate(677.58 287.8)">12</text><use width="137.71" height="70" transform="translate(819.69 258.81)" xlink:href="#calendar-item"/><text class="cls-22" transform="translate(837.19 287.8)">13</text><use id="calendar-item-57" data-name="calendar-item" width="137.71" height="70" transform="translate(978.91 258.81)" xlink:href="#calendar-item"/><text class="cls-22" transform="translate(996.41 287.8)">14</text><use width="137.71" height="70" transform="translate(338.51 542.76)" xlink:href="#calendar-item"/><text class="cls-22" transform="translate(360 571.75)">4</text><use width="137.71" height="70" transform="translate(500.61 542.76)" xlink:href="#calendar-item"/><text class="cls-22" transform="translate(521.1 571.75)">5</text><use width="137.71" height="70" transform="translate(660.08 542.76)" xlink:href="#calendar-item"/><text class="cls-22" transform="translate(681.58 571.75)">6</text><use id="calendar-item-66" data-name="calendar-item" width="137.71" height="70" transform="translate(819.69 542.76)" xlink:href="#calendar-item"/><text class="cls-22" transform="translate(841.19 571.75)">7</text><use width="137.71" height="70" transform="translate(978.66 542.76)" xlink:href="#calendar-item"/><text class="cls-22" transform="translate(1000.16 571.75)">8</text><use id="calendar-item-71" data-name="calendar-item" width="137.71" height="70" transform="translate(1141.29 542.76)" xlink:href="#calendar-item"/><text class="cls-22" transform="translate(1162.79 571.75)">9</text><use width="137.71" height="70" transform="translate(978.66 448.11)" xlink:href="#calendar-period"/><text class="cls-22" transform="translate(1000.18 477.1)">1</text><use id="fertile-3" data-name="fertile" width="137.71" height="70" transform="translate(1141.54 258.81)" xlink:href="#fertile"/><text class="cls-22" transform="translate(1159.06 287.8)">15</text><text class="cls-23" transform="translate(1212.69 314.87)">12/02</text><use id="fertile-6" data-name="fertile" width="137.71" height="70" transform="translate(178.11 353.46)" xlink:href="#fertile"/><text class="cls-22" transform="translate(195.63 382.45)">16</text><text class="cls-23" transform="translate(249.26 409.52)">13/02</text><use width="137.71" height="70" transform="translate(1141.29 448.11)" xlink:href="#calendar-period"/><text class="cls-24" transform="translate(1163.02 477.1)">2</text><use width="137.71" height="70" transform="translate(178.11 542.76)" xlink:href="#calendar-period"/><text class="cls-24" transform="translate(199.55 571.75)">3</text></symbol></defs><title>linear</title><g id="Layer_2" data-name="Layer 2"><g id="Layer_1-2" data-name="Layer 1"><use id="device-3" data-name="device" width="1521" height="808" xlink:href="#device"/><use id="top-bar-3" data-name="top-bar" width="1347" height="101" transform="translate(87 36.5)" xlink:href="#top-bar"/><use id="linear-view-3" data-name="linear-view" width="1347" height="634" transform="translate(87 137.5)" xlink:href="#linear-view"/><text class="cls-27" transform="translate(183.67 98.02)">Menstrual c<tspan class="cls-28" x="185.85" y="0">y</tspan><tspan x="202.73" y="0">cle – Linear view</tspan></text></g></g></svg>