<svg xmlns="http://www.w3.org/2000/svg" xmlns:xlink="http://www.w3.org/1999/xlink" viewBox="0 0 1521 808"><defs><style>.cls-1{fill:#fff;}.cls-2{fill:#ccc;}.cls-3{fill:#4c4c4d;}.cls-4{fill:#acacac;}.cls-5{fill:#ff4d55;}.cls-15,.cls-20,.cls-6,.cls-8{fill:#212121;}.cls-7{fill:#efefef;}.cls-8{font-size:18px;}.cls-15,.cls-20,.cls-8{font-family:Roboto-Regular, Roboto;}.cls-9{letter-spacing:-0.01em;}.cls-10{letter-spacing:-0.05em;}.cls-11{letter-spacing:-0.02em;}.cls-12{letter-spacing:-0.01em;}.cls-13{letter-spacing:-0.01em;}.cls-14{letter-spacing:0.01em;}.cls-15{font-size:24px;}.cls-16{letter-spacing:-0.01em;}.cls-17{letter-spacing:0.13em;}.cls-18,.cls-22{fill:#333;}.cls-19{fill:#1976d2;}.cls-20{font-size:22px;}.cls-21{letter-spacing:-0.05em;}.cls-22{font-size:36px;font-family:Roboto-Light, Roboto;}</style><symbol id="device" data-name="device" viewBox="0 0 1521 808"><rect class="cls-3" width="1521" height="808" rx="16" ry="16"/><rect class="cls-4" x="34.36" y="316.6" width="18.27" height="174.79" rx="9.14" ry="9.14"/><circle class="cls-4" cx="1476.54" cy="404" r="25"/><rect class="cls-1" x="87" y="36.5" width="1347" height="735" rx="4" ry="4"/></symbol><symbol id="pill" data-name="pill" viewBox="0 0 137.71 70"><rect class="cls-1" x="0.5" y="0.5" width="136.71" height="69" rx="1.5" ry="1.5"/><path class="cls-2" d="M135.71,1a1,1,0,0,1,1,1V68a1,1,0,0,1-1,1H2a1,1,0,0,1-1-1V2A1,1,0,0,1,2,1H135.71m0-1H2A2,2,0,0,0,0,2V68a2,2,0,0,0,2,2H135.71a2,2,0,0,0,2-2V2a2,2,0,0,0-2-2Z"/><path class="cls-6" d="M35.48,13.83h0a6.31,6.31,0,0,0-8.92,0L15.17,25.22a6.31,6.31,0,0,0,0,8.92h0a6.31,6.31,0,0,0,8.92,0L35.48,22.75A6.31,6.31,0,0,0,35.48,13.83ZM18,26a5.32,5.32,0,0,0-1.14,5.57c.31.85-1,1.21-1.35.37A6.73,6.73,0,0,1,17,25C17.59,24.32,18.58,25.31,18,26Zm16.46-4.62-4.21,4.21L23.77,19.1,28,14.89a4.2,4.2,0,0,1,5.94,0l.5.49A4.21,4.21,0,0,1,34.42,21.33Zm84.43-5.75-3.32-3.32-1.13,1.12,4.45,4.45,9.55-9.56-1.12-1.12Z"/></symbol><symbol id="blank" data-name="blank" viewBox="0 0 137.71 70"><rect class="cls-1" x="0.5" y="0.5" width="136.71" height="69" rx="1.5" ry="1.5"/><path class="cls-2" d="M135.71,1a1,1,0,0,1,1,1V68a1,1,0,0,1-1,1H2a1,1,0,0,1-1-1V2A1,1,0,0,1,2,1H135.71m0-1H2A2,2,0,0,0,0,2V68a2,2,0,0,0,2,2H135.71a2,2,0,0,0,2-2V2a2,2,0,0,0-2-2Z"/></symbol><symbol id="no-pill" data-name="no-pill" viewBox="0 0 137.71 70"><rect class="cls-5" x="0.5" y="0.5" width="136.71" height="69" rx="1.5" ry="1.5"/><path class="cls-2" d="M135.71,1a1,1,0,0,1,1,1V68a1,1,0,0,1-1,1H2a1,1,0,0,1-1-1V2A1,1,0,0,1,2,1H135.71m0-1H2A2,2,0,0,0,0,2V68a2,2,0,0,0,2,2H135.71a2,2,0,0,0,2-2V2a2,2,0,0,0-2-2Z"/><path class="cls-6" d="M123.27,6.57a7,7,0,1,0,7,7A7,7,0,0,0,123.27,6.57Zm-5.6,7a5.58,5.58,0,0,1,9-4.41L118.86,17A5.53,5.53,0,0,1,117.67,13.57Zm5.6,5.6A5.53,5.53,0,0,1,119.84,18l7.84-7.84a5.58,5.58,0,0,1-4.41,9Z"/></symbol><symbol id="prep" data-name="prep" viewBox="0 0 1347 634"><path class="cls-7" d="M0,0H1347a0,0,0,0,1,0,0V630a4,4,0,0,1-4,4H4a4,4,0,0,1-4-4V0A0,0,0,0,1,0,0Z"/><text class="cls-8" transform="translate(178.36 31.4)">Sund<tspan class="cls-9" x="40.68" y="0">a</tspan><tspan x="50.34" y="0">y</tspan></text><text class="cls-8" transform="translate(338.76 31.4)">Mond<tspan class="cls-9" x="46.06" y="0">a</tspan><tspan x="55.72" y="0">y</tspan></text><text class="cls-8" transform="translate(503.11 31.4)"><tspan class="cls-10">T</tspan><tspan x="9.91" y="0">uesd</tspan><tspan class="cls-9" x="48.8" y="0">a</tspan><tspan x="58.46" y="0">y</tspan></text><text class="cls-8" transform="translate(661.08 31.4)"><tspan class="cls-11">W</tspan><tspan x="15.7" y="0">ednesd</tspan><tspan class="cls-9" x="74.29" y="0">a</tspan><tspan x="83.94" y="0">y</tspan></text><text class="cls-8" transform="translate(818.08 31.4)">Thursd<tspan class="cls-9" x="56.1" y="0">a</tspan><tspan x="65.76" y="0">y</tspan></text><text class="cls-8" transform="translate(979.49 31.4)"><tspan class="cls-12">F</tspan><tspan x="9.72" y="0">rid</tspan><tspan class="cls-9" x="30.33" y="0">a</tspan><tspan x="39.99" y="0">y</tspan></text><text class="cls-8" transform="translate(1142.54 31.4)">Satu<tspan class="cls-13" x="36.27" y="0">r</tspan><tspan x="42.2" y="0">d</tspan><tspan class="cls-9" x="52.35" y="0">a</tspan><tspan x="62.01" y="0">y</tspan></text><text class="cls-8" transform="translate(31.14 78.14)">Janua<tspan class="cls-14" x="49.37" y="0">r</tspan><tspan x="55.62" y="0">y</tspan></text><rect class="cls-6" x="120.28" y="50.49" width="2" height="165.16"/><text class="cls-15" transform="translate(130.77 78.97)">23</text><text class="cls-15" transform="translate(130.77 172.62)">30</text><text class="cls-8" transform="translate(32.05 285.24)"><tspan class="cls-16">F</tspan><tspan x="9.76" y="0">ebrua</tspan><tspan class="cls-14" x="55.2" y="0">r</tspan><tspan x="61.45" y="0">y</tspan></text><rect class="cls-6" x="120.02" y="258.3" width="2" height="354.46"/><text class="cls-15" transform="translate(130.52 285.35)">6</text><text class="cls-15" transform="translate(130.52 380.22)">13<tspan class="cls-17" x="26.95" y="0">	</tspan></text><text class="cls-15" transform="translate(130.52 474.87)">20</text><text class="cls-15" transform="translate(130.52 570.21)">27</text><path class="cls-18" d="M92.93,18.31l-8.41,8.41-8.41-8.41-2.59,2.6,11,11,11-11Z"/><path class="cls-18" d="M53.14,14.44H51.81V11.77H49.14v2.67H38.47V11.77H35.81v2.67H34.47a2.65,2.65,0,0,0-2.65,2.67V35.77a2.66,2.66,0,0,0,2.66,2.67H53.14a2.67,2.67,0,0,0,2.67-2.67V17.11A2.67,2.67,0,0,0,53.14,14.44Zm0,21.33H34.47V21.11H53.14Zm-16-12h6.67v6.67H37.14Z"/><use width="137.71" height="70" transform="translate(178.11 51)" xlink:href="#pill"/><use width="137.71" height="70" transform="translate(178.11 145.65)" xlink:href="#pill"/><use width="137.71" height="70" transform="translate(338.51 51)" xlink:href="#pill"/><use width="137.71" height="70" transform="translate(178.11 258.81)" xlink:href="#pill"/><use width="137.71" height="70" transform="translate(182.59 352.46)" xlink:href="#blank"/><use width="137.71" height="70" transform="translate(342.98 352.46)" xlink:href="#blank"/><use width="137.71" height="70" transform="translate(505.34 352.46)" xlink:href="#blank"/><use width="137.71" height="70" transform="translate(663.53 352.46)" xlink:href="#blank"/><use width="137.71" height="70" transform="translate(660.08 258.81)" xlink:href="#blank"/><use width="137.71" height="70" transform="translate(820.47 258.81)" xlink:href="#blank"/><use width="137.71" height="70" transform="translate(978.91 258.81)" xlink:href="#blank"/><use width="137.71" height="70" transform="translate(1142.04 258.81)" xlink:href="#blank"/><use width="137.71" height="70" transform="translate(823.14 353.46)" xlink:href="#blank"/><use width="137.71" height="70" transform="translate(978.91 353.46)" xlink:href="#blank"/><use width="137.71" height="70" transform="translate(182.59 448.11)" xlink:href="#blank"/><use width="137.71" height="70" transform="translate(342.98 448.11)" xlink:href="#blank"/><use width="137.71" height="70" transform="translate(505.34 448.11)" xlink:href="#blank"/><use width="137.71" height="70" transform="translate(662 448.11)" xlink:href="#blank"/><use width="137.71" height="70" transform="translate(821.61 448.11)" xlink:href="#blank"/><use width="137.71" height="70" transform="translate(977.38 448.11)" xlink:href="#blank"/><use width="137.71" height="70" transform="translate(184.12 542.76)" xlink:href="#blank"/><use width="137.71" height="70" transform="translate(344.51 542.76)" xlink:href="#blank"/><use width="137.71" height="70" transform="translate(506.86 542.76)" xlink:href="#blank"/><use width="137.71" height="70" transform="translate(663.53 542.76)" xlink:href="#blank"/><use width="137.71" height="70" transform="translate(823.14 542.76)" xlink:href="#blank"/><use width="137.71" height="70" transform="translate(978.91 542.76)" xlink:href="#blank"/><use width="137.71" height="70" transform="translate(1141.54 448.11)" xlink:href="#blank"/><use width="137.71" height="70" transform="translate(1141.54 542.76)" xlink:href="#blank"/><use width="137.71" height="70" transform="translate(1141.54 353.46)" xlink:href="#blank"/><use id="pill-11" data-name="pill" width="137.71" height="70" transform="translate(338.51 258.81)" xlink:href="#pill"/><use id="pill-14" data-name="pill" width="137.71" height="70" transform="translate(500.86 51)" xlink:href="#pill"/><use width="137.71" height="70" transform="translate(500.86 145.65)" xlink:href="#pill"/><g id="pill-17" data-name="pill"><rect class="cls-1" x="502.86" y="260.81" width="133.71" height="66"/><path class="cls-19" d="M634.57,262.81v62H504.86v-62H634.57m2-4H502.86a2,2,0,0,0-2,2v66a2,2,0,0,0,2,2H636.57a2,2,0,0,0,2-2v-66a2,2,0,0,0-2-2Z"/><path class="cls-6" d="M536.34,272.64h0a6.31,6.31,0,0,0-8.92,0L516,284a6.3,6.3,0,0,0,0,8.91h0a6.3,6.3,0,0,0,8.91,0l11.4-11.39A6.31,6.31,0,0,0,536.34,272.64Zm-17.53,12.13a5.32,5.32,0,0,0-1.13,5.56c.31.85-1,1.21-1.35.37a6.69,6.69,0,0,1,1.49-6.92C518.45,283.13,519.44,284.12,518.81,284.77Zm16.47-4.63-4.21,4.21-6.44-6.44,4.21-4.21a4.2,4.2,0,0,1,5.94,0l.5.5A4.2,4.2,0,0,1,535.28,280.14Zm84.43-5.75-3.32-3.32-1.13,1.13,4.45,4.44,9.55-9.55L628.14,266Z"/><text class="cls-20" transform="translate(570.36 312.71)"><tspan class="cls-21">T</tspan><tspan x="12.06" y="0">od</tspan><tspan class="cls-9" x="37.02" y="0">a</tspan><tspan x="48.82" y="0">y</tspan></text></g><use width="137.71" height="70" transform="translate(660.08 145.65)" xlink:href="#pill"/><use id="pill-22" data-name="pill" width="137.71" height="70" transform="translate(819.69 145.65)" xlink:href="#pill"/><use id="pill-25" data-name="pill" width="137.71" height="70" transform="translate(978.91 51)" xlink:href="#pill"/><use id="pill-28" data-name="pill" width="137.71" height="70" transform="translate(978.91 145.65)" xlink:href="#pill"/><use id="pill-31" data-name="pill" width="137.71" height="70" transform="translate(1141.54 51)" xlink:href="#pill"/><use width="137.71" height="70" transform="translate(660.08 51)" xlink:href="#no-pill"/><use id="no-pill-5" data-name="no-pill" width="137.71" height="70" transform="translate(338.51 145.65)" xlink:href="#no-pill"/><use width="137.71" height="70" transform="translate(1141.54 145.65)" xlink:href="#no-pill"/><use width="137.71" height="70" transform="translate(819.69 51)" xlink:href="#no-pill"/></symbol><symbol id="top-bar" data-name="top-bar" viewBox="0 0 1347 101"><path class="cls-1" d="M4,0H1343a4,4,0,0,1,4,4v96a0,0,0,0,1,0,0H0a0,0,0,0,1,0,0V4A4,4,0,0,1,4,0Z"/><text class="cls-22" transform="translate(1030.63 61.52)">Couple #1345767</text><path class="cls-18" d="M39.66,54.8v2.4h24V54.8Zm0-6v2.4h24V48.8Zm0-6v2.4h24V42.8Z"/><rect class="cls-2" y="100" width="1347" height="1"/></symbol></defs><title>prep</title><g id="Layer_2" data-name="Layer 2"><g id="Layer_1-2" data-name="Layer 1"><use id="device-3" data-name="device" width="1521" height="808" xlink:href="#device"/><use width="1347" height="634" transform="translate(87 137.5)" xlink:href="#prep"/><use id="top-bar-3" data-name="top-bar" width="1347" height="101" transform="translate(87 36.5)" xlink:href="#top-bar"/><text class="cls-22" transform="translate(183.67 98.02)">PrEP view</text></g></g></svg>