<?xml version="1.0" encoding="utf-8"?>
<!-- Generator: Adobe Illustrator 21.1.0, SVG Export Plug-In . SVG Version: 6.00 Build 0)  -->
<svg version="1.1" id="Layer_1" xmlns="http://www.w3.org/2000/svg" xmlns:xlink="http://www.w3.org/1999/xlink" x="0px" y="0px"
	 viewBox="0 0 286.5 518.2" style="enable-background:new 0 0 286.5 518.2;" xml:space="preserve">
<style type="text/css">
	.st0{fill:#F5F5F5;}
	.st1{fill:#DCDCDC;}
	.st2{fill:#5899AD;}
	.st3{fill:#2271B4;}
	.st4{fill:#231F20;}
	.st5{fill:#E5E5E4;}
	.st6{fill:#F4F5F5;}
	.st7{fill:#447AAB;}
	.st8{fill:#518DC6;}
	.st9{fill:#E37733;}
	.st10{fill:#E57832;}
	.st11{fill:#DCECF6;stroke:#C4E7EF;stroke-miterlimit:10;}
	.st12{fill:#4C87AA;}
	.st13{fill:none;stroke:#231F20;stroke-width:0.75;stroke-miterlimit:10;}
	.st14{fill:#C4E7EF;}
</style>
<g>
	<path class="st0" d="M0.5,40V3c0-1.4,1.1-2.5,2.5-2.5h280.5c1.4,0,2.5,1.1,2.5,2.5v37H0.5z"/>
	<path class="st1" d="M283.5,1c1.1,0,2,0.9,2,2v36.5H1V3c0-1.1,0.9-2,2-2H283.5 M283.5,0H3C1.4,0,0,1.4,0,3v37.5h286.5V3
		C286.5,1.4,285.1,0,283.5,0L283.5,0z"/>
</g>
<g>
	<path class="st2" d="M23.9,15.4c0.8,0.3,1.5,0.8,2,1.5c0.4,0.6,0.7,1.2,0.8,1.9c0.1,0.7,0.2,1.3,0.2,1.9c0,1.5-0.3,2.8-0.9,3.9
		c-0.8,1.4-2.1,2.1-3.9,2.1h-5V15.2h5C22.9,15.2,23.5,15.3,23.9,15.4z M19.5,17.2v7.5h2.2c1.1,0,1.9-0.6,2.4-1.7
		c0.2-0.6,0.4-1.3,0.4-2.2c0-1.2-0.2-2.1-0.6-2.7c-0.4-0.6-1.1-0.9-2.2-0.9H19.5z"/>
	<path class="st2" d="M34.1,18.3c0.6,0.3,1.1,0.7,1.5,1.3c0.3,0.5,0.6,1.1,0.7,1.8c0.1,0.4,0.1,1,0.1,1.7h-6.2
		c0,0.9,0.3,1.5,0.9,1.8c0.3,0.2,0.7,0.3,1.2,0.3c0.5,0,0.9-0.1,1.2-0.4c0.2-0.1,0.3-0.3,0.5-0.6h2.3c-0.1,0.5-0.3,1-0.8,1.5
		c-0.8,0.8-1.8,1.2-3.2,1.2c-1.1,0-2.1-0.3-3-1c-0.9-0.7-1.3-1.8-1.3-3.4c0-1.5,0.4-2.6,1.2-3.4c0.8-0.8,1.8-1.2,3-1.2
		C32.9,17.9,33.5,18.1,34.1,18.3z M30.8,20.3c-0.3,0.3-0.5,0.8-0.6,1.3H34c0-0.6-0.2-1-0.6-1.3c-0.4-0.3-0.8-0.5-1.3-0.5
		C31.5,19.8,31.1,19.9,30.8,20.3z"/>
	<path class="st2" d="M42,18.3c0.4,0.2,0.7,0.5,1,0.9v-4.1h2.3v11.5h-2.2v-1.2c-0.3,0.5-0.7,0.9-1.1,1.1s-0.9,0.3-1.5,0.3
		c-1,0-1.8-0.4-2.5-1.2s-1-1.8-1-3.1c0-1.5,0.3-2.6,1-3.4c0.7-0.8,1.6-1.2,2.7-1.2C41.1,18,41.6,18.1,42,18.3z M42.5,24.4
		c0.3-0.5,0.5-1.1,0.5-1.8c0-1-0.3-1.8-0.8-2.2c-0.3-0.3-0.7-0.4-1.1-0.4c-0.7,0-1.1,0.2-1.4,0.7s-0.5,1.1-0.5,1.8
		c0,0.8,0.2,1.4,0.5,1.9c0.3,0.5,0.8,0.7,1.4,0.7C41.7,25.1,42.2,24.8,42.5,24.4z"/>
	<path class="st2" d="M49.5,18.2v5.1c0,0.5,0.1,0.8,0.2,1.1c0.2,0.4,0.6,0.6,1.2,0.6c0.8,0,1.3-0.3,1.6-0.9c0.1-0.3,0.2-0.8,0.2-1.3
		v-4.6h2.3v8.5h-2.2v-1.2c0,0-0.1,0.1-0.2,0.2c-0.1,0.1-0.2,0.2-0.3,0.3c-0.3,0.3-0.7,0.5-1,0.6c-0.3,0.1-0.7,0.2-1.1,0.2
		c-1.3,0-2.1-0.5-2.5-1.4c-0.2-0.5-0.4-1.2-0.4-2.2v-5.1H49.5z"/>
	<path class="st2" d="M62.1,21.2c0-0.3-0.1-0.6-0.3-0.9c-0.3-0.3-0.6-0.5-1.2-0.5c-0.8,0-1.3,0.4-1.5,1.1c-0.1,0.4-0.2,0.9-0.2,1.6
		c0,0.6,0.1,1.1,0.2,1.5c0.3,0.7,0.8,1.1,1.5,1.1c0.5,0,0.9-0.1,1.1-0.4s0.4-0.6,0.4-1.1h2.3c-0.1,0.7-0.3,1.3-0.7,1.9
		c-0.7,1-1.7,1.5-3.1,1.5s-2.4-0.4-3-1.2s-1-1.9-1-3.2c0-1.5,0.4-2.6,1.1-3.4s1.7-1.2,3-1.2c1.1,0,1.9,0.2,2.6,0.7
		c0.7,0.5,1.1,1.3,1.2,2.5H62.1z"/>
	<path class="st2" d="M65,19.8v-1.6h1.2v-2.4h2.2v2.4h1.4v1.6h-1.4v4.5c0,0.3,0,0.6,0.1,0.7c0.1,0.1,0.4,0.1,0.8,0.1
		c0.1,0,0.1,0,0.2,0c0.1,0,0.1,0,0.2,0v1.7l-1.1,0c-1.1,0-1.8-0.1-2.2-0.5c-0.2-0.3-0.4-0.6-0.4-1.2v-5.2H65z"/>
	<path class="st2" d="M73.5,17.2h-2.3v-2.1h2.3V17.2z M71.3,18.2h2.3v8.5h-2.3V18.2z"/>
	<path class="st2" d="M83,19.2c0.6,0.8,1,1.8,1,3.1c0,1.3-0.3,2.4-0.9,3.3c-0.6,0.9-1.5,1.3-2.6,1.3c-0.7,0-1.3-0.1-1.7-0.4
		c-0.3-0.2-0.5-0.5-0.8-0.9v1.1h-2.2V15.2h2.2v4.1c0.3-0.4,0.6-0.7,0.9-0.9c0.4-0.3,0.9-0.4,1.5-0.4C81.4,18,82.3,18.4,83,19.2z
		 M81.1,24.4c0.3-0.5,0.5-1.1,0.5-1.8c0-0.6-0.1-1.1-0.2-1.5c-0.3-0.8-0.8-1.1-1.7-1.1c-0.8,0-1.4,0.4-1.7,1.1
		c-0.2,0.4-0.2,0.9-0.2,1.5c0,0.7,0.2,1.3,0.5,1.8c0.3,0.5,0.8,0.7,1.5,0.7C80.3,25.1,80.8,24.8,81.1,24.4z"/>
	<path class="st2" d="M87.7,26.7h-2.2V15.2h2.2V26.7z"/>
	<path class="st2" d="M95.5,18.3c0.6,0.3,1.1,0.7,1.5,1.3c0.3,0.5,0.6,1.1,0.7,1.8c0.1,0.4,0.1,1,0.1,1.7h-6.2
		c0,0.9,0.3,1.5,0.9,1.8c0.3,0.2,0.7,0.3,1.2,0.3c0.5,0,0.9-0.1,1.2-0.4c0.2-0.1,0.3-0.3,0.5-0.6h2.3c-0.1,0.5-0.3,1-0.8,1.5
		C96,26.6,94.9,27,93.5,27c-1.1,0-2.1-0.3-3-1c-0.9-0.7-1.3-1.8-1.3-3.4c0-1.5,0.4-2.6,1.2-3.4s1.8-1.2,3-1.2
		C94.2,17.9,94.9,18.1,95.5,18.3z M92.1,20.3c-0.3,0.3-0.5,0.8-0.6,1.3h3.8c0-0.6-0.2-1-0.6-1.3c-0.4-0.3-0.8-0.5-1.3-0.5
		C92.9,19.8,92.4,19.9,92.1,20.3z"/>
	<path class="st2" d="M100.5,24c0,0.4,0.1,0.7,0.3,0.8c0.3,0.3,0.8,0.4,1.5,0.4c0.4,0,0.8-0.1,1-0.2c0.3-0.1,0.4-0.3,0.4-0.6
		c0-0.2-0.1-0.4-0.3-0.6c-0.2-0.1-1-0.4-2.3-0.7c-1-0.2-1.6-0.5-2-0.9c-0.4-0.4-0.6-0.9-0.6-1.5c0-0.8,0.3-1.5,0.9-2
		c0.6-0.6,1.5-0.8,2.6-0.8c1.1,0,1.9,0.2,2.6,0.6c0.7,0.4,1.1,1.2,1.2,2.2h-2.2c0-0.3-0.1-0.5-0.2-0.7c-0.2-0.3-0.7-0.5-1.3-0.5
		c-0.5,0-0.8,0.1-1,0.2c-0.2,0.2-0.3,0.3-0.3,0.5c0,0.3,0.1,0.4,0.3,0.6c0.2,0.1,1,0.3,2.3,0.6c0.9,0.2,1.6,0.5,2,0.9
		c0.4,0.4,0.7,1,0.7,1.6c0,0.8-0.3,1.5-0.9,2.1s-1.6,0.8-2.9,0.8c-1.3,0-2.3-0.3-3-0.8s-1-1.3-1-2.2H100.5z"/>
</g>
<g>
	<path class="st2" d="M19.3,101.9h-2.1V91.8h2.1V101.9z"/>
	<path class="st2" d="M27.1,94.9c0.5,0.4,0.7,1.1,0.7,2v5h-2v-4.5c0-0.4-0.1-0.7-0.2-0.9c-0.2-0.4-0.6-0.6-1.1-0.6
		c-0.7,0-1.1,0.3-1.4,0.8c-0.1,0.3-0.2,0.7-0.2,1.1v4h-1.9v-7.4H23v1.1c0.2-0.4,0.5-0.7,0.7-0.8c0.4-0.3,0.9-0.5,1.5-0.5
		C26,94.3,26.6,94.5,27.1,94.9z"/>
	<path class="st2" d="M33.6,94.6c0.4,0.2,0.6,0.5,0.9,0.8v-3.6h2v10.1h-1.9v-1c-0.3,0.4-0.6,0.8-1,1s-0.8,0.3-1.3,0.3
		c-0.9,0-1.6-0.4-2.2-1.1s-0.9-1.6-0.9-2.7c0-1.3,0.3-2.3,0.9-3s1.4-1.1,2.3-1.1C32.8,94.3,33.3,94.4,33.6,94.6z M34.1,99.9
		c0.3-0.4,0.4-0.9,0.4-1.6c0-0.9-0.2-1.6-0.7-2c-0.3-0.2-0.6-0.4-1-0.4c-0.6,0-1,0.2-1.3,0.6s-0.4,1-0.4,1.6c0,0.7,0.1,1.2,0.4,1.7
		s0.7,0.6,1.2,0.6S33.8,100.3,34.1,99.9z"/>
	<path class="st2" d="M40.2,93.6h-2v-1.8h2V93.6z M38.2,94.5h2v7.5h-2V94.5z"/>
	<path class="st2" d="M46.7,94.5h2.1l-2.7,7.5H44l-2.7-7.5h2.2l1.6,5.5L46.7,94.5z"/>
	<path class="st2" d="M51.9,93.6h-2v-1.8h2V93.6z M49.9,94.5h2v7.5h-2V94.5z"/>
	<path class="st2" d="M57.7,94.6c0.4,0.2,0.6,0.5,0.9,0.8v-3.6h2v10.1h-1.9v-1c-0.3,0.4-0.6,0.8-1,1s-0.8,0.3-1.3,0.3
		c-0.9,0-1.6-0.4-2.2-1.1s-0.9-1.6-0.9-2.7c0-1.3,0.3-2.3,0.9-3s1.4-1.1,2.3-1.1C57,94.3,57.4,94.4,57.7,94.6z M58.2,99.9
		c0.3-0.4,0.4-0.9,0.4-1.6c0-0.9-0.2-1.6-0.7-2c-0.3-0.2-0.6-0.4-1-0.4c-0.6,0-1,0.2-1.3,0.6s-0.4,1-0.4,1.6c0,0.7,0.1,1.2,0.4,1.7
		s0.7,0.6,1.2,0.6S57.9,100.3,58.2,99.9z"/>
	<path class="st2" d="M64.3,94.5V99c0,0.4,0,0.7,0.1,1c0.2,0.4,0.5,0.6,1,0.6c0.7,0,1.1-0.3,1.4-0.8c0.1-0.3,0.2-0.7,0.2-1.2v-4.1h2
		v7.5h-1.9v-1.1c0,0-0.1,0.1-0.1,0.2s-0.2,0.2-0.3,0.3c-0.3,0.3-0.6,0.5-0.9,0.6c-0.3,0.1-0.6,0.2-1,0.2c-1.1,0-1.8-0.4-2.2-1.2
		c-0.2-0.4-0.3-1.1-0.3-1.9v-4.5H64.3z"/>
	<path class="st2" d="M73.8,97.4c0.4,0,0.6-0.1,0.8-0.2c0.3-0.1,0.4-0.3,0.4-0.6c0-0.3-0.1-0.5-0.3-0.6s-0.5-0.2-0.9-0.2
		c-0.5,0-0.8,0.1-1,0.3c-0.1,0.2-0.2,0.4-0.3,0.7h-1.9c0-0.7,0.2-1.2,0.5-1.6c0.5-0.7,1.4-1,2.7-1c0.8,0,1.5,0.2,2.2,0.5
		s1,0.9,1,1.8v3.4c0,0.2,0,0.5,0,0.9c0,0.3,0.1,0.4,0.1,0.5s0.2,0.2,0.3,0.2v0.3h-2.1c-0.1-0.2-0.1-0.3-0.1-0.4s0-0.3-0.1-0.5
		c-0.3,0.3-0.6,0.5-0.9,0.7c-0.4,0.2-0.9,0.4-1.4,0.4c-0.7,0-1.2-0.2-1.7-0.6s-0.7-0.9-0.7-1.6c0-0.9,0.4-1.6,1.1-2
		c0.4-0.2,1-0.4,1.7-0.5L73.8,97.4z M75,98.3c-0.1,0.1-0.3,0.1-0.4,0.2s-0.3,0.1-0.5,0.1l-0.4,0.1c-0.4,0.1-0.7,0.2-0.9,0.3
		c-0.3,0.2-0.5,0.5-0.5,0.8c0,0.3,0.1,0.6,0.3,0.7c0.2,0.1,0.4,0.2,0.7,0.2c0.4,0,0.8-0.1,1.2-0.4c0.4-0.2,0.5-0.7,0.6-1.3V98.3z"/>
	<path class="st2" d="M80.6,101.9h-1.9V91.8h1.9V101.9z"/>
	<path class="st2" d="M92.5,92.1c0.7,0.2,1.3,0.7,1.7,1.3c0.4,0.5,0.6,1,0.7,1.6s0.2,1.1,0.2,1.7c0,1.3-0.3,2.5-0.8,3.4
		c-0.7,1.3-1.9,1.9-3.4,1.9h-4.3V91.8h4.3C91.6,91.8,92.1,91.9,92.5,92.1z M88.6,93.6v6.6h1.9c1,0,1.7-0.5,2.1-1.5
		c0.2-0.5,0.3-1.2,0.3-1.9c0-1-0.2-1.8-0.5-2.4c-0.3-0.5-1-0.8-1.9-0.8H88.6z"/>
	<path class="st2" d="M101.4,94.6c0.5,0.2,0.9,0.6,1.3,1.1c0.3,0.4,0.5,1,0.6,1.5c0.1,0.3,0.1,0.8,0.1,1.5h-5.4
		c0,0.7,0.3,1.3,0.8,1.6c0.3,0.2,0.7,0.3,1.1,0.3c0.4,0,0.8-0.1,1.1-0.3c0.2-0.1,0.3-0.3,0.4-0.5h2c-0.1,0.4-0.3,0.9-0.7,1.3
		c-0.7,0.7-1.6,1.1-2.8,1.1c-1,0-1.9-0.3-2.6-0.9c-0.8-0.6-1.1-1.6-1.1-3c0-1.3,0.3-2.3,1-3c0.7-0.7,1.6-1,2.7-1
		C100.3,94.3,100.9,94.4,101.4,94.6z M98.5,96.3C98.2,96.6,98,97,98,97.4h3.4c0-0.5-0.2-0.9-0.5-1.2c-0.3-0.3-0.7-0.4-1.2-0.4
		C99.2,95.9,98.8,96,98.5,96.3z"/>
	<path class="st2" d="M108.3,94.6c0.4,0.2,0.6,0.5,0.9,0.8v-3.6h2v10.1h-1.9v-1c-0.3,0.4-0.6,0.8-1,1s-0.8,0.3-1.3,0.3
		c-0.9,0-1.6-0.4-2.2-1.1c-0.6-0.7-0.9-1.6-0.9-2.7c0-1.3,0.3-2.3,0.9-3c0.6-0.7,1.4-1.1,2.3-1.1C107.5,94.3,107.9,94.4,108.3,94.6z
		 M108.8,99.9c0.3-0.4,0.4-0.9,0.4-1.6c0-0.9-0.2-1.6-0.7-2c-0.3-0.2-0.6-0.4-1-0.4c-0.6,0-1,0.2-1.3,0.6c-0.3,0.4-0.4,1-0.4,1.6
		c0,0.7,0.1,1.2,0.4,1.7c0.3,0.4,0.7,0.6,1.2,0.6S108.5,100.3,108.8,99.9z"/>
	<path class="st2" d="M114.8,94.5V99c0,0.4,0,0.7,0.1,1c0.2,0.4,0.5,0.6,1,0.6c0.7,0,1.1-0.3,1.4-0.8c0.1-0.3,0.2-0.7,0.2-1.2v-4.1
		h2v7.5h-1.9v-1.1c0,0-0.1,0.1-0.1,0.2c-0.1,0.1-0.2,0.2-0.3,0.3c-0.3,0.3-0.6,0.5-0.9,0.6s-0.6,0.2-1,0.2c-1.1,0-1.8-0.4-2.2-1.2
		c-0.2-0.4-0.3-1.1-0.3-1.9v-4.5H114.8z"/>
	<path class="st2" d="M125.9,97.1c0-0.3-0.1-0.5-0.3-0.8c-0.2-0.3-0.6-0.5-1-0.5c-0.7,0-1.1,0.3-1.4,1c-0.1,0.3-0.2,0.8-0.2,1.4
		c0,0.5,0.1,1,0.2,1.3c0.2,0.6,0.7,0.9,1.3,0.9c0.5,0,0.8-0.1,1-0.4c0.2-0.2,0.3-0.6,0.3-1h2c0,0.6-0.3,1.2-0.6,1.7
		c-0.6,0.9-1.5,1.3-2.7,1.3c-1.2,0-2.1-0.4-2.6-1.1s-0.8-1.6-0.8-2.8c0-1.3,0.3-2.3,0.9-3s1.5-1.1,2.6-1.1c0.9,0,1.7,0.2,2.3,0.6
		c0.6,0.4,0.9,1.2,1.1,2.2H125.9z"/>
	<path class="st2" d="M128.5,95.9v-1.4h1v-2.1h1.9v2.1h1.2v1.4h-1.2v3.9c0,0.3,0,0.5,0.1,0.6s0.3,0.1,0.7,0.1c0.1,0,0.1,0,0.2,0
		c0.1,0,0.1,0,0.2,0v1.5l-0.9,0c-0.9,0-1.5-0.1-1.9-0.5c-0.2-0.2-0.3-0.6-0.3-1v-4.6H128.5z"/>
	<path class="st2" d="M135.9,93.6h-2v-1.8h2V93.6z M133.9,94.5h2v7.5h-2V94.5z"/>
	<path class="st2" d="M144.1,95.4c0.6,0.7,0.8,1.6,0.8,2.7c0,1.2-0.3,2.1-0.8,2.9c-0.5,0.8-1.3,1.1-2.3,1.1c-0.6,0-1.1-0.1-1.5-0.4
		c-0.2-0.1-0.5-0.4-0.7-0.8v0.9h-1.9V91.8h1.9v3.6c0.2-0.3,0.5-0.6,0.8-0.8c0.4-0.2,0.8-0.3,1.3-0.3
		C142.8,94.3,143.6,94.6,144.1,95.4z M142.5,99.9c0.3-0.4,0.4-0.9,0.4-1.6c0-0.5-0.1-1-0.2-1.3c-0.3-0.7-0.7-1-1.4-1
		c-0.7,0-1.2,0.3-1.5,1c-0.1,0.3-0.2,0.8-0.2,1.3c0,0.6,0.1,1.2,0.4,1.6c0.3,0.4,0.7,0.6,1.3,0.6
		C141.8,100.5,142.2,100.3,142.5,99.9z"/>
	<path class="st2" d="M148.3,101.9h-1.9V91.8h1.9V101.9z"/>
	<path class="st2" d="M155.1,94.6c0.5,0.2,0.9,0.6,1.3,1.1c0.3,0.4,0.5,1,0.6,1.5c0.1,0.3,0.1,0.8,0.1,1.5h-5.4
		c0,0.7,0.3,1.3,0.8,1.6c0.3,0.2,0.7,0.3,1.1,0.3c0.4,0,0.8-0.1,1.1-0.3c0.2-0.1,0.3-0.3,0.4-0.5h2c-0.1,0.4-0.3,0.9-0.7,1.3
		c-0.7,0.7-1.6,1.1-2.8,1.1c-1,0-1.9-0.3-2.6-0.9c-0.8-0.6-1.1-1.6-1.1-3c0-1.3,0.3-2.3,1-3c0.7-0.7,1.6-1,2.7-1
		C154,94.3,154.6,94.4,155.1,94.6z M152.2,96.3c-0.3,0.3-0.4,0.7-0.5,1.2h3.4c0-0.5-0.2-0.9-0.5-1.2c-0.3-0.3-0.7-0.4-1.2-0.4
		C152.8,95.9,152.4,96,152.2,96.3z"/>
</g>
<g>
	<path class="st2" d="M19.3,309.4h-2.1v-10.1h2.1V309.4z"/>
	<path class="st2" d="M27.1,302.4c0.5,0.4,0.7,1.1,0.7,2v5h-2v-4.5c0-0.4-0.1-0.7-0.2-0.9c-0.2-0.4-0.6-0.6-1.1-0.6
		c-0.7,0-1.1,0.3-1.4,0.8c-0.1,0.3-0.2,0.7-0.2,1.1v4h-1.9V302H23v1.1c0.2-0.4,0.5-0.7,0.7-0.8c0.4-0.3,0.9-0.5,1.5-0.5
		C26,301.8,26.6,302,27.1,302.4z"/>
	<path class="st2" d="M33.6,302.1c0.4,0.2,0.6,0.5,0.9,0.8v-3.6h2v10.1h-1.9v-1c-0.3,0.4-0.6,0.8-1,1s-0.8,0.3-1.3,0.3
		c-0.9,0-1.6-0.4-2.2-1.1s-0.9-1.6-0.9-2.7c0-1.3,0.3-2.3,0.9-3s1.4-1.1,2.3-1.1C32.8,301.8,33.3,301.9,33.6,302.1z M34.1,307.4
		c0.3-0.4,0.4-0.9,0.4-1.6c0-0.9-0.2-1.6-0.7-2c-0.3-0.2-0.6-0.4-1-0.4c-0.6,0-1,0.2-1.3,0.6s-0.4,1-0.4,1.6c0,0.7,0.1,1.2,0.4,1.7
		s0.7,0.6,1.2,0.6S33.8,307.8,34.1,307.4z"/>
	<path class="st2" d="M40.2,301.1h-2v-1.8h2V301.1z M38.2,302h2v7.5h-2V302z"/>
	<path class="st2" d="M46.7,302h2.1l-2.7,7.5H44l-2.7-7.5h2.2l1.6,5.5L46.7,302z"/>
	<path class="st2" d="M51.9,301.1h-2v-1.8h2V301.1z M49.9,302h2v7.5h-2V302z"/>
	<path class="st2" d="M57.7,302.1c0.4,0.2,0.6,0.5,0.9,0.8v-3.6h2v10.1h-1.9v-1c-0.3,0.4-0.6,0.8-1,1s-0.8,0.3-1.3,0.3
		c-0.9,0-1.6-0.4-2.2-1.1s-0.9-1.6-0.9-2.7c0-1.3,0.3-2.3,0.9-3s1.4-1.1,2.3-1.1C57,301.8,57.4,301.9,57.7,302.1z M58.2,307.4
		c0.3-0.4,0.4-0.9,0.4-1.6c0-0.9-0.2-1.6-0.7-2c-0.3-0.2-0.6-0.4-1-0.4c-0.6,0-1,0.2-1.3,0.6s-0.4,1-0.4,1.6c0,0.7,0.1,1.2,0.4,1.7
		s0.7,0.6,1.2,0.6S57.9,307.8,58.2,307.4z"/>
	<path class="st2" d="M64.3,302v4.5c0,0.4,0,0.7,0.1,1c0.2,0.4,0.5,0.6,1,0.6c0.7,0,1.1-0.3,1.4-0.8c0.1-0.3,0.2-0.7,0.2-1.2V302h2
		v7.5h-1.9v-1.1c0,0-0.1,0.1-0.1,0.2s-0.2,0.2-0.3,0.3c-0.3,0.3-0.6,0.5-0.9,0.6c-0.3,0.1-0.6,0.2-1,0.2c-1.1,0-1.8-0.4-2.2-1.2
		c-0.2-0.4-0.3-1.1-0.3-1.9V302H64.3z"/>
	<path class="st2" d="M73.8,304.9c0.4,0,0.6-0.1,0.8-0.2c0.3-0.1,0.4-0.3,0.4-0.6c0-0.3-0.1-0.5-0.3-0.6s-0.5-0.2-0.9-0.2
		c-0.5,0-0.8,0.1-1,0.3c-0.1,0.2-0.2,0.4-0.3,0.7h-1.9c0-0.7,0.2-1.2,0.5-1.6c0.5-0.7,1.4-1,2.7-1c0.8,0,1.5,0.2,2.2,0.5
		s1,0.9,1,1.8v3.4c0,0.2,0,0.5,0,0.9c0,0.3,0.1,0.4,0.1,0.5s0.2,0.2,0.3,0.2v0.3h-2.1c-0.1-0.2-0.1-0.3-0.1-0.4s0-0.3-0.1-0.5
		c-0.3,0.3-0.6,0.5-0.9,0.7c-0.4,0.2-0.9,0.4-1.4,0.4c-0.7,0-1.2-0.2-1.7-0.6s-0.7-0.9-0.7-1.6c0-0.9,0.4-1.6,1.1-2
		c0.4-0.2,1-0.4,1.7-0.5L73.8,304.9z M75,305.8c-0.1,0.1-0.3,0.1-0.4,0.2s-0.3,0.1-0.5,0.1l-0.4,0.1c-0.4,0.1-0.7,0.2-0.9,0.3
		c-0.3,0.2-0.5,0.5-0.5,0.8c0,0.3,0.1,0.6,0.3,0.7c0.2,0.1,0.4,0.2,0.7,0.2c0.4,0,0.8-0.1,1.2-0.4c0.4-0.2,0.5-0.7,0.6-1.3V305.8z"
		/>
	<path class="st2" d="M80.6,309.4h-1.9v-10.1h1.9V309.4z"/>
	<path class="st2" d="M92.5,299.6c0.7,0.2,1.3,0.7,1.7,1.3c0.4,0.5,0.6,1,0.7,1.6s0.2,1.1,0.2,1.7c0,1.3-0.3,2.5-0.8,3.4
		c-0.7,1.3-1.9,1.9-3.4,1.9h-4.3v-10.1h4.3C91.6,299.3,92.1,299.4,92.5,299.6z M88.6,301.1v6.6h1.9c1,0,1.7-0.5,2.1-1.5
		c0.2-0.5,0.3-1.2,0.3-1.9c0-1-0.2-1.8-0.5-2.4c-0.3-0.5-1-0.8-1.9-0.8H88.6z"/>
	<path class="st2" d="M101.4,302.1c0.5,0.2,0.9,0.6,1.3,1.1c0.3,0.4,0.5,1,0.6,1.5c0.1,0.3,0.1,0.8,0.1,1.5h-5.4
		c0,0.7,0.3,1.3,0.8,1.6c0.3,0.2,0.7,0.3,1.1,0.3c0.4,0,0.8-0.1,1.1-0.3c0.2-0.1,0.3-0.3,0.4-0.5h2c-0.1,0.4-0.3,0.9-0.7,1.3
		c-0.7,0.7-1.6,1.1-2.8,1.1c-1,0-1.9-0.3-2.6-0.9c-0.8-0.6-1.1-1.6-1.1-3c0-1.3,0.3-2.3,1-3c0.7-0.7,1.6-1,2.7-1
		C100.3,301.8,100.9,301.9,101.4,302.1z M98.5,303.8c-0.3,0.3-0.4,0.7-0.5,1.2h3.4c0-0.5-0.2-0.9-0.5-1.2c-0.3-0.3-0.7-0.4-1.2-0.4
		C99.2,303.4,98.8,303.5,98.5,303.8z"/>
	<path class="st2" d="M108.3,302.1c0.4,0.2,0.6,0.5,0.9,0.8v-3.6h2v10.1h-1.9v-1c-0.3,0.4-0.6,0.8-1,1s-0.8,0.3-1.3,0.3
		c-0.9,0-1.6-0.4-2.2-1.1c-0.6-0.7-0.9-1.6-0.9-2.7c0-1.3,0.3-2.3,0.9-3c0.6-0.7,1.4-1.1,2.3-1.1
		C107.5,301.8,107.9,301.9,108.3,302.1z M108.8,307.4c0.3-0.4,0.4-0.9,0.4-1.6c0-0.9-0.2-1.6-0.7-2c-0.3-0.2-0.6-0.4-1-0.4
		c-0.6,0-1,0.2-1.3,0.6c-0.3,0.4-0.4,1-0.4,1.6c0,0.7,0.1,1.2,0.4,1.7c0.3,0.4,0.7,0.6,1.2,0.6S108.5,307.8,108.8,307.4z"/>
	<path class="st2" d="M114.8,302v4.5c0,0.4,0,0.7,0.1,1c0.2,0.4,0.5,0.6,1,0.6c0.7,0,1.1-0.3,1.4-0.8c0.1-0.3,0.2-0.7,0.2-1.2V302h2
		v7.5h-1.9v-1.1c0,0-0.1,0.1-0.1,0.2c-0.1,0.1-0.2,0.2-0.3,0.3c-0.3,0.3-0.6,0.5-0.9,0.6s-0.6,0.2-1,0.2c-1.1,0-1.8-0.4-2.2-1.2
		c-0.2-0.4-0.3-1.1-0.3-1.9V302H114.8z"/>
	<path class="st2" d="M125.9,304.6c0-0.3-0.1-0.5-0.3-0.8c-0.2-0.3-0.6-0.5-1-0.5c-0.7,0-1.1,0.3-1.4,1c-0.1,0.3-0.2,0.8-0.2,1.4
		c0,0.5,0.1,1,0.2,1.3c0.2,0.6,0.7,0.9,1.3,0.9c0.5,0,0.8-0.1,1-0.4c0.2-0.2,0.3-0.6,0.3-1h2c0,0.6-0.3,1.2-0.6,1.7
		c-0.6,0.9-1.5,1.3-2.7,1.3c-1.2,0-2.1-0.4-2.6-1.1s-0.8-1.6-0.8-2.8c0-1.3,0.3-2.3,0.9-3s1.5-1.1,2.6-1.1c0.9,0,1.7,0.2,2.3,0.6
		c0.6,0.4,0.9,1.2,1.1,2.2H125.9z"/>
	<path class="st2" d="M128.5,303.4V302h1V300h1.9v2.1h1.2v1.4h-1.2v3.9c0,0.3,0,0.5,0.1,0.6s0.3,0.1,0.7,0.1c0.1,0,0.1,0,0.2,0
		c0.1,0,0.1,0,0.2,0v1.5l-0.9,0c-0.9,0-1.5-0.1-1.9-0.5c-0.2-0.2-0.3-0.6-0.3-1v-4.6H128.5z"/>
	<path class="st2" d="M135.9,301.1h-2v-1.8h2V301.1z M133.9,302h2v7.5h-2V302z"/>
	<path class="st2" d="M144.1,302.9c0.6,0.7,0.8,1.6,0.8,2.7c0,1.2-0.3,2.1-0.8,2.9c-0.5,0.8-1.3,1.1-2.3,1.1c-0.6,0-1.1-0.1-1.5-0.4
		c-0.2-0.1-0.5-0.4-0.7-0.8v0.9h-1.9v-10.1h1.9v3.6c0.2-0.3,0.5-0.6,0.8-0.8c0.4-0.2,0.8-0.3,1.3-0.3
		C142.8,301.8,143.6,302.2,144.1,302.9z M142.5,307.4c0.3-0.4,0.4-0.9,0.4-1.6c0-0.5-0.1-1-0.2-1.3c-0.3-0.7-0.7-1-1.4-1
		c-0.7,0-1.2,0.3-1.5,1c-0.1,0.3-0.2,0.8-0.2,1.3c0,0.6,0.1,1.2,0.4,1.6c0.3,0.4,0.7,0.6,1.3,0.6C141.8,308,142.2,307.8,142.5,307.4
		z"/>
	<path class="st2" d="M148.3,309.4h-1.9v-10.1h1.9V309.4z"/>
	<path class="st2" d="M155.1,302.1c0.5,0.2,0.9,0.6,1.3,1.1c0.3,0.4,0.5,1,0.6,1.5c0.1,0.3,0.1,0.8,0.1,1.5h-5.4
		c0,0.7,0.3,1.3,0.8,1.6c0.3,0.2,0.7,0.3,1.1,0.3c0.4,0,0.8-0.1,1.1-0.3c0.2-0.1,0.3-0.3,0.4-0.5h2c-0.1,0.4-0.3,0.9-0.7,1.3
		c-0.7,0.7-1.6,1.1-2.8,1.1c-1,0-1.9-0.3-2.6-0.9c-0.8-0.6-1.1-1.6-1.1-3c0-1.3,0.3-2.3,1-3c0.7-0.7,1.6-1,2.7-1
		C154,301.8,154.6,301.9,155.1,302.1z M152.2,303.8c-0.3,0.3-0.4,0.7-0.5,1.2h3.4c0-0.5-0.2-0.9-0.5-1.2c-0.3-0.3-0.7-0.4-1.2-0.4
		C152.8,303.4,152.4,303.5,152.2,303.8z"/>
</g>
<g>
	<path class="st3" d="M26.8,59.8h4.3v14.4h-2.8v-9.7c0-0.3,0-0.7,0-1.2s0-0.9,0-1.2l-2.7,12.1h-2.9L20,62.1c0,0.3,0,0.7,0,1.2
		s0,0.9,0,1.2v9.7h-2.8V59.8h4.4l2.6,11.3L26.8,59.8z"/>
	<path class="st3" d="M40.6,63.8c0.7,0.3,1.4,0.9,1.8,1.6c0.4,0.6,0.7,1.4,0.8,2.2c0.1,0.5,0.1,1.2,0.1,2.1h-7.8
		c0,1.1,0.4,1.8,1.1,2.2c0.4,0.3,0.9,0.4,1.5,0.4c0.6,0,1.1-0.2,1.5-0.5c0.2-0.2,0.4-0.4,0.6-0.7h2.8c-0.1,0.6-0.4,1.3-1,1.9
		c-1,1-2.3,1.6-4,1.6c-1.4,0-2.7-0.4-3.7-1.3c-1.1-0.9-1.6-2.3-1.6-4.3c0-1.8,0.5-3.3,1.5-4.2s2.2-1.5,3.8-1.5
		C39,63.3,39.9,63.5,40.6,63.8z M36.5,66.2c-0.4,0.4-0.6,1-0.7,1.6h4.8c-0.1-0.7-0.3-1.3-0.7-1.7c-0.4-0.4-1-0.6-1.7-0.6
		C37.4,65.6,36.8,65.8,36.5,66.2z"/>
	<path class="st3" d="M50.4,63.8c0.5,0.3,0.9,0.7,1.2,1.2v-5.1h2.8v14.4h-2.7v-1.5c-0.4,0.6-0.8,1.1-1.4,1.4s-1.1,0.4-1.9,0.4
		c-1.2,0-2.3-0.5-3.1-1.5s-1.3-2.3-1.3-3.9c0-1.8,0.4-3.2,1.3-4.3s2-1.6,3.4-1.6C49.4,63.3,49.9,63.5,50.4,63.8z M51.1,71.3
		c0.4-0.6,0.6-1.3,0.6-2.3c0-1.3-0.3-2.2-1-2.8c-0.4-0.3-0.9-0.5-1.4-0.5c-0.8,0-1.4,0.3-1.8,0.9S47,68.1,47,69c0,1,0.2,1.8,0.6,2.4
		s1,0.9,1.8,0.9S50.7,71.9,51.1,71.3z"/>
	<path class="st3" d="M59.9,62.3h-2.8v-2.6h2.8V62.3z M57.1,63.6h2.8v10.6h-2.8V63.6z"/>
	<path class="st3" d="M68.9,67.4c-0.1-0.4-0.2-0.8-0.4-1.1c-0.3-0.4-0.8-0.6-1.5-0.6c-0.9,0-1.6,0.5-1.9,1.4c-0.2,0.5-0.3,1.1-0.3,2
		c0,0.8,0.1,1.4,0.3,1.9c0.3,0.9,1,1.3,1.9,1.3c0.7,0,1.1-0.2,1.4-0.5c0.3-0.4,0.4-0.8,0.5-1.4h2.8c-0.1,0.8-0.4,1.6-0.9,2.4
		C70,74,68.7,74.6,67,74.6s-3-0.5-3.8-1.5c-0.8-1-1.2-2.3-1.2-4c0-1.8,0.4-3.2,1.3-4.3c0.9-1,2.1-1.5,3.7-1.5c1.3,0,2.4,0.3,3.3,0.9
		c0.9,0.6,1.4,1.7,1.5,3.2H68.9z"/>
	<path class="st3" d="M77.9,67.7c0.5-0.1,0.9-0.1,1.1-0.2c0.4-0.2,0.6-0.4,0.6-0.8c0-0.4-0.2-0.7-0.5-0.9c-0.3-0.2-0.8-0.2-1.4-0.2
		c-0.7,0-1.1,0.2-1.4,0.5c-0.2,0.2-0.3,0.6-0.4,1h-2.7c0.1-0.9,0.3-1.7,0.8-2.3c0.7-0.9,2-1.4,3.8-1.4c1.2,0,2.2,0.2,3.1,0.7
		c0.9,0.5,1.4,1.3,1.4,2.6v4.9c0,0.3,0,0.7,0,1.2c0,0.4,0.1,0.6,0.2,0.7c0.1,0.1,0.2,0.2,0.4,0.3v0.4h-3c-0.1-0.2-0.1-0.4-0.2-0.6
		c0-0.2-0.1-0.4-0.1-0.6c-0.4,0.4-0.8,0.8-1.3,1.1c-0.6,0.3-1.3,0.5-2,0.5c-1,0-1.8-0.3-2.4-0.8S73,72.4,73,71.4
		c0-1.3,0.5-2.3,1.5-2.8c0.6-0.3,1.4-0.5,2.5-0.7L77.9,67.7z M79.6,69c-0.2,0.1-0.4,0.2-0.5,0.3s-0.4,0.1-0.7,0.2l-0.6,0.1
		c-0.6,0.1-1,0.2-1.3,0.4c-0.4,0.3-0.7,0.6-0.7,1.2c0,0.5,0.1,0.8,0.4,1c0.3,0.2,0.6,0.3,1,0.3c0.6,0,1.2-0.2,1.7-0.5
		c0.5-0.4,0.8-1,0.8-1.9V69z"/>
	<path class="st3" d="M87.7,74.2h-2.8V59.8h2.8V74.2z"/>
	<path class="st3" d="M104.6,60.1c1,0.3,1.8,0.9,2.5,1.8c0.5,0.7,0.8,1.5,1,2.3s0.3,1.6,0.3,2.4c0,1.9-0.4,3.5-1.2,4.9
		c-1,1.8-2.7,2.7-4.8,2.7h-6.2V59.8h6.2C103.3,59.8,104,59.9,104.6,60.1z M99.1,62.3v9.4h2.8c1.4,0,2.4-0.7,3-2.1
		c0.3-0.8,0.5-1.7,0.5-2.7c0-1.5-0.2-2.6-0.7-3.4s-1.4-1.2-2.7-1.2H99.1z"/>
	<path class="st3" d="M117.3,63.8c0.7,0.3,1.4,0.9,1.8,1.6c0.4,0.6,0.7,1.4,0.8,2.2c0.1,0.5,0.1,1.2,0.1,2.1h-7.8
		c0,1.1,0.4,1.8,1.1,2.2c0.4,0.3,0.9,0.4,1.5,0.4c0.6,0,1.1-0.2,1.5-0.5c0.2-0.2,0.4-0.4,0.6-0.7h2.8c-0.1,0.6-0.4,1.3-1,1.9
		c-1,1-2.3,1.6-4,1.6c-1.4,0-2.7-0.4-3.8-1.3s-1.6-2.3-1.6-4.3c0-1.8,0.5-3.3,1.5-4.2c1-1,2.2-1.5,3.8-1.5
		C115.7,63.3,116.6,63.5,117.3,63.8z M113.2,66.2c-0.4,0.4-0.6,1-0.7,1.6h4.8c-0.1-0.7-0.3-1.3-0.7-1.7c-0.4-0.4-1-0.6-1.7-0.6
		C114.1,65.6,113.5,65.8,113.2,66.2z"/>
	<path class="st3" d="M127.1,63.8c0.5,0.3,0.9,0.7,1.2,1.2v-5.1h2.8v14.4h-2.7v-1.5c-0.4,0.6-0.8,1.1-1.4,1.4s-1.1,0.4-1.9,0.4
		c-1.2,0-2.3-0.5-3.1-1.5s-1.3-2.3-1.3-3.9c0-1.8,0.4-3.2,1.3-4.3s2-1.6,3.4-1.6C126.1,63.3,126.6,63.5,127.1,63.8z M127.8,71.3
		c0.4-0.6,0.6-1.3,0.6-2.3c0-1.3-0.3-2.2-1-2.8c-0.4-0.3-0.9-0.5-1.4-0.5c-0.8,0-1.4,0.3-1.8,0.9s-0.6,1.4-0.6,2.3
		c0,1,0.2,1.8,0.6,2.4s1,0.9,1.8,0.9S127.4,71.9,127.8,71.3z"/>
	<path class="st3" d="M136.5,63.6V70c0,0.6,0.1,1.1,0.2,1.4c0.3,0.5,0.7,0.8,1.5,0.8c0.9,0,1.6-0.4,1.9-1.2c0.2-0.4,0.3-1,0.3-1.7
		v-5.8h2.8v10.6h-2.7v-1.5c0,0-0.1,0.1-0.2,0.3c-0.1,0.2-0.2,0.3-0.4,0.4c-0.4,0.4-0.9,0.7-1.3,0.8c-0.4,0.1-0.9,0.2-1.4,0.2
		c-1.6,0-2.6-0.6-3.2-1.7c-0.3-0.6-0.5-1.5-0.5-2.8v-6.4H136.5z"/>
	<path class="st3" d="M152.3,67.4c-0.1-0.4-0.2-0.8-0.4-1.1c-0.3-0.4-0.8-0.6-1.5-0.6c-0.9,0-1.6,0.5-1.9,1.4
		c-0.2,0.5-0.3,1.1-0.3,2c0,0.8,0.1,1.4,0.3,1.9c0.3,0.9,1,1.3,1.9,1.3c0.7,0,1.1-0.2,1.4-0.5c0.3-0.4,0.4-0.8,0.5-1.4h2.8
		c-0.1,0.8-0.4,1.6-0.9,2.4c-0.9,1.2-2.2,1.8-3.9,1.8s-3-0.5-3.8-1.5c-0.8-1-1.2-2.3-1.2-4c0-1.8,0.4-3.2,1.3-4.3s2.1-1.5,3.7-1.5
		c1.3,0,2.4,0.3,3.3,0.9s1.4,1.7,1.5,3.2H152.3z"/>
	<path class="st3" d="M156,65.7v-2h1.5v-3h2.8v3h1.7v2h-1.7v5.6c0,0.4,0.1,0.7,0.2,0.8s0.4,0.2,1,0.2c0.1,0,0.2,0,0.3,0s0.2,0,0.3,0
		v2.1l-1.3,0c-1.3,0-2.2-0.2-2.7-0.7c-0.3-0.3-0.5-0.8-0.5-1.5v-6.6H156z"/>
	<path class="st3" d="M166.6,62.3h-2.8v-2.6h2.8V62.3z M163.8,63.6h2.8v10.6h-2.8V63.6z"/>
	<path class="st3" d="M178.4,64.9c0.8,1,1.2,2.3,1.2,3.9c0,1.7-0.4,3-1.2,4.1s-1.9,1.6-3.3,1.6c-0.9,0-1.6-0.2-2.1-0.5
		c-0.3-0.2-0.7-0.6-1-1.1v1.3h-2.7V59.8h2.8V65c0.4-0.5,0.7-0.9,1.2-1.1c0.5-0.3,1.1-0.5,1.9-0.5C176.5,63.3,177.6,63.8,178.4,64.9z
		 M176,71.3c0.4-0.6,0.6-1.3,0.6-2.3c0-0.8-0.1-1.4-0.3-1.9c-0.4-0.9-1.1-1.4-2.1-1.4c-1,0-1.7,0.5-2.1,1.4
		c-0.2,0.5-0.3,1.1-0.3,1.9c0,0.9,0.2,1.7,0.6,2.3s1,0.9,1.9,0.9C175.1,72.2,175.6,71.9,176,71.3z"/>
	<path class="st3" d="M184.3,74.2h-2.8V59.8h2.8V74.2z"/>
	<path class="st3" d="M194,63.8c0.7,0.3,1.4,0.9,1.8,1.6c0.4,0.6,0.7,1.4,0.8,2.2c0.1,0.5,0.1,1.2,0.1,2.1H189
		c0,1.1,0.4,1.8,1.1,2.2c0.4,0.3,0.9,0.4,1.5,0.4c0.6,0,1.1-0.2,1.5-0.5c0.2-0.2,0.4-0.4,0.6-0.7h2.8c-0.1,0.6-0.4,1.3-1,1.9
		c-1,1-2.3,1.6-4,1.6c-1.4,0-2.7-0.4-3.8-1.3s-1.6-2.3-1.6-4.3c0-1.8,0.5-3.3,1.5-4.2c1-1,2.2-1.5,3.8-1.5
		C192.4,63.3,193.2,63.5,194,63.8z M189.8,66.2c-0.4,0.4-0.6,1-0.7,1.6h4.8c-0.1-0.7-0.3-1.3-0.7-1.7c-0.4-0.4-1-0.6-1.7-0.6
		C190.8,65.6,190.2,65.8,189.8,66.2z"/>
</g>
<g>
	<path class="st2" d="M17.2,178.5h7.2v1.8h-5.1v2.3h4.5v1.8h-4.5v4.2h-2.1V178.5z"/>
	<path class="st2" d="M28.5,184c0.4,0,0.6-0.1,0.8-0.2c0.3-0.1,0.4-0.3,0.4-0.6c0-0.3-0.1-0.5-0.3-0.6s-0.5-0.2-0.9-0.2
		c-0.5,0-0.8,0.1-1,0.3c-0.1,0.2-0.2,0.4-0.3,0.7h-1.9c0-0.7,0.2-1.2,0.5-1.6c0.5-0.7,1.4-1,2.7-1c0.8,0,1.5,0.2,2.2,0.5
		s1,0.9,1,1.8v3.4c0,0.2,0,0.5,0,0.9c0,0.3,0.1,0.4,0.1,0.5s0.2,0.2,0.3,0.2v0.3H30c-0.1-0.2-0.1-0.3-0.1-0.4s0-0.3-0.1-0.5
		c-0.3,0.3-0.6,0.5-0.9,0.7c-0.4,0.2-0.9,0.4-1.4,0.4c-0.7,0-1.2-0.2-1.7-0.6s-0.7-0.9-0.7-1.6c0-0.9,0.4-1.6,1.1-2
		c0.4-0.2,1-0.4,1.7-0.5L28.5,184z M29.7,185c-0.1,0.1-0.3,0.1-0.4,0.2s-0.3,0.1-0.5,0.1l-0.4,0.1c-0.4,0.1-0.7,0.2-0.9,0.3
		c-0.3,0.2-0.5,0.5-0.5,0.8c0,0.3,0.1,0.6,0.3,0.7c0.2,0.1,0.4,0.2,0.7,0.2c0.4,0,0.8-0.1,1.2-0.4c0.4-0.2,0.5-0.7,0.6-1.3V185z"/>
	<path class="st2" d="M42.7,181.2c0.3,0.1,0.6,0.4,0.9,0.7c0.2,0.3,0.4,0.6,0.4,1c0,0.3,0.1,0.6,0.1,1.1l0,4.7h-2v-4.7
		c0-0.3,0-0.5-0.1-0.7c-0.2-0.3-0.5-0.5-1-0.5c-0.5,0-0.9,0.2-1.1,0.7c-0.1,0.2-0.2,0.5-0.2,0.9v4.4h-2v-4.4c0-0.4,0-0.8-0.1-1
		c-0.2-0.4-0.5-0.5-1-0.5c-0.6,0-0.9,0.2-1.1,0.5c-0.1,0.2-0.2,0.5-0.2,0.9v4.5h-2v-7.4h1.9v1.1c0.2-0.4,0.5-0.7,0.7-0.8
		c0.4-0.3,0.9-0.4,1.5-0.4c0.6,0,1,0.1,1.4,0.4c0.3,0.2,0.5,0.5,0.6,0.9c0.3-0.4,0.6-0.8,1-1c0.4-0.2,0.8-0.3,1.3-0.3
		C42,181,42.4,181,42.7,181.2z"/>
	<path class="st2" d="M47.8,180.2h-2v-1.8h2V180.2z M45.9,181.1h2v7.5h-2V181.1z"/>
	<path class="st2" d="M51.7,188.6h-1.9v-10.1h1.9V188.6z"/>
	<path class="st2" d="M53.9,190l0.2,0c0.2,0,0.4,0,0.5,0s0.3-0.1,0.4-0.2c0.1-0.1,0.2-0.2,0.3-0.5s0.1-0.4,0.1-0.5l-2.7-7.8H55
		l1.6,5.5l1.5-5.5h2.1l-2.6,7.3c-0.5,1.4-0.9,2.3-1.2,2.6s-0.9,0.5-1.7,0.5c-0.2,0-0.3,0-0.4,0s-0.3,0-0.5,0V190z"/>
	<path class="st2" d="M71.3,178.7c0.7,0.2,1.3,0.7,1.7,1.3c0.4,0.5,0.6,1,0.7,1.6c0.1,0.6,0.2,1.1,0.2,1.7c0,1.3-0.3,2.5-0.8,3.4
		c-0.7,1.3-1.9,1.9-3.4,1.9h-4.3v-10.1h4.3C70.4,178.5,70.9,178.6,71.3,178.7z M67.5,180.3v6.6h1.9c1,0,1.7-0.5,2.1-1.5
		c0.2-0.5,0.3-1.2,0.3-1.9c0-1-0.2-1.8-0.5-2.4s-1-0.8-1.9-0.8H67.5z"/>
	<path class="st2" d="M80.2,181.3c0.5,0.2,0.9,0.6,1.3,1.1c0.3,0.4,0.5,1,0.6,1.5c0.1,0.3,0.1,0.8,0.1,1.5h-5.4
		c0,0.7,0.3,1.3,0.8,1.6c0.3,0.2,0.7,0.3,1.1,0.3c0.4,0,0.8-0.1,1.1-0.3c0.2-0.1,0.3-0.3,0.4-0.5h2c-0.1,0.4-0.3,0.9-0.7,1.3
		c-0.7,0.7-1.6,1.1-2.8,1.1c-1,0-1.9-0.3-2.6-0.9c-0.8-0.6-1.1-1.6-1.1-3c0-1.3,0.3-2.3,1-3c0.7-0.7,1.6-1,2.7-1
		C79.1,180.9,79.7,181,80.2,181.3z M77.3,183c-0.3,0.3-0.4,0.7-0.5,1.2h3.4c0-0.5-0.2-0.9-0.5-1.2c-0.3-0.3-0.7-0.4-1.2-0.4
		C78,182.5,77.6,182.7,77.3,183z"/>
	<path class="st2" d="M87.1,181.2c0.4,0.2,0.6,0.5,0.9,0.8v-3.6h2v10.1h-1.9v-1c-0.3,0.4-0.6,0.8-1,1s-0.8,0.3-1.3,0.3
		c-0.9,0-1.6-0.4-2.2-1.1c-0.6-0.7-0.9-1.6-0.9-2.7c0-1.3,0.3-2.3,0.9-3c0.6-0.7,1.4-1.1,2.3-1.1C86.4,180.9,86.8,181,87.1,181.2z
		 M87.6,186.6c0.3-0.4,0.4-0.9,0.4-1.6c0-0.9-0.2-1.6-0.7-2c-0.3-0.2-0.6-0.4-1-0.4c-0.6,0-1,0.2-1.3,0.6c-0.3,0.4-0.4,1-0.4,1.6
		c0,0.7,0.1,1.2,0.4,1.7c0.3,0.4,0.7,0.6,1.2,0.6S87.3,187,87.6,186.6z"/>
	<path class="st2" d="M93.7,181.1v4.5c0,0.4,0,0.7,0.1,1c0.2,0.4,0.5,0.6,1,0.6c0.7,0,1.1-0.3,1.4-0.8c0.1-0.3,0.2-0.7,0.2-1.2v-4.1
		h2v7.5h-1.9v-1.1c0,0-0.1,0.1-0.1,0.2c-0.1,0.1-0.2,0.2-0.3,0.3c-0.3,0.3-0.6,0.5-0.9,0.6s-0.6,0.2-1,0.2c-1.1,0-1.8-0.4-2.2-1.2
		c-0.2-0.4-0.3-1.1-0.3-1.9v-4.5H93.7z"/>
	<path class="st2" d="M104.7,183.8c0-0.3-0.1-0.5-0.3-0.8c-0.2-0.3-0.6-0.5-1-0.5c-0.7,0-1.1,0.3-1.4,1c-0.1,0.3-0.2,0.8-0.2,1.4
		c0,0.5,0.1,1,0.2,1.3c0.2,0.6,0.7,0.9,1.3,0.9c0.5,0,0.8-0.1,1-0.4c0.2-0.2,0.3-0.6,0.3-1h2c0,0.6-0.3,1.2-0.6,1.7
		c-0.6,0.9-1.5,1.3-2.7,1.3c-1.2,0-2.1-0.4-2.6-1.1s-0.8-1.6-0.8-2.8c0-1.3,0.3-2.3,0.9-3s1.5-1.1,2.6-1.1c0.9,0,1.7,0.2,2.3,0.6
		c0.6,0.4,0.9,1.2,1.1,2.2H104.7z"/>
	<path class="st2" d="M107.3,182.6v-1.4h1v-2.1h1.9v2.1h1.2v1.4h-1.2v3.9c0,0.3,0,0.5,0.1,0.6s0.3,0.1,0.7,0.1c0.1,0,0.1,0,0.2,0
		c0.1,0,0.1,0,0.2,0v1.5l-0.9,0c-0.9,0-1.5-0.1-1.9-0.5c-0.2-0.2-0.3-0.6-0.3-1v-4.6H107.3z"/>
	<path class="st2" d="M114.7,180.2h-2v-1.8h2V180.2z M112.8,181.1h2v7.5h-2V181.1z"/>
	<path class="st2" d="M123,182c0.6,0.7,0.8,1.6,0.8,2.7c0,1.2-0.3,2.1-0.8,2.9c-0.5,0.8-1.3,1.1-2.3,1.1c-0.6,0-1.1-0.1-1.5-0.4
		c-0.2-0.1-0.5-0.4-0.7-0.8v0.9h-1.9v-10.1h1.9v3.6c0.2-0.3,0.5-0.6,0.8-0.8c0.4-0.2,0.8-0.3,1.3-0.3C121.7,181,122.4,181.3,123,182
		z M121.4,186.6c0.3-0.4,0.4-0.9,0.4-1.6c0-0.5-0.1-1-0.2-1.3c-0.3-0.7-0.7-1-1.4-1c-0.7,0-1.2,0.3-1.5,1c-0.1,0.3-0.2,0.8-0.2,1.3
		c0,0.6,0.1,1.2,0.4,1.6c0.3,0.4,0.7,0.6,1.3,0.6C120.7,187.2,121.1,187,121.4,186.6z"/>
	<path class="st2" d="M127.2,188.6h-1.9v-10.1h1.9V188.6z"/>
	<path class="st2" d="M133.9,181.3c0.5,0.2,0.9,0.6,1.3,1.1c0.3,0.4,0.5,1,0.6,1.5c0.1,0.3,0.1,0.8,0.1,1.5h-5.4
		c0,0.7,0.3,1.3,0.8,1.6c0.3,0.2,0.7,0.3,1.1,0.3c0.4,0,0.8-0.1,1.1-0.3c0.2-0.1,0.3-0.3,0.4-0.5h2c-0.1,0.4-0.3,0.9-0.7,1.3
		c-0.7,0.7-1.6,1.1-2.8,1.1c-1,0-1.9-0.3-2.6-0.9c-0.8-0.6-1.1-1.6-1.1-3c0-1.3,0.3-2.3,1-3c0.7-0.7,1.6-1,2.7-1
		C132.8,180.9,133.4,181,133.9,181.3z M131,183c-0.3,0.3-0.4,0.7-0.5,1.2h3.4c0-0.5-0.2-0.9-0.5-1.2c-0.3-0.3-0.7-0.4-1.2-0.4
		C131.7,182.5,131.3,182.7,131,183z"/>
</g>
<g>
	<path class="st2" d="M17.2,386.1h7.2v1.8h-5.1v2.3h4.5v1.8h-4.5v4.2h-2.1V386.1z"/>
	<path class="st2" d="M28.5,391.7c0.4,0,0.6-0.1,0.8-0.2c0.3-0.1,0.4-0.3,0.4-0.6c0-0.3-0.1-0.5-0.3-0.6s-0.5-0.2-0.9-0.2
		c-0.5,0-0.8,0.1-1,0.3c-0.1,0.2-0.2,0.4-0.3,0.7h-1.9c0-0.7,0.2-1.2,0.5-1.6c0.5-0.7,1.4-1,2.7-1c0.8,0,1.5,0.2,2.2,0.5
		s1,0.9,1,1.8v3.4c0,0.2,0,0.5,0,0.9c0,0.3,0.1,0.4,0.1,0.5s0.2,0.2,0.3,0.2v0.3H30c-0.1-0.2-0.1-0.3-0.1-0.4s0-0.3-0.1-0.5
		c-0.3,0.3-0.6,0.5-0.9,0.7c-0.4,0.2-0.9,0.4-1.4,0.4c-0.7,0-1.2-0.2-1.7-0.6s-0.7-0.9-0.7-1.6c0-0.9,0.4-1.6,1.1-2
		c0.4-0.2,1-0.4,1.7-0.5L28.5,391.7z M29.7,392.6c-0.1,0.1-0.3,0.1-0.4,0.2s-0.3,0.1-0.5,0.1l-0.4,0.1c-0.4,0.1-0.7,0.2-0.9,0.3
		c-0.3,0.2-0.5,0.5-0.5,0.8c0,0.3,0.1,0.6,0.3,0.7c0.2,0.1,0.4,0.2,0.7,0.2c0.4,0,0.8-0.1,1.2-0.4c0.4-0.2,0.5-0.7,0.6-1.3V392.6z"
		/>
	<path class="st2" d="M42.7,388.8c0.3,0.1,0.6,0.4,0.9,0.7c0.2,0.3,0.4,0.6,0.4,1c0,0.3,0.1,0.6,0.1,1.1l0,4.7h-2v-4.7
		c0-0.3,0-0.5-0.1-0.7c-0.2-0.3-0.5-0.5-1-0.5c-0.5,0-0.9,0.2-1.1,0.7c-0.1,0.2-0.2,0.5-0.2,0.9v4.4h-2v-4.4c0-0.4,0-0.8-0.1-1
		c-0.2-0.4-0.5-0.5-1-0.5c-0.6,0-0.9,0.2-1.1,0.5c-0.1,0.2-0.2,0.5-0.2,0.9v4.5h-2v-7.4h1.9v1.1c0.2-0.4,0.5-0.7,0.7-0.8
		c0.4-0.3,0.9-0.4,1.5-0.4c0.6,0,1,0.1,1.4,0.4c0.3,0.2,0.5,0.5,0.6,0.9c0.3-0.4,0.6-0.8,1-1c0.4-0.2,0.8-0.3,1.3-0.3
		C42,388.6,42.4,388.6,42.7,388.8z"/>
	<path class="st2" d="M47.8,387.8h-2V386h2V387.8z M45.9,388.7h2v7.5h-2V388.7z"/>
	<path class="st2" d="M51.7,396.2h-1.9v-10.1h1.9V396.2z"/>
	<path class="st2" d="M53.9,397.6l0.2,0c0.2,0,0.4,0,0.5,0s0.3-0.1,0.4-0.2c0.1-0.1,0.2-0.2,0.3-0.5s0.1-0.4,0.1-0.5l-2.7-7.8H55
		l1.6,5.5l1.5-5.5h2.1l-2.6,7.3c-0.5,1.4-0.9,2.3-1.2,2.6s-0.9,0.5-1.7,0.5c-0.2,0-0.3,0-0.4,0s-0.3,0-0.5,0V397.6z"/>
	<path class="st2" d="M71.3,386.3c0.7,0.2,1.3,0.7,1.7,1.3c0.4,0.5,0.6,1,0.7,1.6c0.1,0.6,0.2,1.1,0.2,1.7c0,1.3-0.3,2.5-0.8,3.4
		c-0.7,1.3-1.9,1.9-3.4,1.9h-4.3v-10.1h4.3C70.4,386.1,70.9,386.2,71.3,386.3z M67.5,387.9v6.6h1.9c1,0,1.7-0.5,2.1-1.5
		c0.2-0.5,0.3-1.2,0.3-1.9c0-1-0.2-1.8-0.5-2.4s-1-0.8-1.9-0.8H67.5z"/>
	<path class="st2" d="M80.2,388.9c0.5,0.2,0.9,0.6,1.3,1.1c0.3,0.4,0.5,1,0.6,1.5c0.1,0.3,0.1,0.8,0.1,1.5h-5.4
		c0,0.7,0.3,1.3,0.8,1.6c0.3,0.2,0.7,0.3,1.1,0.3c0.4,0,0.8-0.1,1.1-0.3c0.2-0.1,0.3-0.3,0.4-0.5h2c-0.1,0.4-0.3,0.9-0.7,1.3
		c-0.7,0.7-1.6,1.1-2.8,1.1c-1,0-1.9-0.3-2.6-0.9c-0.8-0.6-1.1-1.6-1.1-3c0-1.3,0.3-2.3,1-3c0.7-0.7,1.6-1,2.7-1
		C79.1,388.5,79.7,388.7,80.2,388.9z M77.3,390.6c-0.3,0.3-0.4,0.7-0.5,1.2h3.4c0-0.5-0.2-0.9-0.5-1.2c-0.3-0.3-0.7-0.4-1.2-0.4
		C78,390.1,77.6,390.3,77.3,390.6z"/>
	<path class="st2" d="M87.1,388.9c0.4,0.2,0.6,0.5,0.9,0.8v-3.6h2v10.1h-1.9v-1c-0.3,0.4-0.6,0.8-1,1s-0.8,0.3-1.3,0.3
		c-0.9,0-1.6-0.4-2.2-1.1c-0.6-0.7-0.9-1.6-0.9-2.7c0-1.3,0.3-2.3,0.9-3c0.6-0.7,1.4-1.1,2.3-1.1C86.4,388.6,86.8,388.7,87.1,388.9z
		 M87.6,394.2c0.3-0.4,0.4-0.9,0.4-1.6c0-0.9-0.2-1.6-0.7-2c-0.3-0.2-0.6-0.4-1-0.4c-0.6,0-1,0.2-1.3,0.6c-0.3,0.4-0.4,1-0.4,1.6
		c0,0.7,0.1,1.2,0.4,1.7c0.3,0.4,0.7,0.6,1.2,0.6S87.3,394.6,87.6,394.2z"/>
	<path class="st2" d="M93.7,388.7v4.5c0,0.4,0,0.7,0.1,1c0.2,0.4,0.5,0.6,1,0.6c0.7,0,1.1-0.3,1.4-0.8c0.1-0.3,0.2-0.7,0.2-1.2v-4.1
		h2v7.5h-1.9v-1.1c0,0-0.1,0.1-0.1,0.2c-0.1,0.1-0.2,0.2-0.3,0.3c-0.3,0.3-0.6,0.5-0.9,0.6s-0.6,0.2-1,0.2c-1.1,0-1.8-0.4-2.2-1.2
		c-0.2-0.4-0.3-1.1-0.3-1.9v-4.5H93.7z"/>
	<path class="st2" d="M104.7,391.4c0-0.3-0.1-0.5-0.3-0.8c-0.2-0.3-0.6-0.5-1-0.5c-0.7,0-1.1,0.3-1.4,1c-0.1,0.3-0.2,0.8-0.2,1.4
		c0,0.5,0.1,1,0.2,1.3c0.2,0.6,0.7,0.9,1.3,0.9c0.5,0,0.8-0.1,1-0.4c0.2-0.2,0.3-0.6,0.3-1h2c0,0.6-0.3,1.2-0.6,1.7
		c-0.6,0.9-1.5,1.3-2.7,1.3c-1.2,0-2.1-0.4-2.6-1.1s-0.8-1.6-0.8-2.8c0-1.3,0.3-2.3,0.9-3s1.5-1.1,2.6-1.1c0.9,0,1.7,0.2,2.3,0.6
		c0.6,0.4,0.9,1.2,1.1,2.2H104.7z"/>
	<path class="st2" d="M107.3,390.2v-1.4h1v-2.1h1.9v2.1h1.2v1.4h-1.2v3.9c0,0.3,0,0.5,0.1,0.6s0.3,0.1,0.7,0.1c0.1,0,0.1,0,0.2,0
		c0.1,0,0.1,0,0.2,0v1.5l-0.9,0c-0.9,0-1.5-0.1-1.9-0.5c-0.2-0.2-0.3-0.6-0.3-1v-4.6H107.3z"/>
	<path class="st2" d="M114.7,387.8h-2V386h2V387.8z M112.8,388.7h2v7.5h-2V388.7z"/>
	<path class="st2" d="M123,389.6c0.6,0.7,0.8,1.6,0.8,2.7c0,1.2-0.3,2.1-0.8,2.9c-0.5,0.8-1.3,1.1-2.3,1.1c-0.6,0-1.1-0.1-1.5-0.4
		c-0.2-0.1-0.5-0.4-0.7-0.8v0.9h-1.9v-10.1h1.9v3.6c0.2-0.3,0.5-0.6,0.8-0.8c0.4-0.2,0.8-0.3,1.3-0.3
		C121.7,388.6,122.4,388.9,123,389.6z M121.4,394.2c0.3-0.4,0.4-0.9,0.4-1.6c0-0.5-0.1-1-0.2-1.3c-0.3-0.7-0.7-1-1.4-1
		c-0.7,0-1.2,0.3-1.5,1c-0.1,0.3-0.2,0.8-0.2,1.3c0,0.6,0.1,1.2,0.4,1.6c0.3,0.4,0.7,0.6,1.3,0.6
		C120.7,394.8,121.1,394.6,121.4,394.2z"/>
	<path class="st2" d="M127.2,396.2h-1.9v-10.1h1.9V396.2z"/>
	<path class="st2" d="M133.9,388.9c0.5,0.2,0.9,0.6,1.3,1.1c0.3,0.4,0.5,1,0.6,1.5c0.1,0.3,0.1,0.8,0.1,1.5h-5.4
		c0,0.7,0.3,1.3,0.8,1.6c0.3,0.2,0.7,0.3,1.1,0.3c0.4,0,0.8-0.1,1.1-0.3c0.2-0.1,0.3-0.3,0.4-0.5h2c-0.1,0.4-0.3,0.9-0.7,1.3
		c-0.7,0.7-1.6,1.1-2.8,1.1c-1,0-1.9-0.3-2.6-0.9c-0.8-0.6-1.1-1.6-1.1-3c0-1.3,0.3-2.3,1-3c0.7-0.7,1.6-1,2.7-1
		C132.8,388.5,133.4,388.7,133.9,388.9z M131,390.6c-0.3,0.3-0.4,0.7-0.5,1.2h3.4c0-0.5-0.2-0.9-0.5-1.2c-0.3-0.3-0.7-0.4-1.2-0.4
		C131.7,390.1,131.3,390.3,131,390.6z"/>
</g>
<g>
	<path class="st1" d="M283.5,1c1.1,0,2,0.9,2,2v512.2c0,1.1-0.9,2-2,2H3c-1.1,0-2-0.9-2-2V3c0-1.1,0.9-2,2-2H283.5 M283.5,0H3
		C1.3,0,0,1.3,0,3v512.2c0,1.7,1.3,3,3,3h280.5c1.6,0,3-1.3,3-3V3C286.5,1.4,285.1,0,283.5,0L283.5,0z"/>
</g>
<g>
	<path class="st4" d="M22.2,120.3c0.5-0.6,1.2-0.8,2.1-0.8v-0.9h0.6v0.9c0.9,0.1,1.6,0.3,2.1,0.8c0.5,0.5,0.7,1.1,0.8,1.9h-1.2
		c0-0.3-0.1-0.6-0.3-0.9c-0.3-0.5-0.7-0.7-1.4-0.7v3.3c1.1,0.3,1.8,0.6,2.2,0.8c0.6,0.4,0.9,1.1,0.9,1.9c0,1.2-0.4,2.1-1.2,2.6
		c-0.4,0.3-1.1,0.5-1.9,0.6v1.3h-0.6v-1.3c-1.3-0.1-2.2-0.6-2.7-1.4c-0.3-0.5-0.4-1.1-0.4-1.9h1.2c0,0.6,0.1,1.1,0.3,1.4
		c0.3,0.5,0.8,0.8,1.6,0.9v-3.7c-1-0.2-1.7-0.5-2.2-0.9s-0.7-1-0.7-1.8C21.4,121.5,21.6,120.9,22.2,120.3z M23.1,123.2
		c0.3,0.3,0.7,0.4,1.2,0.5v-3.2c-0.6,0-1,0.2-1.3,0.5c-0.3,0.3-0.4,0.7-0.4,1.1C22.6,122.6,22.8,122.9,23.1,123.2z M26.6,127.9
		c0.2-0.3,0.2-0.6,0.2-1c0-0.6-0.2-1-0.6-1.3c-0.2-0.2-0.6-0.3-1.2-0.5v3.6C25.7,128.7,26.3,128.4,26.6,127.9z"/>
	<path class="st4" d="M33.2,129.4V127h-4.3v-1.2l4.5-6.2h1v6.4h1.4v1.1h-1.4v2.4H33.2z M33.2,126v-4.4L30,126H33.2z"/>
	<path class="st4" d="M38.1,126.9c0.1,0.7,0.4,1.2,1,1.5c0.3,0.1,0.6,0.2,1,0.2c0.7,0,1.3-0.2,1.6-0.7c0.4-0.5,0.5-1,0.5-1.5
		c0-0.7-0.2-1.2-0.6-1.6s-0.9-0.6-1.5-0.6c-0.4,0-0.8,0.1-1.1,0.2s-0.6,0.4-0.8,0.7l-1.1-0.1l0.7-5.3H43v1.2h-4.2l-0.4,2.7
		c0.2-0.2,0.4-0.3,0.6-0.4c0.4-0.2,0.8-0.2,1.3-0.2c0.9,0,1.7,0.3,2.3,0.9s0.9,1.3,0.9,2.2c0,0.9-0.3,1.7-0.9,2.4
		c-0.6,0.7-1.5,1.1-2.7,1.1c-0.8,0-1.5-0.2-2.1-0.7s-1-1.1-1-2.1H38.1z"/>
	<path class="st4" d="M50.7,121.2c0.4,0.8,0.7,1.9,0.7,3.3c0,1.3-0.2,2.4-0.6,3.3c-0.6,1.2-1.5,1.9-2.8,1.9c-1.2,0-2.1-0.5-2.6-1.5
		c-0.5-0.9-0.7-2-0.7-3.4c0-1.1,0.1-2.1,0.4-2.9c0.5-1.5,1.5-2.2,2.9-2.2C49.2,119.6,50.1,120.1,50.7,121.2z M49.4,127.7
		c0.4-0.6,0.6-1.6,0.6-3.2c0-1.1-0.1-2-0.4-2.7c-0.3-0.7-0.8-1.1-1.6-1.1c-0.7,0-1.3,0.3-1.6,1c-0.3,0.7-0.5,1.7-0.5,3
		c0,1,0.1,1.8,0.3,2.4c0.3,0.9,0.9,1.4,1.7,1.4C48.5,128.6,49,128.3,49.4,127.7z"/>
	<path class="st4" d="M53.1,127.9h1.4v1.5h-1.4V127.9z"/>
	<path class="st4" d="M62.3,121.2c0.4,0.8,0.7,1.9,0.7,3.3c0,1.3-0.2,2.4-0.6,3.3c-0.6,1.2-1.5,1.9-2.8,1.9c-1.2,0-2.1-0.5-2.6-1.5
		c-0.5-0.9-0.7-2-0.7-3.4c0-1.1,0.1-2.1,0.4-2.9c0.5-1.5,1.5-2.2,2.9-2.2C60.9,119.6,61.8,120.1,62.3,121.2z M61.1,127.7
		c0.4-0.6,0.6-1.6,0.6-3.2c0-1.1-0.1-2-0.4-2.7c-0.3-0.7-0.8-1.1-1.6-1.1c-0.7,0-1.3,0.3-1.6,1c-0.3,0.7-0.5,1.7-0.5,3
		c0,1,0.1,1.8,0.3,2.4c0.3,0.9,0.9,1.4,1.7,1.4C60.2,128.6,60.7,128.3,61.1,127.7z"/>
	<path class="st4" d="M70.1,121.2c0.4,0.8,0.7,1.9,0.7,3.3c0,1.3-0.2,2.4-0.6,3.3c-0.6,1.2-1.5,1.9-2.8,1.9c-1.2,0-2.1-0.5-2.6-1.5
		c-0.5-0.9-0.7-2-0.7-3.4c0-1.1,0.1-2.1,0.4-2.9c0.5-1.5,1.5-2.2,2.9-2.2C68.6,119.6,69.6,120.1,70.1,121.2z M68.9,127.7
		c0.4-0.6,0.6-1.6,0.6-3.2c0-1.1-0.1-2-0.4-2.7c-0.3-0.7-0.8-1.1-1.6-1.1c-0.7,0-1.3,0.3-1.6,1c-0.3,0.7-0.5,1.7-0.5,3
		c0,1,0.1,1.8,0.3,2.4c0.3,0.9,0.9,1.4,1.7,1.4C68,128.6,68.5,128.3,68.9,127.7z"/>
</g>
<g>
	<path class="st4" d="M217.2,120.3c0.5-0.6,1.2-0.8,2.1-0.8v-0.9h0.6v0.9c0.9,0.1,1.6,0.3,2.1,0.8c0.5,0.5,0.7,1.1,0.8,1.9h-1.2
		c0-0.3-0.1-0.6-0.3-0.9c-0.3-0.5-0.7-0.7-1.4-0.7v3.3c1.1,0.3,1.8,0.6,2.2,0.8c0.6,0.4,0.9,1.1,0.9,1.9c0,1.2-0.4,2.1-1.2,2.6
		c-0.4,0.3-1.1,0.5-1.9,0.6v1.3h-0.6v-1.3c-1.3-0.1-2.2-0.6-2.7-1.4c-0.3-0.5-0.4-1.1-0.4-1.9h1.2c0,0.6,0.1,1.1,0.3,1.4
		c0.3,0.5,0.8,0.8,1.6,0.9v-3.7c-1-0.2-1.7-0.5-2.2-0.9s-0.7-1-0.7-1.8C216.4,121.5,216.7,120.9,217.2,120.3z M218.1,123.2
		c0.3,0.3,0.7,0.4,1.2,0.5v-3.2c-0.6,0-1,0.2-1.3,0.5c-0.3,0.3-0.4,0.7-0.4,1.1C217.7,122.6,217.8,122.9,218.1,123.2z M221.6,127.9
		c0.2-0.3,0.2-0.6,0.2-1c0-0.6-0.2-1-0.6-1.3c-0.2-0.2-0.6-0.3-1.2-0.5v3.6C220.8,128.7,221.3,128.4,221.6,127.9z"/>
	<path class="st4" d="M230,120.4c0.4,0.6,0.6,1.2,0.6,1.8h-1.2c-0.1-0.4-0.2-0.7-0.3-0.9c-0.3-0.4-0.7-0.6-1.3-0.6
		c-0.7,0-1.2,0.3-1.6,1s-0.6,1.5-0.7,2.7c0.3-0.4,0.6-0.7,1.1-0.9c0.4-0.2,0.8-0.3,1.3-0.3c0.8,0,1.5,0.3,2.1,0.8s0.9,1.3,0.9,2.3
		c0,0.9-0.3,1.7-0.9,2.4c-0.6,0.7-1.4,1-2.5,1c-0.9,0-1.7-0.3-2.4-1c-0.7-0.7-1-1.9-1-3.5c0-1.2,0.1-2.2,0.4-3.1
		c0.6-1.6,1.6-2.4,3.1-2.4C228.8,119.6,229.5,119.9,230,120.4z M229,127.9c0.3-0.4,0.5-0.9,0.5-1.5c0-0.5-0.1-1-0.4-1.4
		s-0.8-0.7-1.6-0.7c-0.5,0-1,0.2-1.4,0.5s-0.6,0.9-0.6,1.6c0,0.6,0.2,1.1,0.5,1.6c0.4,0.4,0.9,0.6,1.5,0.6
		C228.2,128.6,228.7,128.4,229,127.9z"/>
	<path class="st4" d="M233.1,126.9c0.1,0.7,0.4,1.2,1,1.5c0.3,0.1,0.6,0.2,1,0.2c0.7,0,1.3-0.2,1.6-0.7c0.4-0.5,0.5-1,0.5-1.5
		c0-0.7-0.2-1.2-0.6-1.6s-0.9-0.6-1.5-0.6c-0.4,0-0.8,0.1-1.1,0.2s-0.6,0.4-0.8,0.7l-1.1-0.1l0.7-5.3h5.1v1.2h-4.2l-0.4,2.7
		c0.2-0.2,0.4-0.3,0.6-0.4c0.4-0.2,0.8-0.2,1.3-0.2c0.9,0,1.7,0.3,2.3,0.9s0.9,1.3,0.9,2.2c0,0.9-0.3,1.7-0.9,2.4
		c-0.6,0.7-1.5,1.1-2.7,1.1c-0.8,0-1.5-0.2-2.1-0.7s-1-1.1-1-2.1H233.1z"/>
	<path class="st4" d="M245.7,121.2c0.4,0.8,0.7,1.9,0.7,3.3c0,1.3-0.2,2.4-0.6,3.3c-0.6,1.2-1.5,1.9-2.8,1.9c-1.2,0-2.1-0.5-2.6-1.5
		c-0.5-0.9-0.7-2-0.7-3.4c0-1.1,0.1-2.1,0.4-2.9c0.5-1.5,1.5-2.2,2.9-2.2C244.2,119.6,245.1,120.1,245.7,121.2z M244.5,127.7
		c0.4-0.6,0.6-1.6,0.6-3.2c0-1.1-0.1-2-0.4-2.7c-0.3-0.7-0.8-1.1-1.6-1.1c-0.7,0-1.3,0.3-1.6,1c-0.3,0.7-0.5,1.7-0.5,3
		c0,1,0.1,1.8,0.3,2.4c0.3,0.9,0.9,1.4,1.7,1.4C243.6,128.6,244.1,128.3,244.5,127.7z"/>
	<path class="st4" d="M248.1,127.9h1.4v1.5h-1.4V127.9z"/>
	<path class="st4" d="M257.4,121.2c0.4,0.8,0.7,1.9,0.7,3.3c0,1.3-0.2,2.4-0.6,3.3c-0.6,1.2-1.5,1.9-2.8,1.9c-1.2,0-2.1-0.5-2.6-1.5
		c-0.5-0.9-0.7-2-0.7-3.4c0-1.1,0.1-2.1,0.4-2.9c0.5-1.5,1.5-2.2,2.9-2.2C255.9,119.6,256.8,120.1,257.4,121.2z M256.1,127.7
		c0.4-0.6,0.6-1.6,0.6-3.2c0-1.1-0.1-2-0.4-2.7c-0.3-0.7-0.8-1.1-1.6-1.1c-0.7,0-1.3,0.3-1.6,1c-0.3,0.7-0.5,1.7-0.5,3
		c0,1,0.1,1.8,0.3,2.4c0.3,0.9,0.9,1.4,1.7,1.4C255.2,128.6,255.8,128.3,256.1,127.7z"/>
	<path class="st4" d="M265.2,121.2c0.4,0.8,0.7,1.9,0.7,3.3c0,1.3-0.2,2.4-0.6,3.3c-0.6,1.2-1.5,1.9-2.8,1.9c-1.2,0-2.1-0.5-2.6-1.5
		c-0.5-0.9-0.7-2-0.7-3.4c0-1.1,0.1-2.1,0.4-2.9c0.5-1.5,1.5-2.2,2.9-2.2C263.7,119.6,264.6,120.1,265.2,121.2z M263.9,127.7
		c0.4-0.6,0.6-1.6,0.6-3.2c0-1.1-0.1-2-0.4-2.7c-0.3-0.7-0.8-1.1-1.6-1.1c-0.7,0-1.3,0.3-1.6,1c-0.3,0.7-0.5,1.7-0.5,3
		c0,1,0.1,1.8,0.3,2.4c0.3,0.9,0.9,1.4,1.7,1.4C263,128.6,263.5,128.3,263.9,127.7z"/>
</g>
<g>
	<g>
		<g>
			<path class="st5" d="M271.6,155H27.2c-2.8,0-5-2.2-5-5v-9c0-2.8,2.2-5,5-5h244.4c2.8,0,5,2.2,5,5v9
				C276.6,152.7,274.3,155,271.6,155z"/>
		</g>
		<g>
			<path class="st6" d="M270.6,156H26.2c-2.8,0-5-2.2-5-5v-9c0-2.8,2.2-5,5-5h244.4c2.8,0,5,2.2,5,5v9
				C275.6,153.7,273.3,156,270.6,156z"/>
		</g>
	</g>
	<g>
		<g>
			<path class="st7" d="M210,156H26.2c-2.8,0-5-2.2-5-5v-9c0-2.8,2.2-5,5-5H210V156z"/>
		</g>
		<g>
			<path class="st8" d="M210,155H26.2c-2.8,0-5-2.2-5-5v-9c0-2.8,2.2-5,5-5H210V155z"/>
		</g>
	</g>
</g>
<g>
	<g>
		<g>
			<path class="st5" d="M266.4,361.9H22.1c-2.8,0-5-2.2-5-5v-9c0-2.8,2.2-5,5-5h244.4c2.8,0,5,2.2,5,5v9
				C271.4,359.7,269.2,361.9,266.4,361.9z"/>
		</g>
		<g>
			<path class="st6" d="M265.4,362.9H21.1c-2.8,0-5-2.2-5-5v-9c0-2.8,2.2-5,5-5h244.4c2.8,0,5,2.2,5,5v9
				C270.4,360.7,268.2,362.9,265.4,362.9z"/>
		</g>
	</g>
	<g>
		<g>
			<path class="st7" d="M99.9,362.9H21.1c-2.8,0-5-2.2-5-5v-9c0-2.8,2.2-5,5-5h78.8V362.9z"/>
		</g>
		<g>
			<path class="st8" d="M99.9,361.9H21.1c-2.8,0-5-2.2-5-5v-9c0-2.8,2.2-5,5-5h78.8V361.9z"/>
		</g>
	</g>
</g>
<g>
	<g>
		<g>
			<path class="st5" d="M266.4,449H22.1c-2.8,0-5-2.2-5-5v-9c0-2.8,2.2-5,5-5h244.4c2.8,0,5,2.2,5,5v9
				C271.4,446.7,269.2,449,266.4,449z"/>
		</g>
		<g>
			<path class="st6" d="M265.4,450H21.1c-2.8,0-5-2.2-5-5v-9c0-2.8,2.2-5,5-5h244.4c2.8,0,5,2.2,5,5v9
				C270.4,447.7,268.2,450,265.4,450z"/>
		</g>
	</g>
	<g>
		<g>
			<path class="st7" d="M161.8,450H21.1c-2.8,0-5-2.2-5-5v-9c0-2.8,2.2-5,5-5h140.8V450z"/>
		</g>
		<g>
			<path class="st8" d="M161.8,449H21.1c-2.8,0-5-2.2-5-5v-9c0-2.8,2.2-5,5-5h140.8V449z"/>
		</g>
	</g>
</g>
<g>
	<g>
		<g>
			<path class="st5" d="M266.4,242.5H22.1c-2.8,0-5-2.2-5-5v-9c0-2.8,2.2-5,5-5h244.4c2.8,0,5,2.2,5,5v9
				C271.4,240.2,269.2,242.5,266.4,242.5z"/>
		</g>
		<g>
			<path class="st6" d="M265.4,243.5H21.1c-2.8,0-5-2.2-5-5v-9c0-2.8,2.2-5,5-5h244.4c2.8,0,5,2.2,5,5v9
				C270.4,241.2,268.2,243.5,265.4,243.5z"/>
		</g>
	</g>
	<g>
		<g>
			<path class="st7" d="M249.7,243.5H21.1c-2.8,0-5-2.2-5-5v-9c0-2.8,2.2-5,5-5h228.6V243.5z"/>
		</g>
		<g>
			<path class="st8" d="M249.7,242.5H21.1c-2.8,0-5-2.2-5-5v-9c0-2.8,2.2-5,5-5h228.6V242.5z"/>
		</g>
	</g>
	<g>
		<path class="st4" d="M22.2,208c0.5-0.6,1.2-0.8,2.1-0.8v-0.9h0.6v0.9c0.9,0.1,1.6,0.3,2.1,0.8c0.5,0.5,0.7,1.1,0.8,1.9h-1.2
			c0-0.3-0.1-0.6-0.3-0.9c-0.3-0.5-0.7-0.7-1.4-0.7v3.3c1.1,0.3,1.8,0.6,2.2,0.8c0.6,0.4,0.9,1.1,0.9,1.9c0,1.2-0.4,2.1-1.2,2.6
			c-0.4,0.3-1.1,0.5-1.9,0.6v1.3h-0.6v-1.3c-1.3-0.1-2.2-0.6-2.7-1.4c-0.3-0.5-0.4-1.1-0.4-1.9h1.2c0,0.6,0.1,1.1,0.3,1.4
			c0.3,0.5,0.8,0.8,1.6,0.9v-3.7c-1-0.2-1.7-0.5-2.2-0.9s-0.7-1-0.7-1.8C21.4,209.2,21.6,208.6,22.2,208z M23.1,210.9
			c0.3,0.3,0.7,0.4,1.2,0.5v-3.2c-0.6,0-1,0.2-1.3,0.5c-0.3,0.3-0.4,0.7-0.4,1.1C22.6,210.3,22.8,210.6,23.1,210.9z M26.6,215.5
			c0.2-0.3,0.2-0.6,0.2-1c0-0.6-0.2-1-0.6-1.3c-0.2-0.2-0.6-0.3-1.2-0.5v3.6C25.7,216.4,26.3,216.1,26.6,215.5z"/>
		<path class="st4" d="M29.9,210.2v-0.9c0.9-0.1,1.5-0.2,1.9-0.4c0.4-0.2,0.6-0.7,0.8-1.4h1v9.7h-1.3v-6.9H29.9z"/>
		<path class="st4" d="M37.5,218.5c0.3-0.1,0.5-0.3,0.7-0.7c0.1-0.2,0.1-0.4,0.1-0.6c0,0,0-0.1,0-0.1s0-0.1,0-0.1h-0.7v-1.5H39v1.4
			c0,0.5-0.1,1-0.3,1.4s-0.6,0.7-1.1,0.8V218.5z"/>
		<path class="st4" d="M44.9,217.1v-2.4h-4.3v-1.2l4.5-6.2h1v6.4h1.4v1.1h-1.4v2.4H44.9z M44.9,213.6v-4.4l-3.1,4.4H44.9z"/>
		<path class="st4" d="M49.7,214.6c0.1,0.7,0.4,1.2,1,1.5c0.3,0.1,0.6,0.2,1,0.2c0.7,0,1.3-0.2,1.6-0.7s0.5-1,0.5-1.5
			c0-0.7-0.2-1.2-0.6-1.6s-0.9-0.6-1.5-0.6c-0.4,0-0.8,0.1-1.1,0.2s-0.6,0.4-0.8,0.7l-1.1-0.1l0.7-5.3h5.1v1.2h-4.2l-0.4,2.7
			c0.2-0.2,0.4-0.3,0.6-0.4c0.4-0.2,0.8-0.2,1.3-0.2c0.9,0,1.7,0.3,2.3,0.9s0.9,1.3,0.9,2.2c0,0.9-0.3,1.7-0.9,2.4s-1.5,1.1-2.7,1.1
			c-0.8,0-1.5-0.2-2.1-0.7s-1-1.1-1-2.1H49.7z"/>
		<path class="st4" d="M62.3,208.9c0.4,0.8,0.7,1.9,0.7,3.3c0,1.3-0.2,2.4-0.6,3.3c-0.6,1.2-1.5,1.9-2.8,1.9c-1.2,0-2.1-0.5-2.6-1.5
			c-0.5-0.9-0.7-2-0.7-3.4c0-1.1,0.1-2.1,0.4-2.9c0.5-1.5,1.5-2.2,2.9-2.2C60.9,207.3,61.8,207.8,62.3,208.9z M61.1,215.4
			c0.4-0.6,0.6-1.6,0.6-3.2c0-1.1-0.1-2-0.4-2.7c-0.3-0.7-0.8-1.1-1.6-1.1c-0.7,0-1.3,0.3-1.6,1c-0.3,0.7-0.5,1.7-0.5,3
			c0,1,0.1,1.8,0.3,2.4c0.3,0.9,0.9,1.4,1.7,1.4C60.2,216.3,60.7,216,61.1,215.4z"/>
		<path class="st4" d="M64.8,215.6h1.4v1.5h-1.4V215.6z"/>
		<path class="st4" d="M74,208.9c0.4,0.8,0.7,1.9,0.7,3.3c0,1.3-0.2,2.4-0.6,3.3c-0.6,1.2-1.5,1.9-2.8,1.9c-1.2,0-2.1-0.5-2.6-1.5
			c-0.5-0.9-0.7-2-0.7-3.4c0-1.1,0.1-2.1,0.4-2.9c0.5-1.5,1.5-2.2,2.9-2.2C72.5,207.3,73.4,207.8,74,208.9z M72.8,215.4
			c0.4-0.6,0.6-1.6,0.6-3.2c0-1.1-0.1-2-0.4-2.7c-0.3-0.7-0.8-1.1-1.6-1.1c-0.7,0-1.3,0.3-1.6,1c-0.3,0.7-0.5,1.7-0.5,3
			c0,1,0.1,1.8,0.3,2.4c0.3,0.9,0.9,1.4,1.7,1.4C71.9,216.3,72.4,216,72.8,215.4z"/>
		<path class="st4" d="M81.8,208.9c0.4,0.8,0.7,1.9,0.7,3.3c0,1.3-0.2,2.4-0.6,3.3c-0.6,1.2-1.5,1.9-2.8,1.9c-1.2,0-2.1-0.5-2.6-1.5
			c-0.5-0.9-0.7-2-0.7-3.4c0-1.1,0.1-2.1,0.4-2.9c0.5-1.5,1.5-2.2,2.9-2.2C80.3,207.3,81.2,207.8,81.8,208.9z M80.6,215.4
			c0.4-0.6,0.6-1.6,0.6-3.2c0-1.1-0.1-2-0.4-2.7c-0.3-0.7-0.8-1.1-1.6-1.1c-0.7,0-1.3,0.3-1.6,1c-0.3,0.7-0.5,1.7-0.5,3
			c0,1,0.1,1.8,0.3,2.4c0.3,0.9,0.9,1.4,1.7,1.4C79.7,216.3,80.2,216,80.6,215.4z"/>
	</g>
	<g>
		<path class="st4" d="M205.5,207.7c0.5-0.6,1.2-0.8,2.1-0.8v-0.9h0.6v0.9c0.9,0.1,1.6,0.3,2.1,0.8c0.5,0.5,0.7,1.1,0.8,1.9H210
			c0-0.3-0.1-0.6-0.3-0.9c-0.3-0.5-0.7-0.7-1.4-0.7v3.3c1.1,0.3,1.8,0.6,2.2,0.8c0.6,0.4,0.9,1.1,0.9,1.9c0,1.2-0.4,2.1-1.2,2.6
			c-0.4,0.3-1.1,0.5-1.9,0.6v1.3h-0.6v-1.3c-1.3-0.1-2.2-0.6-2.7-1.4c-0.3-0.5-0.4-1.1-0.4-1.9h1.2c0,0.6,0.1,1.1,0.3,1.4
			c0.3,0.5,0.8,0.8,1.6,0.9v-3.7c-1-0.2-1.7-0.5-2.2-0.9s-0.7-1-0.7-1.8C204.8,208.9,205,208.3,205.5,207.7z M206.4,210.5
			c0.3,0.3,0.7,0.4,1.2,0.5v-3.2c-0.6,0-1,0.2-1.3,0.5c-0.3,0.3-0.4,0.7-0.4,1.1C206,209.9,206.1,210.3,206.4,210.5z M209.9,215.2
			c0.2-0.3,0.2-0.6,0.2-1c0-0.6-0.2-1-0.6-1.3c-0.2-0.2-0.6-0.3-1.2-0.5v3.6C209.1,216.1,209.6,215.8,209.9,215.2z"/>
		<path class="st4" d="M213.2,209.9v-0.9c0.9-0.1,1.5-0.2,1.9-0.4s0.6-0.7,0.8-1.4h1v9.7h-1.3v-6.9H213.2z"/>
		<path class="st4" d="M220.9,218.2c0.3-0.1,0.5-0.3,0.7-0.7c0.1-0.2,0.1-0.4,0.1-0.6c0,0,0-0.1,0-0.1s0-0.1,0-0.1h-0.7v-1.5h1.5
			v1.4c0,0.5-0.1,1-0.3,1.4s-0.6,0.7-1.1,0.8V218.2z"/>
		<path class="st4" d="M225.4,214.4c0,0.7,0.3,1.1,0.8,1.4c0.3,0.1,0.5,0.2,0.8,0.2c0.6,0,1.1-0.2,1.5-0.7s0.7-1.5,0.9-3
			c-0.3,0.4-0.6,0.7-1,0.9s-0.8,0.3-1.3,0.3c-0.9,0-1.7-0.3-2.2-0.9s-0.8-1.3-0.8-2.3c0-0.9,0.3-1.7,0.8-2.3s1.3-1,2.4-1
			c1.4,0,2.4,0.6,3,1.9c0.3,0.7,0.5,1.6,0.5,2.7c0,1.2-0.2,2.3-0.5,3.2c-0.6,1.5-1.6,2.3-3,2.3c-1,0-1.7-0.3-2.2-0.8
			s-0.7-1.1-0.7-1.9H225.4z M228.6,211.9c0.4-0.3,0.6-0.9,0.6-1.7c0-0.7-0.2-1.3-0.5-1.6c-0.4-0.4-0.8-0.5-1.4-0.5
			c-0.6,0-1.1,0.2-1.4,0.6s-0.5,0.9-0.5,1.6c0,0.6,0.2,1.1,0.5,1.5s0.8,0.6,1.5,0.6C227.8,212.4,228.2,212.3,228.6,211.9z"/>
		<path class="st4" d="M233.1,214.3c0.1,0.7,0.4,1.2,1,1.5c0.3,0.1,0.6,0.2,1,0.2c0.7,0,1.3-0.2,1.6-0.7s0.5-1,0.5-1.5
			c0-0.7-0.2-1.2-0.6-1.6s-0.9-0.6-1.5-0.6c-0.4,0-0.8,0.1-1.1,0.2s-0.6,0.4-0.8,0.7l-1.1-0.1l0.7-5.3h5.1v1.2h-4.2l-0.4,2.7
			c0.2-0.2,0.4-0.3,0.6-0.4c0.4-0.2,0.8-0.2,1.3-0.2c0.9,0,1.7,0.3,2.3,0.9s0.9,1.3,0.9,2.2c0,0.9-0.3,1.7-0.9,2.4s-1.5,1.1-2.7,1.1
			c-0.8,0-1.5-0.2-2.1-0.7s-1-1.1-1-2.1H233.1z"/>
		<path class="st4" d="M245.7,208.6c0.4,0.8,0.7,1.9,0.7,3.3c0,1.3-0.2,2.4-0.6,3.3c-0.6,1.2-1.5,1.9-2.8,1.9
			c-1.2,0-2.1-0.5-2.6-1.5c-0.5-0.9-0.7-2-0.7-3.4c0-1.1,0.1-2.1,0.4-2.9c0.5-1.5,1.5-2.2,2.9-2.2
			C244.2,207,245.1,207.5,245.7,208.6z M244.5,215.1c0.4-0.6,0.6-1.6,0.6-3.2c0-1.1-0.1-2-0.4-2.7c-0.3-0.7-0.8-1.1-1.6-1.1
			c-0.7,0-1.3,0.3-1.6,1c-0.3,0.7-0.5,1.7-0.5,3c0,1,0.1,1.8,0.3,2.4c0.3,0.9,0.9,1.4,1.7,1.4C243.6,215.9,244.1,215.7,244.5,215.1z
			"/>
		<path class="st4" d="M248.1,215.3h1.4v1.5h-1.4V215.3z"/>
		<path class="st4" d="M257.4,208.6c0.4,0.8,0.7,1.9,0.7,3.3c0,1.3-0.2,2.4-0.6,3.3c-0.6,1.2-1.5,1.9-2.8,1.9
			c-1.2,0-2.1-0.5-2.6-1.5c-0.5-0.9-0.7-2-0.7-3.4c0-1.1,0.1-2.1,0.4-2.9c0.5-1.5,1.5-2.2,2.9-2.2
			C255.9,207,256.8,207.5,257.4,208.6z M256.1,215.1c0.4-0.6,0.6-1.6,0.6-3.2c0-1.1-0.1-2-0.4-2.7c-0.3-0.7-0.8-1.1-1.6-1.1
			c-0.7,0-1.3,0.3-1.6,1c-0.3,0.7-0.5,1.7-0.5,3c0,1,0.1,1.8,0.3,2.4c0.3,0.9,0.9,1.4,1.7,1.4C255.2,215.9,255.8,215.7,256.1,215.1z
			"/>
		<path class="st4" d="M265.2,208.6c0.4,0.8,0.7,1.9,0.7,3.3c0,1.3-0.2,2.4-0.6,3.3c-0.6,1.2-1.5,1.9-2.8,1.9
			c-1.2,0-2.1-0.5-2.6-1.5c-0.5-0.9-0.7-2-0.7-3.4c0-1.1,0.1-2.1,0.4-2.9c0.5-1.5,1.5-2.2,2.9-2.2
			C263.7,207,264.6,207.5,265.2,208.6z M263.9,215.1c0.4-0.6,0.6-1.6,0.6-3.2c0-1.1-0.1-2-0.4-2.7c-0.3-0.7-0.8-1.1-1.6-1.1
			c-0.7,0-1.3,0.3-1.6,1c-0.3,0.7-0.5,1.7-0.5,3c0,1,0.1,1.8,0.3,2.4c0.3,0.9,0.9,1.4,1.7,1.4C263,215.9,263.5,215.7,263.9,215.1z"
			/>
	</g>
</g>
<g>
	<path class="st4" d="M22.2,327.9c0.5-0.6,1.2-0.8,2.1-0.8v-0.9h0.6v0.9c0.9,0.1,1.6,0.3,2.1,0.8c0.5,0.5,0.7,1.1,0.8,1.9h-1.2
		c0-0.3-0.1-0.6-0.3-0.9c-0.3-0.5-0.7-0.7-1.4-0.7v3.3c1.1,0.3,1.8,0.6,2.2,0.8c0.6,0.4,0.9,1.1,0.9,1.9c0,1.2-0.4,2.1-1.2,2.6
		c-0.4,0.3-1.1,0.5-1.9,0.6v1.3h-0.6v-1.3c-1.3-0.1-2.2-0.6-2.7-1.4c-0.3-0.5-0.4-1.1-0.4-1.9h1.2c0,0.6,0.1,1.1,0.3,1.4
		c0.3,0.5,0.8,0.8,1.6,0.9v-3.7c-1-0.2-1.7-0.5-2.2-0.9s-0.7-1-0.7-1.8C21.4,329.1,21.6,328.4,22.2,327.9z M23.1,330.7
		c0.3,0.3,0.7,0.4,1.2,0.5v-3.2c-0.6,0-1,0.2-1.3,0.5c-0.3,0.3-0.4,0.7-0.4,1.1C22.6,330.1,22.8,330.5,23.1,330.7z M26.6,335.4
		c0.2-0.3,0.2-0.6,0.2-1c0-0.6-0.2-1-0.6-1.3c-0.2-0.2-0.6-0.3-1.2-0.5v3.6C25.7,336.2,26.3,336,26.6,335.4z"/>
	<path class="st4" d="M30.3,334.5c0.1,0.7,0.4,1.2,1,1.5c0.3,0.1,0.6,0.2,1,0.2c0.7,0,1.3-0.2,1.6-0.7s0.5-1,0.5-1.5
		c0-0.7-0.2-1.2-0.6-1.6s-0.9-0.6-1.5-0.6c-0.4,0-0.8,0.1-1.1,0.2s-0.6,0.4-0.8,0.7l-1.1-0.1l0.7-5.3h5.1v1.2H31l-0.4,2.7
		c0.2-0.2,0.4-0.3,0.6-0.4c0.4-0.2,0.8-0.2,1.3-0.2c0.9,0,1.7,0.3,2.3,0.9s0.9,1.3,0.9,2.2c0,0.9-0.3,1.7-0.9,2.4s-1.5,1.1-2.7,1.1
		c-0.8,0-1.5-0.2-2.1-0.7s-1-1.1-1-2.1H30.3z"/>
	<path class="st4" d="M42.9,328.8c0.4,0.8,0.7,1.9,0.7,3.3c0,1.3-0.2,2.4-0.6,3.3c-0.6,1.2-1.5,1.9-2.8,1.9c-1.2,0-2.1-0.5-2.6-1.5
		c-0.5-0.9-0.7-2-0.7-3.4c0-1.1,0.1-2.1,0.4-2.9c0.5-1.5,1.5-2.2,2.9-2.2C41.4,327.2,42.3,327.7,42.9,328.8z M41.6,335.3
		c0.4-0.6,0.6-1.6,0.6-3.2c0-1.1-0.1-2-0.4-2.7c-0.3-0.7-0.8-1.1-1.6-1.1c-0.7,0-1.3,0.3-1.6,1c-0.3,0.7-0.5,1.7-0.5,3
		c0,1,0.1,1.8,0.3,2.4c0.3,0.9,0.9,1.4,1.7,1.4C40.7,336.1,41.3,335.8,41.6,335.3z"/>
	<path class="st4" d="M45.3,335.5h1.4v1.5h-1.4V335.5z"/>
	<path class="st4" d="M54.5,328.8c0.4,0.8,0.7,1.9,0.7,3.3c0,1.3-0.2,2.4-0.6,3.3c-0.6,1.2-1.5,1.9-2.8,1.9c-1.2,0-2.1-0.5-2.6-1.5
		c-0.5-0.9-0.7-2-0.7-3.4c0-1.1,0.1-2.1,0.4-2.9c0.5-1.5,1.5-2.2,2.9-2.2C53.1,327.2,54,327.7,54.5,328.8z M53.3,335.3
		c0.4-0.6,0.6-1.6,0.6-3.2c0-1.1-0.1-2-0.4-2.7c-0.3-0.7-0.8-1.1-1.6-1.1c-0.7,0-1.3,0.3-1.6,1c-0.3,0.7-0.5,1.7-0.5,3
		c0,1,0.1,1.8,0.3,2.4c0.3,0.9,0.9,1.4,1.7,1.4C52.4,336.1,52.9,335.8,53.3,335.3z"/>
	<path class="st4" d="M62.3,328.8c0.4,0.8,0.7,1.9,0.7,3.3c0,1.3-0.2,2.4-0.6,3.3c-0.6,1.2-1.5,1.9-2.8,1.9c-1.2,0-2.1-0.5-2.6-1.5
		c-0.5-0.9-0.7-2-0.7-3.4c0-1.1,0.1-2.1,0.4-2.9c0.5-1.5,1.5-2.2,2.9-2.2C60.9,327.2,61.8,327.7,62.3,328.8z M61.1,335.3
		c0.4-0.6,0.6-1.6,0.6-3.2c0-1.1-0.1-2-0.4-2.7c-0.3-0.7-0.8-1.1-1.6-1.1c-0.7,0-1.3,0.3-1.6,1c-0.3,0.7-0.5,1.7-0.5,3
		c0,1,0.1,1.8,0.3,2.4c0.3,0.9,0.9,1.4,1.7,1.4C60.2,336.1,60.7,335.8,61.1,335.3z"/>
</g>
<g>
	<path class="st4" d="M22.2,414.9c0.5-0.6,1.2-0.8,2.1-0.8v-0.9h0.6v0.9c0.9,0.1,1.6,0.3,2.1,0.8c0.5,0.5,0.7,1.1,0.8,1.9h-1.2
		c0-0.3-0.1-0.6-0.3-0.9c-0.3-0.5-0.7-0.7-1.4-0.7v3.3c1.1,0.3,1.8,0.6,2.2,0.8c0.6,0.4,0.9,1.1,0.9,1.9c0,1.2-0.4,2.1-1.2,2.6
		c-0.4,0.3-1.1,0.5-1.9,0.6v1.3h-0.6v-1.3c-1.3-0.1-2.2-0.6-2.7-1.4c-0.3-0.5-0.4-1.1-0.4-1.9h1.2c0,0.6,0.1,1.1,0.3,1.4
		c0.3,0.5,0.8,0.8,1.6,0.9v-3.7c-1-0.2-1.7-0.5-2.2-0.9s-0.7-1-0.7-1.8C21.4,416.1,21.6,415.4,22.2,414.9z M23.1,417.7
		c0.3,0.3,0.7,0.4,1.2,0.5v-3.2c-0.6,0-1,0.2-1.3,0.5c-0.3,0.3-0.4,0.7-0.4,1.1C22.6,417.1,22.8,417.5,23.1,417.7z M26.6,422.4
		c0.2-0.3,0.2-0.6,0.2-1c0-0.6-0.2-1-0.6-1.3c-0.2-0.2-0.6-0.3-1.2-0.5v3.6C25.7,423.2,26.3,423,26.6,422.4z"/>
	<path class="st4" d="M29.5,421.8c0.3-0.6,0.9-1.2,1.8-1.7l1.3-0.8c0.6-0.3,1-0.6,1.2-0.9c0.4-0.4,0.6-0.8,0.6-1.3
		c0-0.6-0.2-1-0.5-1.4c-0.3-0.3-0.8-0.5-1.4-0.5c-0.8,0-1.4,0.3-1.7,1c-0.2,0.3-0.3,0.8-0.3,1.4h-1.3c0-0.9,0.2-1.5,0.5-2.1
		c0.5-0.9,1.5-1.4,2.8-1.4c1.1,0,1.9,0.3,2.5,0.9c0.5,0.6,0.8,1.3,0.8,2c0,0.8-0.3,1.5-0.8,2c-0.3,0.3-0.9,0.7-1.7,1.2l-0.9,0.5
		c-0.4,0.2-0.8,0.5-1.1,0.7c-0.5,0.4-0.7,0.8-0.9,1.3h5.3v1.2H29C29,423.1,29.2,422.4,29.5,421.8z"/>
	<path class="st4" d="M42.9,415.8c0.4,0.8,0.7,1.9,0.7,3.3c0,1.3-0.2,2.4-0.6,3.3c-0.6,1.2-1.5,1.9-2.8,1.9c-1.2,0-2.1-0.5-2.6-1.5
		c-0.5-0.9-0.7-2-0.7-3.4c0-1.1,0.1-2.1,0.4-2.9c0.5-1.5,1.5-2.2,2.9-2.2C41.4,414.2,42.3,414.7,42.9,415.8z M41.6,422.3
		c0.4-0.6,0.6-1.6,0.6-3.2c0-1.1-0.1-2-0.4-2.7c-0.3-0.7-0.8-1.1-1.6-1.1c-0.7,0-1.3,0.3-1.6,1c-0.3,0.7-0.5,1.7-0.5,3
		c0,1,0.1,1.8,0.3,2.4c0.3,0.9,0.9,1.4,1.7,1.4C40.7,423.1,41.3,422.8,41.6,422.3z"/>
	<path class="st4" d="M50.7,415.8c0.4,0.8,0.7,1.9,0.7,3.3c0,1.3-0.2,2.4-0.6,3.3c-0.6,1.2-1.5,1.9-2.8,1.9c-1.2,0-2.1-0.5-2.6-1.5
		c-0.5-0.9-0.7-2-0.7-3.4c0-1.1,0.1-2.1,0.4-2.9c0.5-1.5,1.5-2.2,2.9-2.2C49.2,414.2,50.1,414.7,50.7,415.8z M49.4,422.3
		c0.4-0.6,0.6-1.6,0.6-3.2c0-1.1-0.1-2-0.4-2.7c-0.3-0.7-0.8-1.1-1.6-1.1c-0.7,0-1.3,0.3-1.6,1c-0.3,0.7-0.5,1.7-0.5,3
		c0,1,0.1,1.8,0.3,2.4c0.3,0.9,0.9,1.4,1.7,1.4C48.5,423.1,49,422.8,49.4,422.3z"/>
	<path class="st4" d="M53.1,422.5h1.4v1.5h-1.4V422.5z"/>
	<path class="st4" d="M62.3,415.8c0.4,0.8,0.7,1.9,0.7,3.3c0,1.3-0.2,2.4-0.6,3.3c-0.6,1.2-1.5,1.9-2.8,1.9c-1.2,0-2.1-0.5-2.6-1.5
		c-0.5-0.9-0.7-2-0.7-3.4c0-1.1,0.1-2.1,0.4-2.9c0.5-1.5,1.5-2.2,2.9-2.2C60.9,414.2,61.8,414.7,62.3,415.8z M61.1,422.3
		c0.4-0.6,0.6-1.6,0.6-3.2c0-1.1-0.1-2-0.4-2.7c-0.3-0.7-0.8-1.1-1.6-1.1c-0.7,0-1.3,0.3-1.6,1c-0.3,0.7-0.5,1.7-0.5,3
		c0,1,0.1,1.8,0.3,2.4c0.3,0.9,0.9,1.4,1.7,1.4C60.2,423.1,60.7,422.8,61.1,422.3z"/>
	<path class="st4" d="M70.1,415.8c0.4,0.8,0.7,1.9,0.7,3.3c0,1.3-0.2,2.4-0.6,3.3c-0.6,1.2-1.5,1.9-2.8,1.9c-1.2,0-2.1-0.5-2.6-1.5
		c-0.5-0.9-0.7-2-0.7-3.4c0-1.1,0.1-2.1,0.4-2.9c0.5-1.5,1.5-2.2,2.9-2.2C68.6,414.2,69.6,414.7,70.1,415.8z M68.9,422.3
		c0.4-0.6,0.6-1.6,0.6-3.2c0-1.1-0.1-2-0.4-2.7c-0.3-0.7-0.8-1.1-1.6-1.1c-0.7,0-1.3,0.3-1.6,1c-0.3,0.7-0.5,1.7-0.5,3
		c0,1,0.1,1.8,0.3,2.4c0.3,0.9,0.9,1.4,1.7,1.4C68,423.1,68.5,422.8,68.9,422.3z"/>
</g>
<g>
	<path class="st4" d="M217.2,414.9c0.5-0.6,1.2-0.8,2.1-0.8v-0.9h0.6v0.9c0.9,0.1,1.6,0.3,2.1,0.8c0.5,0.5,0.7,1.1,0.8,1.9h-1.2
		c0-0.3-0.1-0.6-0.3-0.9c-0.3-0.5-0.7-0.7-1.4-0.7v3.3c1.1,0.3,1.8,0.6,2.2,0.8c0.6,0.4,0.9,1.1,0.9,1.9c0,1.2-0.4,2.1-1.2,2.6
		c-0.4,0.3-1.1,0.5-1.9,0.6v1.3h-0.6v-1.3c-1.3-0.1-2.2-0.6-2.7-1.4c-0.3-0.5-0.4-1.1-0.4-1.9h1.2c0,0.6,0.1,1.1,0.3,1.4
		c0.3,0.5,0.8,0.8,1.6,0.9v-3.7c-1-0.2-1.7-0.5-2.2-0.9s-0.7-1-0.7-1.8C216.4,416.1,216.7,415.4,217.2,414.9z M218.1,417.7
		c0.3,0.3,0.7,0.4,1.2,0.5v-3.2c-0.6,0-1,0.2-1.3,0.5c-0.3,0.3-0.4,0.7-0.4,1.1C217.7,417.1,217.8,417.5,218.1,417.7z M221.6,422.4
		c0.2-0.3,0.2-0.6,0.2-1c0-0.6-0.2-1-0.6-1.3c-0.2-0.2-0.6-0.3-1.2-0.5v3.6C220.8,423.2,221.3,423,221.6,422.4z"/>
	<path class="st4" d="M224.7,423.3c-0.5-0.6-0.8-1.4-0.8-2.3h1.3c0.1,0.6,0.2,1.1,0.4,1.4c0.3,0.5,0.9,0.8,1.7,0.8
		c0.6,0,1.2-0.2,1.6-0.5c0.4-0.3,0.6-0.8,0.6-1.3c0-0.7-0.2-1.1-0.6-1.4c-0.4-0.3-1-0.4-1.7-0.4c-0.1,0-0.2,0-0.2,0
		c-0.1,0-0.2,0-0.3,0v-1.1c0.1,0,0.2,0,0.3,0c0.1,0,0.2,0,0.3,0c0.5,0,0.8-0.1,1.1-0.2c0.5-0.3,0.8-0.7,0.8-1.4
		c0-0.5-0.2-0.9-0.5-1.1c-0.3-0.3-0.7-0.4-1.2-0.4c-0.8,0-1.4,0.3-1.7,0.8c-0.2,0.3-0.3,0.7-0.3,1.3h-1.2c0-0.7,0.1-1.3,0.4-1.9
		c0.5-0.9,1.4-1.4,2.6-1.4c1,0,1.8,0.2,2.3,0.7s0.8,1.1,0.8,1.9c0,0.6-0.2,1.1-0.5,1.5c-0.2,0.2-0.5,0.4-0.8,0.5
		c0.5,0.1,0.9,0.4,1.2,0.8s0.4,0.9,0.4,1.5c0,0.9-0.3,1.7-0.9,2.3s-1.5,0.9-2.6,0.9C226.1,424.3,225.2,423.9,224.7,423.3z"/>
	<path class="st4" d="M233.1,421.5c0.1,0.7,0.4,1.2,1,1.5c0.3,0.1,0.6,0.2,1,0.2c0.7,0,1.3-0.2,1.6-0.7s0.5-1,0.5-1.5
		c0-0.7-0.2-1.2-0.6-1.6c-0.4-0.4-0.9-0.6-1.5-0.6c-0.4,0-0.8,0.1-1.1,0.2s-0.6,0.4-0.8,0.7l-1.1-0.1l0.7-5.3h5.1v1.2h-4.2l-0.4,2.7
		c0.2-0.2,0.4-0.3,0.6-0.4c0.4-0.2,0.8-0.2,1.3-0.2c0.9,0,1.7,0.3,2.3,0.9c0.6,0.6,0.9,1.3,0.9,2.2c0,0.9-0.3,1.7-0.9,2.4
		c-0.6,0.7-1.5,1.1-2.7,1.1c-0.8,0-1.5-0.2-2.1-0.7c-0.6-0.4-1-1.1-1-2.1H233.1z"/>
	<path class="st4" d="M245.7,415.8c0.4,0.8,0.7,1.9,0.7,3.3c0,1.3-0.2,2.4-0.6,3.3c-0.6,1.2-1.5,1.9-2.8,1.9c-1.2,0-2.1-0.5-2.6-1.5
		c-0.5-0.9-0.7-2-0.7-3.4c0-1.1,0.1-2.1,0.4-2.9c0.5-1.5,1.5-2.2,2.9-2.2C244.2,414.2,245.1,414.7,245.7,415.8z M244.5,422.3
		c0.4-0.6,0.6-1.6,0.6-3.2c0-1.1-0.1-2-0.4-2.7c-0.3-0.7-0.8-1.1-1.6-1.1c-0.7,0-1.3,0.3-1.6,1c-0.3,0.7-0.5,1.7-0.5,3
		c0,1,0.1,1.8,0.3,2.4c0.3,0.9,0.9,1.4,1.7,1.4C243.6,423.1,244.1,422.8,244.5,422.3z"/>
	<path class="st4" d="M248.1,422.5h1.4v1.5h-1.4V422.5z"/>
	<path class="st4" d="M257.4,415.8c0.4,0.8,0.7,1.9,0.7,3.3c0,1.3-0.2,2.4-0.6,3.3c-0.6,1.2-1.5,1.9-2.8,1.9c-1.2,0-2.1-0.5-2.6-1.5
		c-0.5-0.9-0.7-2-0.7-3.4c0-1.1,0.1-2.1,0.4-2.9c0.5-1.5,1.5-2.2,2.9-2.2C255.9,414.2,256.8,414.7,257.4,415.8z M256.1,422.3
		c0.4-0.6,0.6-1.6,0.6-3.2c0-1.1-0.1-2-0.4-2.7c-0.3-0.7-0.8-1.1-1.6-1.1c-0.7,0-1.3,0.3-1.6,1c-0.3,0.7-0.5,1.7-0.5,3
		c0,1,0.1,1.8,0.3,2.4c0.3,0.9,0.9,1.4,1.7,1.4C255.2,423.1,255.8,422.8,256.1,422.3z"/>
	<path class="st4" d="M265.2,415.8c0.4,0.8,0.7,1.9,0.7,3.3c0,1.3-0.2,2.4-0.6,3.3c-0.6,1.2-1.5,1.9-2.8,1.9c-1.2,0-2.1-0.5-2.6-1.5
		c-0.5-0.9-0.7-2-0.7-3.4c0-1.1,0.1-2.1,0.4-2.9c0.5-1.5,1.5-2.2,2.9-2.2C263.7,414.2,264.6,414.7,265.2,415.8z M263.9,422.3
		c0.4-0.6,0.6-1.6,0.6-3.2c0-1.1-0.1-2-0.4-2.7c-0.3-0.7-0.8-1.1-1.6-1.1c-0.7,0-1.3,0.3-1.6,1c-0.3,0.7-0.5,1.7-0.5,3
		c0,1,0.1,1.8,0.3,2.4c0.3,0.9,0.9,1.4,1.7,1.4C263,423.1,263.5,422.8,263.9,422.3z"/>
</g>
<g>
	<path class="st4" d="M217.2,327.9c0.5-0.6,1.2-0.8,2.1-0.8v-0.9h0.6v0.9c0.9,0.1,1.6,0.3,2.1,0.8c0.5,0.5,0.7,1.1,0.8,1.9h-1.2
		c0-0.3-0.1-0.6-0.3-0.9c-0.3-0.5-0.7-0.7-1.4-0.7v3.3c1.1,0.3,1.8,0.6,2.2,0.8c0.6,0.4,0.9,1.1,0.9,1.9c0,1.2-0.4,2.1-1.2,2.6
		c-0.4,0.3-1.1,0.5-1.9,0.6v1.3h-0.6v-1.3c-1.3-0.1-2.2-0.6-2.7-1.4c-0.3-0.5-0.4-1.1-0.4-1.9h1.2c0,0.6,0.1,1.1,0.3,1.4
		c0.3,0.5,0.8,0.8,1.6,0.9v-3.7c-1-0.2-1.7-0.5-2.2-0.9s-0.7-1-0.7-1.8C216.4,329.1,216.7,328.4,217.2,327.9z M218.1,330.7
		c0.3,0.3,0.7,0.4,1.2,0.5v-3.2c-0.6,0-1,0.2-1.3,0.5c-0.3,0.3-0.4,0.7-0.4,1.1C217.7,330.1,217.8,330.5,218.1,330.7z M221.6,335.4
		c0.2-0.3,0.2-0.6,0.2-1c0-0.6-0.2-1-0.6-1.3c-0.2-0.2-0.6-0.3-1.2-0.5v3.6C220.8,336.2,221.3,336,221.6,335.4z"/>
	<path class="st4" d="M224.9,330.1v-0.9c0.9-0.1,1.5-0.2,1.9-0.4s0.6-0.7,0.8-1.4h1v9.7h-1.3v-6.9H224.9z"/>
	<path class="st4" d="M233.1,334.5c0.1,0.7,0.4,1.2,1,1.5c0.3,0.1,0.6,0.2,1,0.2c0.7,0,1.3-0.2,1.6-0.7s0.5-1,0.5-1.5
		c0-0.7-0.2-1.2-0.6-1.6s-0.9-0.6-1.5-0.6c-0.4,0-0.8,0.1-1.1,0.2s-0.6,0.4-0.8,0.7l-1.1-0.1l0.7-5.3h5.1v1.2h-4.2l-0.4,2.7
		c0.2-0.2,0.4-0.3,0.6-0.4c0.4-0.2,0.8-0.2,1.3-0.2c0.9,0,1.7,0.3,2.3,0.9s0.9,1.3,0.9,2.2c0,0.9-0.3,1.7-0.9,2.4s-1.5,1.1-2.7,1.1
		c-0.8,0-1.5-0.2-2.1-0.7s-1-1.1-1-2.1H233.1z"/>
	<path class="st4" d="M245.7,328.8c0.4,0.8,0.7,1.9,0.7,3.3c0,1.3-0.2,2.4-0.6,3.3c-0.6,1.2-1.5,1.9-2.8,1.9c-1.2,0-2.1-0.5-2.6-1.5
		c-0.5-0.9-0.7-2-0.7-3.4c0-1.1,0.1-2.1,0.4-2.9c0.5-1.5,1.5-2.2,2.9-2.2C244.2,327.2,245.1,327.7,245.7,328.8z M244.5,335.3
		c0.4-0.6,0.6-1.6,0.6-3.2c0-1.1-0.1-2-0.4-2.7c-0.3-0.7-0.8-1.1-1.6-1.1c-0.7,0-1.3,0.3-1.6,1c-0.3,0.7-0.5,1.7-0.5,3
		c0,1,0.1,1.8,0.3,2.4c0.3,0.9,0.9,1.4,1.7,1.4C243.6,336.1,244.1,335.8,244.5,335.3z"/>
	<path class="st4" d="M248.1,335.5h1.4v1.5h-1.4V335.5z"/>
	<path class="st4" d="M257.4,328.8c0.4,0.8,0.7,1.9,0.7,3.3c0,1.3-0.2,2.4-0.6,3.3c-0.6,1.2-1.5,1.9-2.8,1.9c-1.2,0-2.1-0.5-2.6-1.5
		c-0.5-0.9-0.7-2-0.7-3.4c0-1.1,0.1-2.1,0.4-2.9c0.5-1.5,1.5-2.2,2.9-2.2C255.9,327.2,256.8,327.7,257.4,328.8z M256.1,335.3
		c0.4-0.6,0.6-1.6,0.6-3.2c0-1.1-0.1-2-0.4-2.7c-0.3-0.7-0.8-1.1-1.6-1.1c-0.7,0-1.3,0.3-1.6,1c-0.3,0.7-0.5,1.7-0.5,3
		c0,1,0.1,1.8,0.3,2.4c0.3,0.9,0.9,1.4,1.7,1.4C255.2,336.1,255.8,335.8,256.1,335.3z"/>
	<path class="st4" d="M265.2,328.8c0.4,0.8,0.7,1.9,0.7,3.3c0,1.3-0.2,2.4-0.6,3.3c-0.6,1.2-1.5,1.9-2.8,1.9c-1.2,0-2.1-0.5-2.6-1.5
		c-0.5-0.9-0.7-2-0.7-3.4c0-1.1,0.1-2.1,0.4-2.9c0.5-1.5,1.5-2.2,2.9-2.2C263.7,327.2,264.6,327.7,265.2,328.8z M263.9,335.3
		c0.4-0.6,0.6-1.6,0.6-3.2c0-1.1-0.1-2-0.4-2.7c-0.3-0.7-0.8-1.1-1.6-1.1c-0.7,0-1.3,0.3-1.6,1c-0.3,0.7-0.5,1.7-0.5,3
		c0,1,0.1,1.8,0.3,2.4c0.3,0.9,0.9,1.4,1.7,1.4C263,336.1,263.5,335.8,263.9,335.3z"/>
</g>
<polygon class="st9" points="33.5,479.6 25.8,472.7 24.4,474.2 29.3,478.6 17.3,478.6 17.3,480.6 29.3,480.6 24.4,485 25.8,486.5 
	"/>
<g>
	<path class="st3" d="M26.5,266.4c1.1,0.4,2,1,2.7,2c0.6,0.8,0.9,1.6,1.1,2.6c0.2,0.9,0.3,1.8,0.3,2.6c0,2.1-0.4,3.9-1.3,5.3
		c-1.1,2-2.9,3-5.3,3h-6.8V266H24C25,266,25.8,266.2,26.5,266.4z M20.4,268.8v10.3h3.1c1.6,0,2.7-0.8,3.3-2.3c0.3-0.8,0.5-1.9,0.5-3
		c0-1.6-0.3-2.8-0.8-3.7c-0.5-0.9-1.5-1.3-3-1.3H20.4z"/>
	<path class="st3" d="M40.5,270.4c0.8,0.4,1.5,0.9,2,1.7c0.5,0.7,0.8,1.5,0.9,2.4c0.1,0.5,0.1,1.3,0.1,2.3H35c0,1.2,0.5,2,1.2,2.5
		c0.5,0.3,1,0.4,1.7,0.4c0.7,0,1.3-0.2,1.7-0.5c0.2-0.2,0.4-0.5,0.6-0.8h3.1c-0.1,0.7-0.5,1.4-1.1,2.1c-1,1.1-2.5,1.7-4.4,1.7
		c-1.6,0-2.9-0.5-4.1-1.4c-1.2-1-1.8-2.5-1.8-4.7c0-2,0.5-3.6,1.6-4.7c1.1-1.1,2.5-1.6,4.2-1.6C38.7,269.8,39.6,270,40.5,270.4z
		 M35.9,273c-0.4,0.4-0.7,1.1-0.8,1.8h5.3c-0.1-0.8-0.3-1.4-0.8-1.8c-0.5-0.4-1.1-0.6-1.8-0.6C36.9,272.4,36.3,272.6,35.9,273z"/>
	<path class="st3" d="M54.5,270.8c0.8,0.6,1.1,1.7,1.1,3.2v7.9h-3.1v-7.1c0-0.6-0.1-1.1-0.2-1.4c-0.3-0.6-0.9-0.9-1.7-0.9
		c-1,0-1.7,0.4-2.1,1.3c-0.2,0.5-0.3,1.1-0.3,1.8v6.3h-3.1v-11.7h3v1.7c0.4-0.6,0.8-1,1.1-1.3c0.6-0.5,1.4-0.7,2.4-0.7
		C52.8,269.9,53.7,270.2,54.5,270.8z"/>
	<path class="st3" d="M57.3,272.4v-2.2h1.6V267h3v3.3h1.9v2.2H62v6.2c0,0.5,0.1,0.8,0.2,0.9c0.1,0.1,0.5,0.2,1.1,0.2
		c0.1,0,0.2,0,0.3,0c0.1,0,0.2,0,0.3,0v2.3l-1.5,0.1c-1.4,0-2.4-0.2-3-0.8c-0.3-0.4-0.5-0.9-0.5-1.6v-7.2H57.3z"/>
	<path class="st3" d="M70.5,274.7c0.6-0.1,1-0.2,1.2-0.3c0.4-0.2,0.7-0.5,0.7-0.9c0-0.5-0.2-0.8-0.5-1s-0.8-0.3-1.5-0.3
		c-0.7,0-1.3,0.2-1.6,0.5c-0.2,0.3-0.4,0.6-0.4,1.1h-3c0.1-1,0.4-1.9,0.9-2.5c0.8-1,2.2-1.5,4.2-1.5c1.3,0,2.4,0.3,3.4,0.8
		c1,0.5,1.5,1.5,1.5,2.9v5.4c0,0.4,0,0.8,0,1.4c0,0.4,0.1,0.7,0.2,0.8c0.1,0.1,0.3,0.3,0.5,0.4v0.5h-3.3c-0.1-0.2-0.2-0.5-0.2-0.7
		c0-0.2-0.1-0.4-0.1-0.7c-0.4,0.5-0.9,0.8-1.5,1.2c-0.7,0.4-1.4,0.6-2.2,0.6c-1.1,0-1.9-0.3-2.6-0.9c-0.7-0.6-1-1.5-1-2.6
		c0-1.4,0.6-2.5,1.7-3.1c0.6-0.4,1.5-0.6,2.7-0.8L70.5,274.7z M72.3,276.2c-0.2,0.1-0.4,0.2-0.6,0.3s-0.5,0.1-0.8,0.2l-0.7,0.1
		c-0.7,0.1-1.1,0.3-1.4,0.4c-0.5,0.3-0.7,0.7-0.7,1.3c0,0.5,0.1,0.9,0.4,1.1c0.3,0.2,0.7,0.3,1.1,0.3c0.7,0,1.3-0.2,1.8-0.6
		c0.6-0.4,0.9-1.1,0.9-2.1V276.2z"/>
	<path class="st3" d="M81.2,281.9h-3.1V266h3.1V281.9z"/>
	<path class="st3" d="M99.8,266.4c1.1,0.4,2,1,2.7,2c0.6,0.8,0.9,1.6,1.1,2.6c0.2,0.9,0.3,1.8,0.3,2.6c0,2.1-0.4,3.9-1.3,5.3
		c-1.1,2-2.9,3-5.3,3h-6.8V266h6.8C98.4,266,99.2,266.2,99.8,266.4z M93.8,268.8v10.3h3.1c1.6,0,2.7-0.8,3.3-2.3
		c0.3-0.8,0.5-1.9,0.5-3c0-1.6-0.3-2.8-0.8-3.7s-1.5-1.3-3-1.3H93.8z"/>
	<path class="st3" d="M113.8,270.4c0.8,0.4,1.5,0.9,2,1.7c0.5,0.7,0.8,1.5,0.9,2.4c0.1,0.5,0.1,1.3,0.1,2.3h-8.5
		c0,1.2,0.5,2,1.2,2.5c0.5,0.3,1,0.4,1.7,0.4c0.7,0,1.3-0.2,1.7-0.5c0.2-0.2,0.4-0.5,0.6-0.8h3.1c-0.1,0.7-0.5,1.4-1.1,2.1
		c-1,1.1-2.5,1.7-4.4,1.7c-1.6,0-2.9-0.5-4.1-1.4c-1.2-1-1.8-2.5-1.8-4.7c0-2,0.5-3.6,1.6-4.7s2.5-1.6,4.2-1.6
		C112.1,269.8,113,270,113.8,270.4z M109.2,273c-0.4,0.4-0.7,1.1-0.8,1.8h5.3c-0.1-0.8-0.3-1.4-0.8-1.8s-1.1-0.6-1.8-0.6
		C110.3,272.4,109.7,272.6,109.2,273z"/>
	<path class="st3" d="M124.6,270.3c0.6,0.3,1,0.7,1.3,1.3v-5.6h3.1v15.8h-3v-1.6c-0.4,0.7-0.9,1.2-1.5,1.5c-0.6,0.3-1.3,0.5-2.1,0.5
		c-1.4,0-2.5-0.6-3.5-1.7c-0.9-1.1-1.4-2.5-1.4-4.3c0-2,0.5-3.6,1.4-4.7c0.9-1.1,2.2-1.7,3.7-1.7C123.4,269.9,124.1,270,124.6,270.3
		z M125.4,278.7c0.5-0.6,0.7-1.5,0.7-2.5c0-1.4-0.4-2.5-1.1-3.1c-0.4-0.4-1-0.6-1.5-0.6c-0.9,0-1.6,0.3-2,1
		c-0.4,0.7-0.6,1.5-0.6,2.5c0,1.1,0.2,1.9,0.6,2.6c0.4,0.6,1.1,1,1.9,1S124.9,279.3,125.4,278.7z"/>
	<path class="st3" d="M134.9,270.2v7.1c0,0.7,0.1,1.2,0.2,1.5c0.3,0.6,0.8,0.9,1.6,0.9c1,0,1.8-0.4,2.1-1.3c0.2-0.5,0.3-1.1,0.3-1.8
		v-6.4h3.1v11.7h-3v-1.7c0,0-0.1,0.1-0.2,0.3c-0.1,0.2-0.2,0.3-0.4,0.5c-0.5,0.4-0.9,0.7-1.4,0.9s-1,0.2-1.6,0.2
		c-1.7,0-2.9-0.6-3.5-1.9c-0.3-0.7-0.5-1.7-0.5-3v-7.1H134.9z"/>
	<path class="st3" d="M152.3,274.4c-0.1-0.4-0.2-0.8-0.4-1.2c-0.3-0.5-0.9-0.7-1.6-0.7c-1,0-1.7,0.5-2.1,1.5
		c-0.2,0.5-0.3,1.3-0.3,2.2c0,0.9,0.1,1.5,0.3,2.1c0.4,1,1.1,1.5,2.1,1.5c0.7,0,1.2-0.2,1.5-0.6c0.3-0.4,0.5-0.9,0.5-1.5h3.1
		c-0.1,0.9-0.4,1.8-1,2.6c-1,1.3-2.4,2-4.3,2c-1.9,0-3.3-0.6-4.2-1.7c-0.9-1.1-1.3-2.6-1.3-4.3c0-2,0.5-3.6,1.5-4.7
		c1-1.1,2.3-1.7,4.1-1.7c1.5,0,2.7,0.3,3.6,1c0.9,0.7,1.5,1.8,1.7,3.5H152.3z"/>
	<path class="st3" d="M156.3,272.4v-2.2h1.6V267h3v3.3h1.9v2.2H161v6.2c0,0.5,0.1,0.8,0.2,0.9s0.5,0.2,1.1,0.2c0.1,0,0.2,0,0.3,0
		c0.1,0,0.2,0,0.3,0v2.3l-1.5,0.1c-1.4,0-2.4-0.2-3-0.8c-0.3-0.4-0.5-0.9-0.5-1.6v-7.2H156.3z"/>
	<path class="st3" d="M168,268.8h-3.1v-2.8h3.1V268.8z M164.9,270.2h3.1v11.7h-3.1V270.2z"/>
	<path class="st3" d="M181,271.6c0.9,1.1,1.3,2.5,1.3,4.3c0,1.8-0.4,3.3-1.3,4.5c-0.9,1.2-2.1,1.8-3.6,1.8c-1,0-1.8-0.2-2.3-0.6
		c-0.4-0.2-0.7-0.6-1.1-1.2v1.5h-3v-15.8h3.1v5.6c0.4-0.5,0.8-1,1.3-1.2c0.6-0.4,1.3-0.5,2.1-0.5C178.9,269.9,180.1,270.5,181,271.6
		z M178.4,278.7c0.4-0.6,0.7-1.5,0.7-2.5c0-0.8-0.1-1.5-0.3-2.1c-0.4-1-1.2-1.5-2.3-1.5c-1.1,0-1.9,0.5-2.3,1.5
		c-0.2,0.5-0.3,1.2-0.3,2.1c0,1,0.2,1.8,0.7,2.5c0.4,0.7,1.1,1,2,1C177.4,279.7,178,279.3,178.4,278.7z"/>
	<path class="st3" d="M187.5,281.9h-3.1V266h3.1V281.9z"/>
	<path class="st3" d="M198.2,270.4c0.8,0.4,1.5,0.9,2,1.7c0.5,0.7,0.8,1.5,0.9,2.4c0.1,0.5,0.1,1.3,0.1,2.3h-8.5
		c0,1.2,0.5,2,1.2,2.5c0.5,0.3,1,0.4,1.7,0.4c0.7,0,1.3-0.2,1.7-0.5c0.2-0.2,0.4-0.5,0.6-0.8h3.1c-0.1,0.7-0.5,1.4-1.1,2.1
		c-1,1.1-2.5,1.7-4.4,1.7c-1.6,0-2.9-0.5-4.1-1.4c-1.2-1-1.8-2.5-1.8-4.7c0-2,0.5-3.6,1.6-4.7s2.5-1.6,4.2-1.6
		C196.4,269.8,197.3,270,198.2,270.4z M193.6,273c-0.4,0.4-0.7,1.1-0.8,1.8h5.3c-0.1-0.8-0.3-1.4-0.8-1.8s-1.1-0.6-1.8-0.6
		C194.6,272.4,194,272.6,193.6,273z"/>
</g>
<g>
	<path class="st9" d="M48.3,475.5c0.3,0.4,0.5,0.9,0.5,1.5c0,0.6-0.2,1.1-0.5,1.5c-0.2,0.2-0.4,0.4-0.8,0.6c0.5,0.2,0.9,0.5,1.2,0.9
		s0.4,0.9,0.4,1.5c0,0.6-0.1,1.1-0.4,1.6c-0.2,0.3-0.4,0.6-0.7,0.8c-0.3,0.2-0.7,0.4-1.1,0.5c-0.4,0.1-0.9,0.1-1.4,0.1h-4.5v-10.1
		h4.9C46.9,474.5,47.8,474.8,48.3,475.5z M42.8,476.2v2.2h2.4c0.4,0,0.8-0.1,1.1-0.2c0.3-0.2,0.4-0.5,0.4-0.9c0-0.5-0.2-0.8-0.5-0.9
		c-0.3-0.1-0.7-0.2-1.2-0.2H42.8z M42.8,480.1v2.7h2.4c0.4,0,0.8-0.1,1-0.2c0.4-0.2,0.7-0.6,0.7-1.3c0-0.5-0.2-0.9-0.6-1.1
		c-0.2-0.1-0.6-0.2-1-0.2H42.8z"/>
	<path class="st9" d="M55.6,477.2c0.5,0.2,0.9,0.6,1.3,1.1c0.3,0.4,0.5,1,0.6,1.5c0.1,0.3,0.1,0.8,0.1,1.5h-5.4
		c0,0.7,0.3,1.3,0.8,1.6c0.3,0.2,0.7,0.3,1.1,0.3c0.4,0,0.8-0.1,1.1-0.3c0.2-0.1,0.3-0.3,0.4-0.5h2c-0.1,0.4-0.3,0.9-0.7,1.3
		c-0.7,0.7-1.6,1.1-2.8,1.1c-1,0-1.9-0.3-2.6-0.9c-0.8-0.6-1.1-1.6-1.1-3c0-1.3,0.3-2.3,1-3c0.7-0.7,1.6-1,2.7-1
		C54.5,476.9,55.1,477,55.6,477.2z M52.7,478.9c-0.3,0.3-0.4,0.7-0.5,1.2h3.4c0-0.5-0.2-0.9-0.5-1.2c-0.3-0.3-0.7-0.4-1.2-0.4
		C53.3,478.5,52.9,478.6,52.7,478.9z"/>
	<path class="st9" d="M64.5,477.5c0.5,0.4,0.7,1.1,0.7,2v5h-2V480c0-0.4-0.1-0.7-0.2-0.9c-0.2-0.4-0.6-0.6-1.1-0.6
		c-0.7,0-1.1,0.3-1.4,0.8c-0.1,0.3-0.2,0.7-0.2,1.1v4h-1.9v-7.4h1.9v1.1c0.2-0.4,0.5-0.7,0.7-0.8c0.4-0.3,0.9-0.5,1.5-0.5
		C63.4,476.9,64,477.1,64.5,477.5z"/>
	<path class="st9" d="M71.9,477.2c0.5,0.2,0.9,0.6,1.3,1.1c0.3,0.4,0.5,1,0.6,1.5c0.1,0.3,0.1,0.8,0.1,1.5h-5.4
		c0,0.7,0.3,1.3,0.8,1.6c0.3,0.2,0.7,0.3,1.1,0.3c0.4,0,0.8-0.1,1.1-0.3c0.2-0.1,0.3-0.3,0.4-0.5h2c-0.1,0.4-0.3,0.9-0.7,1.3
		c-0.7,0.7-1.6,1.1-2.8,1.1c-1,0-1.9-0.3-2.6-0.9c-0.8-0.6-1.1-1.6-1.1-3c0-1.3,0.3-2.3,1-3c0.7-0.7,1.6-1,2.7-1
		C70.8,476.9,71.4,477,71.9,477.2z M69,478.9c-0.3,0.3-0.4,0.7-0.5,1.2h3.4c0-0.5-0.2-0.9-0.5-1.2c-0.3-0.3-0.7-0.4-1.2-0.4
		C69.7,478.5,69.3,478.6,69,478.9z"/>
	<path class="st9" d="M77.9,474.4c0.1,0,0.2,0,0.4,0v1.6c-0.1,0-0.3,0-0.6,0c-0.3,0-0.4,0-0.5,0.2c-0.1,0.1-0.1,0.3-0.1,0.4
		s0,0.4,0,0.6h1.3v1.4h-1.3v6h-1.9v-6h-1.1v-1.4h1.1v-0.5c0-0.8,0.1-1.3,0.4-1.6c0.3-0.4,1-0.7,2-0.7
		C77.7,474.4,77.8,474.4,77.9,474.4z"/>
	<path class="st9" d="M81.5,476.2h-2v-1.8h2V476.2z M79.5,477.1h2v7.5h-2V477.1z"/>
	<path class="st9" d="M82.6,478.6v-1.4h1v-2.1h1.9v2.1h1.2v1.4h-1.2v3.9c0,0.3,0,0.5,0.1,0.6c0.1,0.1,0.3,0.1,0.7,0.1
		c0.1,0,0.1,0,0.2,0c0.1,0,0.1,0,0.2,0v1.5l-0.9,0c-0.9,0-1.5-0.1-1.9-0.5c-0.2-0.2-0.3-0.6-0.3-1v-4.6H82.6z"/>
	<path class="st9" d="M98.9,480.2c-0.6,0.5-1.4,0.7-2.5,0.7h-2.1v3.6h-2.1v-10.1h4.3c1,0,1.8,0.3,2.4,0.8c0.6,0.5,0.9,1.3,0.9,2.4
		C99.8,478.9,99.5,479.7,98.9,480.2z M97.3,476.6c-0.3-0.2-0.6-0.3-1.1-0.3h-1.9v3h1.9c0.5,0,0.9-0.1,1.1-0.4s0.4-0.6,0.4-1.1
		S97.5,476.8,97.3,476.6z"/>
	<path class="st9" d="M103.3,484.5h-1.9v-10.1h1.9V484.5z"/>
	<path class="st9" d="M108.1,480c0.4,0,0.6-0.1,0.8-0.2c0.3-0.1,0.4-0.3,0.4-0.6c0-0.3-0.1-0.5-0.3-0.6c-0.2-0.1-0.5-0.2-0.9-0.2
		c-0.5,0-0.8,0.1-1,0.3c-0.1,0.2-0.2,0.4-0.3,0.7h-1.9c0-0.7,0.2-1.2,0.5-1.6c0.5-0.7,1.4-1,2.7-1c0.8,0,1.5,0.2,2.2,0.5
		s1,0.9,1,1.8v3.4c0,0.2,0,0.5,0,0.9c0,0.3,0.1,0.4,0.1,0.5s0.2,0.2,0.3,0.2v0.3h-2.1c-0.1-0.2-0.1-0.3-0.1-0.4s0-0.3-0.1-0.5
		c-0.3,0.3-0.6,0.5-0.9,0.7c-0.4,0.2-0.9,0.4-1.4,0.4c-0.7,0-1.2-0.2-1.7-0.6c-0.4-0.4-0.7-0.9-0.7-1.6c0-0.9,0.4-1.6,1.1-2
		c0.4-0.2,1-0.4,1.7-0.5L108.1,480z M109.3,480.9c-0.1,0.1-0.3,0.1-0.4,0.2c-0.1,0-0.3,0.1-0.5,0.1l-0.4,0.1
		c-0.4,0.1-0.7,0.2-0.9,0.3c-0.3,0.2-0.5,0.5-0.5,0.8c0,0.3,0.1,0.6,0.3,0.7c0.2,0.1,0.4,0.2,0.7,0.2c0.4,0,0.8-0.1,1.2-0.4
		c0.4-0.2,0.5-0.7,0.6-1.3V480.9z"/>
	<path class="st9" d="M119,477.5c0.5,0.4,0.7,1.1,0.7,2v5h-2V480c0-0.4-0.1-0.7-0.2-0.9c-0.2-0.4-0.6-0.6-1.1-0.6
		c-0.7,0-1.1,0.3-1.4,0.8c-0.1,0.3-0.2,0.7-0.2,1.1v4H113v-7.4h1.9v1.1c0.2-0.4,0.5-0.7,0.7-0.8c0.4-0.3,0.9-0.5,1.5-0.5
		C117.9,476.9,118.5,477.1,119,477.5z"/>
	<path class="st9" d="M123,482.2c0,0.3,0.1,0.6,0.3,0.7c0.2,0.3,0.7,0.4,1.3,0.4c0.4,0,0.7-0.1,0.9-0.2s0.3-0.3,0.3-0.5
		c0-0.2-0.1-0.4-0.3-0.5s-0.9-0.3-2-0.6c-0.8-0.2-1.4-0.5-1.8-0.8c-0.3-0.3-0.5-0.8-0.5-1.3c0-0.7,0.3-1.3,0.8-1.8
		c0.5-0.5,1.3-0.7,2.3-0.7c0.9,0,1.7,0.2,2.3,0.6c0.6,0.4,0.9,1,1,1.9h-1.9c0-0.3-0.1-0.4-0.2-0.6c-0.2-0.3-0.6-0.4-1.1-0.4
		c-0.4,0-0.7,0.1-0.9,0.2c-0.2,0.1-0.3,0.3-0.3,0.5c0,0.2,0.1,0.4,0.3,0.5c0.2,0.1,0.9,0.3,2,0.5c0.8,0.2,1.4,0.5,1.7,0.8
		c0.4,0.4,0.6,0.8,0.6,1.4c0,0.7-0.3,1.3-0.8,1.8c-0.6,0.5-1.4,0.7-2.6,0.7c-1.2,0-2-0.2-2.6-0.7c-0.6-0.5-0.8-1.1-0.8-1.9H123z"/>
</g>
</svg>
