<?xml version="1.0" encoding="utf-8"?>
<!-- Generator: Adobe Illustrator 22.0.1, SVG Export Plug-In . SVG Version: 6.00 Build 0)  -->
<svg version="1.1" id="Layer_1" xmlns="http://www.w3.org/2000/svg" xmlns:xlink="http://www.w3.org/1999/xlink" x="0px" y="0px"
	 viewBox="0 0 1439.2 797.9" style="enable-background:new 0 0 1439.2 797.9;" xml:space="preserve">
<style type="text/css">
	.st0{fill:#006DD1;}
	.st1{opacity:0.8;fill:#FFFFFF;}
	.st2{fill:#FFFFFF;}
	.st3{fill:none;}
	.st4{font-family:'SegoeUI';}
	.st5{font-size:16px;}
	.st6{fill:#AEB5BC;}
	.st7{fill:#D2D2D2;}
	.st8{fill:none;stroke:#000000;stroke-miterlimit:10;}
	.st9{fill:none;stroke:#D2D2D2;stroke-miterlimit:10;}
	.st10{fill:none;stroke:#333333;stroke-miterlimit:10;}
	.st11{fill:#B9BEC1;}
	.st12{fill:#E8EEF1;}
	.st13{fill:#EEEEEE;}
	.st14{fill:#CCCCCC;}
	.st15{fill:#999999;}
	.st16{fill:#606060;}
	.st17{fill:#333333;}
	.st18{opacity:0.5;}
	.st19{opacity:0.5;fill:#666666;}
	.st20{opacity:0.5;fill:#0000EE;}
	.st21{opacity:0.5;fill:#FFFFFF;}
</style>
<rect x="0" y="0" class="st0" width="1438" height="52.5"/>
<rect x="0" y="52.5" class="st0" width="1438" height="52.5"/>
<rect x="0" y="52.7" class="st1" width="1438" height="52.5"/>
<rect x="0" y="105" class="st1" width="1438" height="693"/>
<g>
	<path class="st2" d="M21.6,20.7h-4.7c-1.1,0-2-0.9-2-2v-3.4c0-1.1,0.9-2,2-2h4.7c1.1,0,2,0.9,2,2v3.4
		C23.6,19.8,22.7,20.7,21.6,20.7z"/>
	<path class="st2" d="M32.2,20.7h-4.7c-1.1,0-2-0.9-2-2v-3.4c0-1.1,0.9-2,2-2h4.7c1.1,0,2,0.9,2,2v3.4
		C34.2,19.8,33.3,20.7,32.2,20.7z"/>
	<path class="st2" d="M42.8,20.7H38c-1.1,0-2-0.9-2-2v-3.4c0-1.1,0.9-2,2-2h4.7c1.1,0,2,0.9,2,2v3.4C44.8,19.8,43.9,20.7,42.8,20.7z
		"/>
	<path class="st2" d="M21.6,29.9h-4.7c-1.1,0-2-0.9-2-2v-3.4c0-1.1,0.9-2,2-2h4.7c1.1,0,2,0.9,2,2v3.4C23.6,29,22.8,29.9,21.6,29.9z
		"/>
	<path class="st2" d="M32.3,29.9h-4.7c-1.1,0-2-0.9-2-2v-3.4c0-1.1,0.9-2,2-2h4.7c1.1,0,2,0.9,2,2v3.4C34.3,29,33.4,29.9,32.3,29.9z
		"/>
	<path class="st2" d="M42.8,29.9h-4.7c-1.1,0-2-0.9-2-2v-3.4c0-1.1,0.9-2,2-2h4.7c1.1,0,2,0.9,2,2v3.4C44.8,29,43.9,29.9,42.8,29.9z
		"/>
	<path class="st2" d="M21.7,39.2H17c-1.1,0-2-0.9-2-2v-3.4c0-1.1,0.9-2,2-2h4.7c1.1,0,2,0.9,2,2v3.4C23.7,38.3,22.8,39.2,21.7,39.2z
		"/>
	<path class="st2" d="M32.3,39.2h-4.7c-1.1,0-2-0.9-2-2v-3.4c0-1.1,0.9-2,2-2h4.7c1.1,0,2,0.9,2,2v3.4
		C34.3,38.3,33.4,39.2,32.3,39.2z"/>
	<path class="st2" d="M42.9,39.2h-4.7c-1.1,0-2-0.9-2-2v-3.4c0-1.1,0.9-2,2-2h4.7c1.1,0,2,0.9,2,2v3.4C44.9,38.3,44,39.2,42.9,39.2z
		"/>
</g>
<g>
	<path class="st1" d="M594.5,42.5h-346c-1.1,0-2-0.9-2-2V12c0-1.1,0.9-2,2-2h346c1.1,0,2,0.9,2,2v28.5
		C596.5,41.6,595.6,42.5,594.5,42.5z"/>
	<path class="st0" d="M259.6,34.1c0.2,0.2,0.5,0.2,0.7,0l4.5-4.5c0,0,0,0,0,0c1.2,1,2.7,1.6,4.3,1.6c3.6,0,6.6-3,6.6-6.6
		s-3-6.6-6.6-6.6s-6.6,3-6.6,6.6c0,1.6,0.6,3.1,1.6,4.3c0,0,0,0,0,0l-4.5,4.5C259.4,33.6,259.4,33.9,259.6,34.1z M263.5,24.6
		c0-3.1,2.5-5.6,5.6-5.6s5.6,2.5,5.6,5.6s-2.5,5.6-5.6,5.6S263.5,27.7,263.5,24.6z"/>
	<rect x="295" y="19.5" class="st3" width="169" height="13.5"/>
	<text transform="matrix(1 0 0 1 294.9993 31.3424)" class="st0 st4 st5">Search</text>
</g>
<g>
	<path class="st2" d="M1260.4,17.3c1.2,0.3,2.3,0.7,3.3,1.5c1.7,1.4,2.5,3.2,2.6,5.3c0.1,1.1,0.1,2.2,0.3,3.3
		c0.2,1.5,0.8,2.8,1.9,3.8c1,1,0.9,2.3-0.1,3.2c-0.4,0.4-0.9,0.5-1.5,0.5c-1.5,0-2.9,0-4.4,0c-0.1,0-0.3,0-0.5,0
		c-0.1,1-0.5,1.8-1.3,2.4c-0.5,0.4-1.1,0.5-1.8,0.5c-1.4-0.1-2.3-1-2.7-2.8c-0.1,0-0.3,0-0.4,0c-1.4,0-2.9,0-4.3,0
		c-1,0-1.7-0.4-2.2-1.3c-0.4-0.9-0.2-1.8,0.5-2.4c1.5-1.4,1.9-3.2,2.1-5.1c0.1-1,0-1.9,0.2-2.9c0.4-3.1,2.7-5.4,5.7-6
		c0,0,0.1,0,0.1,0c-0.4-0.8-0.3-1.5,0.4-2c0.5-0.4,1.2-0.3,1.6,0C1260.7,15.8,1260.7,16.5,1260.4,17.3z M1259.1,33.6
		c2.6,0,5.1,0,7.7,0c0.4,0,0.7-0.1,0.8-0.4c0.1-0.4,0-0.7-0.3-0.9c-1.1-1.1-1.9-2.4-2.1-3.9c-0.2-1.4-0.3-2.9-0.4-4.3
		c-0.2-2.6-2-4.8-4.6-5.3c-3.3-0.7-6.6,1.8-6.8,5.2c-0.1,0.9-0.1,1.9-0.1,2.8c-0.2,2.1-0.9,4-2.4,5.5c-0.3,0.3-0.4,0.6-0.3,0.9
		c0.2,0.4,0.5,0.4,0.9,0.4C1254.1,33.6,1256.6,33.6,1259.1,33.6z M1257.8,35c0,0.8,0.6,1.4,1.4,1.4c0.8,0,1.4-0.6,1.4-1.4
		C1259.6,35,1258.7,35,1257.8,35z"/>
	<g>
		<path class="st2" d="M1306.3,17.9c0-0.2,0-0.4,0-0.6c0-0.5,0.3-0.8,0.8-0.9c1.6-0.4,3.2-0.4,4.7,0c0.5,0.1,0.7,0.4,0.8,0.9
			c0,0.4,0,0.9,0,1.3c0,0.2,0.1,0.3,0.3,0.4c0.5,0.2,0.9,0.5,1.4,0.8c0.2,0.1,0.3,0.1,0.4,0c0.4-0.2,0.8-0.4,1.1-0.7
			c0.4-0.3,0.9-0.2,1.2,0.2c1.1,1.2,1.9,2.6,2.4,4.2c0.1,0.5,0,0.9-0.5,1.1c-0.4,0.2-0.7,0.4-1.1,0.6c-0.2,0.1-0.2,0.2-0.2,0.4
			c0,0.5,0,1,0,1.5c0,0.2,0,0.3,0.2,0.4c0.4,0.2,0.7,0.4,1.1,0.6c0.5,0.3,0.7,0.7,0.5,1.3c-0.5,1.5-1.3,2.8-2.3,4
			c-0.4,0.4-0.8,0.4-1.2,0.2c-0.4-0.2-0.8-0.5-1.2-0.7c-0.1,0-0.3,0-0.4,0c-0.5,0.3-1,0.6-1.4,0.8c-0.2,0.1-0.2,0.2-0.2,0.4
			c0,0.5,0,0.9,0,1.4c0,0.5-0.3,0.8-0.7,0.9c-0.5,0.1-1.1,0.2-1.6,0.3c-1,0.1-2.1,0-3.1-0.2c-0.6-0.1-0.8-0.4-0.8-1
			c0-0.4,0-0.9,0-1.3c0-0.2-0.1-0.3-0.2-0.4c-0.5-0.3-0.9-0.5-1.4-0.8c-0.2-0.1-0.3-0.1-0.4,0c-0.4,0.2-0.7,0.4-1.1,0.6
			c-0.5,0.3-1,0.2-1.4-0.2c-1.1-1.2-1.8-2.5-2.3-4c-0.2-0.5,0-0.9,0.5-1.2c0.4-0.2,0.8-0.4,1.1-0.7c0.2-0.1,0.2-0.2,0.2-0.4
			c0-0.5,0-1.1,0-1.6c0-0.2,0-0.3-0.2-0.4c-0.4-0.2-0.7-0.4-1.1-0.6c-0.5-0.3-0.7-0.7-0.5-1.3c0.5-1.5,1.2-2.9,2.3-4
			c0.4-0.4,0.8-0.5,1.3-0.2c0.4,0.2,0.8,0.4,1.1,0.7c0.1,0.1,0.2,0.1,0.4,0c0.5-0.3,0.9-0.6,1.4-0.8c0.2-0.1,0.2-0.2,0.2-0.3
			C1306.3,18.4,1306.3,18.1,1306.3,17.9C1306.3,17.9,1306.3,17.9,1306.3,17.9z M1311.3,18.6c0-0.3,0-0.6,0-0.9
			c0-0.2-0.1-0.3-0.3-0.3c-1.1-0.2-2.1-0.2-3.2,0c-0.2,0-0.3,0.1-0.3,0.3c0,0.6,0,1.2,0,1.8c0,0.2-0.1,0.3-0.2,0.3
			c-1,0.3-1.8,0.8-2.6,1.5c-0.1,0.1-0.2,0.1-0.4,0c-0.5-0.3-1-0.6-1.5-0.9c-0.2-0.1-0.3-0.1-0.4,0.1c-0.7,0.9-1.3,1.8-1.6,2.8
			c-0.1,0.2,0,0.3,0.2,0.4c0.5,0.3,1,0.6,1.5,0.8c0.2,0.1,0.2,0.2,0.2,0.4c-0.2,1-0.2,1.9,0,2.9c0,0.2,0,0.3-0.2,0.4
			c-0.5,0.3-1,0.6-1.5,0.9c-0.2,0.1-0.2,0.2-0.1,0.4c0.4,1,0.9,2,1.6,2.8c0.1,0.2,0.3,0.2,0.4,0.1c0.5-0.3,1-0.6,1.5-0.8
			c0.2-0.1,0.3-0.1,0.4,0c0.8,0.7,1.6,1.2,2.6,1.5c0.2,0.1,0.2,0.2,0.2,0.3c0,0.6,0,1.2,0,1.8c0,0.2,0.1,0.3,0.3,0.3
			c1.1,0.2,2.2,0.2,3.2,0c0.2,0,0.3-0.1,0.3-0.3c0-0.6,0-1.1,0-1.7c0-0.2,0.1-0.3,0.3-0.4c0.9-0.3,1.8-0.8,2.5-1.4
			c0.2-0.1,0.3-0.1,0.4,0c0.5,0.3,1,0.6,1.5,0.9c0.1,0.1,0.2,0.1,0.4-0.1c0.7-0.9,1.3-1.8,1.7-2.9c0.1-0.2,0-0.3-0.2-0.4
			c-0.5-0.3-1-0.6-1.4-0.8c-0.2-0.1-0.3-0.3-0.2-0.5c0.2-0.9,0.2-1.8,0-2.8c0-0.2,0-0.3,0.2-0.5c0.5-0.3,1-0.6,1.5-0.9
			c0.1-0.1,0.2-0.2,0.1-0.3c-0.4-1.1-0.9-2-1.7-2.9c-0.1-0.1-0.2-0.2-0.4-0.1c-0.5,0.3-1,0.6-1.5,0.9c-0.1,0.1-0.3,0.1-0.4,0
			c-0.7-0.7-1.6-1.2-2.6-1.5c-0.2-0.1-0.2-0.2-0.2-0.3C1311.3,19.2,1311.3,18.9,1311.3,18.6z"/>
		<path class="st2" d="M1309.4,22.4c2.2,0.1,4,1.6,4,4c0,2.2-1.6,4-4,4c-2.2,0-4-1.6-4-4C1305.4,24.3,1307,22.5,1309.4,22.4z
			 M1306.7,26.4c-0.1,1.3,1.1,2.7,2.7,2.7c1.6,0,2.8-1.4,2.8-2.7c0-1.5-1.2-2.8-2.8-2.8C1307.7,23.7,1306.6,25.1,1306.7,26.4z"/>
	</g>
	<g>
		<path class="st2" d="M1353.4,31.2c-0.1-0.2-0.2-0.6-0.3-1s-0.1-0.8-0.1-1.2c0-0.5,0.1-0.9,0.2-1.3c0.1-0.4,0.3-0.7,0.5-1.1
			c0.2-0.3,0.5-0.7,0.8-1c0.3-0.3,0.6-0.6,1-1c0.3-0.3,0.6-0.6,0.9-0.9c0.3-0.3,0.6-0.6,0.8-1s0.4-0.7,0.6-1.1
			c0.1-0.4,0.2-0.9,0.2-1.4c0-0.5-0.1-1-0.3-1.4c-0.2-0.4-0.4-0.8-0.8-1.1c-0.3-0.3-0.7-0.5-1.2-0.7c-0.5-0.2-1-0.2-1.5-0.2
			c-0.9,0-1.8,0.2-2.5,0.5s-1.5,0.8-2.2,1.3v-1.6c0.7-0.5,1.4-0.9,2.2-1.2c0.8-0.3,1.6-0.4,2.6-0.4c0.7,0,1.4,0.1,2,0.3
			c0.6,0.2,1.2,0.5,1.6,0.9s0.8,0.9,1.1,1.5c0.3,0.6,0.4,1.2,0.4,2c0,0.6-0.1,1.1-0.2,1.5c-0.2,0.5-0.4,0.9-0.6,1.3
			c-0.2,0.4-0.5,0.8-0.9,1.1c-0.3,0.3-0.6,0.7-1,1c-0.5,0.5-0.9,0.9-1.3,1.2c-0.3,0.3-0.6,0.6-0.8,0.9c-0.2,0.3-0.3,0.5-0.4,0.8
			c-0.1,0.3-0.1,0.6-0.1,0.9c0,0.4,0,0.9,0.1,1.2c0.1,0.4,0.2,0.7,0.2,0.9H1353.4z M1353.9,37.3c-0.3,0-0.6-0.1-0.8-0.3
			s-0.3-0.5-0.3-0.8c0-0.3,0.1-0.6,0.3-0.8s0.5-0.3,0.8-0.3c0.3,0,0.6,0.1,0.9,0.3c0.2,0.2,0.3,0.5,0.3,0.8c0,0.3-0.1,0.6-0.3,0.8
			C1354.6,37.1,1354.3,37.3,1353.9,37.3z"/>
	</g>
	<g>
		<circle class="st6" cx="1405.7" cy="26.4" r="15.9"/>
		<circle class="st2" cx="1405.4" cy="24" r="6.9"/>
		<path class="st2" d="M1394.6,34.9c0,0,4.1,5.6,10.9,5.6c6.8,0,10.9-5.3,10.9-5.6s-0.2-1.4-1.6-2.8c-1.4-1.4-3.4-1.3-3.6-1.2
			c-0.2,0.1-2.6,2.1-5.7,2.1c-3.1,0-5.5-2.2-5.9-2.1c-0.4,0-2.4,0.1-3.4,1.1C1395.1,33,1394.3,34.2,1394.6,34.9z"/>
	</g>
</g>
<rect x="13.4" y="117.1" class="st7" width="120.8" height="35.8"/>
<rect x="153.4" y="117.1" class="st7" width="120.8" height="35.8"/>
<rect x="292.5" y="117.1" class="st7" width="120.8" height="35.8"/>
<rect x="434.4" y="117.1" class="st7" width="120.8" height="35.8"/>
<rect x="575.3" y="117.1" class="st7" width="120.8" height="35.8"/>
<rect x="714.3" y="117.1" class="st7" width="120.8" height="35.8"/>
<rect x="329" y="59.8" class="st8" width="145.3" height="38.3"/>
<polygon points="456,83.6 447.8,75.4 448.5,74.7 456,82.2 463.4,74.8 464.1,75.5 "/>
<rect x="14.9" y="59.8" class="st8" width="288.3" height="38.3"/>
<polygon points="280.6,83.2 272.4,75 273.1,74.3 280.6,81.8 288,74.4 288.7,75.1 "/>
<line class="st9" x1="0" y1="165" x2="1438" y2="165"/>
<line class="st9" x1="1077.8" y1="165" x2="1077.8" y2="798"/>
<g>
	<rect x="220.4" y="195.3" class="st10" width="170.4" height="34"/>
</g>
<g>
	<rect x="15.4" y="195.3" class="st10" width="170.4" height="34"/>
</g>
<g>
	<path class="st7" d="M1021.6,229.3h-39v-32c0-0.6,0.4-1,1-1h38V229.3z"/>
	<g>
		<path d="M1044.5,206.4c1.9,0,3.8,0,5.7,0c1,0,1.2,0.4,1.1,1.2c0,0.7-0.1,1.2-1.1,1.2c-3.8,0-7.6,0-11.4,0c-1,0-1.1-0.5-1.1-1.2
			c0-0.8,0.2-1.2,1.1-1.2C1040.8,206.4,1042.7,206.4,1044.5,206.4z"/>
		<path d="M1044.6,214c-1.9,0-3.8,0-5.6,0c-1,0-1.1-0.5-1.1-1.2c0-0.7,0.1-1.1,1.1-1.1c3.8,0,7.6,0,11.5,0c1,0,1,0.5,1,1.2
			c0,0.7,0,1.2-1,1.2C1048.4,214,1046.5,214,1044.6,214z"/>
		<path d="M1044.6,219.2c-1.9,0-3.8,0-5.6,0c-1,0-1.2-0.4-1.1-1.2c0-0.7,0.1-1.2,1.1-1.2c3.8,0,7.6,0,11.4,0c1,0,1.1,0.5,1.1,1.2
			c0,0.8-0.2,1.2-1.1,1.2C1048.4,219.2,1046.5,219.2,1044.6,219.2z"/>
		<path d="M1035,209.1c-0.9,0-1.7-0.7-1.7-1.5c0-0.8,0.8-1.6,1.7-1.6c0.9,0,1.7,0.7,1.7,1.5C1036.7,208.4,1035.9,209.1,1035,209.1z"
			/>
		<path d="M1035,214.4c-0.9,0-1.7-0.7-1.7-1.6c0-0.8,0.8-1.5,1.7-1.5c0.9,0,1.7,0.7,1.7,1.6C1036.7,213.6,1035.9,214.4,1035,214.4z"
			/>
		<path d="M1035,216.5c0.9,0,1.7,0.7,1.7,1.5c0,0.8-0.8,1.6-1.7,1.6c-0.9,0-1.7-0.7-1.7-1.5C1033.3,217.2,1034.1,216.5,1035,216.5z"
			/>
	</g>
	<g>
		<path d="M997.3,212.3c-1,0-2.1,0-3.1,0c-0.8,0-1.1-0.3-1.1-1.1c0-1.5,0-3.1,0-4.6c0-0.8,0.3-1.1,1.2-1.1c2,0,4.1,0,6.1,0
			c0.8,0,1.2,0.3,1.2,1.1c0,1.5,0,3,0,4.5c0,0.9-0.2,1.1-1.3,1.2C999.3,212.3,998.3,212.3,997.3,212.3z"/>
		<path d="M1006.9,212.3c-1,0-2,0-3,0c-0.8,0-1.2-0.3-1.2-1.1c0-1.6,0-3.1,0-4.7c0-0.7,0.4-1,1.1-1c2.1,0,4.2,0,6.3,0
			c0.7,0,1.1,0.4,1.1,1c0,1.6,0,3.1,0,4.7c0,0.7-0.4,1.1-1.1,1.1C1009,212.3,1008,212.3,1006.9,212.3z"/>
		<path d="M997.3,220.1c-1,0-2,0-3,0c-0.8,0-1.2-0.3-1.2-1.1c0-1.5,0-3.1,0-4.6c0-0.8,0.4-1.1,1.2-1.1c2,0,4.1,0,6.1,0
			c0.8,0,1.2,0.3,1.2,1c0,1.6,0,3.1,0,4.7c0,0.7-0.4,1.1-1.2,1C999.4,220.1,998.3,220.1,997.3,220.1z"/>
		<path d="M1006.9,213.3c1,0,2.1,0,3.1,0c0.8,0,1.1,0.3,1.1,1.1c0,1.6,0,3.1,0,4.7c0,0.7-0.3,1-1.1,1c-2.1,0-4.2,0-6.3,0
			c-0.7,0-1.1-0.3-1.1-1c0-1.6,0-3.1,0-4.7c0-0.7,0.3-1.1,1.1-1.1C1004.9,213.4,1005.9,213.3,1006.9,213.3z"/>
	</g>
	<line class="st8" x1="1022.1" y1="195.8" x2="1022.1" y2="228.8"/>
	<path class="st8" d="M1059.6,229.3h-75c-1.1,0-2-0.9-2-2v-29c0-1.1,0.9-2,2-2h75c1.1,0,2,0.9,2,2v29
		C1061.6,228.4,1060.7,229.3,1059.6,229.3z"/>
</g>
<polygon points="163.4,217.4 155.2,209.2 155.9,208.5 163.4,216 170.8,208.6 171.5,209.3 "/>
<polygon points="369.4,215.8 361.1,207.5 361.9,206.8 369.4,214.4 376.7,207 377.5,207.7 "/>
<g>
	<g>
		<g>
			<g>
				<rect x="14.2" y="259.6" class="st11" width="232.3" height="138"/>
			</g>
			<path class="st12" d="M229.1,274.1H30.5c-1,0-1.8,0.8-1.8,1.8v106.5c0,1,0.8,1.8,1.8,1.8h198.6c1,0,1.8-0.8,1.8-1.8V275.9
				C230.9,274.9,230.1,274.1,229.1,274.1z M56.1,284.7c9,0,16.2,7.3,16.2,16.2c0,9-7.3,16.2-16.2,16.2s-16.2-7.3-16.2-16.2
				C39.8,292,47.1,284.7,56.1,284.7z M159.5,372.6H39.8v-16.7l27-27l13.9,14l43.5-43.9l35.1,35.4V372.6z"/>
			<polyline class="st11" points="159.5,372.6 218.8,372.6 218.8,326.6 176.9,284.7 141.3,320.3 			"/>
		</g>
	</g>
	<g>
		<g>
			<g>
				<rect x="278.1" y="259.6" class="st11" width="232.3" height="138"/>
			</g>
			<path class="st12" d="M492.9,274.1H294.3c-1,0-1.8,0.8-1.8,1.8v106.5c0,1,0.8,1.8,1.8,1.8h198.6c1,0,1.8-0.8,1.8-1.8V275.9
				C494.8,274.9,493.9,274.1,492.9,274.1z M319.9,284.7c9,0,16.2,7.3,16.2,16.2c0,9-7.3,16.2-16.2,16.2s-16.2-7.3-16.2-16.2
				C303.7,292,311,284.7,319.9,284.7z M423.3,372.6H303.7v-16.7l27-27l13.9,14l43.5-43.9l35.1,35.4V372.6z"/>
			<polyline class="st11" points="423.3,372.6 482.6,372.6 482.6,326.6 440.8,284.7 405.2,320.3 			"/>
		</g>
	</g>
	<g>
		<g>
			<g>
				<rect x="542.2" y="259.6" class="st11" width="232.3" height="138"/>
			</g>
			<path class="st12" d="M757.1,274.1H558.5c-1,0-1.8,0.8-1.8,1.8v106.5c0,1,0.8,1.8,1.8,1.8h198.6c1,0,1.8-0.8,1.8-1.8V275.9
				C758.9,274.9,758.1,274.1,757.1,274.1z M584.1,284.7c9,0,16.2,7.3,16.2,16.2c0,9-7.3,16.2-16.2,16.2c-9,0-16.2-7.3-16.2-16.2
				C567.8,292,575.1,284.7,584.1,284.7z M687.5,372.6H567.8v-16.7l27-27l13.9,14l43.5-43.9l35.1,35.4V372.6z"/>
			<polyline class="st11" points="687.5,372.6 746.8,372.6 746.8,326.6 704.9,284.7 669.3,320.3 			"/>
		</g>
	</g>
	<g>
		<g>
			<g>
				<rect x="806.4" y="259.6" class="st11" width="232.3" height="138"/>
			</g>
			<path class="st12" d="M1021.2,274.1H822.6c-1,0-1.8,0.8-1.8,1.8v106.5c0,1,0.8,1.8,1.8,1.8h198.6c1,0,1.8-0.8,1.8-1.8V275.9
				C1023,274.9,1022.2,274.1,1021.2,274.1z M848.2,284.7c9,0,16.2,7.3,16.2,16.2c0,9-7.3,16.2-16.2,16.2c-9,0-16.2-7.3-16.2-16.2
				C832,292,839.2,284.7,848.2,284.7z M951.6,372.6H832v-16.7l27-27l13.9,14l43.5-43.9l35.1,35.4V372.6z"/>
			<polyline class="st11" points="951.6,372.6 1010.9,372.6 1010.9,326.6 969,284.7 933.5,320.3 			"/>
		</g>
	</g>
</g>
<g>
	<g>
		<g>
			<g>
				<rect x="14.2" y="481.5" class="st11" width="232.3" height="138"/>
			</g>
			<path class="st12" d="M229.1,495.9H30.5c-1,0-1.8,0.8-1.8,1.8v106.5c0,1,0.8,1.8,1.8,1.8h198.6c1,0,1.8-0.8,1.8-1.8V497.8
				C230.9,496.8,230.1,495.9,229.1,495.9z M56.1,506.6c9,0,16.2,7.3,16.2,16.2c0,9-7.3,16.2-16.2,16.2s-16.2-7.3-16.2-16.2
				C39.8,513.8,47.1,506.6,56.1,506.6z M159.5,594.4H39.8v-16.7l27-27l13.9,14l43.5-43.9l35.1,35.4V594.4z"/>
			<polyline class="st11" points="159.5,594.4 218.8,594.4 218.8,548.4 176.9,506.6 141.3,542.2 			"/>
		</g>
	</g>
	<g>
		<g>
			<g>
				<rect x="278.1" y="481.5" class="st11" width="232.3" height="138"/>
			</g>
			<path class="st12" d="M492.9,495.9H294.3c-1,0-1.8,0.8-1.8,1.8v106.5c0,1,0.8,1.8,1.8,1.8h198.6c1,0,1.8-0.8,1.8-1.8V497.8
				C494.8,496.8,493.9,495.9,492.9,495.9z M319.9,506.6c9,0,16.2,7.3,16.2,16.2c0,9-7.3,16.2-16.2,16.2s-16.2-7.3-16.2-16.2
				C303.7,513.8,311,506.6,319.9,506.6z M423.3,594.4H303.7v-16.7l27-27l13.9,14l43.5-43.9l35.1,35.4V594.4z"/>
			<polyline class="st11" points="423.3,594.4 482.6,594.4 482.6,548.4 440.8,506.6 405.2,542.2 			"/>
		</g>
	</g>
	<g>
		<g>
			<g>
				<rect x="542.2" y="481.5" class="st11" width="232.3" height="138"/>
			</g>
			<path class="st12" d="M757.1,495.9H558.5c-1,0-1.8,0.8-1.8,1.8v106.5c0,1,0.8,1.8,1.8,1.8h198.6c1,0,1.8-0.8,1.8-1.8V497.8
				C758.9,496.8,758.1,495.9,757.1,495.9z M584.1,506.6c9,0,16.2,7.3,16.2,16.2c0,9-7.3,16.2-16.2,16.2c-9,0-16.2-7.3-16.2-16.2
				C567.8,513.8,575.1,506.6,584.1,506.6z M687.5,594.4H567.8v-16.7l27-27l13.9,14l43.5-43.9l35.1,35.4V594.4z"/>
			<polyline class="st11" points="687.5,594.4 746.8,594.4 746.8,548.4 704.9,506.6 669.3,542.2 			"/>
		</g>
	</g>
	<g>
		<g>
			<g>
				<rect x="806.4" y="481.5" class="st11" width="232.3" height="138"/>
			</g>
			<path class="st12" d="M1021.2,495.9H822.6c-1,0-1.8,0.8-1.8,1.8v106.5c0,1,0.8,1.8,1.8,1.8h198.6c1,0,1.8-0.8,1.8-1.8V497.8
				C1023,496.8,1022.2,495.9,1021.2,495.9z M848.2,506.6c9,0,16.2,7.3,16.2,16.2c0,9-7.3,16.2-16.2,16.2c-9,0-16.2-7.3-16.2-16.2
				C832,513.8,839.2,506.6,848.2,506.6z M951.6,594.4H832v-16.7l27-27l13.9,14l43.5-43.9l35.1,35.4V594.4z"/>
			<polyline class="st11" points="951.6,594.4 1010.9,594.4 1010.9,548.4 969,506.6 933.5,542.2 			"/>
		</g>
	</g>
</g>
<g>
	<g>
		<g>
			<g>
				<rect x="14.2" y="703.4" class="st11" width="232.3" height="138"/>
			</g>
			<path class="st12" d="M229.1,717.8H30.5c-1,0-1.8,0.8-1.8,1.8v106.5c0,1,0.8,1.8,1.8,1.8h198.6c1,0,1.8-0.8,1.8-1.8V719.6
				C230.9,718.6,230.1,717.8,229.1,717.8z M56.1,728.4c9,0,16.2,7.3,16.2,16.2c0,9-7.3,16.2-16.2,16.2s-16.2-7.3-16.2-16.2
				C39.8,735.7,47.1,728.4,56.1,728.4z M159.5,816.3H39.8v-16.7l27-27l13.9,14l43.5-43.9l35.1,35.4V816.3z"/>
			<polyline class="st11" points="159.5,816.3 218.8,816.3 218.8,770.3 176.9,728.4 141.3,764 			"/>
		</g>
		<g>
			<rect x="14" y="847.1" class="st3" width="93.5" height="15.1"/>
			<text transform="matrix(1 0 0 1 13.9834 857.421)" class="st4" style="font-size:14px;">file-name.jpg</text>
			<rect x="14" y="867" class="st3" width="52.3" height="15.1"/>
			<text transform="matrix(1 0 0 1 13.9834 875.8591)" class="st4" style="font-size:12px;">Asset ID</text>
			<rect x="110" y="867" class="st3" width="136.5" height="15.1"/>
			<text transform="matrix(1 0 0 1 109.952 875.8591)" class="st4" style="font-size:12px;">00/00/0000  00:00 pm</text>
		</g>
	</g>
	<g>
		<g>
			<g>
				<rect x="278.1" y="703.4" class="st11" width="232.3" height="138"/>
			</g>
			<path class="st12" d="M492.9,717.8H294.3c-1,0-1.8,0.8-1.8,1.8v106.5c0,1,0.8,1.8,1.8,1.8h198.6c1,0,1.8-0.8,1.8-1.8V719.6
				C494.8,718.6,493.9,717.8,492.9,717.8z M319.9,728.4c9,0,16.2,7.3,16.2,16.2c0,9-7.3,16.2-16.2,16.2s-16.2-7.3-16.2-16.2
				C303.7,735.7,311,728.4,319.9,728.4z M423.3,816.3H303.7v-16.7l27-27l13.9,14l43.5-43.9l35.1,35.4V816.3z"/>
			<polyline class="st11" points="423.3,816.3 482.6,816.3 482.6,770.3 440.8,728.4 405.2,764 			"/>
		</g>
		<g>
			<rect x="278.1" y="847.1" class="st3" width="93.5" height="15.1"/>
			<text transform="matrix(1 0 0 1 278.1117 857.421)" class="st4" style="font-size:14px;">file-name.jpg</text>
			<rect x="278.1" y="867" class="st3" width="52.3" height="15.1"/>
			<text transform="matrix(1 0 0 1 278.1117 875.8591)" class="st4" style="font-size:12px;">Asset ID</text>
			<rect x="374.1" y="867" class="st3" width="136.5" height="15.1"/>
			<text transform="matrix(1 0 0 1 374.0803 875.8591)" class="st4" style="font-size:12px;">00/00/0000  00:00 pm</text>
		</g>
	</g>
	<g>
		<g>
			<g>
				<rect x="542.2" y="703.4" class="st11" width="232.3" height="138"/>
			</g>
			<path class="st12" d="M757.1,717.8H558.5c-1,0-1.8,0.8-1.8,1.8v106.5c0,1,0.8,1.8,1.8,1.8h198.6c1,0,1.8-0.8,1.8-1.8V719.6
				C758.9,718.6,758.1,717.8,757.1,717.8z M584.1,728.4c9,0,16.2,7.3,16.2,16.2c0,9-7.3,16.2-16.2,16.2c-9,0-16.2-7.3-16.2-16.2
				C567.8,735.7,575.1,728.4,584.1,728.4z M687.5,816.3H567.8v-16.7l27-27l13.9,14l43.5-43.9l35.1,35.4V816.3z"/>
			<polyline class="st11" points="687.5,816.3 746.8,816.3 746.8,770.3 704.9,728.4 669.3,764 			"/>
		</g>
		<g>
			<rect x="542.2" y="847.1" class="st3" width="93.5" height="15.1"/>
			<text transform="matrix(1 0 0 1 542.2399 857.421)" class="st4" style="font-size:14px;">file-name.jpg</text>
			<rect x="542.2" y="867" class="st3" width="52.3" height="15.1"/>
			<text transform="matrix(1 0 0 1 542.2399 875.8591)" class="st4" style="font-size:12px;">Asset ID</text>
			<rect x="638.2" y="867" class="st3" width="136.5" height="15.1"/>
			<text transform="matrix(1 0 0 1 638.2084 875.8591)" class="st4" style="font-size:12px;">00/00/0000  00:00 pm</text>
		</g>
	</g>
	<g>
		<g>
			<g>
				<rect x="806.4" y="703.4" class="st11" width="232.3" height="138"/>
			</g>
			<path class="st12" d="M1021.2,717.8H822.6c-1,0-1.8,0.8-1.8,1.8v106.5c0,1,0.8,1.8,1.8,1.8h198.6c1,0,1.8-0.8,1.8-1.8V719.6
				C1023,718.6,1022.2,717.8,1021.2,717.8z M848.2,728.4c9,0,16.2,7.3,16.2,16.2c0,9-7.3,16.2-16.2,16.2c-9,0-16.2-7.3-16.2-16.2
				C832,735.7,839.2,728.4,848.2,728.4z M951.6,816.3H832v-16.7l27-27l13.9,14l43.5-43.9l35.1,35.4V816.3z"/>
			<polyline class="st11" points="951.6,816.3 1010.9,816.3 1010.9,770.3 969,728.4 933.5,764 			"/>
		</g>
		<g>
			<rect x="806.6" y="847.1" class="st3" width="93.5" height="15.1"/>
			<text transform="matrix(1 0 0 1 806.6246 857.421)" class="st4" style="font-size:14px;">file-name.jpg</text>
			<rect x="806.6" y="867" class="st3" width="52.3" height="15.1"/>
			<text transform="matrix(1 0 0 1 806.6246 875.8591)" class="st4" style="font-size:12px;">Asset ID</text>
			<rect x="902.6" y="867" class="st3" width="136.5" height="15.1"/>
			<text transform="matrix(1 0 0 1 902.593 875.8591)" class="st4" style="font-size:12px;">00/00/0000  00:00 pm</text>
		</g>
	</g>
</g>
<g>
	<g>
		<path class="st13" d="M1057.6,783.1c-1.9,0-3.5-1.6-3.5-3.5V263.4c0-1.9,1.6-3.5,3.5-3.5s3.5,1.6,3.5,3.5v516.2
			C1061.1,781.5,1059.6,783.1,1057.6,783.1z"/>
		<path class="st14" d="M1057.6,260.4c1.7,0,3,1.3,3,3v516.2c0,1.7-1.3,3-3,3s-3-1.3-3-3V263.4
			C1054.6,261.8,1056,260.4,1057.6,260.4 M1057.6,259.4c-2.2,0-4,1.8-4,4v516.2c0,2.2,1.8,4,4,4c2.2,0,4-1.8,4-4V263.4
			C1061.6,261.2,1059.8,259.4,1057.6,259.4L1057.6,259.4z"/>
	</g>
	<path class="st15" d="M1057.6,398.7L1057.6,398.7c-2.2,0-4-1.8-4-4V263.6c0-2.2,1.8-4,4-4l0,0c2.2,0,4,1.8,4,4v131.1
		C1061.6,396.9,1059.8,398.7,1057.6,398.7z"/>
</g>
<rect x="0" y="798" class="st16" width="1077.8" height="101.9"/>
<g>
	<rect x="22.2" y="267.3" class="st0" width="13.3" height="13.3"/>
	<path class="st2" d="M33.4,270.9l-0.4-0.4c-0.1-0.1-0.3-0.1-0.4,0l-5.5,5.5l-2.3-2.3c-0.1-0.1-0.3-0.1-0.4,0l-0.4,0.4
		c-0.1,0.1-0.1,0.3,0,0.4l2.9,2.9c0.1,0.1,0.3,0.1,0.4,0l0.6-0.6l0,0l5.5-5.5C33.5,271.2,33.5,271,33.4,270.9z"/>
	<path class="st0" d="M34.5,267.5c0.3,0,0.6,0.3,0.6,0.6v11.6c0,0.3-0.3,0.6-0.6,0.6H22.8c-0.3,0-0.6-0.3-0.6-0.6v-11.6
		c0-0.3,0.3-0.6,0.6-0.6H34.5 M34.5,266.4H22.8c-0.9,0-1.7,0.8-1.7,1.7v11.6c0,0.9,0.8,1.7,1.7,1.7h11.6c0.9,0,1.7-0.8,1.7-1.7
		v-11.6C36.1,267.2,35.4,266.4,34.5,266.4L34.5,266.4z"/>
</g>
<g>
	<g>
		<g>
			<rect x="286.1" y="267.2" class="st2" width="13.3" height="13.3"/>
			<path class="st17" d="M298.3,267.5c0.3,0,0.6,0.3,0.6,0.6v11.6c0,0.3-0.3,0.6-0.6,0.6h-11.6c-0.3,0-0.6-0.3-0.6-0.6v-11.6
				c0-0.3,0.3-0.6,0.6-0.6H298.3 M298.3,266.4h-11.6c-0.9,0-1.7,0.8-1.7,1.7v11.6c0,0.9,0.8,1.7,1.7,1.7h11.6c0.9,0,1.7-0.8,1.7-1.7
				v-11.6C300,267.2,299.3,266.4,298.3,266.4L298.3,266.4z"/>
		</g>
		<g>
			<rect x="551.7" y="267.2" class="st2" width="13.3" height="13.3"/>
			<path class="st17" d="M564,267.5c0.3,0,0.6,0.3,0.6,0.6v11.6c0,0.3-0.3,0.6-0.6,0.6h-11.6c-0.3,0-0.6-0.3-0.6-0.6v-11.6
				c0-0.3,0.3-0.6,0.6-0.6H564 M564,266.4h-11.6c-0.9,0-1.7,0.8-1.7,1.7v11.6c0,0.9,0.8,1.7,1.7,1.7H564c0.9,0,1.7-0.8,1.7-1.7
				v-11.6C565.6,267.2,564.9,266.4,564,266.4L564,266.4z"/>
		</g>
		<g>
			<rect x="815.6" y="267.2" class="st2" width="13.3" height="13.3"/>
			<path class="st17" d="M827.8,267.5c0.3,0,0.6,0.3,0.6,0.6v11.6c0,0.3-0.3,0.6-0.6,0.6h-11.6c-0.3,0-0.6-0.3-0.6-0.6v-11.6
				c0-0.3,0.3-0.6,0.6-0.6H827.8 M827.8,266.4h-11.6c-0.9,0-1.7,0.8-1.7,1.7v11.6c0,0.9,0.8,1.7,1.7,1.7h11.6c0.9,0,1.7-0.8,1.7-1.7
				v-11.6C829.5,267.2,828.8,266.4,827.8,266.4L827.8,266.4z"/>
		</g>
	</g>
	<g>
		<g>
			<rect x="22.2" y="489.2" class="st2" width="13.3" height="13.3"/>
			<path class="st17" d="M34.5,489.5c0.3,0,0.6,0.3,0.6,0.6v11.6c0,0.3-0.3,0.6-0.6,0.6H22.8c-0.3,0-0.6-0.3-0.6-0.6v-11.6
				c0-0.3,0.3-0.6,0.6-0.6H34.5 M34.5,488.4H22.8c-0.9,0-1.7,0.8-1.7,1.7v11.6c0,0.9,0.8,1.7,1.7,1.7h11.6c0.9,0,1.7-0.8,1.7-1.7
				v-11.6C36.1,489.2,35.4,488.4,34.5,488.4L34.5,488.4z"/>
		</g>
		<g>
			<rect x="286.1" y="489.1" class="st2" width="13.3" height="13.3"/>
			<path class="st17" d="M298.3,489.4c0.3,0,0.6,0.3,0.6,0.6v11.6c0,0.3-0.3,0.6-0.6,0.6h-11.6c-0.3,0-0.6-0.3-0.6-0.6V490
				c0-0.3,0.3-0.6,0.6-0.6H298.3 M298.3,488.3h-11.6c-0.9,0-1.7,0.8-1.7,1.7v11.6c0,0.9,0.8,1.7,1.7,1.7h11.6c0.9,0,1.7-0.8,1.7-1.7
				V490C300,489.1,299.3,488.3,298.3,488.3L298.3,488.3z"/>
		</g>
		<g>
			<rect x="551.7" y="489.1" class="st2" width="13.3" height="13.3"/>
			<path class="st17" d="M564,489.4c0.3,0,0.6,0.3,0.6,0.6v11.6c0,0.3-0.3,0.6-0.6,0.6h-11.6c-0.3,0-0.6-0.3-0.6-0.6V490
				c0-0.3,0.3-0.6,0.6-0.6H564 M564,488.3h-11.6c-0.9,0-1.7,0.8-1.7,1.7v11.6c0,0.9,0.8,1.7,1.7,1.7H564c0.9,0,1.7-0.8,1.7-1.7V490
				C565.6,489.1,564.9,488.3,564,488.3L564,488.3z"/>
		</g>
		<g>
			<rect x="815.6" y="489.1" class="st2" width="13.3" height="13.3"/>
			<path class="st17" d="M827.8,489.4c0.3,0,0.6,0.3,0.6,0.6v11.6c0,0.3-0.3,0.6-0.6,0.6h-11.6c-0.3,0-0.6-0.3-0.6-0.6V490
				c0-0.3,0.3-0.6,0.6-0.6H827.8 M827.8,488.3h-11.6c-0.9,0-1.7,0.8-1.7,1.7v11.6c0,0.9,0.8,1.7,1.7,1.7h11.6c0.9,0,1.7-0.8,1.7-1.7
				V490C829.5,489.1,828.8,488.3,827.8,488.3L827.8,488.3z"/>
		</g>
	</g>
	<g>
		<g>
			<rect x="22.2" y="710.1" class="st2" width="13.3" height="13.3"/>
			<path class="st17" d="M34.5,710.4c0.3,0,0.6,0.3,0.6,0.6v11.6c0,0.3-0.3,0.6-0.6,0.6H22.8c-0.3,0-0.6-0.3-0.6-0.6V711
				c0-0.3,0.3-0.6,0.6-0.6H34.5 M34.5,709.3H22.8c-0.9,0-1.7,0.8-1.7,1.7v11.6c0,0.9,0.8,1.7,1.7,1.7h11.6c0.9,0,1.7-0.8,1.7-1.7
				V711C36.1,710.1,35.4,709.3,34.5,709.3L34.5,709.3z"/>
		</g>
		<g>
			<rect x="286.1" y="710.1" class="st2" width="13.3" height="13.3"/>
			<path class="st17" d="M298.3,710.3c0.3,0,0.6,0.3,0.6,0.6v11.6c0,0.3-0.3,0.6-0.6,0.6h-11.6c-0.3,0-0.6-0.3-0.6-0.6v-11.6
				c0-0.3,0.3-0.6,0.6-0.6H298.3 M298.3,709.3h-11.6c-0.9,0-1.7,0.8-1.7,1.7v11.6c0,0.9,0.8,1.7,1.7,1.7h11.6c0.9,0,1.7-0.8,1.7-1.7
				v-11.6C300,710,299.3,709.3,298.3,709.3L298.3,709.3z"/>
		</g>
		<g>
			<rect x="551.7" y="710.1" class="st2" width="13.3" height="13.3"/>
			<path class="st17" d="M564,710.3c0.3,0,0.6,0.3,0.6,0.6v11.6c0,0.3-0.3,0.6-0.6,0.6h-11.6c-0.3,0-0.6-0.3-0.6-0.6v-11.6
				c0-0.3,0.3-0.6,0.6-0.6H564 M564,709.3h-11.6c-0.9,0-1.7,0.8-1.7,1.7v11.6c0,0.9,0.8,1.7,1.7,1.7H564c0.9,0,1.7-0.8,1.7-1.7
				v-11.6C565.6,710,564.9,709.3,564,709.3L564,709.3z"/>
		</g>
		<g>
			<rect x="815.6" y="710.1" class="st2" width="13.3" height="13.3"/>
			<path class="st17" d="M827.8,710.3c0.3,0,0.6,0.3,0.6,0.6v11.6c0,0.3-0.3,0.6-0.6,0.6h-11.6c-0.3,0-0.6-0.3-0.6-0.6v-11.6
				c0-0.3,0.3-0.6,0.6-0.6H827.8 M827.8,709.3h-11.6c-0.9,0-1.7,0.8-1.7,1.7v11.6c0,0.9,0.8,1.7,1.7,1.7h11.6c0.9,0,1.7-0.8,1.7-1.7
				v-11.6C829.5,710,828.8,709.3,827.8,709.3L827.8,709.3z"/>
		</g>
	</g>
</g>
<rect x="1095.6" y="186.1" class="st18" width="104.1" height="16.5"/>
<rect x="1095.6" y="246" class="st18" width="63.8" height="16.5"/>
<rect x="1095.6" y="228.4" class="st19" width="45.6" height="11.8"/>
<rect x="1095.6" y="286.4" class="st19" width="60.5" height="11.8"/>
<rect x="1095.6" y="363.3" class="st19" width="41.6" height="11.8"/>
<rect x="1095.6" y="423" class="st19" width="45.6" height="11.8"/>
<rect x="1095.6" y="482.1" class="st19" width="50.4" height="11.8"/>
<rect x="1095.6" y="557.8" class="st19" width="54.9" height="11.8"/>
<rect x="1095.6" y="382.1" class="st18" width="190.6" height="16.5"/>
<rect x="1095.6" y="500.2" class="st18" width="142.9" height="16.5"/>
<rect x="1095.6" y="521.8" class="st20" width="145.1" height="13.3"/>
<rect x="1095.6" y="306.3" class="st20" width="260.4" height="13.3"/>
<rect x="1095.6" y="324.1" class="st20" width="122.6" height="13.3"/>
<rect x="1095.6" y="598.4" class="st20" width="145.1" height="13.3"/>
<rect x="1095.6" y="440.3" class="st18" width="142.9" height="16.5"/>
<rect x="1095.6" y="577.3" class="st18" width="142.9" height="16.5"/>
<rect x="14.9" y="178.2" class="st18" width="30.9" height="10.7"/>
<rect x="220.4" y="178.2" class="st18" width="85.2" height="10.7"/>
<rect x="81.2" y="18.1" class="st21" width="54.1" height="15"/>
<g>
	<rect x="14.2" y="403.3" class="st18" width="80.1" height="10.7"/>
	<rect x="14.2" y="421.6" class="st18" width="52" height="10.7"/>
	<rect x="110" y="421.6" class="st18" width="114" height="10.7"/>
	<rect x="278.1" y="403.9" class="st18" width="80.1" height="10.7"/>
	<rect x="278.1" y="422.2" class="st18" width="52" height="10.7"/>
	<rect x="373.8" y="422.2" class="st18" width="114" height="10.7"/>
	<rect x="542.2" y="403.9" class="st18" width="80.1" height="10.7"/>
	<rect x="542.2" y="422.2" class="st18" width="52" height="10.7"/>
	<rect x="638" y="422.2" class="st18" width="114" height="10.7"/>
	<rect x="806.6" y="403.9" class="st18" width="80.1" height="10.7"/>
	<rect x="806.6" y="422.2" class="st18" width="52" height="10.7"/>
	<rect x="902.3" y="422.2" class="st18" width="114" height="10.7"/>
</g>
<g>
	<rect x="14.2" y="626.5" class="st18" width="80.1" height="10.7"/>
	<rect x="14.2" y="644.7" class="st18" width="52" height="10.7"/>
	<rect x="110" y="644.7" class="st18" width="114" height="10.7"/>
	<rect x="278.1" y="627.1" class="st18" width="80.1" height="10.7"/>
	<rect x="278.1" y="645.4" class="st18" width="52" height="10.7"/>
	<rect x="373.8" y="645.4" class="st18" width="114" height="10.7"/>
	<rect x="542.2" y="627.1" class="st18" width="80.1" height="10.7"/>
	<rect x="542.2" y="645.4" class="st18" width="52" height="10.7"/>
	<rect x="638" y="645.4" class="st18" width="114" height="10.7"/>
	<rect x="806.6" y="627.1" class="st18" width="80.1" height="10.7"/>
	<rect x="806.6" y="645.4" class="st18" width="52" height="10.7"/>
	<rect x="902.3" y="645.4" class="st18" width="114" height="10.7"/>
</g>
</svg>
