<?xml version="1.0" encoding="utf-8"?>
<!-- Generator: Adobe Illustrator 20.0.0, SVG Export Plug-In . SVG Version: 6.00 Build 0)  -->
<svg version="1.1" id="Layer_1" xmlns="http://www.w3.org/2000/svg" xmlns:xlink="http://www.w3.org/1999/xlink" x="0px" y="0px"
	 viewBox="0 0 88.8 51.7" style="enable-background:new 0 0 88.8 51.7;" xml:space="preserve">
<style type="text/css">
	.st0{fill:#BABCBE;}
	.st1{fill:#429CD6;}
	.st2{fill:#B0D236;}
	.st3{fill:#E32326;}
</style>
<path class="st0" d="M48.8,18.9c2.1-1.1,3.3-1.8,4.7-2.4c7.6-3.2,14.5-0.3,17.2,7.5c2.1,6.1,2.1,12.5,0.1,18.6
	c-3.1,9.5-16.7,9.9-20.7,6.3c-1.5-1.3-1.7-2.4-2.9,0.6c-1.1,2.7-3.7,2.2-5.5,2.1c-2.1-0.1-1.9-2.5-1.9-4c0-14.6,0-29.3,0-43.9
	c0-2.8,1.1-3.9,3.9-3.7c2.6,0.1,5.2-0.1,5.2,3.7C48.8,8.5,48.8,13.3,48.8,18.9z M64,33.7c0-6.7-2.9-10.6-7.8-10.5
	c-4.6,0.1-8.4,5.1-8.6,10.5c-0.2,5.7,3.3,10.6,8.4,10.5C61,44.2,64,40.2,64,33.7z"/>
<path class="st0" d="M31,33.4c0,4.5,0,9,0,13.5c0,1.6,0.3,4.1-2.1,4.2c-1.8,0.1-3.8,0.6-4.9-2.2c-1.2-3.2-2.1-1.2-3.4-0.4
	c-7.1,4.9-13.9,4.2-18-1.8c-2-2.9-2.2-6.3-2.4-9.5c-0.3-5.8,0-11.7-0.1-17.5c-0.1-3.5,1.8-4.1,4.7-4.1c3,0,4.9,0.3,5.1,4.3
	c0.4,5.6,0,11.3,0,17c0,3.5,0.9,6.4,5,6.7c3.3,0.3,7.1-2.3,7.2-6.9c0.1-5.2,0.2-10.3,0-15.5c-0.1-3.5,0.4-5.6,4.8-5.7
	c4.3-0.1,4.4,2.3,4.3,5.4C30.9,25,31,29.2,31,33.4z"/>
<circle class="st1" cx="5.3" cy="5.3" r="5.3"/>
<circle class="st2" cx="25.9" cy="5.3" r="5.3"/>
<path class="st0" d="M79,33.8c0-4.5,0.1-9,0-13.5c-0.1-3.3,1.9-3.8,4.6-3.8c2.7,0,4.5,0.7,4.5,3.9c-0.1,9.3-0.1,18.6,0,28
	c0,3.2-1.8,3.4-4.2,3.4c-2.5,0-4.8,0-4.8-3.4C79,43.4,79,38.6,79,33.8z"/>
<circle class="st3" cx="83.5" cy="5.3" r="5.3"/>
</svg>
