<?xml version="1.0" encoding="utf-8"?>
<!-- Generator: Adobe Illustrator 20.1.0, SVG Export Plug-In . SVG Version: 6.00 Build 0)  -->
<svg version="1.1" id="Layer_1" xmlns="http://www.w3.org/2000/svg" xmlns:xlink="http://www.w3.org/1999/xlink" x="0px" y="0px"
	 viewBox="0 0 125 125" style="enable-background:new 0 0 125 125;" xml:space="preserve">
<style type="text/css">
	.st0{fill:#FFFFFF;}
	.st1{fill:#BABCBE;}
	.st2{fill:#429CD6;}
	.st3{fill:#B0D236;}
	.st4{fill:#E32326;}
</style>
<rect class="st0" width="125" height="125"/>
<g>
	<path class="st1" d="M67.5,54.6c2.4-1.2,3.7-2,5.3-2.7c8.6-3.6,16.4-0.3,19.4,8.5c2.4,6.9,2.4,14.1,0.1,21
		c-3.5,10.7-18.8,11.2-23.3,7.1c-1.7-1.5-1.9-2.7-3.3,0.7c-1.2,3-4.2,2.5-6.2,2.4c-2.4-0.1-2.1-2.8-2.1-4.5c0-16.5,0-33,0-49.5
		c0-3.2,1.2-4.4,4.4-4.2c2.9,0.1,5.9-0.1,5.9,4.2C67.5,42.9,67.5,48.3,67.5,54.6z M84.6,71.3c0-7.6-3.3-12-8.8-11.8
		c-5.2,0.1-9.5,5.8-9.7,11.8c-0.2,6.4,3.7,12,9.5,11.8C81.2,83.2,84.6,78.6,84.6,71.3z"/>
	<path class="st1" d="M47.4,71c0,5.1,0,10.2,0,15.2c0,1.8,0.3,4.6-2.4,4.7c-2,0.1-4.3,0.7-5.5-2.5c-1.4-3.6-2.4-1.4-3.8-0.5
		c-8,5.5-15.7,4.7-20.3-2c-2.3-3.3-2.5-7.1-2.7-10.7c-0.3-6.5,0-13.2-0.1-19.7c-0.1-3.9,2-4.6,5.3-4.6c3.4,0,5.5,0.3,5.8,4.9
		c0.5,6.3,0,12.7,0,19.2c0,3.9,1,7.2,5.6,7.6c3.7,0.3,8-2.6,8.1-7.8c0.1-5.9,0.2-11.6,0-17.5c-0.1-3.9,0.5-6.3,5.4-6.4
		c4.9-0.1,5,2.6,4.9,6.1C47.3,61.5,47.4,66.2,47.4,71z"/>
	<circle class="st2" cx="18.4" cy="39.3" r="6"/>
	<circle class="st3" cx="41.6" cy="39.3" r="6"/>
	<path class="st1" d="M101.5,71.4c0-5.1,0.1-10.2,0-15.2c-0.1-3.7,2.1-4.3,5.2-4.3s5.1,0.8,5.1,4.4c-0.1,10.5-0.1,21,0,31.6
		c0,3.6-2,3.8-4.7,3.8c-2.8,0-5.4,0-5.4-3.8C101.5,82.3,101.5,76.8,101.5,71.4z"/>
	<circle class="st4" cx="106.6" cy="39.3" r="6"/>
</g>
</svg>
