<?xml version="1.0" encoding="utf-8"?>
<!-- Generator: Adobe Illustrator 20.1.0, SVG Export Plug-In . SVG Version: 6.00 Build 0)  -->
<svg version="1.1" id="Layer_1" xmlns="http://www.w3.org/2000/svg" xmlns:xlink="http://www.w3.org/1999/xlink" x="0px" y="0px"
	 viewBox="0 0 612 792" style="enable-background:new 0 0 612 792;" xml:space="preserve">
<style type="text/css">
	.github{fill-rule:evenodd;clip-rule:evenodd;fill:#DDDDDD;}
	.github{fill:#DDDDDD;}
    .github:hover {fill:#00BCD4;}
</style>
<path class="github" d="M294.3,146.9C168,146.9,65.6,249.3,65.6,375.7c0,101,65.5,186.8,156.4,217c11.4,2.1,15.6-5,15.6-11
	c0-5.4-0.2-19.8-0.3-38.9c-63.6,13.8-77.1-30.7-77.1-30.7c-10.4-26.4-25.4-33.5-25.4-33.5c-20.8-14.2,1.6-13.9,1.6-13.9
	c23,1.6,35,23.6,35,23.6c20.4,35,53.5,24.9,66.6,19c2.1-14.8,8-24.9,14.5-30.6c-50.8-5.8-104.2-25.4-104.2-113
	c0-25,8.9-45.4,23.5-61.4c-2.4-5.8-10.2-29,2.2-60.5c0,0,19.2-6.2,62.9,23.4c18.2-5.1,37.8-7.6,57.3-7.7c19.4,0.1,39,2.6,57.3,7.7
	c43.7-29.6,62.8-23.4,62.8-23.4c12.5,31.5,4.6,54.7,2.3,60.5c14.7,16,23.5,36.4,23.5,61.4c0,87.9-53.5,107.2-104.4,112.9
	c8.2,7.1,15.5,21,15.5,42.4c0,30.6-0.3,55.2-0.3,62.7c0,6.1,4.1,13.2,15.7,11c90.8-30.3,156.3-116,156.3-217
	C523.1,249.3,420.6,146.9,294.3,146.9z"/>
</svg>
