<?xml version="1.0" encoding="utf-8"?>
<!-- Generator: Adobe Illustrator 20.1.0, SVG Export Plug-In . SVG Version: 6.00 Build 0)  -->
<svg version="1.1" id="Layer_1" xmlns="http://www.w3.org/2000/svg" xmlns:xlink="http://www.w3.org/1999/xlink" x="0px" y="0px"
	 viewBox="0 0 612 792" style="enable-background:new 0 0 612 792;" xml:space="preserve">
<style type="text/css">
	.st0{fill-rule:evenodd;clip-rule:evenodd;fill:#DDDDDD;}
	.st1{fill:#DDDDDD;}
</style>
<path class="st1" d="M306,141.3C179.7,141.3,77.3,243.7,77.3,370S179.7,598.7,306,598.7S534.7,496.3,534.7,370
	S432.3,141.3,306,141.3z M247.4,478.2c-17.2,0-33.8,0-50.7,0c0-51.9,0-103.5,0-155.5c16.9,0,33.6,0,50.7,0
	C247.4,374.4,247.4,426.1,247.4,478.2z M222.1,303c-16,0-28.9-13-28.9-28.9c0-16,13-28.9,28.9-28.9c16,0,28.9,13,28.9,28.9
	C251,290.1,238,303,222.1,303z M434.9,472.6c0,1.8,0,3.5,0,5.6c-17.4,0-34.1,0-51.5,0c0-2.2,0-4.2,0-6.1c0-25.3,0.1-50.7-0.1-76
	c-0.1-5.9-0.6-12.1-2.2-17.8c-4.7-17.6-24.2-24.6-39.4-14.3c-8.3,5.7-13.1,13.6-13.1,23.9c-0.1,28.2,0,56.3,0,84.5
	c0,1.8,0,3.6,0,5.7c-17.4,0-34.3,0-51.5,0c0-51.7,0-103.2,0-155.2c17,0,34,0,51.5,0c0,6.6,0,13.2,0,21.1c1.8-2.2,2.8-3.4,3.7-4.7
	c12.3-16.3,29.1-22,48.8-20.3c36.1,3,49.4,29.1,52.6,52.8c0.8,6.2,1.2,12.6,1.2,18.9C434.9,417.9,434.9,445.3,434.9,472.6z"/>
</svg>
