<?xml version="1.0" encoding="utf-8"?>
<!-- Generator: Adobe Illustrator 20.1.0, SVG Export Plug-In . SVG Version: 6.00 Build 0)  -->
<svg version="1.1" id="Layer_1" xmlns="http://www.w3.org/2000/svg" xmlns:xlink="http://www.w3.org/1999/xlink" x="0px" y="0px"
	 viewBox="0 0 323 100" style="enable-background:new 0 0 323 100;" xml:space="preserve">
<style type="text/css">
	.st0{fill:#DDDDDD;}
</style>
<path class="st0" d="M50,0C22.4,0,0,22.4,0,50s22.4,50,50,50s50-22.4,50-50S77.6,0,50,0z M73.2,38.1c0,0.5,0,1,0,1.6
	c0,15.8-12,34-34,34l0,0c-6.5,0-12.9-1.9-18.3-5.4c0.9,0.1,1.9,0.2,2.8,0.2c5.4,0,10.6-1.8,14.8-5.1c-5.1-0.1-9.6-3.4-11.2-8.3
	c1.8,0.3,3.6,0.3,5.4-0.2c-5.6-1.1-9.6-6-9.6-11.7c0,0,0-0.1,0-0.2c1.7,0.9,3.5,1.4,5.4,1.5c-5.2-3.5-6.9-10.5-3.7-16
	c6.1,7.5,15,12,24.6,12.5c-1-4.2,0.3-8.5,3.5-11.4c4.8-4.5,12.4-4.3,16.9,0.5c2.7-0.5,5.2-1.5,7.6-2.9c-0.9,2.8-2.8,5.1-5.2,6.6
	c2.4-0.3,4.7-0.9,6.9-1.9C77.5,34.3,75.5,36.4,73.2,38.1z"/>
<path class="st0" d="M272.5,0c-27.6,0-50,22.4-50,50s22.4,50,50,50s50-22.4,50-50S300.1,0,272.5,0z M259.7,73.7c-3.8,0-7.4,0-11.1,0
	c0-11.3,0-22.6,0-34c3.7,0,7.3,0,11.1,0C259.7,51,259.7,62.3,259.7,73.7z M254.1,35.4c-3.5,0-6.3-2.8-6.3-6.3c0-3.5,2.8-6.3,6.3-6.3
	c3.5,0,6.3,2.8,6.3,6.3C260.5,32.5,257.6,35.4,254.1,35.4z M300.7,72.4c0,0.4,0,0.8,0,1.2c-3.8,0-7.5,0-11.3,0c0-0.5,0-0.9,0-1.3
	c0-5.5,0-11.1,0-16.6c0-1.3-0.1-2.6-0.5-3.9c-1-3.8-5.3-5.4-8.6-3.1c-1.8,1.2-2.9,3-2.9,5.2c0,6.2,0,12.3,0,18.5c0,0.4,0,0.8,0,1.2
	c-3.8,0-7.5,0-11.3,0c0-11.3,0-22.6,0-33.9c3.7,0,7.4,0,11.3,0c0,1.4,0,2.9,0,4.6c0.4-0.5,0.6-0.7,0.8-1c2.7-3.6,6.4-4.8,10.7-4.4
	c7.9,0.7,10.8,6.4,11.5,11.5c0.2,1.4,0.3,2.8,0.3,4.1C300.7,60.5,300.7,66.5,300.7,72.4z"/>
<path class="st0" d="M161.3,0C161.3,0,161.3,0,161.3,0C161.2,0,161.2,0,161.3,0c-0.9,0-1.7,0-2.6,0.1C131.6,1.4,110,23.8,110,51.3
	c0,22.6,14.7,41.9,35.1,48.6c2,0.4,3.1-0.5,3.4-1.6c0.2-0.6,0.1-4.7,0.1-8.9c-14.3,3.1-17.3-6.9-17.3-6.9c-2.3-5.9-5.7-7.5-5.7-7.5
	c-4.7-3.2,0.4-3.1,0.4-3.1c5.2,0.4,7.8,5.3,7.8,5.3c4.6,7.8,12,5.6,14.9,4.3c0.5-3.3,1.8-5.6,3.2-6.9c-11.4-1.3-23.4-5.7-23.4-25.3
	c0-5.6,2-10.2,5.3-13.8c-0.5-1.3-2.3-6.5,0.5-13.6c0,0,4.3-1.4,14.1,5.2c4.1-1.1,8.5-1.7,12.8-1.7c4.3,0,8.7,0.6,12.8,1.7
	c9.8-6.6,14.1-5.2,14.1-5.2c2.8,7.1,1,12.3,0.5,13.6c3.3,3.6,5.3,8.2,5.3,13.8c0,19.7-12,24-23.4,25.3c1.8,1.6,3.5,4.7,3.5,9.5
	c0,6.9-0.2,14,0,14.3c0.3,1.1,1.4,1.9,3.4,1.5c20.3-6.8,35-26,35-48.6C212.5,22.9,189.6,0,161.3,0z"/>
</svg>
