<?xml version="1.0" encoding="utf-8"?>
<!-- Generator: Adobe Illustrator 20.1.0, SVG Export Plug-In . SVG Version: 6.00 Build 0)  -->
<svg version="1.1" id="Layer_1" xmlns="http://www.w3.org/2000/svg" xmlns:xlink="http://www.w3.org/1999/xlink" x="0px" y="0px"
	 viewBox="0 0 612 792" style="enable-background:new 0 0 612 792;" xml:space="preserve">
<style type="text/css">
	.st0{fill-rule:evenodd;clip-rule:evenodd;fill:#DDDDDD;}
	.st1{fill:#DDDDDD;}
</style>
<path class="st1" d="M293.3,141.3C167,141.3,64.6,243.7,64.6,370S167,598.7,293.3,598.7C419.6,598.7,522,496.3,522,370
	S419.6,141.3,293.3,141.3z M399.3,315.6c0.2,2.3,0.2,4.7,0.2,7.1c0,72.3-55,155.6-155.6,155.6v0c-29.7,0-58.8-8.5-83.8-24.5
	c4.3,0.5,8.7,0.8,13,0.8c24.6,0,48.6-8.2,67.9-23.5c-23.4-0.4-43.9-15.7-51.1-38c8.2,1.6,16.6,1.3,24.7-0.9
	c-25.5-5.2-43.9-27.6-43.9-53.6c0-0.2,0-0.5,0-0.7c7.6,4.2,16.1,6.6,24.8,6.8c-24-16-31.4-48-16.9-73
	c27.8,34.2,68.7,54.9,112.7,57.1c-4.4-19,1.6-38.9,15.8-52.3c22-20.7,56.7-19.6,77.4,2.4c12.2-2.4,24-6.9,34.7-13.3
	c-4.1,12.7-12.6,23.4-24,30.2c10.8-1.3,21.4-4.2,31.4-8.6C419.2,298.3,410,307.9,399.3,315.6z"/>
</svg>
