<?xml version="1.0" encoding="UTF-8"?>
<svg width="404px" height="404px" viewBox="0 0 404 404" version="1.1" xmlns="http://www.w3.org/2000/svg" xmlns:xlink="http://www.w3.org/1999/xlink">
    <!-- Generator: Sketch 44.1 (41455) - http://www.bohemiancoding.com/sketch -->
    <title>Slice 1</title>
    <desc>Created with Sketch.</desc>
    <defs>
        <linearGradient x1="50%" y1="0%" x2="50%" y2="100%" id="linearGradient-1">
            <stop stop-color="#FFFFFF" stop-opacity="0.8" offset="0%"></stop>
            <stop stop-color="#FFFFFF" stop-opacity="0.4" offset="5%"></stop>
            <stop stop-color="#FFFFFF" stop-opacity="0" offset="20%"></stop>
            <stop stop-color="#FFFFFF" stop-opacity="0" offset="100%"></stop>
        </linearGradient>
        <linearGradient x1="50%" y1="0%" x2="50%" y2="100%" id="linearGradient-2">
            <stop stop-color="#000000" stop-opacity="0" offset="0%"></stop>
            <stop stop-color="#000000" stop-opacity="0" offset="80%"></stop>
            <stop stop-color="#000000" stop-opacity="0.02" offset="95.0255322%"></stop>
            <stop stop-color="#000000" stop-opacity="0.04" offset="100%"></stop>
        </linearGradient>
        <path d="M388,371.499803 L388,2.0003946 C388,0.895607168 387.099626,0 386.004928,0 L1.99507198,0 C0.893224153,0 0,0.887620285 0,2.0003946 L0,371.499803 L0,401.329905 L9.7,392.329905 L19.4,401.329905 L29.1,392.329905 L38.8,401.329905 L48.5,392.329905 L58.2,401.329905 L67.9,392.329905 L77.6,401.329905 L87.3,392.329905 L97,401.329905 L106.7,392.329905 L116.4,401.329905 L126.1,392.329905 L135.8,401.329905 L145.5,392.329905 L155.2,401.329905 L164.9,392.329905 L174.6,401.329905 L184.3,392.329905 L194,401.329905 L203.7,392.329905 L213.4,401.329905 L223.1,392.329905 L232.8,401.329905 L242.5,392.329905 L252.2,401.329905 L261.9,392.329905 L271.6,401.329905 L281.3,392.329905 L291,401.329905 L300.7,392.329905 L310.4,401.329905 L320.1,392.329905 L329.8,401.329905 L339.5,392.329905 L349.2,401.329905 L358.9,392.329905 L368.6,401.329905 L378.3,392.329905 L388,401.329905 L388,371.499803 Z" id="path-3"></path>
        <filter x="-1.5%" y="-1.0%" width="103.1%" height="103.0%" filterUnits="objectBoundingBox" id="filter-5">
            <feOffset dx="0" dy="2" in="SourceAlpha" result="shadowOffsetOuter1"></feOffset>
            <feGaussianBlur stdDeviation="1" in="shadowOffsetOuter1" result="shadowBlurOuter1"></feGaussianBlur>
            <feComposite in="shadowBlurOuter1" in2="SourceAlpha" operator="out" result="shadowBlurOuter1"></feComposite>
            <feColorMatrix values="0 0 0 0 0   0 0 0 0 0   0 0 0 0 0  0 0 0 0.12 0" type="matrix" in="shadowBlurOuter1" result="shadowMatrixOuter1"></feColorMatrix>
            <feOffset dx="0" dy="0" in="SourceAlpha" result="shadowOffsetOuter2"></feOffset>
            <feGaussianBlur stdDeviation="1" in="shadowOffsetOuter2" result="shadowBlurOuter2"></feGaussianBlur>
            <feComposite in="shadowBlurOuter2" in2="SourceAlpha" operator="out" result="shadowBlurOuter2"></feComposite>
            <feColorMatrix values="0 0 0 0 0   0 0 0 0 0   0 0 0 0 0  0 0 0 0.12 0" type="matrix" in="shadowBlurOuter2" result="shadowMatrixOuter2"></feColorMatrix>
            <feMerge>
                <feMergeNode in="shadowMatrixOuter1"></feMergeNode>
                <feMergeNode in="shadowMatrixOuter2"></feMergeNode>
            </feMerge>
        </filter>
        <polygon id="path-6" points="388 0 0 0 0 48 388 48"></polygon>
        <filter x="-3.1%" y="-16.7%" width="106.2%" height="150.0%" filterUnits="objectBoundingBox" id="filter-7">
            <feOffset dx="0" dy="4" in="SourceAlpha" result="shadowOffsetOuter1"></feOffset>
            <feGaussianBlur stdDeviation="2" in="shadowOffsetOuter1" result="shadowBlurOuter1"></feGaussianBlur>
            <feColorMatrix values="0 0 0 0 0   0 0 0 0 0   0 0 0 0 0  0 0 0 0.24 0" type="matrix" in="shadowBlurOuter1" result="shadowMatrixOuter1"></feColorMatrix>
            <feOffset dx="0" dy="0" in="SourceAlpha" result="shadowOffsetOuter2"></feOffset>
            <feGaussianBlur stdDeviation="2" in="shadowOffsetOuter2" result="shadowBlurOuter2"></feGaussianBlur>
            <feColorMatrix values="0 0 0 0 0   0 0 0 0 0   0 0 0 0 0  0 0 0 0.12 0" type="matrix" in="shadowBlurOuter2" result="shadowMatrixOuter2"></feColorMatrix>
            <feMerge>
                <feMergeNode in="shadowMatrixOuter1"></feMergeNode>
                <feMergeNode in="shadowMatrixOuter2"></feMergeNode>
            </feMerge>
        </filter>
        <rect id="path-8" x="0" y="0" width="360" height="48"></rect>
    </defs>
    <g id="Page-1" stroke="none" stroke-width="1" fill="none" fill-rule="evenodd">
        <g id="card-1-copy" transform="translate(8.000000, 2.000000)">
            <mask id="mask-4" fill="white">
                <use xlink:href="#path-3"></use>
            </mask>
            <g id="Combined-Shape">
                <use fill="black" fill-opacity="1" filter="url(#filter-5)" xlink:href="#path-3"></use>
                <use fill="#FFFFFF" fill-rule="evenodd" xlink:href="#path-3"></use>
                <path stroke="url(#linearGradient-1)" stroke-width="0.5" d="M0.25,400.756911 L9.7,391.98887 L19.4,400.98887 L29.1,391.98887 L38.8,400.98887 L48.5,391.98887 L58.2,400.98887 L67.9,391.98887 L77.6,400.98887 L87.3,391.98887 L97,400.98887 L106.7,391.98887 L116.4,400.98887 L126.1,391.98887 L135.8,400.98887 L145.5,391.98887 L155.2,400.98887 L164.9,391.98887 L174.6,400.98887 L184.3,391.98887 L194,400.98887 L203.7,391.98887 L213.4,400.98887 L223.1,391.98887 L232.8,400.98887 L242.5,391.98887 L252.2,400.98887 L261.9,391.98887 L271.6,400.98887 L281.3,391.98887 L291,400.98887 L300.7,391.98887 L310.4,400.98887 L320.1,391.98887 L329.8,400.98887 L339.5,391.98887 L349.2,400.98887 L358.9,391.98887 L368.6,400.98887 L378.3,391.98887 L387.75,400.756911 L387.75,2.0003946 C387.75,1.03613737 386.964014,0.25 386.004928,0.25 L1.99507198,0.25 C1.02853118,0.25 0.25,1.02845537 0.25,2.0003946 L0.25,400.756911 Z"></path>
                <path stroke="url(#linearGradient-2)" stroke-width="0.5" d="M0.25,400.756911 L9.7,391.98887 L19.4,400.98887 L29.1,391.98887 L38.8,400.98887 L48.5,391.98887 L58.2,400.98887 L67.9,391.98887 L77.6,400.98887 L87.3,391.98887 L97,400.98887 L106.7,391.98887 L116.4,400.98887 L126.1,391.98887 L135.8,400.98887 L145.5,391.98887 L155.2,400.98887 L164.9,391.98887 L174.6,400.98887 L184.3,391.98887 L194,400.98887 L203.7,391.98887 L213.4,400.98887 L223.1,391.98887 L232.8,400.98887 L242.5,391.98887 L252.2,400.98887 L261.9,391.98887 L271.6,400.98887 L281.3,391.98887 L291,400.98887 L300.7,391.98887 L310.4,400.98887 L320.1,391.98887 L329.8,400.98887 L339.5,391.98887 L349.2,400.98887 L358.9,391.98887 L368.6,400.98887 L378.3,391.98887 L387.75,400.756911 L387.75,2.0003946 C387.75,1.03613737 386.964014,0.25 386.004928,0.25 L1.99507198,0.25 C1.02853118,0.25 0.25,1.02845537 0.25,2.0003946 L0.25,400.756911 Z"></path>
            </g>
            <g id="top-info" mask="url(#mask-4)">
                <g transform="translate(16.000000, 16.000000)">
                    <circle id="Oval-88" fill="#E1E1E1" fill-rule="evenodd" cx="20" cy="20" r="20"></circle>
                    <path d="M40,20 C40,8.954305 31.045695,0 20,0 C20,10 20,8.954305 20,20" id="Oval-88-Copy-2" fill="#009BDA" fill-rule="evenodd"></path>
                    <text id="Out-of-pocket-Expens" fill="none" font-family="Roboto-Medium, Roboto" font-size="14" font-weight="400" line-spacing="24" fill-opacity="0.87">
                        <tspan x="56" y="16" fill="#000000">Out-of-pocket Expenses</tspan>
                    </text>
                    <text id="Plan-Year:-02/01/201" fill="none" font-family="Roboto-Medium, Roboto" font-size="14" font-weight="400" line-spacing="24" fill-opacity="0.54">
                        <tspan x="56" y="36" fill="#000000">Plan Year: 02/01/2017 – 01/31/2018</tspan>
                    </text>
                    <circle id="Oval-88-Copy-3" fill="#FFFFFF" fill-rule="evenodd" cx="20" cy="20" r="12"></circle>
                </g>
            </g>
            <g id="medical-oop" mask="url(#mask-4)">
                <g transform="translate(15.000000, 133.000000)">
                    <g id="medical-coinsurance" stroke-width="1" fill-rule="evenodd" transform="translate(214.000000, 59.000000)">
                        <circle id="Oval-88-Copy-5" fill="#E1E1E1" cx="62.5" cy="87.5" r="62.5"></circle>
                        <path d="M122.862553,101.774198 C123.933597,97.1895972 124.931066,92.4291131 124.931066,87.5181692 C124.931066,68.5301917 116.487928,51.4463217 103.005612,39.978738 C91.9787433,30.5996714 77.5298194,25 62,25 C62,41.9252062 62,64.941999 62,87.9179688 C122.862553,101.774198 87.2167969,93.8222656 122.862553,101.774198 Z" id="Oval-88-Copy-5" fill="#009BDA"></path>
                        <circle id="Oval-88-Copy-6" fill="#FFFFFF" cx="62.5" cy="87.5" r="40.5"></circle>
                        <text id="$2,450" font-family="Roboto-Medium, Roboto" font-size="22" font-weight="400" line-spacing="20" fill="#009BDA">
                            <tspan x="28" y="89">$2,450</tspan>
                        </text>
                        <text id="left-to-pay" font-family="Roboto-Medium, Roboto" font-size="12" font-weight="400" line-spacing="20" fill="#009BDA">
                            <tspan x="36.3134766" y="104">left to pay</tspan>
                        </text>
                        <text id="$1,050-paid-/-$3,500" font-family="Roboto-Regular, Roboto" font-size="12" font-weight="normal" line-spacing="16" fill-opacity="0.87" fill="#000000">
                            <tspan x="8" y="169">$1,050 paid / $3,500</tspan>
                        </text>
                        <g id="Group-Copy" transform="translate(12.000000, 0.000000)">
                            <g id="Group-3">
                                <text id="Coinsurance" font-family="Roboto-Regular, Roboto" font-size="16" font-weight="normal" line-spacing="20" fill-opacity="0.87" fill="#000000">
                                    <tspan x="0" y="15">Coinsurance</tspan>
                                </text>
                                <g id="ic_info_outline_black_24px" transform="translate(94.000000, 5.000000)" fill-rule="nonzero" fill="#009BDA">
                                    <path d="M4.67881944,8.68923611 L6.015625,8.68923611 L6.015625,4.67881944 L4.67881944,4.67881944 L4.67881944,8.68923611 Z M5.34722222,10.6944444 C2.39956597,10.6944444 0,8.29487847 0,5.34722222 C0,2.39956597 2.39956597,-1.15463195e-14 5.34722222,-1.15463195e-14 C8.29487847,-1.15463195e-14 10.6944444,2.39956597 10.6944444,5.34722222 C10.6944444,8.29487847 8.29487847,10.6944444 5.34722222,10.6944444 Z M4.67881944,3.34201389 L6.015625,3.34201389 L6.015625,2.00520833 L4.67881944,2.00520833 L4.67881944,3.34201389 Z" id="Shape"></path>
                                </g>
                            </g>
                        </g>
                    </g>
                    <g id="medical-deductible" stroke-width="1" fill-rule="evenodd" transform="translate(11.000000, 59.000000)">
                        <circle id="Oval-88-Copy-4" fill="#009BDA" cx="62.5" cy="87.5" r="62.5"></circle>
                        <g id="ic_done_black_24px" transform="translate(37.000000, 28.000000)">
                            <polygon id="Shape" points="0 0 59 0 59 59 0 59"></polygon>
                            <polygon id="Shape" fill="#FFFFFF" fill-rule="nonzero" points="22.125 52.825 11.8 42.5 8.35833333 45.9416667 22.125 59.7083333 51.625 30.2083333 48.1833333 26.7666667"></polygon>
                        </g>
                        <text id="100%-paid" font-family="Roboto-Medium, Roboto" font-size="18" font-weight="400" line-spacing="20" fill="#FFFFFF">
                            <tspan x="21" y="112">100% paid</tspan>
                        </text>
                        <text id="$1,000-paid-/-$1,000" font-family="Roboto-Regular, Roboto" font-size="12" font-weight="normal" line-spacing="16" fill-opacity="0.87" fill="#000000">
                            <tspan x="8" y="169">$1,000 paid / $1,000</tspan>
                        </text>
                        <text id="Deductible" font-family="Roboto-Regular, Roboto" font-size="16" font-weight="normal" line-spacing="20" fill-opacity="0.87" fill="#000000">
                            <tspan x="19" y="15">Deductible</tspan>
                        </text>
                        <g id="ic_info_outline_black_24px" transform="translate(99.000000, 6.000000)" fill-rule="nonzero" fill="#009BDA">
                            <path d="M4.67881944,8.68923611 L6.015625,8.68923611 L6.015625,4.67881944 L4.67881944,4.67881944 L4.67881944,8.68923611 Z M5.34722222,10.6944444 C2.39956597,10.6944444 0,8.29487847 0,5.34722222 C0,2.39956597 2.39956597,-1.15463195e-14 5.34722222,-1.15463195e-14 C8.29487847,-1.15463195e-14 10.6944444,2.39956597 10.6944444,5.34722222 C10.6944444,8.29487847 8.29487847,10.6944444 5.34722222,10.6944444 Z M4.67881944,3.34201389 L6.015625,3.34201389 L6.015625,2.00520833 L4.67881944,2.00520833 L4.67881944,3.34201389 Z" id="Shape"></path>
                        </g>
                    </g>
                    <text id="Medical-out-of-pocke" font-family="Roboto-Medium, Roboto" font-size="20" font-weight="400" line-spacing="28" fill-opacity="0.87">
                        <tspan x="0" y="19" fill="#000000">Medical out-of-pocket</tspan>
                    </text>
                    <text id="$2,050-paid-/-$4,500" font-family="Roboto-Regular, Roboto" font-size="14" font-weight="normal" line-spacing="24" fill-opacity="0.87">
                        <tspan x="0" y="41" fill="#000000">$2,050 paid / $4,500 max</tspan>
                    </text>
                </g>
            </g>
        </g>
        <g id="app-bar-copy" transform="translate(8.000000, 69.000000)">
            <g id="app-bar-bg">
                <use fill="black" fill-opacity="1" filter="url(#filter-7)" xlink:href="#path-6"></use>
                <use fill="#009BDA" fill-rule="evenodd" xlink:href="#path-6"></use>
            </g>
            <g id="tabs">
                <mask id="mask-9" fill="white">
                    <use xlink:href="#path-8"></use>
                </mask>
                <use id="bounds" fill-opacity="0" fill="#FFFFFF" xlink:href="#path-8"></use>
                <text id="FAMILY" mask="url(#mask-9)" font-family="Roboto-Medium, Roboto" font-size="14" font-weight="400" letter-spacing="0.5" fill-opacity="0.7" fill="#FFFFFF">
                    <tspan x="155.449219" y="28">FAMILY</tspan>
                </text>
                <text id="INDIVIDUAL" mask="url(#mask-9)" font-family="Roboto-Medium, Roboto" font-size="14" font-weight="400" letter-spacing="0.5" fill="#FFFFFF">
                    <tspan x="19.9946289" y="28">INDIVIDUAL</tspan>
                </text>
                <rect id="indicator" fill="#BDBDBD" mask="url(#mask-9)" x="0" y="46" width="120" height="2"></rect>
            </g>
        </g>
        <g id="Group-Copy-2" transform="translate(133.000000, 210.000000)"></g>
    </g>
</svg>