<?xml version="1.0" encoding="utf-8"?>
<!-- Generator: Adobe Illustrator 20.1.0, SVG Export Plug-In . SVG Version: 6.00 Build 0)  -->
<svg version="1.1" id="Layer_1" xmlns="http://www.w3.org/2000/svg" xmlns:xlink="http://www.w3.org/1999/xlink" x="0px" y="0px"
	 viewBox="0 0 230 230" style="enable-background:new 0 0 230 230;" xml:space="preserve">
<style type="text/css">
	.st0{fill:#FFFFFF;}
	.st1{font-family:'Strada-Regular';}
	.st2{font-size:12.0495px;}
	.st3{fill:none;}
	.st4{fill:#9463A8;}
	.st5{fill:#662E91;}
	.st6{fill:#FACF24;}
</style>
<rect x="44.1" y="173.9" class="st0" width="133" height="43.4"/>
<rect x="19" y="8.9" class="st0" width="196.1" height="100.3"/>
<text transform="matrix(1 0 0 1 102.4585 82.0832)" class="st1 st2"> </text>
<polygon class="st3" points="138.1,162.7 93.1,162.7 89.7,170.2 141.5,170.2 "/>
<path class="st4" d="M200.2,192.7h-44.5v1.3c0,3.4-2.7,6.1-6.1,6.1c-3.4,0-6.1-2.8-6.1-6.1v-1.3h-56v1.3c0,3.4-2.7,6.1-6.1,6.1
	c-3.4,0-6.1-2.8-6.1-6.1v-1.3H30.8v37v0.1h169.5v-0.1L200.2,192.7L200.2,192.7z"/>
<path class="st5" d="M75.2,187.3c0-0.7,0.4-1.3,1.1-1.3h10.1c0.7,0,1.1,0.6,1.1,1.3v5.4h56.1v-5.4c0-0.7,0.4-1.3,1.1-1.3h10.1
	c0.7,0,1.1,0.6,1.1,1.3v5.4h44.5c0,0-0.1-0.6-0.1-0.8l-8.6-21.1c-0.2-0.5-0.7-0.7-1.3-0.7h-40.1l-5.9-12.7c-0.6-1.4-2.1-2.4-3.7-2.4
	H90.4c-1.6,0-3,1-3.7,2.4l-5.9,12.7H40.7c-0.6,0-1.1,0.3-1.3,0.8l-8.6,21c-0.1,0.1-0.1,0.8-0.1,0.8h44.5V187.3z M93.1,162.7h45.1
	l3.5,7.5h-52L93.1,162.7z"/>
<path class="st0" d="M75.2,194c0,3.4,2.7,6.1,6.1,6.1c3.4,0,6.1-2.8,6.1-6.1v-1.3H75.2V194z"/>
<path class="st0" d="M86.4,186H76.3c-0.7,0-1.1,0.6-1.1,1.3v5.4h12.2v-5.4C87.5,186.6,87.1,186,86.4,186z"/>
<path class="st0" d="M143.5,194c0,3.4,2.7,6.1,6.1,6.1c3.4,0,6.1-2.8,6.1-6.1v-1.3h-12.2L143.5,194L143.5,194z"/>
<path class="st0" d="M154.7,186h-10.1c-0.7,0-1.1,0.6-1.1,1.3v5.4h12.2v-5.4C155.8,186.6,155.4,186,154.7,186z"/>
<path class="st6" d="M194.1,2.5H37C13.7,2.5,1.9,14,1.9,33.2v55.3c0,19.3,11.6,34.8,34.9,34.8h61.9l14.9,21.1c0.3,0.6,0.9,1,1.9,1
	c1.1,0,1.6-0.4,1.9-1l14.6-21.1h61.9c23.3,0,35.3-15.5,35.3-34.8V33.2C229.2,14,217.4,2.5,194.1,2.5z M206.3,20.8l-2.1,52.6h-13.7
	l-2.1-52.6C188.4,20.8,206.3,20.8,206.3,20.8z M79.4,100.5H30.9V20.8h15.9v65.6h32.6V100.5z M103.2,100.5H87.6V39.7h15.7
	L103.2,100.5L103.2,100.5z M95.5,30.6c-6.3,0-10-3.9-10-9.4c0-5.6,3.7-9.5,10-9.5c6.1,0,9.7,3.9,9.7,9.5
	C105.2,26.6,101.5,30.6,95.5,30.6z M155.2,69.6v30.9h-15.9V70.6l-27.8-49.8h19.1l16.6,33.5l16.1-33.5h19.2L155.2,69.6z M197.3,102.1
	c-5.9,0-10-3.8-10-9.7s4.1-9.9,10-9.9c5.8,0,9.9,3.9,9.9,9.7C207.2,98.2,203,102.1,197.3,102.1z"/>
</svg>
