<?xml version="1.0" encoding="utf-8"?>
<!-- Generator: Adobe Illustrator 20.0.0, SVG Export Plug-In . SVG Version: 6.00 Build 0)  -->
<svg version="1.1" id="Layer_1" xmlns="http://www.w3.org/2000/svg" xmlns:xlink="http://www.w3.org/1999/xlink" x="0px" y="0px"
	 viewBox="0 0 230 230" style="enable-background:new 0 0 230 230;" xml:space="preserve">
<style type="text/css">
	.st0{font-family:'Strada-Regular';}
	.st1{font-size:12.1923px;}
	.st2{fill:none;}
	.st3{fill:#9463A8;}
	.st4{fill:#662E91;}
	.st5{fill:#FFFFFF;}
	.st6{fill:#FACF24;}
</style>
<text transform="matrix(1 0 0 1 -306.7598 -189.8985)" class="st0" style="fill:#808080; font-size:12px;"> </text>
<text transform="matrix(1 0 0 1 101.7539 80.5321)" class="st0 st1"> </text>
<polygon class="st2" points="137.8,162.1 92.3,162.1 88.8,169.7 141.3,169.7 "/>
<path class="st3" d="M200.7,192.5h-45v1.3c0,3.4-2.7,6.2-6.2,6.2c-3.4,0-6.2-2.8-6.2-6.2v-1.3H86.6v1.3c0,3.4-2.7,6.2-6.2,6.2
	c-3.4,0-6.2-2.8-6.2-6.2v-1.3h-45v37.4c0,0,0,0.1,0,0.1h171.5c0,0,0-0.1,0-0.1V192.5z"/>
<path class="st4" d="M74.2,187c0-0.7,0.4-1.3,1.1-1.3h10.2c0.7,0,1.1,0.6,1.1,1.3v5.5h56.8V187c0-0.7,0.4-1.3,1.1-1.3h10.2
	c0.7,0,1.1,0.6,1.1,1.3v5.5h45c0,0-0.1-0.6-0.1-0.8l-8.7-21.3c-0.2-0.5-0.7-0.7-1.3-0.7h-40.6l-6-12.9c-0.6-1.4-2.1-2.4-3.7-2.4
	H89.6c-1.6,0-3,1-3.7,2.4l-6,12.9H39.3c-0.6,0-1.1,0.3-1.3,0.8l-8.7,21.2c-0.1,0.1-0.1,0.8-0.1,0.8h45V187z M92.3,162.1h45.6
	l3.5,7.6H88.8L92.3,162.1z"/>
<path class="st5" d="M74.2,193.8c0,3.4,2.7,6.2,6.2,6.2c3.4,0,6.2-2.8,6.2-6.2v-1.3H74.2V193.8z"/>
<path class="st5" d="M85.5,185.7H75.3c-0.7,0-1.1,0.6-1.1,1.3v5.5h12.3V187C86.6,186.3,86.2,185.7,85.5,185.7z"/>
<path class="st5" d="M143.3,193.8c0,3.4,2.7,6.2,6.2,6.2c3.4,0,6.2-2.8,6.2-6.2v-1.3h-12.3V193.8z"/>
<path class="st5" d="M154.6,185.7h-10.2c-0.7,0-1.1,0.6-1.1,1.3v5.5h12.3V187C155.7,186.3,155.3,185.7,154.6,185.7z"/>
<path class="st6" d="M194.5,0h-159C11.9,0,0,11.6,0,31.1v56c0,19.5,11.7,35.2,35.3,35.2h62.6l15.1,21.3c0.3,0.6,0.9,1,1.9,1
	c1.1,0,1.6-0.4,1.9-1l14.8-21.3h62.6c23.6,0,35.7-15.7,35.7-35.2v-56C230,11.6,218.1,0,194.5,0z M206.8,18.5l-2.1,53.2h-13.9
	l-2.1-53.2H206.8z M78.4,99.2H29.3V18.5h16.1v66.4h33V99.2z M102.5,99.2H86.7V37.6h15.9V99.2z M94.7,28.4c-6.4,0-10.1-3.9-10.1-9.5
	c0-5.7,3.7-9.6,10.1-9.6c6.2,0,9.8,3.9,9.8,9.6C104.5,24.4,100.8,28.4,94.7,28.4z M155.1,67.9v31.3H139V68.9l-28.1-50.4h19.3
	L147,52.4l16.3-33.9h19.4L155.1,67.9z M197.7,100.8c-6,0-10.1-3.8-10.1-9.8s4.1-10,10.1-10c5.9,0,10,3.9,10,9.8
	C207.7,96.8,203.5,100.8,197.7,100.8z"/>
</svg>
