<svg xmlns="http://www.w3.org/2000/svg" xmlns:xlink="http://www.w3.org/1999/xlink" viewBox="0 0 1521 808"><defs><style>.cls-1{fill:#efefef;}.cls-2{font-size:20px;}.cls-2,.cls-26,.cls-27{fill:#333;}.cls-13,.cls-19,.cls-2,.cls-21,.cls-22{font-family:Roboto-Regular, Roboto;}.cls-3,.cls-7{font-family:Roboto-Medium, Roboto;}.cls-4{letter-spacing:-0.02em;}.cls-5{letter-spacing:-0.01em;}.cls-22,.cls-6{letter-spacing:-0.02em;}.cls-17,.cls-7{letter-spacing:-0.01em;}.cls-8{fill:#757575;}.cls-9{fill:#83cd9b;}.cls-10{fill:none;stroke:#212121;stroke-miterlimit:10;}.cls-11{fill:#1976d2;}.cls-12{fill:#ff4d55;}.cls-13{font-size:18px;}.cls-13,.cls-18,.cls-19,.cls-20,.cls-21,.cls-22{fill:#212121;}.cls-14{letter-spacing:0.02em;}.cls-15{letter-spacing:-0.01em;}.cls-16{letter-spacing:-0.05em;}.cls-19{font-size:24px;}.cls-20{font-size:48px;}.cls-20,.cls-26{font-family:Roboto-Light, Roboto;}.cls-21,.cls-22{font-size:14px;}.cls-23{fill:#4c4c4d;}.cls-24{fill:#acacac;}.cls-25{fill:#fff;}.cls-26{font-size:36px;}.cls-28{fill:#ccc;}.cls-29{letter-spacing:-0.01em;}</style><symbol id="device" data-name="device" viewBox="0 0 1521 808"><rect class="cls-23" width="1521" height="808" rx="16" ry="16"/><rect class="cls-24" x="34.36" y="316.6" width="18.27" height="174.79" rx="9.14" ry="9.14"/><circle class="cls-24" cx="1476.54" cy="404" r="25"/><rect class="cls-25" x="87" y="36.5" width="1347" height="735" rx="4" ry="4"/></symbol><symbol id="cycle" data-name="cycle" viewBox="0 0 1347 634"><g id="linear-view"><path class="cls-1" d="M0,0H1347a0,0,0,0,1,0,0V630a4,4,0,0,1-4,4H4a4,4,0,0,1-4-4V0A0,0,0,0,1,0,0Z"/><text class="cls-2" transform="translate(86.16 515.57)">Phase: <tspan class="cls-3" x="65.21" y="0">Planning</tspan></text><text class="cls-2" transform="translate(86.16 555.6)"><tspan class="cls-4">A</tspan><tspan class="cls-5" x="12.56" y="0">v</tspan><tspan x="22.12" y="0">e</tspan><tspan class="cls-6" x="32.71" y="0">r</tspan><tspan x="39.09" y="0">age c</tspan><tspan class="cls-5" x="87.21" y="0">y</tspan><tspan x="96.54" y="0">cle length: </tspan><tspan class="cls-3" x="192.46" y="0">27 d</tspan><tspan class="cls-7" x="231.46" y="0">a</tspan><tspan class="cls-3" x="242.14" y="0">ys</tspan></text><rect class="cls-8" x="86.16" y="465.27" width="1172.69" height="1"/></g><path class="cls-8" d="M188.1,223.23a181,181,0,0,1,5-38.55l78.94,19.68a98.87,98.87,0,0,0-2.65,20.29Z"/><path class="cls-1" d="M193.87,185.9l77,19.2a100.36,100.36,0,0,0-2.42,18.54l-79.33-1.39a179.77,179.77,0,0,1,4.75-36.35m-1.47-2.43a180.87,180.87,0,0,0-5.32,40.75l83.31,1.45a98.26,98.26,0,0,1,2.88-22L192.4,183.47Z"/><path class="cls-8" d="M254.18,367a180.86,180.86,0,0,1-27.25-27.72L291,289.21a99.9,99.9,0,0,0,14.34,14.59Z"/><path class="cls-1" d="M290.86,290.6A101.24,101.24,0,0,0,304,303.93L254,365.59a181,181,0,0,1-25.69-26.15l62.52-48.84m.33-2.79-65.67,51.3a182.67,182.67,0,0,0,28.8,29.3l52.44-64.76a98.86,98.86,0,0,1-15.57-15.84Z"/><path class="cls-8" d="M191.77,263.93a182.66,182.66,0,0,1-3.61-30.25c-.09-2.78-.13-5.62-.1-8.45l81.32,1.42c0,1.41,0,2.81.06,4.19A100.9,100.9,0,0,0,271.33,247Z"/><path class="cls-1" d="M189.06,226.25l79.32,1.39q0,1.62.06,3.24a101.69,101.69,0,0,0,1.72,15.37l-77.61,16.49a180.82,180.82,0,0,1-3.39-29.09c-.08-2.44-.12-4.92-.1-7.4m-2-2c-.05,3.15,0,6.31.08,9.5a183,183,0,0,0,3.84,31.4l81.51-17.33a98.65,98.65,0,0,1-2.07-17c-.06-1.72-.07-3.44-.05-5.14l-83.31-1.45Z"/><path class="cls-9" d="M367.52,407.84a180.61,180.61,0,0,1-38.63-4.36l18.3-79.26a99.67,99.67,0,0,0,20.33,2.3Z"/><path class="cls-1" d="M348,325.4a99.57,99.57,0,0,0,18.57,2.1v79.33a179.16,179.16,0,0,1-36.42-4.11L348,325.4M346.44,323l-18.75,81.2a181.28,181.28,0,0,0,40.72,4.61h.11V325.52h0a98.2,98.2,0,0,1-22-2.49Z"/><path class="cls-8" d="M225.7,337.7a180.53,180.53,0,0,1-20.35-33.12l73.73-34.38a98.89,98.89,0,0,0,10.71,17.43Z"/><path class="cls-1" d="M278.61,271.52a100.26,100.26,0,0,0,9.78,15.93l-62.51,48.84a179.8,179.8,0,0,1-19.2-31.23l71.93-33.54m.95-2.65L204,304.09a181.71,181.71,0,0,0,21.5,35l65.67-51.3a97.44,97.44,0,0,1-11.63-18.94Z"/><path class="cls-8" d="M204.5,302.76a179.51,179.51,0,0,1-12.32-36.87L271.75,249a98.7,98.7,0,0,0,6.48,19.4Z"/><path class="cls-1" d="M271,250.16a98.73,98.73,0,0,0,5.93,17.73L205,301.43a178.64,178.64,0,0,1-11.61-34.77L271,250.16m1.52-2.37L191,265.12a179.77,179.77,0,0,0,13,39l75.54-35.22a97.11,97.11,0,0,1-7.05-21.08Z"/><path class="cls-9" d="M327,403a179.35,179.35,0,0,1-36.65-13L326,316.94a98.7,98.7,0,0,0,19.28,6.83Z"/><path class="cls-1" d="M326.42,318.26a99.63,99.63,0,0,0,17.63,6.25L326.2,401.83a178.94,178.94,0,0,1-34.56-12.25l34.78-71.32m-.92-2.66L289,390.51a180.19,180.19,0,0,0,38.73,13.72L346.44,323a97,97,0,0,1-20.94-7.43Z"/><path class="cls-10" d="M289.91,393.2a180,180,0,0,0,38.73,13.72c13.14,3,23.76,3.86,37.78,3.85"/><path class="cls-8" d="M445.11,290.34a99.83,99.83,0,0,0,11.3-17l72.48,36.92a181.49,181.49,0,0,1-21.48,32.41Z"/><path class="cls-1" d="M456.83,274.62l70.7,36a180.26,180.26,0,0,1-20.25,30.55l-60.77-51a100.48,100.48,0,0,0,10.32-15.59m-.85-2.68a98.17,98.17,0,0,1-12.28,18.53L507.53,344a181.77,181.77,0,0,0,22.7-34.25L456,271.94Z"/><path class="cls-8" d="M457.32,271.51a99.3,99.3,0,0,0,7.18-19.17L543.43,272a180,180,0,0,1-13.63,36.41Z"/><path class="cls-1" d="M465.21,253.55l77,19.2a178.49,178.49,0,0,1-12.86,34.33l-70.7-36a99.3,99.3,0,0,0,6.56-17.51m-1.44-2.42A97,97,0,0,1,456,271.94l74.25,37.84a180.77,180.77,0,0,0,14.42-38.48l-80.88-20.17Z"/><path class="cls-8" d="M369.52,326.52l2.46,0a100.5,100.5,0,0,0,14.48-1.57L402,404.74a180.85,180.85,0,0,1-27.16,3c-1.61.06-3.32.09-5.3.1Z"/><path class="cls-1" d="M385.67,326.06l15.14,77.88a182.06,182.06,0,0,1-26,2.81c-1.33,0-2.72.07-4.27.08V327.5l1.5,0a101,101,0,0,0,13.65-1.4m1.58-2.33a99.77,99.77,0,0,1-15.3,1.74c-1.15,0-2.29,0-3.43,0v83.32c2.11,0,4.22,0,6.34-.1a182.51,182.51,0,0,0,28.29-3.2l-15.9-81.81Z"/><path class="cls-11" d="M429,306a99.85,99.85,0,0,0,14.83-14.09l62.3,52.28a181.22,181.22,0,0,1-28.19,26.76Z"/><path class="cls-1" d="M443.93,293.27l60.78,51a181,181,0,0,1-26.59,25.24l-47.74-63.37a100.57,100.57,0,0,0,13.55-12.87m-.23-2.8a98.92,98.92,0,0,1-16.11,15.3l50.15,66.55A182.65,182.65,0,0,0,507.53,344L443.7,290.47Z"/><path class="cls-8" d="M409.77,317.56a98.88,98.88,0,0,0,17.62-10.4l48.95,65a180.21,180.21,0,0,1-33.49,19.75Z"/><path class="cls-1" d="M427.18,308.55l47.75,63.37a180,180,0,0,1-31.57,18.63l-32.28-72.5a100.24,100.24,0,0,0,16.1-9.5m.41-2.78a98.59,98.59,0,0,1-19.14,11.29l33.9,76.14a181,181,0,0,0,35.39-20.88l-50.15-66.55Z"/><path class="cls-8" d="M388.42,324.52a98.15,98.15,0,0,0,19.52-6.15L441,392.69a179.36,179.36,0,0,1-37.09,11.67Z"/><path class="cls-1" d="M407.43,319.68l32.27,72.49a178.47,178.47,0,0,1-35,11L389.59,325.3a99.6,99.6,0,0,0,17.84-5.62m1-2.62a97.64,97.64,0,0,1-21.2,6.67l15.9,81.81a180.76,180.76,0,0,0,39.2-12.34l-33.9-76.14Z"/><path class="cls-8" d="M288.5,389.17a181.2,181.2,0,0,1-32.77-20.91l51.18-63.2a99.67,99.67,0,0,0,17.25,11Z"/><path class="cls-1" d="M307.07,306.45a101,101,0,0,0,15.76,10.06l-34.78,71.31a179.31,179.31,0,0,1-30.91-19.71l49.93-61.66m-.31-2.8-52.44,64.76A181.84,181.84,0,0,0,289,390.51L325.5,315.6a97.86,97.86,0,0,1-18.74-12Z"/><path class="cls-12" d="M446,165.56A100.41,100.41,0,0,0,431.69,151l51.18-63.21a182.3,182.3,0,0,1,27.25,27.73Z"/><path class="cls-1" d="M483,89.18a181,181,0,0,1,25.7,26.14l-62.52,48.85a101.32,101.32,0,0,0-13.1-13.34L483,89.18m-.28-2.82-52.44,64.75A99.34,99.34,0,0,1,445.86,167l65.66-51.3a182.19,182.19,0,0,0-28.79-29.3Z"/><path class="cls-12" d="M458,184.57a98.53,98.53,0,0,0-10.71-17.43l64.09-50.08a180.61,180.61,0,0,1,20.35,33.13Z"/><path class="cls-1" d="M511.17,118.47a179.6,179.6,0,0,1,19.19,31.24l-71.92,33.54a99.59,99.59,0,0,0-9.79-15.93l62.52-48.85m.35-2.81L445.86,167a97.93,97.93,0,0,1,11.63,18.94L533,150.67a180.88,180.88,0,0,0-21.51-35Z"/><path class="cls-12" d="M430.14,149.71a99.45,99.45,0,0,0-17.25-11L448.54,65.6a181.22,181.22,0,0,1,32.78,20.9Z"/><path class="cls-1" d="M449,66.94a180.35,180.35,0,0,1,30.91,19.72L430,148.32a100,100,0,0,0-15.76-10.06L449,66.94m-.91-2.68-36.54,74.9a98.66,98.66,0,0,1,18.74,12l52.44-64.75a181.35,181.35,0,0,0-34.64-22.1Z"/><path class="cls-12" d="M411.09,137.83A98.6,98.6,0,0,0,391.8,131l18.3-79.26a180,180,0,0,1,36.65,13Z"/><path class="cls-1" d="M410.85,52.94a178.27,178.27,0,0,1,34.56,12.25L410.62,136.5A100,100,0,0,0,393,130.26l17.85-77.32m-1.5-2.41L390.6,131.74a97.09,97.09,0,0,1,20.95,7.42l36.54-74.9a180.11,180.11,0,0,0-38.74-13.73Z"/><path class="cls-8" d="M465,250.4a98.78,98.78,0,0,0,2.65-20.29L549,231.53a180.31,180.31,0,0,1-5,38.55Z"/><path class="cls-1" d="M468.6,231.13l79.33,1.39a179.77,179.77,0,0,1-4.75,36.35l-77-19.2a100.36,100.36,0,0,0,2.42-18.54m-2-2a97.12,97.12,0,0,1-2.88,22l80.88,20.17A181.44,181.44,0,0,0,550,230.55l-83.32-1.45Z"/><path class="cls-8" d="M467.66,228.11c0-1.4,0-2.8-.05-4.19a99.8,99.8,0,0,0-1.9-16.17l79.57-16.91a181.59,181.59,0,0,1,3.6,30.25c.1,2.78.14,5.62.1,8.44Z"/><path class="cls-1" d="M544.5,192a182.22,182.22,0,0,1,3.39,29.1c.08,2.44.12,4.92.1,7.4l-79.32-1.39q0-1.63-.06-3.24a100.44,100.44,0,0,0-1.73-15.37L544.5,192m1.55-2.37L464.53,207a98.54,98.54,0,0,1,2.08,17c.06,1.72.07,3.43,0,5.14L550,230.55c0-3.15,0-6.32-.09-9.5a182,182,0,0,0-3.83-31.4Z"/><path class="cls-8" d="M193.62,182.74a179.81,179.81,0,0,1,13.63-36.41l72.48,36.93a98.16,98.16,0,0,0-7.18,19.16Z"/><path class="cls-1" d="M207.7,147.68l70.69,36a99,99,0,0,0-6.55,17.51l-77-19.2a178.34,178.34,0,0,1,12.86-34.34m-.89-2.69a180.21,180.21,0,0,0-14.41,38.48l80.87,20.17a97.88,97.88,0,0,1,7.8-20.82L206.81,145Z"/><path class="cls-8" d="M465.3,205.79a99,99,0,0,0-6.48-19.41L532.55,152a179,179,0,0,1,12.31,36.88Z"/><path class="cls-1" d="M532.05,153.33a178.54,178.54,0,0,1,11.62,34.78l-77.61,16.5a99.63,99.63,0,0,0-5.93-17.74l71.92-33.54m1-2.66L457.49,185.9a96.9,96.9,0,0,1,7,21.08l81.52-17.33a179.85,179.85,0,0,0-13-39Z"/><path class="cls-8" d="M230.92,110.62a182.21,182.21,0,0,1,28.19-26.77l48.95,65a99.36,99.36,0,0,0-14.83,14.09Z"/><path class="cls-1" d="M258.92,85.26l47.75,63.36a101.32,101.32,0,0,0-13.56,12.88l-60.77-51a180.85,180.85,0,0,1,26.58-25.24m.39-2.81a182.29,182.29,0,0,0-29.8,28.29l63.83,53.56A99,99,0,0,1,309.46,149L259.31,82.45Z"/><path class="cls-8" d="M208.16,144.55a181.77,181.77,0,0,1,21.48-32.4l62.3,52.28a98.86,98.86,0,0,0-11.3,17Z"/><path class="cls-1" d="M229.77,113.56l60.77,51a101.66,101.66,0,0,0-10.33,15.58l-70.7-36a180.79,180.79,0,0,1,20.26-30.56m-.26-2.82A181.93,181.93,0,0,0,206.81,145l74.26,37.83a98.37,98.37,0,0,1,12.27-18.52l-63.83-53.56Z"/><path class="cls-8" d="M260.71,82.65a180.73,180.73,0,0,1,33.48-19.76l33.09,74.32a99.43,99.43,0,0,0-17.62,10.39Z"/><path class="cls-1" d="M293.69,64.22,326,136.71a100.64,100.64,0,0,0-16.11,9.5L262.12,82.85a179,179,0,0,1,31.57-18.63m1-2.65a181,181,0,0,0-35.39,20.88L309.46,149a97.31,97.31,0,0,1,19.14-11.29L294.7,61.57Z"/><path class="cls-8" d="M296,62.08A179.3,179.3,0,0,1,333.1,50.4l15.52,79.85a98.24,98.24,0,0,0-19.51,6.14Z"/><path class="cls-1" d="M332.31,51.58l15.14,77.89a99.5,99.5,0,0,0-17.83,5.62l-32.28-72.5a179.55,179.55,0,0,1,35-11m1.58-2.35A179.76,179.76,0,0,0,294.7,61.57l33.9,76.14A97,97,0,0,1,349.8,131l-15.91-81.8Z"/><path class="cls-12" d="M389.85,130.55a99.51,99.51,0,0,0-20.33-2.3V46.93a180.54,180.54,0,0,1,38.63,4.36Z"/><path class="cls-1" d="M370.52,47.93A180,180,0,0,1,407,52L389.1,129.36a100.52,100.52,0,0,0-18.58-2.09V47.93m-1.89-2h-.11v83.33h.06a98.18,98.18,0,0,1,22,2.49l18.75-81.21a181.15,181.15,0,0,0-40.72-4.61Z"/><text class="cls-13" transform="translate(400.92 31.88)">Sta<tspan class="cls-14" x="26.35" y="0">r</tspan><tspan x="32.88" y="0">t 29/01</tspan></text><text class="cls-13" transform="translate(120.02 428.88)"><tspan class="cls-15">F</tspan><tspan x="9.76" y="0">e</tspan><tspan class="cls-14" x="19.3" y="0">r</tspan><tspan x="25.83" y="0">tile 12/02 and 13/02</tspan></text><polyline class="cls-10" points="491.8 35.72 399.35 35.72 390.61 47.25"/><text class="cls-13" transform="translate(506.87 377.83)"><tspan class="cls-16">T</tspan><tspan x="9.87" y="0">od</tspan><tspan class="cls-17" x="30.29" y="0">a</tspan><tspan x="39.95" y="0">y 08/02</tspan></text><polyline class="cls-10" points="609.25 381.67 503.11 381.67 491.84 360.51"/><path class="cls-18" d="M291.19,389.6"/><path class="cls-10" d="M120,434.36H313.74l14.9-27.44"/><text class="cls-19" transform="translate(291.7 203.63)">29/01 – 24/02</text><text class="cls-20" transform="translate(287.96 258.5)">27 d<tspan class="cls-17" x="91.55" y="0">a</tspan><tspan x="116.91" y="0">ys</tspan></text><text class="cls-21" transform="translate(380.38 65.96)">M</text><text class="cls-21" transform="translate(416.92 73.47)">M</text><text class="cls-21" transform="translate(451.45 92.61)">M</text><text class="cls-21" transform="translate(477.74 117.14)">M</text><text class="cls-21" transform="translate(500.31 144.13)">M</text><text class="cls-22" transform="translate(477.74 351.29)">T</text><text class="cls-21" transform="translate(346.44 397.33)">F</text><text class="cls-21" transform="translate(309.46 389.6)">F</text><path class="cls-8" d="M797,223.23a181,181,0,0,1,5-38.55L881,204.37a98.69,98.69,0,0,0-2.65,20.28Z"/><path class="cls-1" d="M802.78,185.9l77,19.2a100.36,100.36,0,0,0-2.42,18.54L798,222.25a179.77,179.77,0,0,1,4.75-36.35m-1.47-2.43A180.87,180.87,0,0,0,796,224.22l83.32,1.45a97.68,97.68,0,0,1,2.87-22l-80.87-20.17Z"/><path class="cls-9" d="M863.09,367a181.32,181.32,0,0,1-27.25-27.72l64.09-50.07a99.9,99.9,0,0,0,14.34,14.59Z"/><path class="cls-1" d="M899.77,290.6a101.24,101.24,0,0,0,13.1,13.33l-49.93,61.66a181.4,181.4,0,0,1-25.69-26.14l62.52-48.85m.33-2.79-65.67,51.3a182.67,182.67,0,0,0,28.8,29.3l52.44-64.76a98.86,98.86,0,0,1-15.57-15.84Z"/><path class="cls-8" d="M800.68,263.93a182.66,182.66,0,0,1-3.61-30.25c-.09-2.78-.13-5.62-.1-8.45l81.32,1.42c0,1.41,0,2.81.06,4.19A100.9,100.9,0,0,0,880.24,247Z"/><path class="cls-1" d="M798,226.25l79.32,1.39c0,1.08,0,2.17.06,3.24a101.69,101.69,0,0,0,1.72,15.37l-77.61,16.49a180.82,180.82,0,0,1-3.39-29.09c-.08-2.45-.12-4.93-.1-7.4m-2-2c0,3.15,0,6.31.08,9.5a183,183,0,0,0,3.84,31.4l81.51-17.33a98.65,98.65,0,0,1-2.07-17c-.06-1.72-.07-3.44,0-5.14L796,224.22Z"/><path class="cls-8" d="M976.43,407.84a180.44,180.44,0,0,1-38.62-4.36l18.29-79.26a99.67,99.67,0,0,0,20.33,2.3Z"/><path class="cls-1" d="M956.86,325.41a100.41,100.41,0,0,0,18.57,2.09v79.33A179.24,179.24,0,0,1,939,402.72l17.85-77.31M955.35,323,936.6,404.24a181.88,181.88,0,0,0,40.73,4.6h.1V325.52h0a98.27,98.27,0,0,1-22-2.49Z"/><path class="cls-9" d="M834.61,337.7a180.53,180.53,0,0,1-20.35-33.12L888,270.2a98.89,98.89,0,0,0,10.71,17.43Z"/><path class="cls-1" d="M887.52,271.52a100.26,100.26,0,0,0,9.78,15.93L834.79,336.3a179.6,179.6,0,0,1-19.19-31.24l71.92-33.54m1-2.65L812.93,304.1a181.63,181.63,0,0,0,21.5,35l65.67-51.3a97.93,97.93,0,0,1-11.63-18.94Z"/><path class="cls-8" d="M813.41,302.77a179.8,179.8,0,0,1-12.32-36.88L880.66,249a99,99,0,0,0,6.48,19.41Z"/><path class="cls-1" d="M879.9,250.16a99.89,99.89,0,0,0,5.93,17.74L813.9,301.43a178.19,178.19,0,0,1-11.61-34.77l77.61-16.5m1.52-2.37-81.51,17.33a180,180,0,0,0,13,39l75.54-35.23a96.93,96.93,0,0,1-7.05-21.08Z"/><path class="cls-8" d="M935.86,403a179.35,179.35,0,0,1-36.65-13l35.66-73.11a98.7,98.7,0,0,0,19.28,6.83Z"/><path class="cls-1" d="M935.33,318.26A99.63,99.63,0,0,0,953,324.51l-17.85,77.32a178.94,178.94,0,0,1-34.56-12.25l34.78-71.32m-.92-2.65-36.54,74.9a180.75,180.75,0,0,0,38.73,13.73L955.35,323a97.54,97.54,0,0,1-20.94-7.42Z"/><path class="cls-10" d="M810,309.2a180.27,180.27,0,0,0,21.69,34.89c8.39,10.57,16.16,17.84,27.12,26.59"/><path class="cls-8" d="M1054,290.34a99.83,99.83,0,0,0,11.3-17l72.48,36.92a181.49,181.49,0,0,1-21.48,32.41Z"/><path class="cls-1" d="M1065.74,274.62l70.7,36a180.26,180.26,0,0,1-20.25,30.55l-60.77-51a100.48,100.48,0,0,0,10.32-15.59m-.85-2.68a98.17,98.17,0,0,1-12.28,18.53L1116.44,344a181.77,181.77,0,0,0,22.7-34.25l-74.25-37.84Z"/><path class="cls-8" d="M1066.23,271.51a99.3,99.3,0,0,0,7.18-19.17L1152.34,272a179.36,179.36,0,0,1-13.63,36.41Z"/><path class="cls-1" d="M1074.12,253.55l77,19.2a178.25,178.25,0,0,1-12.86,34.33l-70.7-36a98.52,98.52,0,0,0,6.56-17.51m-1.44-2.42a97,97,0,0,1-7.79,20.81l74.25,37.84a180.77,180.77,0,0,0,14.42-38.48l-80.88-20.17Z"/><path class="cls-8" d="M978.43,326.52l2.46,0a100.5,100.5,0,0,0,14.48-1.57l15.52,79.84a182.17,182.17,0,0,1-27.16,3c-1.61.05-3.32.08-5.3.09Z"/><path class="cls-1" d="M994.58,326.06l15.14,77.88a181.91,181.91,0,0,1-26,2.81c-1.32,0-2.71.07-4.27.08V327.5c.53,0,1,0,1.5,0a102.7,102.7,0,0,0,13.65-1.41m1.58-2.33a99.77,99.77,0,0,1-15.3,1.74c-1.15,0-2.29,0-3.43,0v83.32c2.11,0,4.22,0,6.34-.1a182.51,182.51,0,0,0,28.29-3.2l-15.9-81.81Z"/><path class="cls-8" d="M1037.9,306a99.36,99.36,0,0,0,14.83-14.09l62.3,52.28a181.22,181.22,0,0,1-28.19,26.76Z"/><path class="cls-1" d="M1052.84,293.27l60.78,51A180.85,180.85,0,0,1,1087,369.51l-47.75-63.37a100,100,0,0,0,13.55-12.87m-.23-2.8a98.92,98.92,0,0,1-16.11,15.3l50.15,66.55A182.65,182.65,0,0,0,1116.44,344l-63.83-53.56Z"/><path class="cls-8" d="M1018.68,317.56a98.88,98.88,0,0,0,17.62-10.4l49,65a181.05,181.05,0,0,1-33.48,19.76Z"/><path class="cls-1" d="M1036.09,308.55l47.75,63.37a180,180,0,0,1-31.57,18.63L1020,318.05a99.08,99.08,0,0,0,16.1-9.5m.41-2.78a98.59,98.59,0,0,1-19.14,11.29l33.9,76.14a181,181,0,0,0,35.39-20.88l-50.15-66.55Z"/><path class="cls-8" d="M997.33,324.52a98.78,98.78,0,0,0,19.52-6.14l33.09,74.31a180,180,0,0,1-37.09,11.68Z"/><path class="cls-1" d="M1016.34,319.68l32.27,72.5a179.12,179.12,0,0,1-35,11L998.5,325.3a99.6,99.6,0,0,0,17.84-5.62m1-2.62a97.47,97.47,0,0,1-21.2,6.67l15.9,81.81a180.22,180.22,0,0,0,39.2-12.34l-33.9-76.14Z"/><path class="cls-8" d="M897.41,389.17a180.65,180.65,0,0,1-32.77-20.91l51.18-63.2a100,100,0,0,0,17.25,11Z"/><path class="cls-1" d="M916,306.45a101,101,0,0,0,15.76,10.06L897,387.82a179.31,179.31,0,0,1-30.91-19.71L916,306.45m-.31-2.8-52.44,64.76a181.84,181.84,0,0,0,34.64,22.1l36.54-74.9a98.39,98.39,0,0,1-18.74-12Z"/><path class="cls-12" d="M1054.94,165.56A100.41,100.41,0,0,0,1040.6,151l51.18-63.21A182.3,182.3,0,0,1,1119,115.49Z"/><path class="cls-1" d="M1091.92,89.18a181,181,0,0,1,25.7,26.14l-62.52,48.85a101.32,101.32,0,0,0-13.1-13.34l49.92-61.65m-.28-2.82-52.44,64.75A99.34,99.34,0,0,1,1054.77,167l65.67-51.3a182.67,182.67,0,0,0-28.8-29.3Z"/><path class="cls-12" d="M1066.88,184.57a98.53,98.53,0,0,0-10.71-17.43l64.09-50.08a181,181,0,0,1,20.35,33.13Z"/><path class="cls-1" d="M1120.08,118.47a179.6,179.6,0,0,1,19.19,31.24l-71.92,33.54a100.32,100.32,0,0,0-9.79-15.93l62.52-48.85m.36-2.81L1054.77,167a97.93,97.93,0,0,1,11.63,18.94l75.54-35.23a181.33,181.33,0,0,0-21.5-35Z"/><path class="cls-12" d="M1039.05,149.71a100,100,0,0,0-17.25-11l35.66-73.11a180.65,180.65,0,0,1,32.77,20.91Z"/><path class="cls-1" d="M1057.91,66.94a180,180,0,0,1,30.91,19.72l-49.93,61.66a100,100,0,0,0-15.76-10.06l34.78-71.32m-.91-2.68-36.54,74.9a98.34,98.34,0,0,1,18.74,12l52.44-64.75A181.84,181.84,0,0,0,1057,64.26Z"/><path class="cls-12" d="M1020,137.83a97.92,97.92,0,0,0-19.29-6.83L1019,51.73a180,180,0,0,1,36.65,13Z"/><path class="cls-1" d="M1019.76,52.94a178.27,178.27,0,0,1,34.56,12.25l-34.79,71.31a100,100,0,0,0-17.62-6.24l17.85-77.32m-1.5-2.41-18.74,81.21a97.73,97.73,0,0,1,20.94,7.42L1057,64.26a180.11,180.11,0,0,0-38.74-13.73Z"/><path class="cls-8" d="M1073.89,250.4a98.78,98.78,0,0,0,2.65-20.29l81.32,1.42a180.31,180.31,0,0,1-5,38.55Z"/><path class="cls-1" d="M1077.51,231.13l79.33,1.39a179.77,179.77,0,0,1-4.75,36.35l-77-19.2a100.36,100.36,0,0,0,2.42-18.54m-2-2a97.12,97.12,0,0,1-2.88,22l80.88,20.17a181.44,181.44,0,0,0,5.32-40.75l-83.32-1.45Z"/><path class="cls-8" d="M1076.57,228.11c0-1.4,0-2.8,0-4.19a99.8,99.8,0,0,0-1.9-16.17l79.57-16.91a182.66,182.66,0,0,1,3.61,30.25c.09,2.78.13,5.62.09,8.44Z"/><path class="cls-1" d="M1153.41,192a180.94,180.94,0,0,1,3.39,29.1c.08,2.44.12,4.92.1,7.4l-79.32-1.39c0-1.08,0-2.17-.06-3.24a100.44,100.44,0,0,0-1.73-15.37l77.62-16.5m1.55-2.37L1073.44,207a98.66,98.66,0,0,1,2.08,17c.06,1.72.07,3.43,0,5.14l83.32,1.45c0-3.15,0-6.32-.09-9.5a182,182,0,0,0-3.83-31.4Z"/><path class="cls-8" d="M802.53,182.74a179.81,179.81,0,0,1,13.63-36.41l72.48,36.93a98.16,98.16,0,0,0-7.18,19.16Z"/><path class="cls-1" d="M816.61,147.68l70.7,36a98.52,98.52,0,0,0-6.56,17.51l-77-19.2a178.58,178.58,0,0,1,12.86-34.34m-.89-2.69a180.21,180.21,0,0,0-14.41,38.48l80.87,20.17a97.88,97.88,0,0,1,7.8-20.82L815.72,145Z"/><path class="cls-12" d="M1074.21,205.79a99,99,0,0,0-6.48-19.41L1141.46,152a179.8,179.8,0,0,1,12.32,36.88Z"/><path class="cls-1" d="M1141,153.33a179.18,179.18,0,0,1,11.61,34.78L1075,204.61a99.63,99.63,0,0,0-5.93-17.74L1141,153.33m1-2.66L1066.4,185.9a96.37,96.37,0,0,1,7,21.08L1155,189.65a179.85,179.85,0,0,0-13-39Z"/><path class="cls-8" d="M839.84,110.62A182.14,182.14,0,0,1,868,83.85l49,65a99.36,99.36,0,0,0-14.83,14.09Z"/><path class="cls-1" d="M867.83,85.26l47.75,63.37A100.62,100.62,0,0,0,902,161.5l-60.77-51a180.85,180.85,0,0,1,26.58-25.24m.39-2.81a182.69,182.69,0,0,0-29.8,28.29l63.84,53.56A98.5,98.5,0,0,1,918.37,149L868.22,82.45Z"/><path class="cls-8" d="M817.07,144.55a181.77,181.77,0,0,1,21.48-32.4l62.3,52.28a98.86,98.86,0,0,0-11.3,17Z"/><path class="cls-1" d="M838.68,113.56l60.77,51a101.66,101.66,0,0,0-10.33,15.58l-70.69-36a180.14,180.14,0,0,1,20.25-30.56m-.26-2.82A182.42,182.42,0,0,0,815.72,145L890,182.82a98.41,98.41,0,0,1,12.28-18.52l-63.84-53.56Z"/><path class="cls-8" d="M869.62,82.65A180.73,180.73,0,0,1,903.1,62.89l33.09,74.32a99.43,99.43,0,0,0-17.62,10.39Z"/><path class="cls-1" d="M902.6,64.22l32.28,72.49a100,100,0,0,0-16.11,9.51L871,82.85A179,179,0,0,1,902.6,64.22m1-2.65a181,181,0,0,0-35.39,20.88L918.37,149a97.31,97.31,0,0,1,19.14-11.29l-33.9-76.14Z"/><path class="cls-8" d="M904.93,62.08A180.09,180.09,0,0,1,942,50.4l15.52,79.85A98.9,98.9,0,0,0,938,136.39Z"/><path class="cls-1" d="M941.22,51.58l15.14,77.89a99.5,99.5,0,0,0-17.83,5.62l-32.28-72.5a179.55,179.55,0,0,1,35-11m1.58-2.35a179.76,179.76,0,0,0-39.19,12.34l33.9,76.14a97.47,97.47,0,0,1,21.2-6.67L942.8,49.23Z"/><path class="cls-12" d="M998.76,130.55a99.51,99.51,0,0,0-20.33-2.3V46.93a180.46,180.46,0,0,1,38.63,4.36Z"/><path class="cls-1" d="M979.43,47.93A180,180,0,0,1,1015.86,52L998,129.36a100.52,100.52,0,0,0-18.58-2.09V47.93m-1.89-2h-.11v83.33h.06a98.27,98.27,0,0,1,22,2.49l18.74-81.21a181.73,181.73,0,0,0-40.72-4.61Z"/><text class="cls-13" transform="translate(1009.83 31.88)">Sta<tspan class="cls-14" x="26.35" y="0">r</tspan><tspan x="32.88" y="0">t 25/02</tspan></text><text class="cls-21" transform="translate(989.29 66.82)">M</text><text class="cls-21" transform="translate(1025.83 74.33)">M</text><text class="cls-21" transform="translate(1060.36 93.47)">M</text><text class="cls-21" transform="translate(1086.65 117.99)">M</text><text class="cls-21" transform="translate(1109.22 144.99)">M</text><text class="cls-21" transform="translate(1126.74 178.82)">M</text><text class="cls-21" transform="translate(854.46 348.85)">F</text><text class="cls-21" transform="translate(834.43 317.06)">F</text><text class="cls-13" transform="translate(639.12 351.29)"><tspan class="cls-15">F</tspan><tspan x="9.76" y="0">e</tspan><tspan class="cls-14" x="19.3" y="0">r</tspan><tspan x="25.83" y="0">tile 14/03, 15/03</tspan></text><polyline class="cls-10" points="1100.71 35.72 1008.26 35.72 999.51 47.25"/><path class="cls-18" d="M900.1,389.6"/><path class="cls-10" d="M639.12,356.77H803.84l25.44-15.84"/><text class="cls-19" transform="translate(900.61 203.64)">25/02 – 23/03</text><text class="cls-20" transform="translate(896.87 258.5)">27 d<tspan class="cls-17" x="91.55" y="0">a</tspan><tspan x="116.91" y="0">ys</tspan></text><path d="M1295.42,217.66l-2.83,2.83,9.17,9.17-9.17,9.17,2.83,2.83,12-12Z"/><path d="M54.08,220.49l-2.83-2.83-12,12,12,12,2.83-2.83-9.17-9.17Z"/></symbol><symbol id="top-bar" data-name="top-bar" viewBox="0 0 1347 101"><path class="cls-25" d="M4,0H1343a4,4,0,0,1,4,4v96a0,0,0,0,1,0,0H0a0,0,0,0,1,0,0V4A4,4,0,0,1,4,0Z"/><text class="cls-26" transform="translate(1030.63 61.52)">Couple #1345767</text><path class="cls-27" d="M39.66,54.8v2.4h24V54.8Zm0-6v2.4h24V48.8Zm0-6v2.4h24V42.8Z"/><rect class="cls-28" y="100" width="1347" height="1"/></symbol></defs><title>circular</title><g id="Layer_2" data-name="Layer 2"><g id="Layer_1-2" data-name="Layer 1"><use id="device-3" data-name="device" width="1521" height="808" xlink:href="#device"/><use id="cycle-3" data-name="cycle" width="1347" height="634" transform="translate(87 137.5)" xlink:href="#cycle"/><use id="top-bar-3" data-name="top-bar" width="1347" height="101" transform="translate(87 36.5)" xlink:href="#top-bar"/><text class="cls-26" transform="translate(183.67 98.02)">Menstu<tspan class="cls-6" x="119.09" y="0">r</tspan><tspan x="130.5" y="0">al c</tspan><tspan class="cls-5" x="185.15" y="0">y</tspan><tspan x="202.03" y="0">cle – Ci</tspan><tspan class="cls-29" x="319.64" y="0">r</tspan><tspan x="331.42" y="0">cular view</tspan></text></g></g></svg>