<?xml version="1.0" encoding="utf-8"?>
<!-- Generator: Adobe Illustrator 22.0.1, SVG Export Plug-In . SVG Version: 6.00 Build 0)  -->
<svg version="1.1" id="Layer_1" xmlns="http://www.w3.org/2000/svg" xmlns:xlink="http://www.w3.org/1999/xlink" x="0px" y="0px"
	 viewBox="0 0 1439.2 797.9" style="enable-background:new 0 0 1439.2 797.9;" xml:space="preserve">
<style type="text/css">
	.st0{fill:#FFFFFF;}
	.st1{fill:#006DD1;}
	.st2{opacity:0.8;fill:#FFFFFF;}
	.st3{fill:#AEB5BC;}
	.st4{display:none;}
	.st5{display:inline;fill:#FFFFFF;}
	.st6{opacity:0.5;fill:#FFFFFF;}
	.st7{fill:none;stroke:#000000;stroke-miterlimit:10;}
	.st8{opacity:0.5;}
	.st9{fill:#D2D2D2;}
	.st10{fill:none;stroke:#D2D2D2;stroke-miterlimit:10;}
	.st11{fill:none;stroke:#333333;stroke-miterlimit:10;}
	.st12{fill:#333333;}
	.st13{fill:#B9BEC1;}
	.st14{fill:#E8EEF1;}
	.st15{fill:#EEEEEE;}
	.st16{fill:#CCCCCC;}
	.st17{fill:#999999;}
	.st18{opacity:0.5;enable-background:new    ;}
	.st19{opacity:0.5;fill:#666666;enable-background:new    ;}
	.st20{opacity:0.5;fill:#0000EE;enable-background:new    ;}
</style>
<symbol  id="top-bar" viewBox="-719 -771.8 1438 798">
	<rect x="-719" y="-771.8" class="st0" width="1438" height="798"/>
	<rect x="-719" y="-26.2" class="st1" width="1438" height="52.5"/>
	<path class="st2" d="M-124.5-16.2h-346c-1.1,0-2,0.9-2,2v28.5c0,1.1,0.9,2,2,2h346c1.1,0,2-0.9,2-2v-28.5
		C-122.5-15.4-123.4-16.2-124.5-16.2z"/>
	<g>
		<circle class="st3" cx="686.7" cy="-0.2" r="15.9"/>
		<circle class="st0" cx="686.4" cy="2.3" r="6.9"/>
		<path class="st0" d="M675.6-8.6c0,0,4.1-5.6,10.9-5.6s10.9,5.3,10.9,5.6c0,0.3-0.2,1.4-1.6,2.8c-1.4,1.4-3.4,1.3-3.6,1.2
			s-2.6-2.1-5.7-2.1c-3.1,0-5.5,2.2-5.9,2.1s-2.4-0.1-3.4-1.1S675.3-8,675.6-8.6z"/>
	</g>
	<g>
		<path class="st0" d="M589.3-2.7c0,0,0.1,0,0.2-0.1c0.2-0.1,0.4-0.1,0.8-0.1s0.7,0.1,1.1,0.2c0.3,0.1,0.6,0.3,0.9,0.6
			c0.3,0.3,0.5,0.5,0.6,0.9s0.2,0.7,0.2,1.1s-0.1,0.7-0.2,1.1s-0.3,0.6-0.6,0.9c-0.3,0.3-0.5,0.5-0.9,0.6c-0.3,0.1-0.7,0.2-1.1,0.2
			s-0.7-0.1-1.1-0.2c-0.3-0.1-0.6-0.3-0.9-0.6s-0.5-0.5-0.6-0.9c-0.1-0.3-0.2-0.7-0.2-1.1s0.1-0.7,0.2-1.1c0.1-0.3,0.3-0.6,0.6-0.9
			S589-2.6,589.3-2.7 M588.9,3.4c0,0,0.1,0,0.4,0.1c0.2,0.1,0.6,0.1,1.1,0.1s1-0.1,1.5-0.3c0.5-0.2,0.9-0.5,1.2-0.8
			c0.4-0.4,0.6-0.8,0.8-1.2s0.3-1,0.3-1.5c0-0.5-0.1-1-0.3-1.5s-0.5-0.9-0.8-1.2c-0.4-0.4-0.8-0.6-1.2-0.8c-0.5-0.2-1-0.3-1.5-0.3
			s-1,0.1-1.5,0.3c-0.5,0.2-0.9,0.5-1.2,0.8c-0.4,0.4-0.6,0.8-0.8,1.2c-0.2,0.5-0.3,1-0.3,1.5c0,0.5,0.1,1,0.3,1.5
			c0.2,0.5,0.5,0.9,0.8,1.2C588,2.9,588.4,3.2,588.9,3.4 M597.1-0.7c0,0.2,0,0.4,0,0.6s0,0.5-0.1,0.9l2.4,1.5l-0.9,2.1l-2.8-0.6
			c-0.4,0.4-0.8,0.9-1.4,1.4L595,8l-2.1,0.9l-1.5-2.4c-0.4,0-0.7,0.1-0.9,0.1s-0.4,0-0.6,0l-0.5,0l-1.5,2.4L585.7,8l0.6-2.8
			c-0.4-0.4-0.9-0.8-1.4-1.4l-2.8,0.6l-0.9-2.1l2.4-1.5l0-0.5c0-0.2,0-0.4,0-0.6s0-0.5,0.1-0.9l-2.4-1.5l0.9-2.1l2.8,0.6
			c0.4-0.4,0.8-0.9,1.4-1.4l-0.6-2.8l2.1-0.9l1.5,2.4c0.4,0,0.7-0.1,0.9-0.1s0.4,0,0.6,0l0.5,0l1.5-2.4l2.1,0.9l-0.6,2.8
			c0.4,0.4,0.9,0.8,1.4,1.4l2.8-0.6l0.9,2.1L597-1.2L597.1-0.7 M590.6-8c0,0-0.1,0-0.2,0s-0.1,0-0.2,0H590l-1.7-2.7l-4,1.6l0.7,3.1
			c-0.2,0.2-0.4,0.3-0.5,0.5l-3.1-0.7l-1.6,4l2.7,1.7v0.2c0,0,0,0.1,0,0.2s0,0.1,0,0.2v0.2l-2.7,1.7l1.6,4l3.1-0.7
			c0.2,0.2,0.3,0.4,0.5,0.5l-0.7,3.1l4,1.6l1.7-2.7c0.1,0,0.1,0,0.2,0h0.4c0,0,0.1,0,0.2,0l1.7,2.7l4-1.6l-0.7-3.1
			c0.2-0.2,0.4-0.3,0.5-0.5l3.1,0.7l1.6-4l-2.7-1.7c0-0.1,0-0.1,0-0.2v-0.4c0,0,0-0.1,0-0.2l2.7-1.7l-1.6-4l-3.1,0.7
			c-0.2-0.2-0.3-0.4-0.5-0.5l0.7-3.1l-4-1.6L590.8-8H590.6z"/>
	</g>
	<g class="st4">
		<rect x="-701.1" y="6.1" class="st5" width="3.4" height="3.4"/>
		<rect x="-694.4" y="6.1" class="st5" width="3.4" height="3.4"/>
		<rect x="-687.7" y="6.1" class="st5" width="3.4" height="3.4"/>
		<rect x="-701.1" y="-0.5" class="st5" width="3.4" height="3.4"/>
		<rect x="-694.4" y="-0.5" class="st5" width="3.4" height="3.4"/>
		<rect x="-687.7" y="-0.5" class="st5" width="3.4" height="3.4"/>
		<rect x="-701.1" y="-7.5" class="st5" width="3.4" height="3.4"/>
		<rect x="-694.4" y="-7.5" class="st5" width="3.4" height="3.4"/>
		<rect x="-687.7" y="-7.5" class="st5" width="3.4" height="3.4"/>
	</g>
	<g>
		<path class="st0" d="M635.6-10.5h-1.3v1.3h1.3V-10.5 M630.7,9.1c0,0,0.3,0.3,0.9,0.9c0.6,0.6,1.7,0.9,3.4,0.9s3.1-0.6,4.2-1.8
			c1.2-1.2,1.8-2.5,1.8-4.1s-0.3-2.7-1-3.4c-0.7-0.7-1.2-1.3-1.7-1.7l-0.2-0.2c-0.8-0.7-1.3-1.3-1.6-1.7c-0.6-0.8-0.9-1.6-0.9-2.5
			v-2h-1.3v2c0,1.4,0.3,2.5,1,3.2c0.7,0.7,1.2,1.3,1.7,1.7l0.2,0.1c0.8,0.8,1.4,1.3,1.7,1.7c0.6,0.8,0.9,1.6,0.9,2.3s-0.1,1.4-0.4,2
			c-0.2,0.6-0.7,1.2-1.4,1.9s-1.6,1-2.9,1s-2.4-0.5-3.3-1.4c-0.9-0.9-1.4-2-1.4-3.3H629C629,6.5,629.5,7.9,630.7,9.1z"/>
	</g>
	<g>
		<path class="st0" d="M549.1-6.2v-1.5h-6c0-0.4-0.1-0.8-0.2-1.2c-0.2-0.4-0.4-0.7-0.6-1s-0.6-0.5-1-0.6c-0.4-0.2-0.8-0.2-1.2-0.2
			c-0.4,0-0.8,0.1-1.2,0.2c-0.4,0.2-0.7,0.4-1,0.6s-0.5,0.6-0.6,1c-0.2,0.4-0.2,0.8-0.2,1.2h-6v1.5h1.5v9c0,0.7,0.1,1.3,0.3,2
			s0.4,1.2,0.8,1.8c0.3,0.6,0.7,1.1,1.2,1.5c0.5,0.5,1,0.8,1.5,1.2c0.6,0.3,1.2,0.6,1.8,0.8c0.6,0.2,1.3,0.3,2,0.3s1.3-0.1,2-0.3
			s1.2-0.4,1.8-0.8c0.6-0.3,1.1-0.7,1.5-1.2c0.5-0.5,0.8-1,1.2-1.5c0.3-0.6,0.6-1.2,0.8-1.8s0.3-1.3,0.3-2v-9H549.1 M546.1-6.2v9
			c0,0.8-0.2,1.6-0.5,2.3c-0.3,0.7-0.7,1.4-1.3,1.9c-0.5,0.5-1.2,1-1.9,1.3c-0.7,0.3-1.5,0.5-2.3,0.5c-0.8,0-1.6-0.2-2.3-0.5
			c-0.7-0.3-1.4-0.7-1.9-1.3c-0.5-0.5-1-1.2-1.3-1.9c-0.3-0.7-0.5-1.5-0.5-2.3v-9H546.1 M540.1-9.2c0.2,0,0.4,0,0.6,0.1
			c0.2,0.1,0.3,0.2,0.5,0.3c0.1,0.1,0.2,0.3,0.3,0.5c0.1,0.2,0.1,0.4,0.1,0.6h-3c0-0.2,0-0.4,0.1-0.6c0.1-0.2,0.2-0.3,0.3-0.5
			c0.1-0.1,0.3-0.2,0.5-0.3C539.7-9.1,539.9-9.2,540.1-9.2z"/>
	</g>
	<g>
		<path class="st1" d="M-451.1-2c0,0,0.1-0.1,0.4-0.2s0.7-0.2,1.3-0.2s1.2,0.1,1.7,0.3s1,0.6,1.4,1s0.7,0.9,1,1.4s0.3,1.1,0.3,1.7
			s-0.1,1.2-0.3,1.7s-0.6,1-1,1.4s-0.9,0.7-1.4,1s-1.1,0.3-1.7,0.3s-1.2-0.1-1.7-0.3s-1-0.6-1.4-1s-0.7-0.9-1-1.4s-0.3-1.1-0.3-1.7
			s0.1-1.2,0.3-1.7s0.6-1,1-1.4S-451.7-1.8-451.1-2 M-454.9,2.1c0,1.5,0.4,2.7,1.3,3.6s1.7,1.4,2.4,1.6s1.6,0.3,2.6,0.3
			s1.9-0.4,2.8-1.3s1.4-1.7,1.6-2.4s0.3-1.6,0.3-2.6s-0.4-1.9-1.3-2.8s-1.7-1.4-2.4-1.6s-1.3-0.3-1.8-0.3c-1.3,0-2.5,0.4-3.5,1.3
			l-6.1-6.1c-0.1-0.1-0.2-0.1-0.4-0.1s-0.3,0-0.4,0.1c-0.1,0.1-0.1,0.2-0.1,0.4c0,0.1,0,0.3,0.1,0.4l6.1,6.1
			C-454.5-0.3-454.9,0.8-454.9,2.1z"/>
	</g>
	<g>
		<path class="st0" d="M-684.7-3v-4h-4v4H-684.7 M-690.7-3v-4h-4v4H-690.7 M-696.7-3v-4h-4v4H-696.7 M-684.7,3v-4h-4v4H-684.7
			 M-690.7,3v-4h-4v4H-690.7 M-696.7,3v-4h-4v4H-696.7 M-684.7,9V5h-4v4H-684.7 M-690.7,9V5h-4v4H-690.7 M-696.7,9V5h-4v4H-696.7z"
			/>
	</g>
	<rect x="-653.3" y="-5.8" class="st6" width="101.7" height="12.5"/>
</symbol>
<symbol  id="website-locals-bar" viewBox="-719 -26.2 1438 52.5">
	<rect x="-719" y="-26.2" class="st1" width="1438" height="52.5"/>
	<rect x="-719" y="-26.2" class="st2" width="1438" height="52.5"/>
	<g>
		<rect x="-390" y="-19.1" class="st7" width="145.3" height="38.3"/>
		<rect x="-704.1" y="-19.1" class="st7" width="288.3" height="38.3"/>
		<g>
			<path d="M-445.7,4.6l7.3-7.3l7.3,7.3l0.7-0.7l-8-8l-8,8L-445.7,4.6z"/>
		</g>
		<g>
			<path d="M-270.3,4.4l7.3-7.3l7.3,7.3l0.7-0.7l-8-8l-8,8L-270.3,4.4z"/>
		</g>
		<rect x="-692.2" y="-4.4" class="st8" width="143" height="11.2"/>
		<rect x="-375.4" y="-4.4" class="st8" width="41.9" height="11.2"/>
	</g>
</symbol>
<g>
	
		<use xlink:href="#top-bar"  width="1438" height="798" id="XMLID_21_" x="-719" y="-771.8" transform="matrix(1 0 0 -1 719 26.2487)" style="overflow:visible;"/>
	<rect x="13.4" y="117.1" class="st9" width="120.8" height="35.8"/>
	<rect x="153.4" y="117.1" class="st9" width="120.8" height="35.8"/>
	<rect x="292.5" y="117.1" class="st9" width="120.8" height="35.8"/>
	<rect x="434.4" y="117.1" class="st9" width="120.8" height="35.8"/>
	<rect x="575.3" y="117.1" class="st9" width="120.8" height="35.8"/>
	<rect x="714.3" y="117.1" class="st9" width="120.8" height="35.8"/>
	<line class="st10" x1="0" y1="165" x2="1438" y2="165"/>
	<line class="st10" x1="1077.8" y1="165" x2="1077.8" y2="798"/>
	<g>
		<rect x="220.4" y="195.3" class="st11" width="170.4" height="34"/>
	</g>
	<g>
		<rect x="15.4" y="195.3" class="st11" width="170.4" height="34"/>
	</g>
	<g>
		<g>
			<path class="st9" d="M1021.1,228.8h-39v-32c0-0.6,0.4-1,1-1h38V228.8z"/>
			<g>
				<g>
					<path class="st12" d="M1000,206v4.8h-6.5V206H1000 M1001,205h-8.5v6.8h8.5V205L1001,205z"/>
				</g>
				<g>
					<path class="st12" d="M1000,213.8v4.8h-6.5v-4.8H1000 M1001,212.8h-8.5v6.8h8.5V212.8L1001,212.8z"/>
				</g>
				<g>
					<path class="st12" d="M1009.6,206v4.8h-6.5V206H1009.6 M1010.6,205h-8.5v6.8h8.5V205L1010.6,205z"/>
				</g>
				<g>
					<path class="st12" d="M1009.6,213.8v4.8h-6.5v-4.8H1009.6 M1010.6,212.8h-8.5v6.8h8.5V212.8L1010.6,212.8z"/>
				</g>
			</g>
			<line class="st11" x1="1021.4" y1="195.8" x2="1021.4" y2="228.8"/>
			<path class="st11" d="M1059.1,228.8h-75c-1.1,0-2-0.9-2-2v-29c0-1.1,0.9-2,2-2h75c1.1,0,2,0.9,2,2v29
				C1061.1,227.9,1060.2,228.8,1059.1,228.8z"/>
			<g>
				<path d="M1031.1,214.8v-1.2h1.2v1.2H1031.1 M1031.1,211v-1.2h1.2v1.2H1031.1 M1034.9,211v-1.2h16.2v1.2H1034.9 M1031.1,207.3
					V206h1.2v1.2H1031.1 M1034.9,206h16.2v1.2h-16.2V206 M1034.9,214.8v-1.2h16.2v1.2H1034.9 M1031.1,218.5v-1.2h1.2v1.2H1031.1
					 M1034.9,218.5v-1.2h16.2v1.2H1034.9z"/>
			</g>
		</g>
	</g>
	<polygon points="163.4,217.4 155.2,209.2 155.9,208.5 163.4,216 170.8,208.6 171.5,209.3 	"/>
	<polygon points="369.4,215.8 361.1,207.5 361.9,206.8 369.4,214.4 376.7,207 377.5,207.7 	"/>
	<g>
		<g>
			<g>
				<g>
					<rect x="14.2" y="259.6" class="st13" width="232.3" height="138"/>
				</g>
				<path class="st14" d="M229.1,274.1H30.5c-1,0-1.8,0.8-1.8,1.8v106.5c0,1,0.8,1.8,1.8,1.8h198.6c1,0,1.8-0.8,1.8-1.8V275.9
					C230.9,274.9,230.1,274.1,229.1,274.1z M56.1,284.7c9,0,16.2,7.3,16.2,16.2c0,9-7.3,16.2-16.2,16.2s-16.2-7.3-16.2-16.2
					C39.8,292,47.1,284.7,56.1,284.7z M159.5,372.6H39.8v-16.7l27-27l13.9,14l43.5-43.9l35.1,35.4v38.2H159.5z"/>
				<polyline class="st13" points="159.5,372.6 218.8,372.6 218.8,326.6 176.9,284.7 141.3,320.3 				"/>
			</g>
		</g>
		<g>
			<g>
				<g>
					<rect x="278.1" y="259.6" class="st13" width="232.3" height="138"/>
				</g>
				<path class="st14" d="M492.9,274.1H294.3c-1,0-1.8,0.8-1.8,1.8v106.5c0,1,0.8,1.8,1.8,1.8h198.6c1,0,1.8-0.8,1.8-1.8V275.9
					C494.8,274.9,493.9,274.1,492.9,274.1z M319.9,284.7c9,0,16.2,7.3,16.2,16.2c0,9-7.3,16.2-16.2,16.2s-16.2-7.3-16.2-16.2
					C303.7,292,311,284.7,319.9,284.7z M423.3,372.6H303.7v-16.7l27-27l13.9,14l43.5-43.9l35.1,35.4L423.3,372.6L423.3,372.6z"/>
				<polyline class="st13" points="423.3,372.6 482.6,372.6 482.6,326.6 440.8,284.7 405.2,320.3 				"/>
			</g>
		</g>
		<g>
			<g>
				<g>
					<rect x="542.2" y="259.6" class="st13" width="232.3" height="138"/>
				</g>
				<path class="st14" d="M757.1,274.1H558.5c-1,0-1.8,0.8-1.8,1.8v106.5c0,1,0.8,1.8,1.8,1.8h198.6c1,0,1.8-0.8,1.8-1.8V275.9
					C758.9,274.9,758.1,274.1,757.1,274.1z M584.1,284.7c9,0,16.2,7.3,16.2,16.2c0,9-7.3,16.2-16.2,16.2c-9,0-16.2-7.3-16.2-16.2
					C567.8,292,575.1,284.7,584.1,284.7z M687.5,372.6H567.8v-16.7l27-27l13.9,14l43.5-43.9l35.1,35.4v38.2H687.5z"/>
				<polyline class="st13" points="687.5,372.6 746.8,372.6 746.8,326.6 704.9,284.7 669.3,320.3 				"/>
			</g>
		</g>
		<g>
			<g>
				<g>
					<rect x="806.4" y="259.6" class="st13" width="232.3" height="138"/>
				</g>
				<path class="st14" d="M1021.2,274.1H822.6c-1,0-1.8,0.8-1.8,1.8v106.5c0,1,0.8,1.8,1.8,1.8h198.6c1,0,1.8-0.8,1.8-1.8V275.9
					C1023,274.9,1022.2,274.1,1021.2,274.1z M848.2,284.7c9,0,16.2,7.3,16.2,16.2c0,9-7.3,16.2-16.2,16.2c-9,0-16.2-7.3-16.2-16.2
					S839.2,284.7,848.2,284.7z M951.6,372.6H832v-16.7l27-27l13.9,14l43.5-43.9l35.1,35.4L951.6,372.6L951.6,372.6z"/>
				<polyline class="st13" points="951.6,372.6 1010.9,372.6 1010.9,326.6 969,284.7 933.5,320.3 				"/>
			</g>
		</g>
	</g>
	<g>
		<g>
			<g>
				<g>
					<rect x="14.2" y="481.5" class="st13" width="232.3" height="138"/>
				</g>
				<path class="st14" d="M229.1,495.9H30.5c-1,0-1.8,0.8-1.8,1.8v106.5c0,1,0.8,1.8,1.8,1.8h198.6c1,0,1.8-0.8,1.8-1.8V497.8
					C230.9,496.8,230.1,495.9,229.1,495.9z M56.1,506.6c9,0,16.2,7.3,16.2,16.2c0,9-7.3,16.2-16.2,16.2s-16.2-7.3-16.2-16.2
					C39.8,513.8,47.1,506.6,56.1,506.6z M159.5,594.4H39.8v-16.7l27-27l13.9,14l43.5-43.9l35.1,35.4v38.2H159.5z"/>
				<polyline class="st13" points="159.5,594.4 218.8,594.4 218.8,548.4 176.9,506.6 141.3,542.2 				"/>
			</g>
		</g>
		<g>
			<g>
				<g>
					<rect x="278.1" y="481.5" class="st13" width="232.3" height="138"/>
				</g>
				<path class="st14" d="M492.9,495.9H294.3c-1,0-1.8,0.8-1.8,1.8v106.5c0,1,0.8,1.8,1.8,1.8h198.6c1,0,1.8-0.8,1.8-1.8V497.8
					C494.8,496.8,493.9,495.9,492.9,495.9z M319.9,506.6c9,0,16.2,7.3,16.2,16.2c0,9-7.3,16.2-16.2,16.2s-16.2-7.3-16.2-16.2
					C303.7,513.8,311,506.6,319.9,506.6z M423.3,594.4H303.7v-16.7l27-27l13.9,14l43.5-43.9l35.1,35.4L423.3,594.4L423.3,594.4z"/>
				<polyline class="st13" points="423.3,594.4 482.6,594.4 482.6,548.4 440.8,506.6 405.2,542.2 				"/>
			</g>
		</g>
		<g>
			<g>
				<g>
					<rect x="542.2" y="481.5" class="st13" width="232.3" height="138"/>
				</g>
				<path class="st14" d="M757.1,495.9H558.5c-1,0-1.8,0.8-1.8,1.8v106.5c0,1,0.8,1.8,1.8,1.8h198.6c1,0,1.8-0.8,1.8-1.8V497.8
					C758.9,496.8,758.1,495.9,757.1,495.9z M584.1,506.6c9,0,16.2,7.3,16.2,16.2c0,9-7.3,16.2-16.2,16.2c-9,0-16.2-7.3-16.2-16.2
					C567.8,513.8,575.1,506.6,584.1,506.6z M687.5,594.4H567.8v-16.7l27-27l13.9,14l43.5-43.9l35.1,35.4v38.2H687.5z"/>
				<polyline class="st13" points="687.5,594.4 746.8,594.4 746.8,548.4 704.9,506.6 669.3,542.2 				"/>
			</g>
		</g>
		<g>
			<g>
				<g>
					<rect x="806.4" y="481.5" class="st13" width="232.3" height="138"/>
				</g>
				<path class="st14" d="M1021.2,495.9H822.6c-1,0-1.8,0.8-1.8,1.8v106.5c0,1,0.8,1.8,1.8,1.8h198.6c1,0,1.8-0.8,1.8-1.8V497.8
					C1023,496.8,1022.2,495.9,1021.2,495.9z M848.2,506.6c9,0,16.2,7.3,16.2,16.2c0,9-7.3,16.2-16.2,16.2c-9,0-16.2-7.3-16.2-16.2
					C832,513.8,839.2,506.6,848.2,506.6z M951.6,594.4H832v-16.7l27-27l13.9,14l43.5-43.9l35.1,35.4L951.6,594.4L951.6,594.4z"/>
				<polyline class="st13" points="951.6,594.4 1010.9,594.4 1010.9,548.4 969,506.6 933.5,542.2 				"/>
			</g>
		</g>
	</g>
	<g>
		<g>
			<path class="st15" d="M1057.6,783.1c-1.9,0-3.5-1.6-3.5-3.5V263.4c0-1.9,1.6-3.5,3.5-3.5s3.5,1.6,3.5,3.5v516.2
				C1061.1,781.5,1059.6,783.1,1057.6,783.1z"/>
			<path class="st16" d="M1057.6,260.4c1.7,0,3,1.3,3,3v516.2c0,1.7-1.3,3-3,3s-3-1.3-3-3V263.4
				C1054.6,261.8,1056,260.4,1057.6,260.4 M1057.6,259.4c-2.2,0-4,1.8-4,4v516.2c0,2.2,1.8,4,4,4s4-1.8,4-4V263.4
				C1061.6,261.2,1059.8,259.4,1057.6,259.4L1057.6,259.4z"/>
		</g>
		<path class="st17" d="M1057.6,398.7L1057.6,398.7c-2.2,0-4-1.8-4-4V263.6c0-2.2,1.8-4,4-4l0,0c2.2,0,4,1.8,4,4v131.1
			C1061.6,396.9,1059.8,398.7,1057.6,398.7z"/>
	</g>
	<g>
		<rect x="22.2" y="267.3" class="st1" width="13.3" height="13.3"/>
		<path class="st0" d="M33.4,270.9l-0.4-0.4c-0.1-0.1-0.3-0.1-0.4,0l-5.5,5.5l-2.3-2.3c-0.1-0.1-0.3-0.1-0.4,0l-0.4,0.4
			c-0.1,0.1-0.1,0.3,0,0.4l2.9,2.9c0.1,0.1,0.3,0.1,0.4,0l0.6-0.6l0,0l5.5-5.5C33.5,271.2,33.5,271,33.4,270.9z"/>
		<path class="st1" d="M34.5,267.5c0.3,0,0.6,0.3,0.6,0.6v11.6c0,0.3-0.3,0.6-0.6,0.6H22.8c-0.3,0-0.6-0.3-0.6-0.6v-11.6
			c0-0.3,0.3-0.6,0.6-0.6H34.5 M34.5,266.4H22.8c-0.9,0-1.7,0.8-1.7,1.7v11.6c0,0.9,0.8,1.7,1.7,1.7h11.6c0.9,0,1.7-0.8,1.7-1.7
			v-11.6C36.1,267.2,35.4,266.4,34.5,266.4L34.5,266.4z"/>
	</g>
	<g>
		<g>
			<g>
				<rect x="286.1" y="267.2" class="st0" width="13.3" height="13.3"/>
				<path class="st12" d="M298.3,267.5c0.3,0,0.6,0.3,0.6,0.6v11.6c0,0.3-0.3,0.6-0.6,0.6h-11.6c-0.3,0-0.6-0.3-0.6-0.6v-11.6
					c0-0.3,0.3-0.6,0.6-0.6H298.3 M298.3,266.4h-11.6c-0.9,0-1.7,0.8-1.7,1.7v11.6c0,0.9,0.8,1.7,1.7,1.7h11.6
					c0.9,0,1.7-0.8,1.7-1.7v-11.6C300,267.2,299.3,266.4,298.3,266.4L298.3,266.4z"/>
			</g>
			<g>
				<rect x="551.7" y="267.2" class="st0" width="13.3" height="13.3"/>
				<path class="st12" d="M564,267.5c0.3,0,0.6,0.3,0.6,0.6v11.6c0,0.3-0.3,0.6-0.6,0.6h-11.6c-0.3,0-0.6-0.3-0.6-0.6v-11.6
					c0-0.3,0.3-0.6,0.6-0.6H564 M564,266.4h-11.6c-0.9,0-1.7,0.8-1.7,1.7v11.6c0,0.9,0.8,1.7,1.7,1.7H564c0.9,0,1.7-0.8,1.7-1.7
					v-11.6C565.6,267.2,564.9,266.4,564,266.4L564,266.4z"/>
			</g>
			<g>
				<rect x="815.6" y="267.2" class="st0" width="13.3" height="13.3"/>
				<path class="st12" d="M827.8,267.5c0.3,0,0.6,0.3,0.6,0.6v11.6c0,0.3-0.3,0.6-0.6,0.6h-11.6c-0.3,0-0.6-0.3-0.6-0.6v-11.6
					c0-0.3,0.3-0.6,0.6-0.6H827.8 M827.8,266.4h-11.6c-0.9,0-1.7,0.8-1.7,1.7v11.6c0,0.9,0.8,1.7,1.7,1.7h11.6
					c0.9,0,1.7-0.8,1.7-1.7v-11.6C829.5,267.2,828.8,266.4,827.8,266.4L827.8,266.4z"/>
			</g>
		</g>
		<g>
			<g>
				<rect x="22.2" y="489.2" class="st0" width="13.3" height="13.3"/>
				<path class="st12" d="M34.5,489.5c0.3,0,0.6,0.3,0.6,0.6v11.6c0,0.3-0.3,0.6-0.6,0.6H22.8c-0.3,0-0.6-0.3-0.6-0.6v-11.6
					c0-0.3,0.3-0.6,0.6-0.6H34.5 M34.5,488.4H22.8c-0.9,0-1.7,0.8-1.7,1.7v11.6c0,0.9,0.8,1.7,1.7,1.7h11.6c0.9,0,1.7-0.8,1.7-1.7
					v-11.6C36.1,489.2,35.4,488.4,34.5,488.4L34.5,488.4z"/>
			</g>
			<g>
				<rect x="286.1" y="489.1" class="st0" width="13.3" height="13.3"/>
				<path class="st12" d="M298.3,489.4c0.3,0,0.6,0.3,0.6,0.6v11.6c0,0.3-0.3,0.6-0.6,0.6h-11.6c-0.3,0-0.6-0.3-0.6-0.6V490
					c0-0.3,0.3-0.6,0.6-0.6H298.3 M298.3,488.3h-11.6c-0.9,0-1.7,0.8-1.7,1.7v11.6c0,0.9,0.8,1.7,1.7,1.7h11.6
					c0.9,0,1.7-0.8,1.7-1.7V490C300,489.1,299.3,488.3,298.3,488.3L298.3,488.3z"/>
			</g>
			<g>
				<rect x="551.7" y="489.1" class="st0" width="13.3" height="13.3"/>
				<path class="st12" d="M564,489.4c0.3,0,0.6,0.3,0.6,0.6v11.6c0,0.3-0.3,0.6-0.6,0.6h-11.6c-0.3,0-0.6-0.3-0.6-0.6V490
					c0-0.3,0.3-0.6,0.6-0.6H564 M564,488.3h-11.6c-0.9,0-1.7,0.8-1.7,1.7v11.6c0,0.9,0.8,1.7,1.7,1.7H564c0.9,0,1.7-0.8,1.7-1.7V490
					C565.6,489.1,564.9,488.3,564,488.3L564,488.3z"/>
			</g>
			<g>
				<rect x="815.6" y="489.1" class="st0" width="13.3" height="13.3"/>
				<path class="st12" d="M827.8,489.4c0.3,0,0.6,0.3,0.6,0.6v11.6c0,0.3-0.3,0.6-0.6,0.6h-11.6c-0.3,0-0.6-0.3-0.6-0.6V490
					c0-0.3,0.3-0.6,0.6-0.6H827.8 M827.8,488.3h-11.6c-0.9,0-1.7,0.8-1.7,1.7v11.6c0,0.9,0.8,1.7,1.7,1.7h11.6
					c0.9,0,1.7-0.8,1.7-1.7V490C829.5,489.1,828.8,488.3,827.8,488.3L827.8,488.3z"/>
			</g>
		</g>
		<g>
			<g>
				<rect x="22.2" y="710.1" class="st0" width="13.3" height="13.3"/>
				<path class="st12" d="M34.5,710.4c0.3,0,0.6,0.3,0.6,0.6v11.6c0,0.3-0.3,0.6-0.6,0.6H22.8c-0.3,0-0.6-0.3-0.6-0.6V711
					c0-0.3,0.3-0.6,0.6-0.6H34.5 M34.5,709.3H22.8c-0.9,0-1.7,0.8-1.7,1.7v11.6c0,0.9,0.8,1.7,1.7,1.7h11.6c0.9,0,1.7-0.8,1.7-1.7
					V711C36.1,710.1,35.4,709.3,34.5,709.3L34.5,709.3z"/>
			</g>
			<g>
				<rect x="286.1" y="710.1" class="st0" width="13.3" height="13.3"/>
				<path class="st12" d="M298.3,710.3c0.3,0,0.6,0.3,0.6,0.6v11.6c0,0.3-0.3,0.6-0.6,0.6h-11.6c-0.3,0-0.6-0.3-0.6-0.6v-11.6
					c0-0.3,0.3-0.6,0.6-0.6H298.3 M298.3,709.3h-11.6c-0.9,0-1.7,0.8-1.7,1.7v11.6c0,0.9,0.8,1.7,1.7,1.7h11.6
					c0.9,0,1.7-0.8,1.7-1.7V711C300,710,299.3,709.3,298.3,709.3L298.3,709.3z"/>
			</g>
			<g>
				<rect x="551.7" y="710.1" class="st0" width="13.3" height="13.3"/>
				<path class="st12" d="M564,710.3c0.3,0,0.6,0.3,0.6,0.6v11.6c0,0.3-0.3,0.6-0.6,0.6h-11.6c-0.3,0-0.6-0.3-0.6-0.6v-11.6
					c0-0.3,0.3-0.6,0.6-0.6H564 M564,709.3h-11.6c-0.9,0-1.7,0.8-1.7,1.7v11.6c0,0.9,0.8,1.7,1.7,1.7H564c0.9,0,1.7-0.8,1.7-1.7V711
					C565.6,710,564.9,709.3,564,709.3L564,709.3z"/>
			</g>
			<g>
				<rect x="815.6" y="710.1" class="st0" width="13.3" height="13.3"/>
				<path class="st12" d="M827.8,710.3c0.3,0,0.6,0.3,0.6,0.6v11.6c0,0.3-0.3,0.6-0.6,0.6h-11.6c-0.3,0-0.6-0.3-0.6-0.6v-11.6
					c0-0.3,0.3-0.6,0.6-0.6H827.8 M827.8,709.3h-11.6c-0.9,0-1.7,0.8-1.7,1.7v11.6c0,0.9,0.8,1.7,1.7,1.7h11.6
					c0.9,0,1.7-0.8,1.7-1.7V711C829.5,710,828.8,709.3,827.8,709.3L827.8,709.3z"/>
			</g>
		</g>
	</g>
	<rect x="1095.6" y="186.1" class="st18" width="104.1" height="16.5"/>
	<rect x="1095.6" y="246" class="st18" width="63.8" height="16.5"/>
	<rect x="1095.6" y="228.4" class="st19" width="45.6" height="11.8"/>
	<rect x="1095.6" y="286.4" class="st19" width="60.5" height="11.8"/>
	<rect x="1095.6" y="363.3" class="st19" width="41.6" height="11.8"/>
	<rect x="1095.6" y="423" class="st19" width="45.6" height="11.8"/>
	<rect x="1095.6" y="482.1" class="st19" width="50.4" height="11.8"/>
	<rect x="1095.6" y="557.8" class="st19" width="54.9" height="11.8"/>
	<rect x="1095.6" y="382.1" class="st18" width="190.6" height="16.5"/>
	<rect x="1095.6" y="500.2" class="st18" width="142.9" height="16.5"/>
	<rect x="1095.6" y="521.8" class="st20" width="145.1" height="13.3"/>
	<rect x="1095.6" y="306.3" class="st20" width="260.4" height="13.3"/>
	<rect x="1095.6" y="324.1" class="st20" width="122.6" height="13.3"/>
	<rect x="1095.6" y="598.4" class="st20" width="145.1" height="13.3"/>
	<rect x="1095.6" y="440.3" class="st18" width="142.9" height="16.5"/>
	<rect x="1095.6" y="577.3" class="st18" width="142.9" height="16.5"/>
	<rect x="14.9" y="178.2" class="st18" width="30.9" height="10.7"/>
	<rect x="220.4" y="178.2" class="st18" width="85.2" height="10.7"/>
	<g>
		<rect x="14.2" y="403.3" class="st18" width="80.1" height="10.7"/>
		<rect x="14.2" y="421.6" class="st18" width="52" height="10.7"/>
		<rect x="110" y="421.6" class="st18" width="114" height="10.7"/>
		<rect x="278.1" y="403.9" class="st18" width="80.1" height="10.7"/>
		<rect x="278.1" y="422.2" class="st18" width="52" height="10.7"/>
		<rect x="373.8" y="422.2" class="st18" width="114" height="10.7"/>
		<rect x="542.2" y="403.9" class="st18" width="80.1" height="10.7"/>
		<rect x="542.2" y="422.2" class="st18" width="52" height="10.7"/>
		<rect x="638" y="422.2" class="st18" width="114" height="10.7"/>
		<rect x="806.6" y="403.9" class="st18" width="80.1" height="10.7"/>
		<rect x="806.6" y="422.2" class="st18" width="52" height="10.7"/>
		<rect x="902.3" y="422.2" class="st18" width="114" height="10.7"/>
	</g>
	<g>
		<rect x="14.2" y="626.5" class="st18" width="80.1" height="10.7"/>
		<rect x="14.2" y="644.7" class="st18" width="52" height="10.7"/>
		<rect x="110" y="644.7" class="st18" width="114" height="10.7"/>
		<rect x="278.1" y="627.1" class="st18" width="80.1" height="10.7"/>
		<rect x="278.1" y="645.4" class="st18" width="52" height="10.7"/>
		<rect x="373.8" y="645.4" class="st18" width="114" height="10.7"/>
		<rect x="542.2" y="627.1" class="st18" width="80.1" height="10.7"/>
		<rect x="542.2" y="645.4" class="st18" width="52" height="10.7"/>
		<rect x="638" y="645.4" class="st18" width="114" height="10.7"/>
		<rect x="806.6" y="627.1" class="st18" width="80.1" height="10.7"/>
		<rect x="806.6" y="645.4" class="st18" width="52" height="10.7"/>
		<rect x="902.3" y="645.4" class="st18" width="114" height="10.7"/>
	</g>
	
		<use xlink:href="#website-locals-bar"  width="1438" height="52.5" id="XMLID_20_" x="-719" y="-26.2" transform="matrix(1 0 0 -1 719 78.7513)" style="overflow:visible;"/>
	<path class="st13" d="M56.1,760.8c8.9,0,16.2-7.2,16.2-16.2c0-8.9-7.2-16.2-16.2-16.2s-16.3,7.3-16.2,16.2
		C39.9,753.5,47.2,760.8,56.1,760.8z"/>
	<path class="st13" d="M14.2,703.4v94.5h14.5v-78.3c0-1,0.8-1.8,1.8-1.8h198.6c1,0,1.8,0.8,1.8,1.8v78.3h15.6v-94.5H14.2z"/>
	<path class="st14" d="M66.8,772.6l13.9,14l43.5-43.9l19.1,19.3l33.6-33.6l41.9,41.9v27.6h12.1v-78.3c0-1-0.8-1.8-1.8-1.8H30.5
		c-1,0-1.8,0.8-1.8,1.8v78.3h12.8L66.8,772.6z M56.1,728.4c9,0,16.2,7.3,16.2,16.2c0,9-7.3,16.2-16.2,16.2
		c-8.9,0-16.2-7.3-16.2-16.2C39.8,735.7,47.1,728.4,56.1,728.4z"/>
	<polygon class="st13" points="153.1,797.9 159.3,797.9 159.3,778.1 143.3,762 141.3,764 	"/>
	<g>
		<polygon class="st13" points="80.7,786.6 66.8,772.6 41.5,797.9 153.1,797.9 141.3,764 143.3,762 124.2,742.7 		"/>
		<polygon class="st13" points="176.9,728.4 143.3,762 159.3,778.1 159.3,797.9 218.8,797.9 218.8,770.3 		"/>
	</g>
	<polygon class="st13" points="405.2,764 407.2,762 388.1,742.7 344.6,786.6 330.7,772.6 305.4,797.9 416.9,797.9 	"/>
	<path class="st13" d="M278.1,703.4v94.5h14.4v-78.3c0-1,0.8-1.8,1.8-1.8h198.6c1,0,1.9,0.8,1.8,1.8v78.3h15.7v-94.5H278.1z"/>
	<circle class="st13" cx="319.9" cy="744.6" r="16.2"/>
	<path class="st14" d="M330.7,772.6l13.9,14l43.5-43.9l19.1,19.3l33.6-33.6l41.8,41.9v27.6h12.1v-78.3c0.1-1-0.8-1.8-1.8-1.8H294.3
		c-1,0-1.8,0.8-1.8,1.8v78.3h12.9L330.7,772.6z M319.9,728.4c9,0,16.2,7.3,16.2,16.2c0,9-7.3,16.2-16.2,16.2s-16.2-7.3-16.2-16.2
		S311,728.4,319.9,728.4z"/>
	<polygon class="st13" points="416.9,797.9 423.2,797.9 423.2,778.1 407.2,762 405.2,764 	"/>
	<polygon class="st13" points="440.8,728.4 407.2,762 423.2,778.1 423.2,797.9 482.6,797.9 482.6,770.3 	"/>
	<path class="st13" d="M542.2,703.4v94.5h14.5v-78.3c0-1,0.8-1.8,1.8-1.8h198.6c1,0,1.8,0.8,1.8,1.8v78.3h15.6v-94.5H542.2z"/>
	<polygon class="st13" points="669.3,764 671.3,762 652.2,742.7 608.7,786.6 594.8,772.6 569.5,797.9 681.1,797.9 	"/>
	<path class="st13" d="M584.1,760.8c8.9,0,16.2-7.2,16.2-16.2c0-8.9-7.2-16.2-16.2-16.2s-16.3,7.3-16.2,16.2
		C567.9,753.5,575.1,760.8,584.1,760.8z"/>
	<path class="st14" d="M594.8,772.6l13.9,14l43.5-43.9l19.1,19.3l33.6-33.6l41.9,41.9v27.6h12.1v-78.3c0-1-0.8-1.8-1.8-1.8H558.5
		c-1,0-1.8,0.8-1.8,1.8v78.3h12.8L594.8,772.6z M584.1,728.4c9,0,16.2,7.3,16.2,16.2c0,9-7.3,16.2-16.2,16.2
		c-9,0-16.2-7.3-16.2-16.2C567.8,735.7,575.1,728.4,584.1,728.4z"/>
	<polygon class="st13" points="681.1,797.9 687.3,797.9 687.3,778.1 671.3,762 669.3,764 	"/>
	<polygon class="st13" points="704.9,728.4 671.3,762 687.3,778.1 687.3,797.9 746.8,797.9 746.8,770.3 	"/>
	<polygon class="st13" points="933.5,764 935.5,762 916.4,742.7 872.9,786.6 859,772.6 833.7,797.9 945.2,797.9 	"/>
	<path class="st13" d="M820.8,719.6c0-1,0.8-1.8,1.8-1.8h198.6c1,0,1.8,0.8,1.8,1.8v78.3h15.7v-94.5H806.4v94.5h14.4V719.6z"/>
	<circle class="st13" cx="848.2" cy="744.6" r="16.2"/>
	<path class="st14" d="M1021.2,717.8H822.6c-1,0-1.8,0.8-1.8,1.8v78.3h12.9l25.3-25.3l13.9,14l43.5-43.9l19.1,19.3l33.5-33.6
		l41.9,41.9v27.6h12.1v-78.3C1023,718.6,1022.2,717.8,1021.2,717.8z M848.2,760.8c-9,0-16.2-7.3-16.2-16.2s7.2-16.2,16.2-16.2
		s16.2,7.3,16.2,16.2C864.4,753.6,857.1,760.8,848.2,760.8z"/>
	<polygon class="st13" points="945.2,797.9 951.5,797.9 951.5,778.1 935.5,762 933.5,764 	"/>
	<polygon class="st13" points="951.5,797.9 1010.9,797.9 1010.9,770.3 969,728.4 935.5,762 951.5,778.1 	"/>
</g>
</svg>
