<?xml version="1.0" encoding="utf-8"?>
<!-- Generator: Adobe Illustrator 22.0.1, SVG Export Plug-In . SVG Version: 6.00 Build 0)  -->
<svg version="1.1" id="Layer_1" xmlns="http://www.w3.org/2000/svg" xmlns:xlink="http://www.w3.org/1999/xlink" x="0px" y="0px"
	 viewBox="0 0 404 404" style="enable-background:new 0 0 404 404;" xml:space="preserve">
<style type="text/css">
	.st0{fill:#006DD1;}
	.st1{opacity:0.8;fill:#FFFFFF;}
	.st2{fill:#FFFFFF;}
	.st3{fill:none;}
	.st4{font-family:'SegoeUI';}
	.st5{font-size:4.4951px;}
	.st6{fill:#AEB5BC;}
	.st7{fill:#D2D2D2;}
	.st8{fill:none;stroke:#D2D2D2;stroke-miterlimit:10;}
	.st9{fill:none;stroke:#333333;stroke-width:0.5;stroke-miterlimit:10;}
	.st10{fill:none;stroke:#000000;stroke-width:0.5;stroke-miterlimit:10;}
	.st11{fill:#B9BEC1;}
	.st12{fill:#E8EEF1;}
	.st13{fill:#EEEEEE;}
	.st14{fill:#CCCCCC;}
	.st15{fill:#999999;}
	.st16{fill:#333333;}
	.st17{opacity:0.5;}
	.st18{opacity:0.5;fill:#666666;}
	.st19{opacity:0.5;fill:#0000EE;}
	.st20{opacity:0.5;fill:#FFFFFF;}
</style>
<title>Slice 1</title>
<desc>Created with Sketch.</desc>
<rect x="0" y="0.2" class="st0" width="404" height="14.7"/>
<rect x="0" y="15" class="st0" width="404" height="14.7"/>
<rect x="0" y="29.7" class="st1" width="404" height="374.3"/>
<g>
	<path class="st2" d="M5.6,6H5.2c-0.6,0-1-0.5-1-1v0c0-0.6,0.5-1,1-1h0.4c0.6,0,1,0.5,1,1v0C6.6,5.6,6.2,6,5.6,6z"/>
	<path class="st2" d="M8.6,6H8.2c-0.6,0-1-0.5-1-1v0c0-0.6,0.5-1,1-1h0.4c0.6,0,1,0.5,1,1v0C9.6,5.6,9.2,6,8.6,6z"/>
	<path class="st2" d="M11.5,6h-0.4c-0.6,0-1-0.5-1-1v0c0-0.6,0.5-1,1-1h0.4c0.6,0,1,0.5,1,1v0C12.6,5.6,12.1,6,11.5,6z"/>
	<path class="st2" d="M5.6,8.6H5.2c-0.6,0-1-0.5-1-1v0c0-0.6,0.5-1,1-1h0.4c0.6,0,1,0.5,1,1v0C6.6,8.2,6.2,8.6,5.6,8.6z"/>
	<path class="st2" d="M8.6,8.6H8.2c-0.6,0-1-0.5-1-1v0c0-0.6,0.5-1,1-1h0.4c0.6,0,1,0.5,1,1v0C9.6,8.2,9.2,8.6,8.6,8.6z"/>
	<path class="st2" d="M11.6,8.6h-0.4c-0.6,0-1-0.5-1-1v0c0-0.6,0.5-1,1-1h0.4c0.6,0,1,0.5,1,1v0C12.6,8.2,12.1,8.6,11.6,8.6z"/>
	<path class="st2" d="M5.6,11.2H5.2c-0.6,0-1-0.5-1-1v0c0-0.6,0.5-1,1-1h0.4c0.6,0,1,0.5,1,1v0C6.7,10.8,6.2,11.2,5.6,11.2z"/>
	<path class="st2" d="M8.6,11.2H8.2c-0.6,0-1-0.5-1-1v0c0-0.6,0.5-1,1-1h0.4c0.6,0,1,0.5,1,1v0C9.6,10.8,9.2,11.2,8.6,11.2z"/>
	<path class="st2" d="M11.6,11.2h-0.4c-0.6,0-1-0.5-1-1v0c0-0.6,0.5-1,1-1h0.4c0.6,0,1,0.5,1,1v0C12.6,10.8,12.1,11.2,11.6,11.2z"/>
</g>
<g>
	<path class="st1" d="M165.6,12.2H71.3c-1.1,0-2-0.9-2-2V5c0-1.1,0.9-2,2-2h94.3c1.1,0,2,0.9,2,2v5.1
		C167.6,11.3,166.7,12.2,165.6,12.2z"/>
	<path class="st0" d="M72.9,9.8c0.1,0.1,0.1,0.1,0.2,0l1.3-1.3c0,0,0,0,0,0C74.7,8.8,75.1,9,75.6,9c1,0,1.9-0.8,1.9-1.9
		s-0.8-1.9-1.9-1.9c-1,0-1.9,0.8-1.9,1.9c0,0.5,0.2,0.9,0.4,1.2c0,0,0,0,0,0l-1.3,1.3C72.9,9.7,72.9,9.8,72.9,9.8z M74,7.1
		c0-0.9,0.7-1.6,1.6-1.6c0.9,0,1.6,0.7,1.6,1.6s-0.7,1.6-1.6,1.6C74.7,8.7,74,8,74,7.1z"/>
	<rect x="82.9" y="5.7" class="st3" width="47.5" height="3.8"/>
	<text transform="matrix(1 0 0 1 82.8794 9.0342)" class="st0 st4 st5">Search</text>
</g>
<g>
	<path class="st2" d="M354.1,5.1c0.3,0.1,0.7,0.2,0.9,0.4c0.5,0.4,0.7,0.9,0.7,1.5c0,0.3,0,0.6,0.1,0.9c0.1,0.4,0.2,0.8,0.5,1.1
		c0.3,0.3,0.3,0.7,0,0.9c-0.1,0.1-0.3,0.1-0.4,0.1c-0.4,0-0.8,0-1.2,0c0,0-0.1,0-0.1,0c0,0.3-0.1,0.5-0.4,0.7
		c-0.2,0.1-0.3,0.1-0.5,0.1c-0.4,0-0.6-0.3-0.8-0.8c0,0-0.1,0-0.1,0c-0.4,0-0.8,0-1.2,0c-0.3,0-0.5-0.1-0.6-0.4
		c-0.1-0.3-0.1-0.5,0.1-0.7c0.4-0.4,0.5-0.9,0.6-1.4c0-0.3,0-0.5,0-0.8c0.1-0.9,0.7-1.5,1.6-1.7c0,0,0,0,0,0
		c-0.1-0.2-0.1-0.4,0.1-0.6c0.1-0.1,0.3-0.1,0.5,0C354.2,4.7,354.2,4.9,354.1,5.1z M353.8,9.7c0.7,0,1.4,0,2.2,0
		c0.1,0,0.2,0,0.2-0.1c0-0.1,0-0.2-0.1-0.3c-0.3-0.3-0.5-0.7-0.6-1.1c-0.1-0.4-0.1-0.8-0.1-1.2c0-0.7-0.6-1.3-1.3-1.5
		c-0.9-0.2-1.8,0.5-1.9,1.5c0,0.3,0,0.5,0,0.8c-0.1,0.6-0.2,1.1-0.7,1.5c-0.1,0.1-0.1,0.2-0.1,0.3c0,0.1,0.1,0.1,0.2,0.1
		C352.3,9.7,353,9.7,353.8,9.7z M353.4,10.1c0,0.2,0.2,0.4,0.4,0.4c0.2,0,0.4-0.2,0.4-0.4C353.9,10.1,353.6,10.1,353.4,10.1z"/>
	<g>
		<path class="st2" d="M367,5.3c0-0.1,0-0.1,0-0.2c0-0.1,0.1-0.2,0.2-0.3c0.4-0.1,0.9-0.1,1.3,0c0.1,0,0.2,0.1,0.2,0.3
			c0,0.1,0,0.2,0,0.4c0,0.1,0,0.1,0.1,0.1c0.1,0.1,0.3,0.1,0.4,0.2c0,0,0.1,0,0.1,0c0.1-0.1,0.2-0.1,0.3-0.2c0.1-0.1,0.2-0.1,0.3,0
			c0.3,0.3,0.5,0.7,0.7,1.2c0,0.1,0,0.2-0.1,0.3c-0.1,0.1-0.2,0.1-0.3,0.2c-0.1,0-0.1,0.1-0.1,0.1c0,0.1,0,0.3,0,0.4
			c0,0.1,0,0.1,0.1,0.1c0.1,0.1,0.2,0.1,0.3,0.2c0.1,0.1,0.2,0.2,0.1,0.4c-0.1,0.4-0.4,0.8-0.7,1.1c-0.1,0.1-0.2,0.1-0.3,0.1
			c-0.1-0.1-0.2-0.1-0.3-0.2c0,0-0.1,0-0.1,0c-0.1,0.1-0.3,0.2-0.4,0.2c0,0-0.1,0.1-0.1,0.1c0,0.1,0,0.3,0,0.4
			c0,0.1-0.1,0.2-0.2,0.3c-0.2,0-0.3,0.1-0.5,0.1c-0.3,0-0.6,0-0.9-0.1c-0.2,0-0.2-0.1-0.2-0.3c0-0.1,0-0.2,0-0.4
			c0-0.1,0-0.1-0.1-0.1c-0.1-0.1-0.3-0.1-0.4-0.2c0,0-0.1,0-0.1,0c-0.1,0.1-0.2,0.1-0.3,0.2c-0.2,0.1-0.3,0.1-0.4-0.1
			c-0.3-0.3-0.5-0.7-0.6-1.1c0-0.1,0-0.3,0.1-0.3c0.1-0.1,0.2-0.1,0.3-0.2c0,0,0.1-0.1,0.1-0.1c0-0.1,0-0.3,0-0.4c0,0,0-0.1,0-0.1
			c-0.1-0.1-0.2-0.1-0.3-0.2c-0.1-0.1-0.2-0.2-0.1-0.4c0.1-0.4,0.4-0.8,0.7-1.1c0.1-0.1,0.2-0.1,0.4-0.1c0.1,0.1,0.2,0.1,0.3,0.2
			c0,0,0.1,0,0.1,0c0.1-0.1,0.3-0.2,0.4-0.2c0,0,0.1,0,0.1-0.1C367,5.4,367,5.3,367,5.3C367,5.3,367,5.3,367,5.3z M368.4,5.5
			c0-0.1,0-0.2,0-0.2c0-0.1,0-0.1-0.1-0.1c-0.3,0-0.6,0-0.9,0c-0.1,0-0.1,0-0.1,0.1c0,0.2,0,0.3,0,0.5c0,0,0,0.1-0.1,0.1
			c-0.3,0.1-0.5,0.2-0.7,0.4c0,0-0.1,0-0.1,0c-0.1-0.1-0.3-0.2-0.4-0.2c0,0-0.1,0-0.1,0c-0.2,0.2-0.4,0.5-0.5,0.8c0,0.1,0,0.1,0,0.1
			c0.1,0.1,0.3,0.2,0.4,0.2c0.1,0,0.1,0.1,0.1,0.1c-0.1,0.3-0.1,0.5,0,0.8c0,0.1,0,0.1,0,0.1c-0.1,0.1-0.3,0.2-0.4,0.2
			c0,0-0.1,0.1,0,0.1c0.1,0.3,0.3,0.6,0.5,0.8c0,0,0.1,0,0.1,0c0.1-0.1,0.3-0.2,0.4-0.2c0,0,0.1,0,0.1,0c0.2,0.2,0.5,0.3,0.7,0.4
			c0,0,0.1,0,0.1,0.1c0,0.2,0,0.3,0,0.5c0,0.1,0,0.1,0.1,0.1c0.3,0,0.6,0,0.9,0c0.1,0,0.1,0,0.1-0.1c0-0.2,0-0.3,0-0.5
			c0-0.1,0-0.1,0.1-0.1c0.3-0.1,0.5-0.2,0.7-0.4c0,0,0.1,0,0.1,0c0.1,0.1,0.3,0.2,0.4,0.2c0,0,0.1,0,0.1,0c0.2-0.2,0.4-0.5,0.5-0.8
			c0-0.1,0-0.1,0-0.1c-0.1-0.1-0.3-0.2-0.4-0.2c-0.1,0-0.1-0.1-0.1-0.1c0.1-0.3,0.1-0.5,0-0.8c0-0.1,0-0.1,0.1-0.1
			c0.1-0.1,0.3-0.2,0.4-0.2c0,0,0.1,0,0-0.1c-0.1-0.3-0.3-0.6-0.5-0.8c0,0-0.1,0-0.1,0c-0.1,0.1-0.3,0.2-0.4,0.2c0,0-0.1,0-0.1,0
			c-0.2-0.2-0.4-0.3-0.7-0.4c0,0-0.1,0-0.1-0.1C368.4,5.6,368.4,5.5,368.4,5.5z"/>
		<path class="st2" d="M367.9,6.5c0.6,0,1.1,0.5,1.1,1.1c0,0.6-0.5,1.1-1.1,1.1c-0.6,0-1.1-0.4-1.1-1.1
			C366.7,7.1,367.2,6.6,367.9,6.5z M367.1,7.7c0,0.4,0.3,0.8,0.8,0.8c0.5,0,0.8-0.4,0.8-0.8c0-0.4-0.3-0.8-0.8-0.8
			C367.4,6.9,367.1,7.3,367.1,7.7z"/>
	</g>
	<g>
		<path class="st2" d="M380.2,9c0-0.1-0.1-0.2-0.1-0.3s0-0.2,0-0.3c0-0.1,0-0.2,0.1-0.4c0-0.1,0.1-0.2,0.1-0.3
			c0.1-0.1,0.1-0.2,0.2-0.3c0.1-0.1,0.2-0.2,0.3-0.3c0.1-0.1,0.2-0.2,0.3-0.2c0.1-0.1,0.2-0.2,0.2-0.3c0.1-0.1,0.1-0.2,0.2-0.3
			c0-0.1,0.1-0.2,0.1-0.4c0-0.2,0-0.3-0.1-0.4c-0.1-0.1-0.1-0.2-0.2-0.3c-0.1-0.1-0.2-0.1-0.3-0.2c-0.1,0-0.3-0.1-0.4-0.1
			c-0.3,0-0.5,0-0.7,0.1c-0.2,0.1-0.4,0.2-0.6,0.4V5.1c0.2-0.1,0.4-0.3,0.6-0.3c0.2-0.1,0.5-0.1,0.7-0.1c0.2,0,0.4,0,0.6,0.1
			c0.2,0.1,0.3,0.1,0.5,0.3c0.1,0.1,0.2,0.2,0.3,0.4c0.1,0.2,0.1,0.3,0.1,0.5c0,0.2,0,0.3-0.1,0.4c0,0.1-0.1,0.2-0.2,0.4
			c-0.1,0.1-0.2,0.2-0.2,0.3c-0.1,0.1-0.2,0.2-0.3,0.3c-0.1,0.1-0.3,0.3-0.4,0.3c-0.1,0.1-0.2,0.2-0.2,0.3c-0.1,0.1-0.1,0.2-0.1,0.2
			c0,0.1,0,0.2,0,0.3c0,0.1,0,0.2,0,0.3c0,0.1,0,0.2,0.1,0.3H380.2z M380.4,10.7c-0.1,0-0.2,0-0.2-0.1s-0.1-0.1-0.1-0.2
			c0-0.1,0-0.2,0.1-0.2s0.1-0.1,0.2-0.1c0.1,0,0.2,0,0.2,0.1c0.1,0.1,0.1,0.1,0.1,0.2c0,0.1,0,0.2-0.1,0.2
			C380.6,10.7,380.5,10.7,380.4,10.7z"/>
	</g>
	<g>
		<circle class="st6" cx="394.9" cy="7.7" r="4.5"/>
		<circle class="st2" cx="394.8" cy="7" r="1.9"/>
		<path class="st2" d="M391.8,10c0,0,1.1,1.6,3.1,1.6s3.1-1.5,3.1-1.6s0-0.4-0.5-0.8c-0.4-0.4-0.9-0.4-1-0.3c-0.1,0-0.7,0.6-1.6,0.6
			c-0.9,0-1.5-0.6-1.6-0.6c-0.1,0-0.7,0-1,0.3C392,9.5,391.7,9.8,391.8,10z"/>
	</g>
</g>
<rect x="3.8" y="33.1" class="st7" width="33.9" height="10.1"/>
<rect x="43.1" y="33.1" class="st7" width="33.9" height="10.1"/>
<rect x="82.2" y="33.1" class="st7" width="33.9" height="10.1"/>
<rect x="122" y="33.1" class="st7" width="33.9" height="10.1"/>
<rect x="161.6" y="33.1" class="st7" width="33.9" height="10.1"/>
<rect x="200.7" y="33.1" class="st7" width="33.9" height="10.1"/>
<line class="st8" x1="0" y1="46.6" x2="404" y2="46.6"/>
<line class="st8" x1="302.8" y1="46.6" x2="302.8" y2="404"/>
<g>
	<rect x="61.9" y="55.1" class="st9" width="47.9" height="9.6"/>
</g>
<g>
	<rect x="4.3" y="55.1" class="st9" width="47.9" height="9.6"/>
</g>
<g>
	<path class="st7" d="M287,64.7h-11v-8.3c0-0.6,0.4-1,1-1h10V64.7z"/>
	<g>
		<path d="M293.5,58.2c0.5,0,1.1,0,1.6,0c0.3,0,0.3,0.1,0.3,0.3c0,0.2,0,0.3-0.3,0.3c-1.1,0-2.1,0-3.2,0c-0.3,0-0.3-0.1-0.3-0.3
			c0-0.2,0.1-0.3,0.3-0.3C292.4,58.2,292.9,58.2,293.5,58.2z"/>
		<path d="M293.5,60.3c-0.5,0-1.1,0-1.6,0c-0.3,0-0.3-0.1-0.3-0.3c0-0.2,0-0.3,0.3-0.3c1.1,0,2.1,0,3.2,0c0.3,0,0.3,0.1,0.3,0.3
			c0,0.2,0,0.3-0.3,0.3C294.6,60.3,294,60.3,293.5,60.3z"/>
		<path d="M293.5,61.8c-0.5,0-1.1,0-1.6,0c-0.3,0-0.3-0.1-0.3-0.3c0-0.2,0-0.3,0.3-0.3c1.1,0,2.1,0,3.2,0c0.3,0,0.3,0.1,0.3,0.3
			c0,0.2-0.1,0.3-0.3,0.3C294.5,61.8,294,61.8,293.5,61.8z"/>
		<path d="M290.8,59c-0.3,0-0.5-0.2-0.5-0.4c0-0.2,0.2-0.4,0.5-0.4c0.3,0,0.5,0.2,0.5,0.4C291.3,58.8,291,59,290.8,59z"/>
		<path d="M290.8,60.5c-0.3,0-0.5-0.2-0.5-0.4c0-0.2,0.2-0.4,0.5-0.4c0.3,0,0.5,0.2,0.5,0.4C291.3,60.3,291,60.5,290.8,60.5z"/>
		<path d="M290.8,61c0.3,0,0.5,0.2,0.5,0.4c0,0.2-0.2,0.4-0.5,0.4c-0.3,0-0.5-0.2-0.5-0.4C290.3,61.3,290.5,61.1,290.8,61z"/>
	</g>
	<g>
		<path d="M280.2,59.9c-0.3,0-0.6,0-0.9,0c-0.2,0-0.3-0.1-0.3-0.3c0-0.4,0-0.9,0-1.3c0-0.2,0.1-0.3,0.3-0.3c0.6,0,1.1,0,1.7,0
			c0.2,0,0.3,0.1,0.3,0.3c0,0.4,0,0.8,0,1.3c0,0.3-0.1,0.3-0.4,0.3C280.7,59.9,280.5,59.9,280.2,59.9z"/>
		<path d="M282.9,59.9c-0.3,0-0.6,0-0.8,0c-0.2,0-0.3-0.1-0.3-0.3c0-0.4,0-0.9,0-1.3c0-0.2,0.1-0.3,0.3-0.3c0.6,0,1.2,0,1.8,0
			c0.2,0,0.3,0.1,0.3,0.3c0,0.4,0,0.9,0,1.3c0,0.2-0.1,0.3-0.3,0.3C283.5,59.9,283.2,59.9,282.9,59.9z"/>
		<path d="M280.2,62.1c-0.3,0-0.6,0-0.8,0c-0.2,0-0.3-0.1-0.3-0.3c0-0.4,0-0.9,0-1.3c0-0.2,0.1-0.3,0.3-0.3c0.6,0,1.1,0,1.7,0
			c0.2,0,0.3,0.1,0.3,0.3c0,0.4,0,0.9,0,1.3c0,0.2-0.1,0.3-0.3,0.3C280.8,62.1,280.5,62.1,280.2,62.1z"/>
		<path d="M282.9,60.2c0.3,0,0.6,0,0.9,0c0.2,0,0.3,0.1,0.3,0.3c0,0.4,0,0.9,0,1.3c0,0.2-0.1,0.3-0.3,0.3c-0.6,0-1.2,0-1.8,0
			c-0.2,0-0.3-0.1-0.3-0.3c0-0.4,0-0.9,0-1.3c0-0.2,0.1-0.3,0.3-0.3C282.3,60.2,282.6,60.2,282.9,60.2z"/>
	</g>
	<line class="st10" x1="287.2" y1="55.2" x2="287.2" y2="64.5"/>
	<path class="st10" d="M296.3,64.7h-18.2c-1.1,0-2-0.9-2-2v-5.3c0-1.1,0.9-2,2-2h18.2c1.1,0,2,0.9,2,2v5.3
		C298.3,63.8,297.4,64.7,296.3,64.7z"/>
</g>
<polygon points="45.9,61.3 43.6,59 43.8,58.8 45.9,60.9 48,58.8 48.2,59 "/>
<polygon points="103.8,60.9 101.5,58.5 101.7,58.3 103.8,60.5 105.8,58.4 106,58.6 "/>
<g>
	<g>
		<g>
			<g>
				<rect x="4.1" y="73.2" class="st11" width="132.5" height="78.7"/>
			</g>
			<path class="st12" d="M126.6,81.4H13.3c-0.6,0-1.1,0.5-1.1,1.1v60.7c0,0.6,0.5,1.1,1.1,1.1h113.3c0.6,0,1.1-0.5,1.1-1.1V82.5
				C127.7,81.9,127.2,81.4,126.6,81.4z M27.9,87.5c5.1,0,9.3,4.1,9.3,9.3c0,5.1-4.1,9.3-9.3,9.3s-9.3-4.1-9.3-9.3
				C18.7,91.6,22.8,87.5,27.9,87.5z M86.9,137.6H18.7v-9.5l15.4-15.4l7.9,8l24.8-25.1l20,20.2V137.6z"/>
			<polyline class="st11" points="86.9,137.6 120.8,137.6 120.8,111.3 96.9,87.5 76.6,107.8 			"/>
		</g>
	</g>
	<g>
		<g>
			<g>
				<rect x="154.6" y="73.2" class="st11" width="132.5" height="78.7"/>
			</g>
			<path class="st12" d="M277.1,81.4H163.9c-0.6,0-1.1,0.5-1.1,1.1v60.7c0,0.6,0.5,1.1,1.1,1.1h113.3c0.6,0,1.1-0.5,1.1-1.1V82.5
				C278.2,81.9,277.7,81.4,277.1,81.4z M178.5,87.5c5.1,0,9.3,4.1,9.3,9.3c0,5.1-4.1,9.3-9.3,9.3s-9.3-4.1-9.3-9.3
				C169.2,91.6,173.4,87.5,178.5,87.5z M237.4,137.6h-68.2v-9.5l15.4-15.4l7.9,8l24.8-25.1l20,20.2V137.6z"/>
			<polyline class="st11" points="237.4,137.6 271.3,137.6 271.3,111.3 247.4,87.5 227.1,107.8 			"/>
		</g>
	</g>
</g>
<g>
	<g>
		<g>
			<g>
				<rect x="4.1" y="199.7" class="st11" width="132.5" height="78.7"/>
			</g>
			<path class="st12" d="M126.6,208H13.3c-0.6,0-1.1,0.5-1.1,1.1v60.7c0,0.6,0.5,1.1,1.1,1.1h113.3c0.6,0,1.1-0.5,1.1-1.1V209
				C127.7,208.4,127.2,208,126.6,208z M27.9,214.1c5.1,0,9.3,4.1,9.3,9.3s-4.1,9.3-9.3,9.3s-9.3-4.1-9.3-9.3S22.8,214.1,27.9,214.1z
				 M86.9,264.2H18.7v-9.5l15.4-15.4l7.9,8l24.8-25.1l20,20.2V264.2z"/>
			<polyline class="st11" points="86.9,264.2 120.8,264.2 120.8,237.9 96.9,214 76.6,234.3 			"/>
		</g>
	</g>
	<g>
		<g>
			<g>
				<rect x="154.6" y="199.7" class="st11" width="132.5" height="78.7"/>
			</g>
			<path class="st12" d="M277.1,208H163.9c-0.6,0-1.1,0.5-1.1,1.1v60.7c0,0.6,0.5,1.1,1.1,1.1h113.3c0.6,0,1.1-0.5,1.1-1.1V209
				C278.2,208.4,277.7,208,277.1,208z M178.5,214.1c5.1,0,9.3,4.1,9.3,9.3s-4.1,9.3-9.3,9.3s-9.3-4.1-9.3-9.3
				S173.4,214.1,178.5,214.1z M237.4,264.2h-68.2v-9.5l15.4-15.4l7.9,8l24.8-25.1l20,20.2V264.2z"/>
			<polyline class="st11" points="237.4,264.2 271.3,264.2 271.3,237.9 247.4,214 227.1,234.3 			"/>
		</g>
	</g>
</g>
<g>
	<g>
		<g>
			<g>
				<rect x="4.1" y="326.3" class="st11" width="132.5" height="77.7"/>
			</g>
			<path class="st12" d="M126.6,334.5H13.3c-0.6,0-1.1,0.5-1.1,1.1v60.7c0,0.6,0.5,1.1,1.1,1.1h113.3c0.6,0,1.1-0.5,1.1-1.1v-60.7
				C127.7,335,127.2,334.5,126.6,334.5z M27.9,340.6c5.1,0,9.3,4.1,9.3,9.3s-4.1,9.3-9.3,9.3s-9.3-4.1-9.3-9.3
				S22.8,340.6,27.9,340.6z M86.9,390.7H18.7v-9.5l15.4-15.4l7.9,8l24.8-25.1l20,20.2V390.7z"/>
			<polyline class="st11" points="86.9,390.7 120.8,390.7 120.8,364.5 96.9,340.6 76.6,360.9 			"/>
		</g>
	</g>
	<g>
		<g>
			<g>
				<rect x="154.6" y="326.3" class="st11" width="132.5" height="77.7"/>
			</g>
			<path class="st12" d="M277.1,334.5H163.9c-0.6,0-1.1,0.5-1.1,1.1v60.7c0,0.6,0.5,1.1,1.1,1.1h113.3c0.6,0,1.1-0.5,1.1-1.1v-60.7
				C278.2,335,277.7,334.5,277.1,334.5z M178.5,340.6c5.1,0,9.3,4.1,9.3,9.3s-4.1,9.3-9.3,9.3s-9.3-4.1-9.3-9.3
				S173.4,340.6,178.5,340.6z M237.4,390.7h-68.2v-9.5l15.4-15.4l7.9,8l24.8-25.1l20,20.2V390.7z"/>
			<polyline class="st11" points="237.4,390.7 271.3,390.7 271.3,364.5 247.4,340.6 227.1,360.9 			"/>
		</g>
	</g>
</g>
<g>
	<g>
		<path class="st13" d="M295.8,395.5c-0.5,0-0.9-0.4-0.9-0.9V74.2c0-0.5,0.4-0.9,0.9-0.9h1.2c0.5,0,0.9,0.4,0.9,0.9v320.4
			c0,0.5-0.4,0.9-0.9,0.9H295.8z"/>
		<path class="st14" d="M297,73.6c0.3,0,0.6,0.3,0.6,0.6v320.4c0,0.3-0.3,0.6-0.6,0.6h-1.2c-0.3,0-0.6-0.3-0.6-0.6V74.2
			c0-0.3,0.3-0.6,0.6-0.6H297 M297,73.1h-1.2c-0.6,0-1.1,0.5-1.1,1.1v320.4c0,0.6,0.5,1.1,1.1,1.1h1.2c0.6,0,1.1-0.5,1.1-1.1V74.2
			C298.1,73.6,297.6,73.1,297,73.1L297,73.1z"/>
	</g>
	<path class="st15" d="M297,112.2h-1.1c-0.6,0-1.1-0.5-1.1-1.1V74.3c0-0.6,0.5-1.1,1.1-1.1h1.1c0.6,0,1.1,0.5,1.1,1.1v36.8
		C298.1,111.7,297.6,112.2,297,112.2z"/>
</g>
<g>
	<rect x="8.6" y="77.5" class="st0" width="7.6" height="7.6"/>
	<path class="st2" d="M15,79.6l-0.2-0.2c-0.1-0.1-0.2-0.1-0.2,0l-3.1,3.1l-1.3-1.3c-0.1-0.1-0.2-0.1-0.2,0l-0.2,0.2
		c-0.1,0.1-0.1,0.2,0,0.2l1.7,1.7c0.1,0.1,0.2,0.1,0.2,0l0.4-0.4l0,0l3.1-3.1C15.1,79.8,15.1,79.7,15,79.6z"/>
	<path class="st0" d="M15.6,77.7c0.2,0,0.3,0.2,0.3,0.3v6.6c0,0.2-0.2,0.3-0.3,0.3H9c-0.2,0-0.3-0.2-0.3-0.3V78
		c0-0.2,0.2-0.3,0.3-0.3H15.6 M15.6,77.1H9c-0.5,0-1,0.4-1,1v6.6c0,0.5,0.4,1,1,1h6.6c0.5,0,1-0.4,1-1V78
		C16.6,77.5,16.1,77.1,15.6,77.1L15.6,77.1z"/>
</g>
<g>
	<rect x="159.1" y="77.5" class="st2" width="7.6" height="7.6"/>
	<path class="st16" d="M166.1,77.7c0.2,0,0.3,0.2,0.3,0.3v6.6c0,0.2-0.2,0.3-0.3,0.3h-6.6c-0.2,0-0.3-0.2-0.3-0.3V78
		c0-0.2,0.2-0.3,0.3-0.3H166.1 M166.1,77.1h-6.6c-0.5,0-1,0.4-1,1v6.6c0,0.5,0.4,1,1,1h6.6c0.5,0,1-0.4,1-1V78
		C167.1,77.5,166.7,77.1,166.1,77.1L166.1,77.1z"/>
</g>
<g>
	<rect x="8.6" y="204.1" class="st2" width="7.6" height="7.6"/>
	<path class="st16" d="M15.6,204.3c0.2,0,0.3,0.2,0.3,0.3v6.6c0,0.2-0.2,0.3-0.3,0.3H9c-0.2,0-0.3-0.2-0.3-0.3v-6.6
		c0-0.2,0.2-0.3,0.3-0.3H15.6 M15.6,203.7H9c-0.5,0-1,0.4-1,1v6.6c0,0.5,0.4,1,1,1h6.6c0.5,0,1-0.4,1-1v-6.6
		C16.6,204.1,16.1,203.7,15.6,203.7L15.6,203.7z"/>
</g>
<g>
	<rect x="159.1" y="204.1" class="st2" width="7.6" height="7.6"/>
	<path class="st16" d="M166.1,204.3c0.2,0,0.3,0.2,0.3,0.3v6.6c0,0.2-0.2,0.3-0.3,0.3h-6.6c-0.2,0-0.3-0.2-0.3-0.3v-6.6
		c0-0.2,0.2-0.3,0.3-0.3H166.1 M166.1,203.6h-6.6c-0.5,0-1,0.4-1,1v6.6c0,0.5,0.4,1,1,1h6.6c0.5,0,1-0.4,1-1v-6.6
		C167.1,204.1,166.7,203.6,166.1,203.6L166.1,203.6z"/>
</g>
<g>
	<rect x="8.6" y="330.2" class="st2" width="7.6" height="7.6"/>
	<path class="st16" d="M15.6,330.3c0.2,0,0.3,0.2,0.3,0.3v6.6c0,0.2-0.2,0.3-0.3,0.3H9c-0.2,0-0.3-0.2-0.3-0.3v-6.6
		c0-0.2,0.2-0.3,0.3-0.3H15.6 M15.6,329.7H9c-0.5,0-1,0.4-1,1v6.6c0,0.5,0.4,1,1,1h6.6c0.5,0,1-0.4,1-1v-6.6
		C16.6,330.1,16.1,329.7,15.6,329.7L15.6,329.7z"/>
</g>
<g>
	<rect x="159.1" y="330.1" class="st2" width="7.6" height="7.6"/>
	<path class="st16" d="M166.1,330.3c0.2,0,0.3,0.2,0.3,0.3v6.6c0,0.2-0.2,0.3-0.3,0.3h-6.6c-0.2,0-0.3-0.2-0.3-0.3v-6.6
		c0-0.2,0.2-0.3,0.3-0.3H166.1 M166.1,329.7h-6.6c-0.5,0-1,0.4-1,1v6.6c0,0.5,0.4,1,1,1h6.6c0.5,0,1-0.4,1-1v-6.6
		C167.1,330.1,166.7,329.7,166.1,329.7L166.1,329.7z"/>
</g>
<rect x="307.8" y="52.5" class="st17" width="35.6" height="5.6"/>
<rect x="307.8" y="73" class="st17" width="21.8" height="5.6"/>
<rect x="307.8" y="67" class="st18" width="15.6" height="4"/>
<rect x="307.8" y="86.8" class="st18" width="20.7" height="4"/>
<rect x="307.8" y="113.1" class="st18" width="14.2" height="4"/>
<rect x="307.8" y="133.4" class="st18" width="15.6" height="4"/>
<rect x="307.8" y="153.6" class="st18" width="17.2" height="4"/>
<rect x="307.8" y="179.5" class="st18" width="18.8" height="4"/>
<rect x="307.8" y="119.5" class="st17" width="65.1" height="5.6"/>
<rect x="307.8" y="159.8" class="st17" width="48.8" height="5.6"/>
<rect x="307.8" y="167.2" class="st19" width="49.6" height="4.6"/>
<rect x="307.8" y="93.6" class="st19" width="88.9" height="4.6"/>
<rect x="307.8" y="99.6" class="st19" width="41.9" height="4.6"/>
<rect x="307.8" y="193.4" class="st19" width="49.6" height="4.6"/>
<rect x="307.8" y="139.4" class="st17" width="48.8" height="5.6"/>
<rect x="307.8" y="186.2" class="st17" width="48.8" height="5.6"/>
<rect x="4.2" y="50.3" class="st17" width="8.7" height="3"/>
<rect x="61.9" y="50.3" class="st17" width="23.9" height="3"/>
<rect x="22.8" y="5.3" class="st20" width="15.2" height="4.2"/>
<rect x="4.1" y="155.1" class="st17" width="45.7" height="6.1"/>
<rect x="4.1" y="165.6" class="st17" width="29.7" height="6.1"/>
<rect x="58.7" y="165.6" class="st17" width="65" height="6.1"/>
<rect x="154.6" y="155.5" class="st17" width="45.7" height="6.1"/>
<rect x="154.6" y="165.9" class="st17" width="29.7" height="6.1"/>
<rect x="209.2" y="165.9" class="st17" width="65" height="6.1"/>
<rect x="4.1" y="282.5" class="st17" width="45.7" height="6.1"/>
<rect x="4.1" y="292.9" class="st17" width="29.7" height="6.1"/>
<rect x="58.7" y="292.9" class="st17" width="65" height="6.1"/>
<rect x="154.6" y="282.8" class="st17" width="45.7" height="6.1"/>
<rect x="154.6" y="293.2" class="st17" width="29.7" height="6.1"/>
<rect x="209.2" y="293.2" class="st17" width="65" height="6.1"/>
<path class="st7" d="M403,30.7V403H1V30.7H403 M404,29.7H0V404h404V29.7L404,29.7z"/>
<rect x="0" y="15" class="st1" width="404" height="14.7"/>
<rect x="92.4" y="17" class="st10" width="40.8" height="10.7"/>
<polygon points="128.1,23.7 125.8,21.4 126,21.2 128.1,23.3 130.2,21.2 130.4,21.4 "/>
<rect x="4.2" y="17" class="st10" width="81" height="10.7"/>
<polygon points="78.8,23.6 76.5,21.3 76.7,21.1 78.8,23.2 80.9,21.1 81.1,21.3 "/>
<rect x="1" y="29.8" class="st2" width="402" height="2.2"/>
</svg>
