<?xml version="1.0" encoding="utf-8"?>
<!-- Generator: Adobe Illustrator 22.0.1, SVG Export Plug-In . SVG Version: 6.00 Build 0)  -->
<svg version="1.1" id="Layer_1" xmlns="http://www.w3.org/2000/svg" xmlns:xlink="http://www.w3.org/1999/xlink" x="0px" y="0px"
	 viewBox="0 0 404 404" style="enable-background:new 0 0 404 404;" xml:space="preserve">
<style type="text/css">
	.st0{fill:#006DD1;}
	.st1{opacity:0.8;fill:#FFFFFF;enable-background:new    ;}
	.st2{fill:none;}
	.st3{fill:#D2D2D2;}
	.st4{fill:none;stroke:#D2D2D2;stroke-miterlimit:10;}
	.st5{fill:none;stroke:#333333;stroke-width:0.5;stroke-miterlimit:10;}
	.st6{fill:#B9BEC1;}
	.st7{fill:#E8EEF1;}
	.st8{fill:#EEEEEE;}
	.st9{fill:#CCCCCC;}
	.st10{fill:#999999;}
	.st11{fill:#FFFFFF;}
	.st12{fill:#333333;}
	.st13{opacity:0.5;enable-background:new    ;}
	.st14{opacity:0.5;fill:#666666;enable-background:new    ;}
	.st15{opacity:0.5;fill:#0000EE;enable-background:new    ;}
	.st16{opacity:0.5;fill:#FFFFFF;enable-background:new    ;}
	.st17{fill:none;stroke:#000000;stroke-width:0.5;stroke-miterlimit:10;}
	.st18{fill:none;stroke:#333333;stroke-width:0.281;stroke-miterlimit:10;}
	.st19{fill:#AEB5BC;}
</style>
<title>Slice 1</title>
<desc>Created with Sketch.</desc>
<g>
	<rect class="st0" width="404" height="14.7"/>
	<rect y="14.8" class="st0" width="404" height="14.7"/>
	<rect y="29.5" class="st1" width="404" height="374.3"/>
	<g>
		<path class="st1" d="M165.6,12H71.3c-1.1,0-2-0.9-2-2V4.8c0-1.1,0.9-2,2-2h94.3c1.1,0,2,0.9,2,2v5.1C167.6,11.1,166.7,12,165.6,12
			z"/>
		<path class="st0" d="M72.9,9.6c0.1,0.1,0.1,0.1,0.2,0l1.3-1.3l0,0c0.3,0.3,0.7,0.5,1.2,0.5c1,0,1.9-0.8,1.9-1.9S76.7,5,75.6,5
			c-1,0-1.9,0.8-1.9,1.9c0,0.5,0.2,0.9,0.4,1.2l0,0l-1.3,1.3C72.9,9.5,72.9,9.6,72.9,9.6z M74,6.9c0-0.9,0.7-1.6,1.6-1.6
			s1.6,0.7,1.6,1.6s-0.7,1.6-1.6,1.6S74,7.8,74,6.9z"/>
		<rect x="82.9" y="5.5" class="st2" width="47.5" height="3.8"/>
	</g>
	<rect x="3.8" y="32.9" class="st3" width="33.9" height="10.1"/>
	<rect x="43.1" y="32.9" class="st3" width="33.9" height="10.1"/>
	<rect x="82.2" y="32.9" class="st3" width="33.9" height="10.1"/>
	<rect x="122" y="32.9" class="st3" width="33.9" height="10.1"/>
	<rect x="161.6" y="32.9" class="st3" width="33.9" height="10.1"/>
	<rect x="200.7" y="32.9" class="st3" width="33.9" height="10.1"/>
	<line class="st4" x1="0" y1="46.4" x2="404" y2="46.4"/>
	<line class="st4" x1="302.8" y1="46.4" x2="302.8" y2="403.8"/>
	<g>
		<rect x="61.9" y="54.9" class="st5" width="47.9" height="9.6"/>
	</g>
	<g>
		<rect x="4.3" y="54.9" class="st5" width="47.9" height="9.6"/>
	</g>
	<polygon points="45.9,61.1 43.6,58.8 43.8,58.6 45.9,60.7 48,58.6 48.2,58.8 	"/>
	<polygon points="103.8,60.7 101.5,58.3 101.7,58.1 103.8,60.3 105.8,58.2 106,58.4 	"/>
	<g>
		<g>
			<g>
				<g>
					<rect x="4.1" y="73" class="st6" width="132.5" height="78.7"/>
				</g>
				<path class="st7" d="M126.6,81.2H13.3c-0.6,0-1.1,0.5-1.1,1.1V143c0,0.6,0.5,1.1,1.1,1.1h113.3c0.6,0,1.1-0.5,1.1-1.1V82.3
					C127.7,81.7,127.2,81.2,126.6,81.2z M27.9,87.3c5.1,0,9.3,4.1,9.3,9.3c0,5.1-4.1,9.3-9.3,9.3s-9.3-4.1-9.3-9.3
					C18.7,91.4,22.8,87.3,27.9,87.3z M86.9,137.4H18.7v-9.5l15.4-15.4l7.9,8l24.8-25.1l20,20.2L86.9,137.4L86.9,137.4z"/>
				<polyline class="st6" points="86.9,137.4 120.8,137.4 120.8,111.1 96.9,87.3 76.6,107.6 				"/>
			</g>
		</g>
		<g>
			<g>
				<g>
					<rect x="154.6" y="73" class="st6" width="132.5" height="78.7"/>
				</g>
				<path class="st7" d="M277.1,81.2H163.9c-0.6,0-1.1,0.5-1.1,1.1V143c0,0.6,0.5,1.1,1.1,1.1h113.3c0.6,0,1.1-0.5,1.1-1.1V82.3
					C278.2,81.7,277.7,81.2,277.1,81.2z M178.5,87.3c5.1,0,9.3,4.1,9.3,9.3c0,5.1-4.1,9.3-9.3,9.3s-9.3-4.1-9.3-9.3
					S173.4,87.3,178.5,87.3z M237.4,137.4h-68.2v-9.5l15.4-15.4l7.9,8l24.8-25.1l20,20.2v21.8H237.4z"/>
				<polyline class="st6" points="237.4,137.4 271.3,137.4 271.3,111.1 247.4,87.3 227.1,107.6 				"/>
			</g>
		</g>
	</g>
	<g>
		<g>
			<g>
				<g>
					<rect x="4.1" y="199.5" class="st6" width="132.5" height="78.7"/>
				</g>
				<path class="st7" d="M126.6,207.8H13.3c-0.6,0-1.1,0.5-1.1,1.1v60.7c0,0.6,0.5,1.1,1.1,1.1h113.3c0.6,0,1.1-0.5,1.1-1.1v-60.8
					C127.7,208.2,127.2,207.8,126.6,207.8z M27.9,213.9c5.1,0,9.3,4.1,9.3,9.3s-4.1,9.3-9.3,9.3s-9.3-4.1-9.3-9.3
					S22.8,213.9,27.9,213.9z M86.9,264H18.7v-9.5l15.4-15.4l7.9,8L66.8,222l20,20.2L86.9,264L86.9,264z"/>
				<polyline class="st6" points="86.9,264 120.8,264 120.8,237.7 96.9,213.8 76.6,234.1 				"/>
			</g>
		</g>
		<g>
			<g>
				<g>
					<rect x="154.6" y="199.5" class="st6" width="132.5" height="78.7"/>
				</g>
				<path class="st7" d="M277.1,207.8H163.9c-0.6,0-1.1,0.5-1.1,1.1v60.7c0,0.6,0.5,1.1,1.1,1.1h113.3c0.6,0,1.1-0.5,1.1-1.1v-60.8
					C278.2,208.2,277.7,207.8,277.1,207.8z M178.5,213.9c5.1,0,9.3,4.1,9.3,9.3s-4.1,9.3-9.3,9.3s-9.3-4.1-9.3-9.3
					S173.4,213.9,178.5,213.9z M237.4,264h-68.2v-9.5l15.4-15.4l7.9,8l24.8-25.1l20,20.2V264H237.4z"/>
				<polyline class="st6" points="237.4,264 271.3,264 271.3,237.7 247.4,213.8 227.1,234.1 				"/>
			</g>
		</g>
	</g>
	<g>
		<g>
			<g>
				<g>
					<rect x="4.1" y="326.1" class="st6" width="132.5" height="77.7"/>
				</g>
				<path class="st7" d="M126.6,334.3H13.3c-0.6,0-1.1,0.5-1.1,1.1v60.7c0,0.6,0.5,1.1,1.1,1.1h113.3c0.6,0,1.1-0.5,1.1-1.1v-60.7
					C127.7,334.8,127.2,334.3,126.6,334.3z M27.9,340.4c5.1,0,9.3,4.1,9.3,9.3s-4.1,9.3-9.3,9.3s-9.3-4.1-9.3-9.3
					S22.8,340.4,27.9,340.4z M86.9,390.5H18.7V381l15.4-15.4l7.9,8l24.8-25.1l20,20.2L86.9,390.5L86.9,390.5z"/>
				<polyline class="st6" points="86.9,390.5 120.8,390.5 120.8,364.3 96.9,340.4 76.6,360.7 				"/>
			</g>
		</g>
		<g>
			<g>
				<g>
					<rect x="154.6" y="326.1" class="st6" width="132.5" height="77.7"/>
				</g>
				<path class="st7" d="M277.1,334.3H163.9c-0.6,0-1.1,0.5-1.1,1.1v60.7c0,0.6,0.5,1.1,1.1,1.1h113.3c0.6,0,1.1-0.5,1.1-1.1v-60.7
					C278.2,334.8,277.7,334.3,277.1,334.3z M178.5,340.4c5.1,0,9.3,4.1,9.3,9.3s-4.1,9.3-9.3,9.3s-9.3-4.1-9.3-9.3
					S173.4,340.4,178.5,340.4z M237.4,390.5h-68.2V381l15.4-15.4l7.9,8l24.8-25.1l20,20.2v21.8H237.4z"/>
				<polyline class="st6" points="237.4,390.5 271.3,390.5 271.3,364.3 247.4,340.4 227.1,360.7 				"/>
			</g>
		</g>
	</g>
	<g>
		<g>
			<path class="st8" d="M295.8,395.3c-0.5,0-0.9-0.4-0.9-0.9V74c0-0.5,0.4-0.9,0.9-0.9h1.2c0.5,0,0.9,0.4,0.9,0.9v320.4
				c0,0.5-0.4,0.9-0.9,0.9H295.8L295.8,395.3z"/>
			<path class="st9" d="M297,73.4c0.3,0,0.6,0.3,0.6,0.6v320.4c0,0.3-0.3,0.6-0.6,0.6h-1.2c-0.3,0-0.6-0.3-0.6-0.6V74
				c0-0.3,0.3-0.6,0.6-0.6H297 M297,72.9h-1.2c-0.6,0-1.1,0.5-1.1,1.1v320.4c0,0.6,0.5,1.1,1.1,1.1h1.2c0.6,0,1.1-0.5,1.1-1.1V74
				C298.1,73.4,297.6,72.9,297,72.9L297,72.9z"/>
		</g>
		<path class="st10" d="M297,112h-1.1c-0.6,0-1.1-0.5-1.1-1.1V74.1c0-0.6,0.5-1.1,1.1-1.1h1.1c0.6,0,1.1,0.5,1.1,1.1v36.8
			C298.1,111.5,297.6,112,297,112z"/>
	</g>
	<g>
		<rect x="8.6" y="77.3" class="st0" width="7.6" height="7.6"/>
		<path class="st11" d="M15,79.4l-0.2-0.2c-0.1-0.1-0.2-0.1-0.2,0l-3.1,3.1L10.2,81c-0.1-0.1-0.2-0.1-0.2,0l-0.2,0.2
			c-0.1,0.1-0.1,0.2,0,0.2l1.7,1.7c0.1,0.1,0.2,0.1,0.2,0l0.4-0.4l0,0l3.1-3.1C15.1,79.6,15.1,79.5,15,79.4z"/>
		<path class="st0" d="M15.6,77.5c0.2,0,0.3,0.2,0.3,0.3v6.6c0,0.2-0.2,0.3-0.3,0.3H9c-0.2,0-0.3-0.2-0.3-0.3v-6.6
			c0-0.2,0.2-0.3,0.3-0.3H15.6 M15.6,76.9H9c-0.5,0-1,0.4-1,1v6.6c0,0.5,0.4,1,1,1h6.6c0.5,0,1-0.4,1-1v-6.7
			C16.6,77.3,16.1,76.9,15.6,76.9L15.6,76.9z"/>
	</g>
	<g>
		<rect x="159.1" y="77.3" class="st11" width="7.6" height="7.6"/>
		<path class="st12" d="M166.1,77.5c0.2,0,0.3,0.2,0.3,0.3v6.6c0,0.2-0.2,0.3-0.3,0.3h-6.6c-0.2,0-0.3-0.2-0.3-0.3v-6.6
			c0-0.2,0.2-0.3,0.3-0.3H166.1 M166.1,76.9h-6.6c-0.5,0-1,0.4-1,1v6.6c0,0.5,0.4,1,1,1h6.6c0.5,0,1-0.4,1-1v-6.7
			C167.1,77.3,166.7,76.9,166.1,76.9L166.1,76.9z"/>
	</g>
	<g>
		<rect x="8.6" y="203.9" class="st11" width="7.6" height="7.6"/>
		<path class="st12" d="M15.6,204.1c0.2,0,0.3,0.2,0.3,0.3v6.6c0,0.2-0.2,0.3-0.3,0.3H9c-0.2,0-0.3-0.2-0.3-0.3v-6.6
			c0-0.2,0.2-0.3,0.3-0.3H15.6 M15.6,203.5H9c-0.5,0-1,0.4-1,1v6.6c0,0.5,0.4,1,1,1h6.6c0.5,0,1-0.4,1-1v-6.6
			C16.6,203.9,16.1,203.5,15.6,203.5L15.6,203.5z"/>
	</g>
	<g>
		<rect x="159.1" y="203.9" class="st11" width="7.6" height="7.6"/>
		<path class="st12" d="M166.1,204.1c0.2,0,0.3,0.2,0.3,0.3v6.6c0,0.2-0.2,0.3-0.3,0.3h-6.6c-0.2,0-0.3-0.2-0.3-0.3v-6.6
			c0-0.2,0.2-0.3,0.3-0.3H166.1 M166.1,203.4h-6.6c-0.5,0-1,0.4-1,1v6.6c0,0.5,0.4,1,1,1h6.6c0.5,0,1-0.4,1-1v-6.6
			C167.1,203.9,166.7,203.4,166.1,203.4L166.1,203.4z"/>
	</g>
	<g>
		<rect x="8.6" y="330" class="st11" width="7.6" height="7.6"/>
		<path class="st12" d="M15.6,330.1c0.2,0,0.3,0.2,0.3,0.3v6.6c0,0.2-0.2,0.3-0.3,0.3H9c-0.2,0-0.3-0.2-0.3-0.3v-6.6
			c0-0.2,0.2-0.3,0.3-0.3H15.6 M15.6,329.5H9c-0.5,0-1,0.4-1,1v6.6c0,0.5,0.4,1,1,1h6.6c0.5,0,1-0.4,1-1v-6.6
			C16.6,329.9,16.1,329.5,15.6,329.5L15.6,329.5z"/>
	</g>
	<g>
		<rect x="159.1" y="329.9" class="st11" width="7.6" height="7.6"/>
		<path class="st12" d="M166.1,330.1c0.2,0,0.3,0.2,0.3,0.3v6.6c0,0.2-0.2,0.3-0.3,0.3h-6.6c-0.2,0-0.3-0.2-0.3-0.3v-6.6
			c0-0.2,0.2-0.3,0.3-0.3H166.1 M166.1,329.5h-6.6c-0.5,0-1,0.4-1,1v6.6c0,0.5,0.4,1,1,1h6.6c0.5,0,1-0.4,1-1v-6.6
			C167.1,329.9,166.7,329.5,166.1,329.5L166.1,329.5z"/>
	</g>
	<rect x="307.8" y="52.3" class="st13" width="35.6" height="5.6"/>
	<rect x="307.8" y="72.8" class="st13" width="21.8" height="5.6"/>
	<rect x="307.8" y="66.8" class="st14" width="15.6" height="4"/>
	<rect x="307.8" y="86.6" class="st14" width="20.7" height="4"/>
	<rect x="307.8" y="112.9" class="st14" width="14.2" height="4"/>
	<rect x="307.8" y="133.2" class="st14" width="15.6" height="4"/>
	<rect x="307.8" y="153.4" class="st14" width="17.2" height="4"/>
	<rect x="307.8" y="179.3" class="st14" width="18.8" height="4"/>
	<rect x="307.8" y="119.3" class="st13" width="65.1" height="5.6"/>
	<rect x="307.8" y="159.6" class="st13" width="48.8" height="5.6"/>
	<rect x="307.8" y="167" class="st15" width="49.6" height="4.6"/>
	<rect x="307.8" y="93.4" class="st15" width="88.9" height="4.6"/>
	<rect x="307.8" y="99.4" class="st15" width="41.9" height="4.6"/>
	<rect x="307.8" y="193.2" class="st15" width="49.6" height="4.6"/>
	<rect x="307.8" y="139.2" class="st13" width="48.8" height="5.6"/>
	<rect x="307.8" y="186" class="st13" width="48.8" height="5.6"/>
	<rect x="4.2" y="50.1" class="st13" width="8.7" height="3"/>
	<rect x="61.9" y="50.1" class="st13" width="23.9" height="3"/>
	<rect x="22.8" y="5.1" class="st16" width="15.2" height="4.2"/>
	<rect x="4.1" y="154.9" class="st13" width="45.7" height="6.1"/>
	<rect x="4.1" y="165.4" class="st13" width="29.7" height="6.1"/>
	<rect x="58.7" y="165.4" class="st13" width="65" height="6.1"/>
	<rect x="154.6" y="155.3" class="st13" width="45.7" height="6.1"/>
	<rect x="154.6" y="165.7" class="st13" width="29.7" height="6.1"/>
	<rect x="209.2" y="165.7" class="st13" width="65" height="6.1"/>
	<rect x="4.1" y="282.3" class="st13" width="45.7" height="6.1"/>
	<rect x="4.1" y="292.7" class="st13" width="29.7" height="6.1"/>
	<rect x="58.7" y="292.7" class="st13" width="65" height="6.1"/>
	<rect x="154.6" y="282.6" class="st13" width="45.7" height="6.1"/>
	<rect x="154.6" y="293" class="st13" width="29.7" height="6.1"/>
	<rect x="209.2" y="293" class="st13" width="65" height="6.1"/>
	<path class="st3" d="M403,30.5v372.3H1V30.5H403 M404,29.5H0v374.3h404V29.5L404,29.5z"/>
	<rect y="14.8" class="st1" width="404" height="14.7"/>
	<rect x="92.4" y="16.8" class="st17" width="40.8" height="10.7"/>
	<polygon points="128.1,23.5 125.8,21.2 126,21 128.1,23.1 130.2,21 130.4,21.2 	"/>
	<rect x="4.2" y="16.8" class="st17" width="81" height="10.7"/>
	<polygon points="78.8,23.4 76.5,21.1 76.7,20.9 78.8,23 80.9,20.9 81.1,21.1 	"/>
	<rect x="1" y="29.6" class="st11" width="402" height="2.2"/>
	<g>
		<path class="st3" d="M287.1,64.5h-11v-8.3c0-0.6,0.4-1,1-1h10V64.5z"/>
		<g>
			<g>
				<path class="st12" d="M281.1,58.1v1.3h-1.8v-1.3H281.1 M281.4,57.8H279v1.9h2.4V57.8L281.4,57.8z"/>
			</g>
			<g>
				<path class="st12" d="M281.1,60.3v1.3h-1.8v-1.3H281.1 M281.4,60H279v1.9h2.4V60L281.4,60z"/>
			</g>
			<g>
				<path class="st12" d="M283.8,58.1v1.3H282v-1.3H283.8 M284.1,57.8h-2.4v1.9h2.4V57.8L284.1,57.8z"/>
			</g>
			<g>
				<path class="st12" d="M283.8,60.3v1.3H282v-1.3H283.8 M284.1,60h-2.4v1.9h2.4V60L284.1,60z"/>
			</g>
		</g>
		<line class="st18" x1="287.1" y1="55.2" x2="287.1" y2="64.5"/>
		<path class="st18" d="M296.3,64.5h-18.2c-1.1,0-2-0.9-2-2v-5.3c0-1.1,0.9-2,2-2h18.2c1.1,0,2,0.9,2,2v5.3
			C298.3,63.6,297.4,64.5,296.3,64.5z"/>
		<g>
			<path d="M289.9,60.5v-0.4h0.4v0.4H289.9 M289.9,59.5v-0.4h0.4v0.4H289.9 M290.9,59.5v-0.4h4.6v0.4H290.9 M289.9,58.4V58h0.4v0.4
				H289.9 M290.9,58.1h4.6v0.4h-4.6V58.1 M290.9,60.5v-0.4h4.6v0.4H290.9 M289.9,61.6v-0.4h0.4v0.4H289.9 M290.9,61.6v-0.4h4.6v0.4
				H290.9z"/>
		</g>
	</g>
	<g>
		<path class="st11" d="M12.2,9.3v1.9h-1.9V9.3H12.2 M9.4,9.3v1.9h-2V9.3H9.4 M6.5,9.3v1.9h-2V9.3H6.5 M12.2,6.4v1.9h-1.9V6.4H12.2
			 M9.4,6.4v1.9h-2V6.4H9.4 M6.5,6.4v1.9h-2V6.4H6.5 M12.2,3.5v1.9h-1.9V3.5H12.2 M9.4,3.5v1.9h-2V3.5H9.4 M6.5,3.5v1.9h-2V3.5H6.5z
			"/>
	</g>
	<g>
		<circle class="st19" cx="394.1" cy="7.1" r="5"/>
		<circle class="st11" cx="394" cy="6.3" r="2.1"/>
		<path class="st11" d="M390.6,9.7c0,0,1.3,1.8,3.4,1.8s3.4-1.7,3.4-1.8s-0.1-0.4-0.5-0.9c-0.4-0.4-1.1-0.4-1.1-0.4
			c-0.1,0-0.8,0.7-1.8,0.7s-1.7-0.7-1.8-0.7c-0.1,0-0.7,0-1.1,0.4S390.5,9.5,390.6,9.7z"/>
	</g>
	<g>
		<path class="st11" d="M363.7,7.9C363.7,7.9,363.8,7.9,363.7,7.9C363.8,8,363.9,8,364,8c0.1,0,0.2,0,0.3-0.1s0.2-0.1,0.3-0.2
			s0.1-0.2,0.2-0.3c0-0.1,0.1-0.2,0.1-0.3c0-0.1,0-0.2-0.1-0.3c0-0.1-0.1-0.2-0.2-0.3s-0.2-0.1-0.3-0.2c-0.1,0-0.2-0.1-0.3-0.1
			c-0.1,0-0.2,0-0.3,0.1c-0.1,0-0.2,0.1-0.3,0.2s-0.1,0.2-0.2,0.3c0,0.1-0.1,0.2-0.1,0.3c0,0.1,0,0.2,0.1,0.3c0,0.1,0.1,0.2,0.2,0.3
			S363.6,7.8,363.7,7.9 M363.6,6c0,0,0,0,0.1,0s0.2,0,0.4,0c0.2,0,0.3,0,0.5,0.1c0.1,0.1,0.3,0.1,0.4,0.3c0.1,0.1,0.2,0.2,0.3,0.4
			c0.1,0.1,0.1,0.3,0.1,0.5s0,0.3-0.1,0.5s-0.1,0.3-0.3,0.4c-0.1,0.1-0.2,0.2-0.4,0.3c-0.1,0.1-0.3,0.1-0.5,0.1s-0.3,0-0.5-0.1
			c-0.1-0.1-0.3-0.1-0.4-0.3c-0.1-0.1-0.2-0.2-0.3-0.4s-0.1-0.3-0.1-0.5s0-0.3,0.1-0.5c0.1-0.1,0.1-0.3,0.3-0.4
			C363.3,6.1,363.4,6,363.6,6 M366.1,7.2c0-0.1,0-0.1,0-0.2s0-0.1,0-0.3l0.8-0.5l-0.3-0.7l-0.9,0.2c-0.1-0.1-0.3-0.3-0.4-0.4
			l0.2-0.9l-0.7-0.3L364.4,5c-0.1,0-0.2,0-0.3,0s-0.1,0-0.2,0h-0.2l-0.5-0.8l-0.7,0.3l0.2,0.9c-0.1,0.1-0.3,0.3-0.4,0.4l-0.9-0.2
			l-0.3,0.7l0.8,0.5V7c0,0.1,0,0.1,0,0.2s0,0.1,0,0.3L361.1,8l0.3,0.7l0.9-0.2c0.1,0.1,0.3,0.3,0.4,0.4l-0.2,0.9l0.7,0.3l0.5-0.8
			c0.1,0,0.2,0,0.3,0c0.1,0,0.1,0,0.2,0h0.2l0.5,0.8l0.7-0.3l-0.2-0.9c0.1-0.1,0.3-0.3,0.4-0.4l0.9,0.2L367,8l-0.8-0.5L366.1,7.2
			 M364.1,9.5L364.1,9.5c-0.1,0-0.1,0-0.1,0h-0.1l-0.5,0.8l-1.2-0.5l0.2-1c-0.1-0.1-0.1-0.1-0.2-0.2l-1,0.2l-0.5-1.2l0.8-0.5v0
			c0,0,0,0,0-0.1c0,0,0,0,0-0.1V7l-0.8-0.5l0.5-1.2l1,0.2c0.1-0.1,0.1-0.1,0.2-0.2l-0.2-1l1.2-0.5l0.5,0.8c0,0,0,0,0.1,0h0.1
			c0,0,0,0,0.1,0l0.5-0.8l1.2,0.5l-0.2,1c0.1,0.1,0.1,0.1,0.2,0.2l1-0.2l0.5,1.2L366.5,7c0,0,0,0,0,0.1v0.1c0,0,0,0,0,0.1l0.8,0.5
			L366.8,9l-1-0.2c-0.1,0.1-0.1,0.1-0.2,0.2l0.2,1l-1.2,0.5L364.1,9.5L364.1,9.5z"/>
	</g>
	<g>
		<path class="st11" d="M378.2,10.3h-0.4V9.9h0.4V10.3 M376.6,4.2c0,0,0.1-0.1,0.3-0.3s0.5-0.3,1.1-0.3c0.5,0,1,0.2,1.3,0.5
			c0.4,0.4,0.5,0.8,0.5,1.3s-0.1,0.8-0.3,1.1S379.1,6.9,379,7l-0.1,0.1c-0.2,0.2-0.4,0.4-0.5,0.5c-0.2,0.2-0.3,0.5-0.3,0.8V9h-0.4
			V8.4c0-0.4,0.1-0.8,0.3-1c0.2-0.2,0.4-0.4,0.5-0.5l0,0c0.3-0.2,0.4-0.4,0.5-0.5c0.2-0.2,0.3-0.5,0.3-0.7s0-0.4-0.1-0.6
			s-0.2-0.4-0.4-0.6s-0.5-0.3-0.9-0.3s-0.7,0.1-1,0.4s-0.4,0.6-0.4,1h-0.4C376.1,5,376.3,4.6,376.6,4.2z"/>
	</g>
	<g>
		<path class="st11" d="M351.2,9v0.5h-1.9c0,0.1,0,0.2-0.1,0.4s-0.1,0.2-0.2,0.3s-0.2,0.2-0.3,0.2c-0.1,0-0.2,0.1-0.4,0.1
			c-0.1,0-0.2,0-0.4-0.1c-0.1,0-0.2-0.1-0.3-0.2s-0.2-0.2-0.2-0.3s-0.1-0.2-0.1-0.4h-1.9V9h0.5V6.2c0-0.2,0-0.4,0.1-0.6
			s0.1-0.4,0.2-0.6s0.2-0.3,0.4-0.5c0.1-0.1,0.3-0.3,0.5-0.4s0.4-0.2,0.6-0.2s0.4-0.1,0.6-0.1s0.4,0,0.6,0.1s0.4,0.1,0.6,0.2
			c0.2,0.1,0.3,0.2,0.5,0.4c0.1,0.1,0.3,0.3,0.4,0.5s0.2,0.4,0.2,0.6c0.1,0.2,0.1,0.4,0.1,0.6V9H351.2 M350.3,9V6.2
			c0-0.3,0-0.5-0.1-0.7s-0.2-0.4-0.4-0.6c-0.2-0.2-0.4-0.3-0.6-0.4s-0.5-0.1-0.7-0.1s-0.5,0-0.7,0.1s-0.4,0.2-0.6,0.4
			c-0.2,0.2-0.3,0.4-0.4,0.6s-0.1,0.5-0.1,0.7V9H350.3 M348.4,9.9c0.1,0,0.1,0,0.2,0s0.1-0.1,0.1-0.1l0.1-0.1c0-0.1,0-0.1,0-0.2
			h-0.9c0,0.1,0,0.1,0,0.2c0,0.1,0.1,0.1,0.1,0.1l0.1,0.1C348.1,9.9,348.3,9.9,348.4,9.9z"/>
	</g>
</g>
</svg>
